<svg xmlns="http://www.w3.org/2000/svg" xmlns:xlink="http://www.w3.org/1999/xlink" viewBox="0 0 450 450"><defs><style>.cls-1{fill:none;}.cls-2{fill:#dad9e8;}.cls-3{fill:#b7b6e3;}.cls-4{fill:#919dd6;}.cls-5{fill:#1393f2;}.cls-6{fill:#ebebf1;}.cls-7{isolation:isolate;}.cls-15,.cls-8{fill:#c4c3ec;}.cls-14,.cls-8{opacity:0.39;}.cls-9{opacity:0.9;}.cls-10{fill:#2559b4;}.cls-11{fill:#f3d249;}.cls-12{fill:#05d4f5;}.cls-13{fill:#f5d622;}.cls-16{fill:#d8d5ee;}.cls-17{fill:#e4e3ee;}.cls-18{fill:#848487;}.cls-19{clip-path:url(#clip-path);}.cls-20{fill:#858588;}.cls-21{clip-path:url(#clip-path-2);}.cls-22{clip-path:url(#clip-path-3);}.cls-23{clip-path:url(#clip-path-4);}.cls-24{clip-path:url(#clip-path-5);}.cls-25{clip-path:url(#clip-path-6);}.cls-26{clip-path:url(#clip-path-7);}.cls-27{clip-path:url(#clip-path-8);}.cls-28{clip-path:url(#clip-path-9);}.cls-29{clip-path:url(#clip-path-10);}.cls-30{clip-path:url(#clip-path-11);}.cls-31{clip-path:url(#clip-path-12);}.cls-32{clip-path:url(#clip-path-13);}.cls-33{clip-path:url(#clip-path-14);}.cls-34{clip-path:url(#clip-path-15);}.cls-35{clip-path:url(#clip-path-16);}.cls-36{clip-path:url(#clip-path-17);}.cls-37{clip-path:url(#clip-path-18);}.cls-38{clip-path:url(#clip-path-19);}.cls-39{fill:#042f8f;}.cls-40{fill:#02196a;}.cls-41{clip-path:url(#clip-path-20);}.cls-42{clip-path:url(#clip-path-21);}.cls-43{clip-path:url(#clip-path-22);}.cls-44{fill:url(#New_Gradient_Swatch_copy_3);}.cls-45{opacity:0.3;mix-blend-mode:multiply;}.cls-46{fill:#4a2680;}.cls-47{fill:#01084e;}.cls-48{fill:#11449b;}.cls-49{fill:#336fd6;}.cls-50{fill:#fff;}.cls-51{fill:#f4413c;}.cls-52{fill:#f5554f;}.cls-53{fill:#f5bfa6;}.cls-54{fill:#e9a27f;}.cls-55{clip-path:url(#clip-path-23);}.cls-56{clip-path:url(#clip-path-24);}.cls-57{clip-path:url(#clip-path-25);}.cls-58{clip-path:url(#clip-path-26);}.cls-59{clip-path:url(#clip-path-27);}.cls-60{clip-path:url(#clip-path-28);}.cls-61{clip-path:url(#clip-path-29);}.cls-62{fill:#db3029;}.cls-63{fill:#ea533e;}.cls-64{clip-path:url(#clip-path-30);}.cls-65{fill:#78819c;}.cls-66{clip-path:url(#clip-path-31);}.cls-67{clip-path:url(#clip-path-32);}.cls-68{clip-path:url(#clip-path-33);}.cls-69{clip-path:url(#clip-path-34);}.cls-70{fill:#171c29;}.cls-71{clip-path:url(#clip-path-35);}.cls-72{clip-path:url(#clip-path-36);}.cls-73{clip-path:url(#clip-path-37);}</style><clipPath id="clip-path"><path class="cls-1" d="M87.26,315.23V320c0-1.52-1-3-3-4.19a16.07,16.07,0,0,0-14.56,0c-2,1.17-3,2.69-3,4.21v-4.74c0-1.52,1-3,3-4.21a16.1,16.1,0,0,1,14.56,0C86.27,312.19,87.27,313.71,87.26,315.23Z"/></clipPath><clipPath id="clip-path-2"><path class="cls-1" d="M58.41,320.87l0,4.73a10,10,0,0,1-1.7-2.58v-4.74A9.84,9.84,0,0,0,58.41,320.87Z"/></clipPath><clipPath id="clip-path-3"><path class="cls-1" d="M97,318.73l0,4.73a9.91,9.91,0,0,1-1.68,2.31V321A10.4,10.4,0,0,0,97,318.73Z"/></clipPath><clipPath id="clip-path-4"><path class="cls-1" d="M70.92,326.82v4.74a29.71,29.71,0,0,1-4.44-1.1v-4.74A30.33,30.33,0,0,0,70.92,326.82Z"/></clipPath><clipPath id="clip-path-5"><path class="cls-1" d="M87,325.82l0,4.74a30.56,30.56,0,0,1-4.39,1l0-4.74A29.58,29.58,0,0,0,87,325.82Z"/></clipPath><clipPath id="clip-path-6"><path class="cls-1" d="M125.42,340.21v3.41a3.65,3.65,0,0,0-2.15-3,11.58,11.58,0,0,0-10.46,0,3.68,3.68,0,0,0-2.17,3v-3.4a3.68,3.68,0,0,1,2.17-3,11.58,11.58,0,0,1,10.46,0A3.67,3.67,0,0,1,125.42,340.21Z"/></clipPath><clipPath id="clip-path-7"><path class="cls-1" d="M104.71,344.26v3.4a7,7,0,0,1-1.23-1.86v-3.4A7,7,0,0,0,104.71,344.26Z"/></clipPath><clipPath id="clip-path-8"><path class="cls-1" d="M132.39,342.72v3.4a7.39,7.39,0,0,1-1.21,1.66v-3.4A7.62,7.62,0,0,0,132.39,342.72Z"/></clipPath><clipPath id="clip-path-9"><path class="cls-1" d="M113.69,348.53v3.41a20.67,20.67,0,0,1-3.19-.8v-3.4A20.66,20.66,0,0,0,113.69,348.53Z"/></clipPath><clipPath id="clip-path-10"><path class="cls-1" d="M125.23,347.82v3.4a21.57,21.57,0,0,1-3.15.74v-3.4A21.57,21.57,0,0,0,125.23,347.82Z"/></clipPath><clipPath id="clip-path-11"><path class="cls-1" d="M72.57,350.08v3.22a5.08,5.08,0,0,1-.92-1.39v-3.22A5.44,5.44,0,0,0,72.57,350.08Z"/></clipPath><clipPath id="clip-path-12"><path class="cls-1" d="M93.32,348.93v3.22a5.14,5.14,0,0,1-.9,1.24v-3.22A5.56,5.56,0,0,0,93.32,348.93Z"/></clipPath><clipPath id="clip-path-13"><path class="cls-1" d="M79.31,353.28v3.23a16.38,16.38,0,0,1-2.39-.6v-3.22A15.18,15.18,0,0,0,79.31,353.28Z"/></clipPath><clipPath id="clip-path-14"><path class="cls-1" d="M88,352.74V356a17.66,17.66,0,0,1-2.36.56V353.3A16.24,16.24,0,0,0,88,352.74Z"/></clipPath><clipPath id="clip-path-15"><path class="cls-1" d="M174.86,223.59l0,5.77c0-2.15-1.41-4.3-4.24-5.93-5.67-3.28-14.88-3.27-20.59,0-2.85,1.65-4.27,3.8-4.28,6l0-5.77c0-2.16,1.43-4.31,4.28-6,5.7-3.29,14.91-3.3,20.59,0C173.45,219.3,174.86,221.44,174.86,223.59Z"/></clipPath><clipPath id="clip-path-16"><path class="cls-1" d="M140.78,229.64v5.77a10.18,10.18,0,0,1-1.85-2.81v-5.77A10.66,10.66,0,0,0,140.78,229.64Z"/></clipPath><clipPath id="clip-path-17"><path class="cls-1" d="M182.56,227.32v5.77a11.25,11.25,0,0,1-1.83,2.5v-5.76A11.21,11.21,0,0,0,182.56,227.32Z"/></clipPath><clipPath id="clip-path-18"><path class="cls-1" d="M154.34,236.09l0,5.77a32.51,32.51,0,0,1-4.81-1.19l0-5.77A32.2,32.2,0,0,0,154.34,236.09Z"/></clipPath><clipPath id="clip-path-19"><path class="cls-1" d="M171.76,235v5.77A33.18,33.18,0,0,1,167,241.9l0-5.77A33,33,0,0,0,171.76,235Z"/></clipPath><clipPath id="clip-path-20"><path class="cls-2" d="M132.14,57.6l5.32-3.06a3.17,3.17,0,0,1,3.19.32l-5.32,3.06A3.17,3.17,0,0,0,132.14,57.6Z"/></clipPath><clipPath id="clip-path-21"><path class="cls-3" d="M334,299,328.67,302a3.13,3.13,0,0,0,1.3-2.87l5.33-3.06A3.13,3.13,0,0,1,334,299Z"/></clipPath><clipPath id="clip-path-22"><path class="cls-2" d="M325.87,167.93l5.32-3.06a9.83,9.83,0,0,1,4.46,7.71l-5.33,3.06A9.79,9.79,0,0,0,325.87,167.93Z"/></clipPath><linearGradient id="New_Gradient_Swatch_copy_3" x1="254.8" y1="99.41" x2="220.72" y2="214.74" gradientUnits="userSpaceOnUse"><stop offset="0" stop-color="#4baae3"/><stop offset="0.19" stop-color="#46a1e2"/><stop offset="0.5" stop-color="#3789e1"/><stop offset="0.89" stop-color="#2063de"/><stop offset="1" stop-color="#1856dd"/></linearGradient><clipPath id="clip-path-23"><path class="cls-4" d="M137.62,309.81v3.52a1.49,1.49,0,0,0-.87-1.21V308.6A1.48,1.48,0,0,1,137.62,309.81Z"/></clipPath><clipPath id="clip-path-24"><path class="cls-4" d="M147.17,312v3.53a6.55,6.55,0,0,1-1.27,3.79v-3.52A6.61,6.61,0,0,0,147.17,312Z"/></clipPath><clipPath id="clip-path-25"><path class="cls-4" d="M111.77,315.38v-3.52c0,2.64,1.74,5.28,5.23,7.3,5.19,3,12.79,3.75,19.17,2.25v3.53c-6.38,1.5-14,.74-19.17-2.26C113.51,320.67,111.77,318,111.77,315.38Z"/></clipPath><clipPath id="clip-path-26"><path class="cls-4" d="M207.32,349.81v3.52a4.47,4.47,0,0,0-4.06,0V349.8A4.5,4.5,0,0,1,207.32,349.81Z"/></clipPath><clipPath id="clip-path-27"><path class="cls-4" d="M194.79,358.93V355.4a1.42,1.42,0,0,1,.83-1.16v3.52A1.43,1.43,0,0,0,194.79,358.93Z"/></clipPath><clipPath id="clip-path-28"><path class="cls-4" d="M219.7,353.55v3.52a6.46,6.46,0,0,1-.76,3v-3.52A6.46,6.46,0,0,0,219.7,353.55Z"/></clipPath><clipPath id="clip-path-29"><path class="cls-4" d="M184.31,357v-3.52c0,2.63,1.73,5.28,5.22,7.29,4.81,2.78,11.67,3.62,17.73,2.55v3.52c-6.06,1.08-12.92.23-17.73-2.55C186,362.26,184.3,359.62,184.31,357Z"/></clipPath><clipPath id="clip-path-30"><path class="cls-5" d="M117.68,173.82l-3.59,2.09a1,1,0,0,1,1,.09l3.59-2.09A1,1,0,0,0,117.68,173.82Z"/></clipPath><clipPath id="clip-path-31"><path class="cls-3" d="M183.18,145.71l-3-1.77c.73.42,1.91-.15,2.73-1.37l3,1.78C185.1,145.56,183.91,146.14,183.18,145.71Z"/></clipPath><clipPath id="clip-path-32"><path class="cls-3" d="M125.14,226.9l-3-1.77a1.83,1.83,0,0,1-.36-.26c-1.71-1.47-1.37-5.22.75-8.37l3,1.77c-2.13,3.15-2.47,6.9-.76,8.38A2.31,2.31,0,0,0,125.14,226.9Z"/></clipPath><clipPath id="clip-path-33"><path class="cls-3" d="M174.7,133.67l-3-1.77c3.77-5.6,8.76-9,12.92-9.27l3,1.77C183.46,124.69,178.48,128.07,174.7,133.67Z"/></clipPath><clipPath id="clip-path-34"><path class="cls-3" d="M170.53,151.56l-3-1.77c-1.47-4.68,0-11.73,4.17-17.89l3,1.77C170.54,139.83,169.06,146.88,170.53,151.56Z"/></clipPath><clipPath id="clip-path-35"><path class="cls-6" d="M263.79,148.34,268,150.8c-1.8-1-4.29-.9-7,.69L256.74,149C259.49,147.44,262,147.29,263.79,148.34Z"/></clipPath><clipPath id="clip-path-36"><path class="cls-6" d="M254,175l-4.24-2.46c-1.78-1-2.88-3.23-2.89-6.36,0-6.29,4.4-13.95,9.88-17.11l4.24,2.46c-5.47,3.16-9.9,10.83-9.88,17.12C251.11,171.73,252.21,173.93,254,175Z"/></clipPath><clipPath id="clip-path-37"><path class="cls-6" d="M262,155.64l-1-4.15c5.48-3.16,9.93-.62,9.95,5.67s-4.41,14-9.88,17.11-9.93.63-10-5.66,4.41-14,9.88-17.12l1,4.15a15,15,0,0,0-6.78,11.73c0,4.31,3.07,6.06,6.82,3.89a14.92,14.92,0,0,0,6.77-11.73C268.77,155.22,265.72,153.47,262,155.64Z"/></clipPath></defs><g class="cls-7"><g id="Layer_1" data-name="Layer 1"><polygon class="cls-8" points="398.81 129.69 255.98 47.23 255.98 153.34 398.81 235.8 398.81 129.69"/><polygon class="cls-3" points="398.81 129.69 255.98 47.23 255.98 63.94 398.81 146.41 398.81 129.69"/><g class="cls-9"><polygon class="cls-3" points="364.22 148.18 386.78 161.21 386.78 154.74 364.22 141.71 364.22 148.18"/><polygon class="cls-3" points="272.65 88.84 280.58 93.43 280.58 99.9 272.65 95.32 272.65 88.84"/><polygon class="cls-3" points="311.85 117.95 328.15 127.36 328.15 120.89 311.85 111.48 311.85 117.95"/><polygon class="cls-3" points="281.65 100.52 302.73 112.68 302.73 106.21 281.65 94.05 281.65 100.52"/><polygon class="cls-10" points="303.9 113.36 310.4 117.11 310.4 110.64 303.9 106.89 303.9 113.36"/><polygon class="cls-11" points="329.5 128.14 363.04 147.5 363.04 141.03 329.5 121.67 329.5 128.14"/><polygon class="cls-3" points="262.39 153.12 293.84 171.28 293.84 164.81 262.39 146.65 262.39 153.12"/><polygon class="cls-3" points="325.1 189.33 341.41 198.74 341.41 192.27 325.1 182.86 325.1 189.33"/><polygon class="cls-3" points="294.91 171.89 315.98 184.06 315.98 177.59 294.91 165.42 294.91 171.89"/><polygon class="cls-10" points="317.15 184.74 323.66 188.49 323.66 182.02 317.15 178.27 317.15 184.74"/><polygon class="cls-12" points="342.75 199.52 376.29 218.88 376.29 212.41 342.75 193.05 342.75 199.52"/><polygon class="cls-12" points="367 140.69 395.18 156.95 395.18 150.48 367 134.22 367 140.69"/><polygon class="cls-3" points="333.85 121.55 364.71 139.36 364.71 132.89 333.85 115.08 333.85 121.55"/><polygon class="cls-3" points="265.67 82.18 296.52 99.99 296.52 93.52 265.67 75.71 265.67 82.18"/><polygon class="cls-10" points="310.1 107.84 332.33 120.67 332.33 114.2 310.1 101.37 310.1 107.84"/><polygon class="cls-12" points="297.92 100.8 308.89 107.14 308.89 100.67 297.92 94.33 297.92 100.8"/><polygon class="cls-12" points="367 195.09 395.17 211.36 395.17 204.89 367 188.63 367 195.09"/><polygon class="cls-3" points="261.4 128.09 288.13 143.52 288.13 149.99 261.4 134.56 261.4 128.09"/><polygon class="cls-3" points="313.08 163.97 332.95 175.44 332.95 168.97 313.08 157.5 313.08 163.97"/><polygon class="cls-10" points="303.9 158.66 310.4 162.42 310.4 155.95 303.9 152.19 303.9 158.66"/><polygon class="cls-11" points="334.56 176.37 365.41 194.18 365.41 187.71 334.56 169.9 334.56 176.37"/><polygon class="cls-12" points="290.79 151.53 301.77 157.86 301.77 151.39 290.79 145.06 290.79 151.53"/><polygon class="cls-12" points="367 167.98 395.17 184.24 395.17 177.77 367 161.51 367 167.98"/><polygon class="cls-3" points="330.2 146.73 365.41 167.06 365.41 160.59 330.2 140.26 330.2 146.73"/><polygon class="cls-3" points="265.66 109.52 296.52 127.33 296.52 120.86 265.66 103.04 265.66 109.52"/><polygon class="cls-12" points="310.1 135.17 328.58 145.84 328.58 139.37 310.1 128.7 310.1 135.17"/><polygon class="cls-3" points="297.92 128.14 308.89 134.47 308.89 128 297.92 121.67 297.92 128.14"/><polygon class="cls-10" points="355.93 152.5 386.78 170.31 386.78 163.84 355.93 146.03 355.93 152.5"/><polygon class="cls-11" points="301.47 121.06 332.33 138.88 332.33 132.41 301.47 114.59 301.47 121.06"/><polygon class="cls-3" points="334 139.84 353.87 151.31 353.87 144.84 334 133.37 334 139.84"/><polygon class="cls-10" points="282.29 109.99 293.26 116.32 293.26 109.85 282.29 103.52 282.29 109.99"/><polygon class="cls-3" points="355.93 198.02 386.78 215.83 386.78 209.36 355.93 191.55 355.93 198.02"/><polygon class="cls-3" points="297.92 164.53 327.36 181.53 327.36 175.06 297.92 158.06 297.92 164.53"/><polygon class="cls-10" points="328.58 182.23 354.93 197.44 354.93 190.97 328.58 175.76 328.58 182.23"/><polygon class="cls-13" points="282.29 155.5 297.08 164.05 297.08 157.57 282.29 149.03 282.29 155.5"/><polygon class="cls-11" points="373.67 180.95 386.78 188.52 386.78 182.05 373.67 174.48 373.67 180.95"/><polygon class="cls-3" points="311.7 145.18 343.02 163.25 343.02 156.78 311.7 138.71 311.7 145.18"/><polygon class="cls-3" points="344.23 163.95 372.25 180.13 372.25 173.66 344.23 157.48 344.23 163.95"/><polygon class="cls-12" points="298.32 137.45 309.3 143.79 309.3 137.32 298.32 130.98 298.32 137.45"/><polygon class="cls-11" points="357.18 180.54 376.91 191.93 376.91 185.46 357.18 174.07 357.18 180.54"/><polygon class="cls-3" points="302.1 148.74 355.7 179.68 355.7 173.21 302.1 142.26 302.1 148.74"/><polygon class="cls-11" points="284.01 138.29 300.76 147.96 300.76 141.49 284.01 131.82 284.01 138.29"/></g><g class="cls-14"><polygon class="cls-15" points="84.62 105.17 84.51 132.9 119.08 152.92 119.19 125.19 84.62 105.17"/></g><path class="cls-12" d="M86.6,117.9l8.75,1.55V124L91,122.69l4.32,3.92v4.57l-8.75-8.7Z"/><path class="cls-12" d="M102.81,118.26l4.64,2.68-6.55,18.89-4.64-2.68Z"/><path class="cls-12" d="M108.36,134.12l4.31,1.06-4.31-3.64V127l8.74,8.55v4.57l-8.74-1.38Z"/><g class="cls-14"><polygon class="cls-15" points="100.16 77.88 100.07 106.33 125.3 120.94 125.38 92.49 100.16 77.88"/></g><path class="cls-12" d="M111.39,93.45,114,95l.73-4,2.92,1.69-.73,4,1.62,1v3l-2.12-1.23-.53,2.89,2.65,1.54v3l-3.14-1.83-.73,4-2.92-1.69.74-4-2.6-1.51-.73,4L106.23,104l.73-4-1.62-.94v-3l2.12,1.23.53-2.89-2.65-1.54v-3l3.14,1.82.73-4,2.92,1.69Zm-1,5.59,2.6,1.51.53-2.89-2.6-1.51Z"/><polygon class="cls-16" points="174.61 255.7 129.86 281.53 66.85 245.15 111.6 219.32 174.61 255.7"/><polygon class="cls-17" points="165.9 272.04 132.62 303.12 56.83 276.06 90.11 244.99 165.9 272.04"/><g class="cls-7"><polygon class="cls-18" points="83.51 300.16 83.49 304.9 83.44 308.49 83.45 303.75 83.51 300.16"/><polygon class="cls-4" points="59.02 309.09 59.01 313.83 55 311.49 55.01 306.75 59.02 309.09"/><polygon class="cls-3" points="99.93 307.11 99.92 311.85 95.5 314.36 95.51 309.62 99.93 307.11"/><g class="cls-7"><g class="cls-19"><g class="cls-7"><path class="cls-15" d="M87.26,315.23V320c0-1.52-1-3-3-4.19a16.07,16.07,0,0,0-14.56,0c-2,1.17-3,2.69-3,4.21v-4.74c0-1.52,1-3,3-4.21a16.1,16.1,0,0,1,14.56,0C86.27,312.19,87.27,313.71,87.26,315.23Z"/></g></g></g><polygon class="cls-4" points="56.7 318.28 56.69 323.02 51.19 323.01 51.2 318.27 56.7 318.28"/><polygon class="cls-4" points="102.96 318.75 102.95 323.49 96.95 323.46 96.97 318.73 102.96 318.75"/><polygon class="cls-20" points="103.09 312 103.08 316.74 102.95 323.49 102.96 318.75 103.09 312"/><g class="cls-7"><g class="cls-21"><g class="cls-7"><path class="cls-15" d="M58.41,320.87l0,4.73a10,10,0,0,1-1.7-2.58v-4.74A9.84,9.84,0,0,0,58.41,320.87Z"/></g></g></g><g class="cls-7"><g class="cls-22"><g class="cls-7"><path class="cls-15" d="M97,318.73l0,4.73a9.91,9.91,0,0,1-1.68,2.31V321A10.4,10.4,0,0,0,97,318.73Z"/></g></g></g><g class="cls-7"><g class="cls-23"><g class="cls-7"><path class="cls-15" d="M70.92,326.82v4.74a29.71,29.71,0,0,1-4.44-1.1v-4.74A30.33,30.33,0,0,0,70.92,326.82Z"/></g></g></g><g class="cls-7"><g class="cls-24"><g class="cls-7"><path class="cls-15" d="M87,325.82l0,4.74a30.56,30.56,0,0,1-4.39,1l0-4.74A29.58,29.58,0,0,0,87,325.82Z"/></g></g></g><polygon class="cls-4" points="62.64 327.93 62.62 332.67 54.4 327.9 54.41 323.16 62.64 327.93"/><polygon class="cls-3" points="66.48 325.72 66.47 330.46 62.62 332.67 62.64 327.93 66.48 325.72"/><polygon class="cls-3" points="99.34 323.38 99.32 328.12 91.04 332.9 91.05 328.16 99.34 323.38"/><polygon class="cls-4" points="91.05 328.16 91.04 332.9 86.98 330.56 87 325.82 91.05 328.16"/><polygon class="cls-18" points="82.61 326.86 82.59 331.6 82.58 334.79 82.59 330.05 82.61 326.86"/><path class="cls-2" d="M91.05,328.16l-4-2.34a29.58,29.58,0,0,1-4.39,1l0,3.19H70.9l0-3.24a30.33,30.33,0,0,1-4.44-1.1l-3.84,2.21-8.23-4.77,4-2.29a9.84,9.84,0,0,1-1.71-2.59H51.2l.08-6.75H57.1A10.88,10.88,0,0,1,59,309.09l-4-2.34L63.34,302l4.25,2.49a30.14,30.14,0,0,1,4.18-.91l0-3.44,11.69,0-.06,3.59a29.71,29.71,0,0,1,4,1l4.32-2.45,8.18,4.8-4.42,2.51A10,10,0,0,1,97.13,312l6,0-.13,6.75-6,0A10.4,10.4,0,0,1,95.28,321l4.06,2.34Zm-21.37-8.7a16.08,16.08,0,0,0,14.55,0c4-2.33,4-6.09,0-8.4a16.1,16.1,0,0,0-14.56,0C65.68,313.38,65.66,317.14,69.68,319.46Z"/><polygon class="cls-4" points="82.59 330.05 82.58 334.79 70.89 334.79 70.9 330.06 82.59 330.05"/></g><g class="cls-7"><polygon class="cls-18" points="122.72 329.4 122.71 332.8 122.67 335.37 122.69 331.97 122.72 329.4"/><polygon class="cls-4" points="105.15 335.81 105.14 339.21 102.26 337.53 102.27 334.13 105.15 335.81"/><polygon class="cls-3" points="134.51 334.38 134.5 337.78 131.33 339.59 131.34 336.19 134.51 334.38"/><g class="cls-7"><g class="cls-25"><g class="cls-7"><path class="cls-15" d="M125.42,340.21v3.41a3.65,3.65,0,0,0-2.15-3,11.58,11.58,0,0,0-10.46,0,3.68,3.68,0,0,0-2.17,3v-3.4a3.68,3.68,0,0,1,2.17-3,11.58,11.58,0,0,1,10.46,0A3.67,3.67,0,0,1,125.42,340.21Z"/></g></g></g><polygon class="cls-4" points="103.48 342.4 103.47 345.8 99.53 345.8 99.53 342.4 103.48 342.4"/><polygon class="cls-4" points="136.69 342.74 136.68 346.14 132.38 346.12 132.39 342.72 136.69 342.74"/><polygon class="cls-20" points="136.78 337.9 136.77 341.3 136.68 346.14 136.69 342.74 136.78 337.9"/><g class="cls-7"><g class="cls-26"><g class="cls-7"><path class="cls-15" d="M104.71,344.26v3.4a7,7,0,0,1-1.23-1.86v-3.4A7,7,0,0,0,104.71,344.26Z"/></g></g></g><g class="cls-7"><g class="cls-27"><g class="cls-7"><path class="cls-15" d="M132.39,342.72v3.4a7.39,7.39,0,0,1-1.21,1.66v-3.4A7.62,7.62,0,0,0,132.39,342.72Z"/></g></g></g><g class="cls-7"><g class="cls-28"><g class="cls-7"><path class="cls-15" d="M113.69,348.53v3.41a20.67,20.67,0,0,1-3.19-.8v-3.4A20.66,20.66,0,0,0,113.69,348.53Z"/></g></g></g><g class="cls-7"><g class="cls-29"><g class="cls-7"><path class="cls-15" d="M125.23,347.82v3.4a21.57,21.57,0,0,1-3.15.74v-3.4A21.57,21.57,0,0,0,125.23,347.82Z"/></g></g></g><polygon class="cls-4" points="107.74 349.33 107.73 352.73 101.83 349.31 101.84 345.9 107.74 349.33"/><polygon class="cls-3" points="110.5 347.74 110.49 351.14 107.73 352.73 107.74 349.33 110.5 347.74"/><polygon class="cls-3" points="134.09 346.06 134.08 349.46 128.13 352.9 128.14 349.5 134.09 346.06"/><polygon class="cls-4" points="128.14 349.5 128.13 352.9 125.22 351.22 125.23 347.82 128.14 349.5"/><polygon class="cls-18" points="122.08 348.56 122.07 351.96 122.05 354.25 122.06 350.85 122.08 348.56"/><path class="cls-2" d="M128.14,349.5l-2.91-1.68a21.57,21.57,0,0,1-3.15.74l0,2.29h-8.39l0-2.33a20.66,20.66,0,0,1-3.19-.79l-2.76,1.59-5.9-3.43,2.87-1.64a7,7,0,0,1-1.23-1.86h-4l.06-4.85h4.17a7.91,7.91,0,0,1,1.39-1.75l-2.88-1.68,6-3.42,3,1.78a23.8,23.8,0,0,1,3-.65l0-2.46,8.39,0,0,2.57a21.62,21.62,0,0,1,2.85.73l3.1-1.76,5.87,3.44-3.17,1.8a7.14,7.14,0,0,1,1.16,1.7l4.28,0-.09,4.84-4.3,0a7.62,7.62,0,0,1-1.21,1.66l2.91,1.68Zm-15.35-6.25a11.56,11.56,0,0,0,10.45,0c2.9-1.67,2.9-4.37,0-6a11.58,11.58,0,0,0-10.46,0C109.92,338.89,109.91,341.59,112.79,343.25Z"/><polygon class="cls-4" points="122.06 350.85 122.05 354.25 113.66 354.26 113.67 350.86 122.06 350.85"/></g><g class="cls-7"><polygon class="cls-18" points="86.08 338.94 86.07 342.16 86.04 344.09 86.05 340.87 86.08 338.94"/><polygon class="cls-4" points="72.91 343.74 72.9 346.96 70.74 345.71 70.75 342.48 72.91 343.74"/><polygon class="cls-3" points="94.92 342.68 94.91 345.9 92.53 347.25 92.54 344.03 94.92 342.68"/><polygon class="cls-4" points="71.66 348.69 71.65 351.91 68.69 351.9 68.7 348.68 71.66 348.69"/><polygon class="cls-4" points="96.55 348.94 96.54 352.17 93.31 352.15 93.32 348.93 96.55 348.94"/><polygon class="cls-20" points="96.62 345.31 96.61 348.53 96.54 352.17 96.55 348.94 96.62 345.31"/><g class="cls-7"><g class="cls-30"><g class="cls-7"><path class="cls-15" d="M72.57,350.08v3.22a5.08,5.08,0,0,1-.92-1.39v-3.22A5.44,5.44,0,0,0,72.57,350.08Z"/></g></g></g><g class="cls-7"><g class="cls-31"><g class="cls-7"><path class="cls-15" d="M93.32,348.93v3.22a5.14,5.14,0,0,1-.9,1.24v-3.22A5.56,5.56,0,0,0,93.32,348.93Z"/></g></g></g><g class="cls-7"><g class="cls-32"><g class="cls-7"><path class="cls-15" d="M79.31,353.28v3.23a16.38,16.38,0,0,1-2.39-.6v-3.22A15.18,15.18,0,0,0,79.31,353.28Z"/></g></g></g><g class="cls-7"><g class="cls-33"><g class="cls-7"><path class="cls-15" d="M88,352.74V356a17.66,17.66,0,0,1-2.36.56V353.3A16.24,16.24,0,0,0,88,352.74Z"/></g></g></g><polygon class="cls-3" points="76.92 352.69 76.91 355.91 74.84 357.1 74.85 353.88 76.92 352.69"/><polygon class="cls-4" points="74.85 353.88 74.84 357.1 70.42 354.54 70.43 351.31 74.85 353.88"/><polygon class="cls-3" points="94.6 351.43 94.59 354.65 90.13 357.23 90.14 354 94.6 351.43"/><polygon class="cls-4" points="90.14 354 90.13 357.23 87.95 355.97 87.96 352.74 90.14 354"/><polygon class="cls-18" points="85.6 353.3 85.59 356.53 85.58 358.24 85.59 355.02 85.6 353.3"/><path class="cls-2" d="M90.52,340.09l4.4,2.59L92.54,344a5.13,5.13,0,0,1,.87,1.27h3.21l-.07,3.63H93.32a5.56,5.56,0,0,1-.9,1.24l2.18,1.26L90.14,354,88,352.74a16.24,16.24,0,0,1-2.36.56V355H79.3v-1.74a15.18,15.18,0,0,1-2.39-.59l-2.07,1.19-4.42-2.57,2.14-1.23a5.44,5.44,0,0,1-.91-1.39h-3l0-3.63h3.13a5.69,5.69,0,0,1,1-1.32l-2.16-1.26,4.48-2.56,2.29,1.34a18.18,18.18,0,0,1,2.24-.49l0-1.85,6.29,0,0,1.93a15.94,15.94,0,0,1,2.14.54Z"/><polygon class="cls-4" points="85.59 355.02 85.58 358.24 79.29 358.25 79.3 355.02 85.59 355.02"/></g><g class="cls-7"><polygon class="cls-18" points="167.98 207.21 167.96 212.98 167.9 216.86 167.92 211.09 167.98 207.21"/><polygon class="cls-4" points="141.45 216.88 141.43 222.65 137.09 220.11 137.11 214.34 141.45 216.88"/><polygon class="cls-3" points="185.77 214.74 185.76 220.5 180.97 223.22 180.99 217.45 185.77 214.74"/><g class="cls-7"><g class="cls-34"><g class="cls-7"><path class="cls-15" d="M174.86,223.59l0,5.77c0-2.15-1.41-4.3-4.24-5.93-5.67-3.28-14.88-3.27-20.59,0-2.85,1.65-4.27,3.8-4.28,6l0-5.77c0-2.16,1.43-4.31,4.28-6,5.7-3.29,14.91-3.3,20.59,0C173.45,219.3,174.86,221.44,174.86,223.59Z"/></g></g></g><polygon class="cls-4" points="138.93 226.83 138.92 232.6 132.96 232.6 132.98 226.83 138.93 226.83"/><polygon class="cls-4" points="189.05 227.35 189.04 233.12 182.55 233.09 182.56 227.32 189.05 227.35"/><polygon class="cls-20" points="189.2 220.04 189.19 225.81 189.04 233.12 189.05 227.35 189.2 220.04"/><g class="cls-7"><g class="cls-35"><g class="cls-7"><path class="cls-15" d="M140.78,229.64v5.77a10.18,10.18,0,0,1-1.85-2.81v-5.77A10.66,10.66,0,0,0,140.78,229.64Z"/></g></g></g><g class="cls-7"><g class="cls-36"><g class="cls-7"><path class="cls-15" d="M182.56,227.32v5.77a11.25,11.25,0,0,1-1.83,2.5v-5.76A11.21,11.21,0,0,0,182.56,227.32Z"/></g></g></g><g class="cls-7"><g class="cls-37"><g class="cls-7"><path class="cls-15" d="M154.34,236.09l0,5.77a32.51,32.51,0,0,1-4.81-1.19l0-5.77A32.2,32.2,0,0,0,154.34,236.09Z"/></g></g></g><g class="cls-7"><g class="cls-38"><g class="cls-7"><path class="cls-15" d="M171.76,235v5.77A33.18,33.18,0,0,1,167,241.9l0-5.77A33,33,0,0,0,171.76,235Z"/></g></g></g><polygon class="cls-4" points="145.36 237.29 145.35 243.06 136.44 237.89 136.46 232.12 145.36 237.29"/><polygon class="cls-3" points="149.53 234.9 149.51 240.67 145.35 243.06 145.36 237.29 149.53 234.9"/><polygon class="cls-3" points="185.13 232.36 185.11 238.13 176.14 243.31 176.16 237.54 185.13 232.36"/><polygon class="cls-4" points="176.16 237.54 176.14 243.31 171.75 240.77 171.76 235 176.16 237.54"/><polygon class="cls-18" points="167 236.13 166.98 241.9 166.96 245.35 166.98 239.58 167 236.13"/><path class="cls-2" d="M176.16,237.54l-4.4-2.54a33,33,0,0,1-4.76,1.13l0,3.45H154.32l0-3.5a32.2,32.2,0,0,1-4.81-1.19l-4.17,2.39-8.9-5.17,4.32-2.48a10.66,10.66,0,0,1-1.85-2.81h-6l.08-7.31h6.3a11.93,11.93,0,0,1,2.09-2.64l-4.34-2.54,9-5.15,4.62,2.69a36.22,36.22,0,0,1,4.52-1l.06-3.71,12.66,0-.06,3.89a33.14,33.14,0,0,1,4.31,1.09l4.68-2.65,8.86,5.2L181,217.45a10.46,10.46,0,0,1,1.74,2.56l6.47,0-.15,7.31-6.49,0a11.21,11.21,0,0,1-1.83,2.51l4.4,2.53Zm-26.17-8c5.67,3.28,14.89,3.26,20.58,0s5.72-8.61.05-11.88-14.89-3.27-20.59,0S144.31,226.3,150,229.57Z"/><polygon class="cls-4" points="166.98 239.58 166.96 245.35 154.3 245.36 154.32 239.59 166.98 239.58"/></g><polygon class="cls-17" points="176.99 249.23 175.3 249.07 175.53 248.94 177.22 249.1 176.99 249.23"/><g class="cls-7"><path class="cls-17" d="M177.22,249.1l-1.69-.16a14.44,14.44,0,0,1,1.47-.75l1.45.28A11.83,11.83,0,0,0,177.22,249.1Z"/><path class="cls-17" d="M178.45,248.47l-1.45-.28a23.3,23.3,0,0,1,12.88-1.37c20.18,3.45,37.44,9.31,51.16,17.23l-1.68.16c-13.43-7.75-30.89-13.44-50.14-16.88A19.5,19.5,0,0,0,178.45,248.47Z"/></g><path class="cls-3" d="M271.24,295.44V299c0,2.18-1.48,4.32-4.21,5.9v-3.55C269.76,299.75,271.23,297.62,271.24,295.44Z"/><path class="cls-17" d="M239.36,264.21l1.68-.16A89.81,89.81,0,0,1,257.36,276l-2.05,0A85.28,85.28,0,0,0,239.36,264.21Z"/><path class="cls-17" d="M255.31,276l2.05,0a65.19,65.19,0,0,1,13.24,17c1.57,3,.2,6.2-3.57,8.39l-1.69-1.79c3.15-1.83,4.29-4.53,3-7A68.67,68.67,0,0,0,255.31,276Z"/><polygon class="cls-3" points="267.03 301.34 267.02 304.89 266.7 305.08 266.71 301.52 267.03 301.34"/><polygon class="cls-17" points="265.34 299.55 267.03 301.34 266.71 301.52 265.02 299.73 265.34 299.55"/><path class="cls-6" d="M239.36,264.21c13.17,7.6,22.93,17.47,29,28.33,1.31,2.48.17,5.18-3,7l-.32.18c-4.9,2.85-12.56,2.62-17.12,0a8.73,8.73,0,0,1-2.65-2.28c-6.12-8.65-14.73-15.76-25.37-21.9a138.69,138.69,0,0,0-38.76-14.84,15.07,15.07,0,0,1-4-1.55c-4.55-2.63-5-7.07-.09-9.92l.23-.13a18.71,18.71,0,0,1,12-1.77C208.47,250.77,225.93,256.46,239.36,264.21Z"/><path class="cls-3" d="M266.71,301.52v3.56c-5.88,3.42-15,3.13-20.49,0a10.19,10.19,0,0,1-3.16-2.72c-6.06-8.23-14.44-15.44-24.87-21.46-10.63-6.14-23.39-11-38-14.54a18.08,18.08,0,0,1-4.81-1.84c-2.8-1.62-4.31-3.82-4.3-6v-3.56c0,2.22,1.5,4.41,4.3,6a18.08,18.08,0,0,0,4.81,1.85c14.59,3.5,27.35,8.4,38,14.54,10.43,6,18.81,13.22,24.87,21.46a10.19,10.19,0,0,0,3.16,2.72C251.67,304.65,260.83,304.94,266.71,301.52Z"/><g class="cls-7"><path class="cls-17" d="M265,299.73l1.69,1.79a16.76,16.76,0,0,1-3.78,1.59l-1.06-2.05A14.07,14.07,0,0,0,265,299.73Z"/><path class="cls-17" d="M261.87,301.06l1.06,2.05c-5.37,1.56-11.9,1-16.28-1.36l1.61-1.83A19.41,19.41,0,0,0,261.87,301.06Z"/><path class="cls-17" d="M248.26,299.92l-1.61,1.83-.43-.24a10.19,10.19,0,0,1-3.16-2.72c-6.06-8.24-14.44-15.44-24.87-21.46-1.21-.7-2.45-1.38-3.71-2.05l1.62-1.84q1.92,1,3.78,2.1c10.64,6.14,19.25,13.25,25.37,21.9a8.73,8.73,0,0,0,2.65,2.28Z"/><path class="cls-17" d="M216.1,273.44l-1.62,1.84a147.2,147.2,0,0,0-34.27-12.49,18.55,18.55,0,0,1-4.37-1.6l1.61-1.84a15.54,15.54,0,0,0,3.67,1.35A141.6,141.6,0,0,1,216.1,273.44Z"/><path class="cls-17" d="M177.45,259.35l-1.61,1.84-.44-.25c-5.44-3.14-6-8.45-.1-11.87l1.69.16c-4.91,2.85-4.46,7.29.09,9.92Z"/></g><g class="cls-7"><polygon class="cls-39" points="245.69 274.53 250.04 271.99 239.19 210.46 234.84 213 245.69 274.53"/><polygon class="cls-40" points="234.84 213 239.19 210.46 208.28 192.7 203.93 195.23 234.84 213"/><polygon class="cls-39" points="203.93 195.23 214.78 256.76 245.69 274.53 234.84 213 203.93 195.23"/></g><g class="cls-7"><path class="cls-2" d="M132.14,57.6l5.32-3.06a3.17,3.17,0,0,1,3.19.32l-5.32,3.06A3.17,3.17,0,0,0,132.14,57.6Z"/><g class="cls-41"><g class="cls-7"><path class="cls-2" d="M132.14,57.6l5.32-3.06a3.17,3.17,0,0,1,3.19.32l-5.32,3.06A3.17,3.17,0,0,0,132.14,57.6Z"/></g></g><path class="cls-3" d="M334,299,328.67,302a3.13,3.13,0,0,0,1.3-2.87l5.33-3.06A3.13,3.13,0,0,1,334,299Z"/><g class="cls-42"><g class="cls-7"><path class="cls-3" d="M330,299.15l5.33-3.06A3.13,3.13,0,0,1,334,299L328.67,302A3.13,3.13,0,0,0,330,299.15Z"/></g></g><polygon class="cls-3" points="330.32 175.64 335.65 172.58 335.3 296.09 329.97 299.15 330.32 175.64"/><polygon class="cls-2" points="135.32 57.92 140.65 54.86 331.19 164.87 325.87 167.93 135.32 57.92"/><path class="cls-2" d="M325.87,167.93l5.32-3.06a9.83,9.83,0,0,1,4.46,7.71l-5.33,3.06A9.79,9.79,0,0,0,325.87,167.93Z"/><g class="cls-43"><g class="cls-7"><path class="cls-2" d="M325.87,167.93l5.32-3.06a9.83,9.83,0,0,1,4.46,7.71l-5.33,3.06A9.79,9.79,0,0,0,325.87,167.93Z"/></g></g><path class="cls-6" d="M325.87,167.93a9.79,9.79,0,0,1,4.45,7.71L330,299.15c0,2.84-2,4-4.48,2.55L135,191.69a9.81,9.81,0,0,1-4.46-7.71l.35-123.51c0-2.83,2-4,4.49-2.55Z"/><path class="cls-2" d="M326.66,175.63l-.33,120.48V298L136.78,188.52a6.23,6.23,0,0,1-2.63-4.53l.35-122.32,1.54.89L324,171.1A6.21,6.21,0,0,1,326.66,175.63Z"/><path class="cls-44" d="M326.66,175.63l-.33,120.48-188-108.54A6.32,6.32,0,0,1,135.7,183L136,62.56,324,171.1A6.21,6.21,0,0,1,326.66,175.63Z"/></g><g class="cls-45"><polygon class="cls-46" points="188.17 288.17 170.07 278.03 157.39 288.57 188.17 288.17"/></g><g class="cls-7"><polygon class="cls-6" points="144.66 297.91 144.92 298.94 212.78 337.7 212.52 336.67 144.66 297.91"/><polygon class="cls-3" points="212.52 336.67 212.78 337.7 239.31 316.38 239.04 313.83 212.52 336.67"/><polygon class="cls-2" points="144.66 297.91 212.52 336.67 239.04 313.83 171.17 275.07 144.66 297.91"/></g><g class="cls-7"><polygon class="cls-15" points="168.68 277.77 168.85 278.45 172.48 280.52 172.31 279.84 168.68 277.77"/><polygon class="cls-3" points="172.31 279.84 172.48 280.52 174.4 278.87 174.23 278.18 172.31 279.84"/><polygon class="cls-6" points="168.68 277.77 172.31 279.84 174.23 278.18 170.61 276.11 168.68 277.77"/></g><g class="cls-7"><polygon class="cls-15" points="163.84 282.26 164.01 282.95 167.63 285.01 167.46 284.33 163.84 282.26"/><polygon class="cls-3" points="167.46 284.33 167.63 285.01 171.16 281.98 170.98 281.29 167.46 284.33"/><polygon class="cls-6" points="163.84 282.26 167.46 284.33 170.98 281.29 167.36 279.22 163.84 282.26"/></g><g class="cls-7"><polygon class="cls-15" points="173.25 280.38 173.42 281.06 177.04 283.13 176.87 282.45 173.25 280.38"/><polygon class="cls-3" points="176.87 282.45 177.04 283.13 178.97 281.48 178.8 280.79 176.87 282.45"/><polygon class="cls-6" points="173.25 280.38 176.87 282.45 178.8 280.79 175.17 278.72 173.25 280.38"/></g><g class="cls-7"><polygon class="cls-15" points="168.23 284.77 168.4 285.45 172.02 287.52 171.85 286.84 168.23 284.77"/><polygon class="cls-3" points="171.85 286.84 172.02 287.52 175.54 284.49 175.37 283.8 171.85 286.84"/><polygon class="cls-6" points="168.23 284.77 171.85 286.84 175.37 283.8 171.75 281.73 168.23 284.77"/></g><g class="cls-7"><polygon class="cls-15" points="177.82 282.99 177.99 283.67 181.61 285.74 181.44 285.06 177.82 282.99"/><polygon class="cls-3" points="181.44 285.06 181.61 285.74 183.54 284.09 183.37 283.4 181.44 285.06"/><polygon class="cls-6" points="177.82 282.99 181.44 285.06 183.37 283.4 179.74 281.33 177.82 282.99"/></g><g class="cls-7"><polygon class="cls-15" points="172.62 287.28 172.79 287.96 176.41 290.03 176.24 289.34 172.62 287.28"/><polygon class="cls-3" points="176.24 289.34 176.41 290.03 179.94 287 179.76 286.31 176.24 289.34"/><polygon class="cls-6" points="172.62 287.28 176.24 289.34 179.76 286.31 176.14 284.24 172.62 287.28"/></g><g class="cls-7"><polygon class="cls-15" points="182.39 285.6 182.56 286.28 186.18 288.35 186.01 287.67 182.39 285.6"/><polygon class="cls-3" points="186.01 287.67 186.18 288.35 188.1 286.7 187.93 286.01 186.01 287.67"/><polygon class="cls-6" points="182.39 285.6 186.01 287.67 187.93 286.01 184.31 283.94 182.39 285.6"/></g><g class="cls-7"><polygon class="cls-15" points="177.01 289.78 177.18 290.47 180.8 292.54 180.63 291.85 177.01 289.78"/><polygon class="cls-3" points="180.63 291.85 180.8 292.54 184.32 289.5 184.15 288.82 180.63 291.85"/><polygon class="cls-6" points="177.01 289.78 180.63 291.85 184.15 288.82 180.53 286.75 177.01 289.78"/></g><g class="cls-7"><polygon class="cls-15" points="181.4 292.29 181.57 292.98 185.19 295.05 185.02 294.36 181.4 292.29"/><polygon class="cls-3" points="185.02 294.36 185.19 295.05 188.72 292.01 188.54 291.32 185.02 294.36"/><polygon class="cls-6" points="181.4 292.29 185.02 294.36 188.54 291.32 184.92 289.26 181.4 292.29"/></g><g class="cls-7"><polygon class="cls-15" points="189.24 289.51 189.41 290.2 193.03 292.27 192.86 291.58 189.24 289.51"/><polygon class="cls-3" points="192.86 291.58 193.03 292.27 194.96 290.61 194.78 289.92 192.86 291.58"/><polygon class="cls-6" points="189.24 289.51 192.86 291.58 194.78 289.92 191.16 287.85 189.24 289.51"/></g><g class="cls-7"><polygon class="cls-15" points="185.79 294.8 185.96 295.49 189.58 297.55 189.41 296.87 185.79 294.8"/><polygon class="cls-3" points="189.41 296.87 189.58 297.55 193.11 294.52 192.94 293.83 189.41 296.87"/><polygon class="cls-6" points="185.79 294.8 189.41 296.87 192.94 293.83 189.31 291.76 185.79 294.8"/></g><g class="cls-7"><polygon class="cls-15" points="193.81 292.12 193.98 292.81 197.6 294.88 197.43 294.19 193.81 292.12"/><polygon class="cls-3" points="197.43 294.19 197.6 294.88 199.52 293.22 199.35 292.53 197.43 294.19"/><polygon class="cls-6" points="193.81 292.12 197.43 294.19 199.35 292.53 195.73 290.46 193.81 292.12"/></g><g class="cls-7"><polygon class="cls-15" points="190.18 297.31 190.35 297.99 193.97 300.06 193.8 299.38 190.18 297.31"/><polygon class="cls-3" points="193.8 299.38 193.97 300.06 197.5 297.03 197.32 296.34 193.8 299.38"/><polygon class="cls-6" points="190.18 297.31 193.8 299.38 197.32 296.34 193.7 294.27 190.18 297.31"/></g><g class="cls-7"><polygon class="cls-15" points="198.38 294.73 198.55 295.42 202.17 297.49 202 296.8 198.38 294.73"/><polygon class="cls-3" points="202 296.8 202.17 297.49 204.09 295.83 203.92 295.14 202 296.8"/><polygon class="cls-6" points="198.38 294.73 202 296.8 203.92 295.14 200.3 293.07 198.38 294.73"/></g><g class="cls-7"><polygon class="cls-15" points="194.57 299.81 194.74 300.5 198.36 302.57 198.19 301.88 194.57 299.81"/><polygon class="cls-3" points="198.19 301.88 198.36 302.57 201.89 299.53 201.72 298.85 198.19 301.88"/><polygon class="cls-6" points="194.57 299.81 198.19 301.88 201.72 298.85 198.09 296.78 194.57 299.81"/></g><g class="cls-7"><polygon class="cls-15" points="202.94 297.34 203.11 298.02 206.74 300.09 206.56 299.41 202.94 297.34"/><polygon class="cls-3" points="206.56 299.41 206.74 300.09 208.66 298.44 208.49 297.75 206.56 299.41"/><polygon class="cls-6" points="202.94 297.34 206.56 299.41 208.49 297.75 204.87 295.68 202.94 297.34"/></g><g class="cls-7"><polygon class="cls-15" points="198.96 302.32 199.13 303.01 202.75 305.08 202.58 304.39 198.96 302.32"/><polygon class="cls-3" points="202.58 304.39 202.75 305.08 206.28 302.04 206.11 301.36 202.58 304.39"/><polygon class="cls-6" points="198.96 302.32 202.58 304.39 206.11 301.36 202.48 299.29 198.96 302.32"/></g><g class="cls-7"><polygon class="cls-15" points="209.79 301.25 209.97 301.94 213.59 304.01 213.42 303.32 209.79 301.25"/><polygon class="cls-3" points="213.42 303.32 213.59 304.01 215.51 302.35 215.34 301.66 213.42 303.32"/><polygon class="cls-6" points="209.79 301.25 213.42 303.32 215.34 301.66 211.72 299.6 209.79 301.25"/></g><g class="cls-7"><polygon class="cls-15" points="203.35 304.83 203.52 305.52 207.14 307.58 206.97 306.9 203.35 304.83"/><polygon class="cls-3" points="206.97 306.9 207.14 307.58 210.67 304.55 210.5 303.86 206.97 306.9"/><polygon class="cls-6" points="203.35 304.83 206.97 306.9 210.5 303.86 206.87 301.79 203.35 304.83"/></g><g class="cls-7"><polygon class="cls-15" points="214.36 303.86 214.53 304.55 218.16 306.62 217.98 305.93 214.36 303.86"/><polygon class="cls-3" points="217.98 305.93 218.16 306.62 220.08 304.96 219.91 304.27 217.98 305.93"/><polygon class="cls-6" points="214.36 303.86 217.98 305.93 219.91 304.27 216.28 302.2 214.36 303.86"/></g><g class="cls-7"><polygon class="cls-15" points="207.74 307.34 207.91 308.02 211.53 310.09 211.36 309.41 207.74 307.34"/><polygon class="cls-3" points="211.36 309.41 211.53 310.09 215.06 307.06 214.89 306.37 211.36 309.41"/><polygon class="cls-6" points="207.74 307.34 211.36 309.41 214.89 306.37 211.26 304.3 207.74 307.34"/></g><g class="cls-7"><polygon class="cls-15" points="218.93 306.47 219.1 307.16 222.72 309.23 222.55 308.54 218.93 306.47"/><polygon class="cls-3" points="222.55 308.54 222.72 309.23 224.65 307.57 224.47 306.88 222.55 308.54"/><polygon class="cls-6" points="218.93 306.47 222.55 308.54 224.47 306.88 220.85 304.81 218.93 306.47"/></g><g class="cls-7"><polygon class="cls-15" points="212.13 309.85 212.3 310.53 215.92 312.6 215.75 311.91 212.13 309.85"/><polygon class="cls-3" points="215.75 311.91 215.92 312.6 219.45 309.56 219.28 308.88 215.75 311.91"/><polygon class="cls-6" points="212.13 309.85 215.75 311.91 219.28 308.88 215.65 306.81 212.13 309.85"/></g><g class="cls-7"><polygon class="cls-15" points="223.5 309.08 223.67 309.77 227.29 311.83 227.12 311.15 223.5 309.08"/><polygon class="cls-3" points="227.12 311.15 227.29 311.83 229.22 310.18 229.04 309.49 227.12 311.15"/><polygon class="cls-6" points="223.5 309.08 227.12 311.15 229.04 309.49 225.42 307.42 223.5 309.08"/></g><g class="cls-7"><polygon class="cls-15" points="216.52 312.35 216.69 313.04 220.31 315.11 220.14 314.42 216.52 312.35"/><polygon class="cls-3" points="220.14 314.42 220.31 315.11 223.84 312.07 223.67 311.39 220.14 314.42"/><polygon class="cls-6" points="216.52 312.35 220.14 314.42 223.67 311.39 220.04 309.32 216.52 312.35"/></g><g class="cls-7"><polygon class="cls-15" points="220.91 314.86 221.08 315.55 224.7 317.62 224.53 316.93 220.91 314.86"/><polygon class="cls-3" points="224.53 316.93 224.7 317.62 228.23 314.58 228.06 313.89 224.53 316.93"/><polygon class="cls-6" points="220.91 314.86 224.53 316.93 228.06 313.89 224.43 311.82 220.91 314.86"/></g><g class="cls-7"><polygon class="cls-15" points="230.37 313 230.54 313.69 234.16 315.76 233.99 315.07 230.37 313"/><polygon class="cls-3" points="233.99 315.07 234.16 315.76 236.09 314.1 235.91 313.42 233.99 315.07"/><polygon class="cls-6" points="230.37 313 233.99 315.07 235.91 313.42 232.29 311.35 230.37 313"/></g><g class="cls-7"><polygon class="cls-15" points="225.3 317.37 225.47 318.06 229.09 320.12 228.92 319.44 225.3 317.37"/><polygon class="cls-3" points="228.92 319.44 229.09 320.12 232.62 317.09 232.45 316.4 228.92 319.44"/><polygon class="cls-6" points="225.3 317.37 228.92 319.44 232.45 316.4 228.82 314.33 225.3 317.37"/></g><g class="cls-7"><polygon class="cls-15" points="163.25 287.95 163.43 288.64 165.62 289.89 165.45 289.2 163.25 287.95"/><polygon class="cls-3" points="165.45 289.2 165.62 289.89 169.15 286.86 168.97 286.17 165.45 289.2"/><polygon class="cls-15" points="155.43 289.5 155.6 290.19 159.22 292.26 159.05 291.57 155.43 289.5"/><polygon class="cls-6" points="155.43 289.5 159.05 291.57 163.25 287.95 165.45 289.2 168.97 286.17 163.16 282.85 161.92 283.91 159.63 285.88 155.43 289.5"/><polygon class="cls-3" points="159.05 291.57 159.22 292.26 163.43 288.64 163.25 287.95 159.05 291.57"/><polygon class="cls-3" points="169.84 291.71 170.01 292.4 173.53 289.36 173.36 288.68 169.84 291.71"/><polygon class="cls-15" points="166.22 289.64 166.39 290.33 170.01 292.4 169.84 291.71 166.22 289.64"/><polygon class="cls-6" points="166.22 289.64 169.84 291.71 173.36 288.68 169.74 286.61 166.22 289.64"/><polygon class="cls-15" points="159.82 292.01 159.99 292.7 163.61 294.77 163.44 294.08 159.82 292.01"/><polygon class="cls-6" points="159.82 292.01 163.44 294.08 166.96 291.04 163.34 288.98 159.82 292.01"/><polygon class="cls-3" points="163.44 294.08 163.61 294.77 167.13 291.73 166.96 291.04 163.44 294.08"/></g><g class="cls-7"><polygon class="cls-15" points="170.61 292.15 170.78 292.84 174.4 294.91 174.23 294.22 170.61 292.15"/><polygon class="cls-3" points="174.23 294.22 174.4 294.91 177.93 291.87 177.75 291.18 174.23 294.22"/><polygon class="cls-6" points="170.61 292.15 174.23 294.22 177.75 291.18 174.13 289.12 170.61 292.15"/></g><g class="cls-7"><polygon class="cls-15" points="175 294.66 175.17 295.35 178.79 297.42 178.62 296.73 175 294.66"/><polygon class="cls-3" points="178.62 296.73 178.79 297.42 182.32 294.38 182.14 293.69 178.62 296.73"/><polygon class="cls-6" points="175 294.66 178.62 296.73 182.14 293.69 178.52 291.62 175 294.66"/></g><g class="cls-7"><polygon class="cls-15" points="179.39 297.17 179.56 297.85 183.18 299.92 183.01 299.24 179.39 297.17"/><polygon class="cls-3" points="183.01 299.24 183.18 299.92 186.71 296.89 186.53 296.2 183.01 299.24"/><polygon class="cls-6" points="179.39 297.17 183.01 299.24 186.53 296.2 182.91 294.13 179.39 297.17"/></g><g class="cls-7"><polygon class="cls-15" points="183.78 299.67 183.95 300.36 187.57 302.43 187.4 301.74 183.78 299.67"/><polygon class="cls-3" points="187.4 301.74 187.57 302.43 191.1 299.39 190.93 298.71 187.4 301.74"/><polygon class="cls-6" points="183.78 299.67 187.4 301.74 190.93 298.71 187.3 296.64 183.78 299.67"/></g><g class="cls-7"><polygon class="cls-15" points="164.21 294.52 164.38 295.2 168 297.27 167.83 296.59 164.21 294.52"/><polygon class="cls-3" points="167.83 296.59 168 297.27 171.53 294.24 171.35 293.55 167.83 296.59"/><polygon class="cls-6" points="164.21 294.52 167.83 296.59 171.35 293.55 167.73 291.48 164.21 294.52"/></g><g class="cls-7"><polygon class="cls-15" points="168.6 297.03 168.77 297.71 172.39 299.78 172.22 299.1 168.6 297.03"/><polygon class="cls-3" points="172.22 299.1 172.39 299.78 175.92 296.75 175.75 296.06 172.22 299.1"/><polygon class="cls-6" points="168.6 297.03 172.22 299.1 175.75 296.06 172.12 293.99 168.6 297.03"/></g><g class="cls-7"><polygon class="cls-15" points="172.99 299.53 173.16 300.22 176.78 302.29 176.61 301.6 172.99 299.53"/><polygon class="cls-3" points="176.61 301.6 176.78 302.29 180.31 299.25 180.13 298.57 176.61 301.6"/><polygon class="cls-6" points="172.99 299.53 176.61 301.6 180.13 298.57 176.51 296.5 172.99 299.53"/></g><g class="cls-7"><polygon class="cls-15" points="177.38 302.04 177.55 302.73 181.17 304.8 181 304.11 177.38 302.04"/><polygon class="cls-3" points="181 304.11 181.17 304.8 184.7 301.76 184.53 301.08 181 304.11"/><polygon class="cls-6" points="177.38 302.04 181 304.11 184.53 301.08 180.9 299.01 177.38 302.04"/></g><g class="cls-7"><polygon class="cls-15" points="188.17 302.18 188.34 302.87 191.96 304.94 191.79 304.25 188.17 302.18"/><polygon class="cls-3" points="191.79 304.25 191.96 304.94 195.49 301.9 195.31 301.22 191.79 304.25"/><polygon class="cls-6" points="188.17 302.18 191.79 304.25 195.31 301.22 191.69 299.15 188.17 302.18"/></g><g class="cls-7"><polygon class="cls-15" points="181.77 304.55 181.94 305.24 185.56 307.31 185.39 306.62 181.77 304.55"/><polygon class="cls-3" points="185.39 306.62 185.56 307.31 189.09 304.27 188.91 303.58 185.39 306.62"/><polygon class="cls-6" points="181.77 304.55 185.39 306.62 188.91 303.58 185.29 301.51 181.77 304.55"/></g><g class="cls-7"><polygon class="cls-15" points="192.56 304.69 192.73 305.38 196.35 307.44 196.18 306.76 192.56 304.69"/><polygon class="cls-3" points="196.18 306.76 196.35 307.44 199.88 304.41 199.71 303.72 196.18 306.76"/><polygon class="cls-6" points="192.56 304.69 196.18 306.76 199.71 303.72 196.08 301.65 192.56 304.69"/></g><g class="cls-7"><polygon class="cls-15" points="186.16 307.06 186.33 307.74 189.95 309.81 189.78 309.13 186.16 307.06"/><polygon class="cls-3" points="189.78 309.13 189.95 309.81 193.48 306.78 193.31 306.09 189.78 309.13"/><polygon class="cls-6" points="186.16 307.06 189.78 309.13 193.31 306.09 189.68 304.02 186.16 307.06"/></g><g class="cls-7"><polygon class="cls-15" points="196.95 307.2 197.12 307.88 200.74 309.95 200.57 309.27 196.95 307.2"/><polygon class="cls-3" points="200.57 309.27 200.74 309.95 204.27 306.92 204.09 306.23 200.57 309.27"/><polygon class="cls-6" points="196.95 307.2 200.57 309.27 204.09 306.23 200.47 304.16 196.95 307.2"/></g><g class="cls-7"><polygon class="cls-15" points="190.55 309.56 190.72 310.25 194.34 312.32 194.17 311.63 190.55 309.56"/><polygon class="cls-3" points="194.17 311.63 194.34 312.32 197.87 309.29 197.69 308.6 194.17 311.63"/><polygon class="cls-6" points="190.55 309.56 194.17 311.63 197.69 308.6 194.07 306.53 190.55 309.56"/></g><g class="cls-7"><polygon class="cls-15" points="201.34 309.7 201.51 310.39 205.13 312.46 204.96 311.77 201.34 309.7"/><polygon class="cls-3" points="204.96 311.77 205.13 312.46 208.66 309.43 208.49 308.74 204.96 311.77"/><polygon class="cls-6" points="201.34 309.7 204.96 311.77 208.49 308.74 204.86 306.67 201.34 309.7"/></g><g class="cls-7"><polygon class="cls-15" points="194.94 312.07 195.11 312.76 198.73 314.83 198.56 314.14 194.94 312.07"/><polygon class="cls-3" points="198.56 314.14 198.73 314.83 202.26 311.79 202.09 311.11 198.56 314.14"/><polygon class="cls-6" points="194.94 312.07 198.56 314.14 202.09 311.11 198.46 309.04 194.94 312.07"/></g><g class="cls-7"><polygon class="cls-15" points="205.73 312.21 205.9 312.9 209.52 314.97 209.35 314.28 205.73 312.21"/><polygon class="cls-3" points="209.35 314.28 209.52 314.97 213.05 311.93 212.88 311.25 209.35 314.28"/><polygon class="cls-6" points="205.73 312.21 209.35 314.28 212.88 311.25 209.25 309.18 205.73 312.21"/></g><g class="cls-7"><polygon class="cls-15" points="199.33 314.58 199.5 315.27 203.12 317.34 202.95 316.65 199.33 314.58"/><polygon class="cls-3" points="202.95 316.65 203.12 317.34 206.65 314.3 206.48 313.61 202.95 316.65"/><polygon class="cls-6" points="199.33 314.58 202.95 316.65 206.48 313.61 202.85 311.55 199.33 314.58"/></g><g class="cls-7"><polygon class="cls-15" points="210.12 314.72 210.29 315.41 213.91 317.48 213.74 316.79 210.12 314.72"/><polygon class="cls-3" points="213.74 316.79 213.91 317.48 217.44 314.44 217.27 313.75 213.74 316.79"/><polygon class="cls-6" points="210.12 314.72 213.74 316.79 217.27 313.75 213.64 311.69 210.12 314.72"/></g><g class="cls-7"><polygon class="cls-15" points="203.72 317.09 203.89 317.77 207.51 319.84 207.34 319.16 203.72 317.09"/><polygon class="cls-3" points="207.34 319.16 207.51 319.84 211.04 316.81 210.87 316.12 207.34 319.16"/><polygon class="cls-6" points="203.72 317.09 207.34 319.16 210.87 316.12 207.24 314.05 203.72 317.09"/></g><g class="cls-7"><polygon class="cls-15" points="214.51 317.23 214.68 317.92 224.89 323.75 224.72 323.06 214.51 317.23"/><polygon class="cls-3" points="224.72 323.06 224.89 323.75 228.41 320.71 228.24 320.02 224.72 323.06"/><polygon class="cls-6" points="214.51 317.23 224.72 323.06 228.24 320.02 218.03 314.19 214.51 317.23"/></g><g class="cls-7"><polygon class="cls-15" points="208.11 319.6 208.28 320.28 211.9 322.35 211.73 321.67 208.11 319.6"/><polygon class="cls-3" points="211.73 321.67 211.9 322.35 215.43 319.32 215.26 318.63 211.73 321.67"/><polygon class="cls-6" points="208.11 319.6 211.73 321.67 215.26 318.63 211.63 316.56 208.11 319.6"/></g><g class="cls-7"><polygon class="cls-15" points="151.22 293.13 151.39 293.81 157.21 297.13 157.04 296.45 151.22 293.13"/><polygon class="cls-3" points="157.04 296.45 157.21 297.13 160.74 294.1 160.56 293.41 157.04 296.45"/><polygon class="cls-6" points="151.22 293.13 157.04 296.45 160.56 293.41 154.75 290.09 151.22 293.13"/></g><g class="cls-7"><polygon class="cls-15" points="157.81 296.89 157.98 297.57 161.6 299.64 161.43 298.96 157.81 296.89"/><polygon class="cls-3" points="161.43 298.96 161.6 299.64 165.13 296.61 164.95 295.92 161.43 298.96"/><polygon class="cls-6" points="157.81 296.89 161.43 298.96 164.95 295.92 161.33 293.85 157.81 296.89"/></g><g class="cls-7"><polygon class="cls-15" points="162.2 299.39 162.37 300.08 165.99 302.15 165.82 301.46 162.2 299.39"/><polygon class="cls-3" points="165.82 301.46 165.99 302.15 169.52 299.11 169.34 298.43 165.82 301.46"/><polygon class="cls-6" points="162.2 299.39 165.82 301.46 169.34 298.43 165.72 296.36 162.2 299.39"/></g><g class="cls-7"><polygon class="cls-15" points="166.59 301.9 166.76 302.59 170.38 304.66 170.21 303.97 166.59 301.9"/><polygon class="cls-3" points="170.21 303.97 170.38 304.66 173.91 301.62 173.74 300.94 170.21 303.97"/><polygon class="cls-6" points="166.59 301.9 170.21 303.97 173.74 300.94 170.11 298.87 166.59 301.9"/></g><g class="cls-7"><polygon class="cls-15" points="170.98 304.41 171.15 305.1 174.77 307.17 174.6 306.48 170.98 304.41"/><polygon class="cls-3" points="174.6 306.48 174.77 307.17 178.3 304.13 178.13 303.44 174.6 306.48"/><polygon class="cls-6" points="170.98 304.41 174.6 306.48 178.13 303.44 174.5 301.37 170.98 304.41"/></g><g class="cls-7"><polygon class="cls-15" points="175.37 306.92 175.54 307.6 179.16 309.67 178.99 308.99 175.37 306.92"/><polygon class="cls-3" points="178.99 308.99 179.16 309.67 182.69 306.64 182.51 305.95 178.99 308.99"/><polygon class="cls-6" points="175.37 306.92 178.99 308.99 182.51 305.95 178.89 303.88 175.37 306.92"/></g><g class="cls-7"><polygon class="cls-15" points="179.76 309.43 179.93 310.11 183.55 312.18 183.38 311.49 179.76 309.43"/><polygon class="cls-3" points="183.38 311.49 183.55 312.18 187.08 309.14 186.91 308.46 183.38 311.49"/><polygon class="cls-6" points="179.76 309.43 183.38 311.49 186.91 308.46 183.28 306.39 179.76 309.43"/></g><g class="cls-7"><polygon class="cls-15" points="184.15 311.93 184.32 312.62 187.94 314.69 187.77 314 184.15 311.93"/><polygon class="cls-3" points="187.77 314 187.94 314.69 191.47 311.65 191.3 310.97 187.77 314"/><polygon class="cls-6" points="184.15 311.93 187.77 314 191.3 310.97 187.67 308.9 184.15 311.93"/></g><g class="cls-7"><polygon class="cls-15" points="188.54 314.44 188.71 315.13 192.33 317.2 192.16 316.51 188.54 314.44"/><polygon class="cls-3" points="192.16 316.51 192.33 317.2 195.86 314.16 195.69 313.48 192.16 316.51"/><polygon class="cls-6" points="188.54 314.44 192.16 316.51 195.69 313.48 192.06 311.4 188.54 314.44"/></g><g class="cls-7"><polygon class="cls-15" points="192.93 316.95 193.1 317.63 196.72 319.7 196.55 319.02 192.93 316.95"/><polygon class="cls-3" points="196.55 319.02 196.72 319.7 200.25 316.67 200.08 315.98 196.55 319.02"/><polygon class="cls-6" points="192.93 316.95 196.55 319.02 200.08 315.98 196.45 313.91 192.93 316.95"/></g><g class="cls-7"><polygon class="cls-15" points="197.32 319.46 197.49 320.14 201.11 322.21 200.94 321.52 197.32 319.46"/><polygon class="cls-3" points="200.94 321.52 201.11 322.21 204.64 319.18 204.47 318.49 200.94 321.52"/><polygon class="cls-6" points="197.32 319.46 200.94 321.52 204.47 318.49 200.84 316.42 197.32 319.46"/></g><g class="cls-7"><polygon class="cls-15" points="201.71 321.96 201.88 322.65 205.5 324.72 205.33 324.03 201.71 321.96"/><polygon class="cls-3" points="205.33 324.03 205.5 324.72 209.03 321.68 208.86 321 205.33 324.03"/><polygon class="cls-6" points="201.71 321.96 205.33 324.03 208.86 321 205.23 318.93 201.71 321.96"/></g><g class="cls-7"><polygon class="cls-15" points="147.02 296.75 147.19 297.43 155.2 302.01 155.03 301.32 147.02 296.75"/><polygon class="cls-3" points="155.03 301.32 155.2 302.01 158.73 298.97 158.56 298.29 155.03 301.32"/><polygon class="cls-6" points="147.02 296.75 155.03 301.32 158.56 298.29 150.54 293.71 147.02 296.75"/></g><g class="cls-7"><polygon class="cls-15" points="155.8 301.76 155.97 302.45 159.59 304.52 159.42 303.83 155.8 301.76"/><polygon class="cls-3" points="159.42 303.83 159.59 304.52 163.12 301.48 162.94 300.8 159.42 303.83"/><polygon class="cls-6" points="155.8 301.76 159.42 303.83 162.94 300.8 159.32 298.73 155.8 301.76"/></g><g class="cls-7"><polygon class="cls-15" points="160.19 304.27 160.36 304.96 163.98 307.02 163.81 306.34 160.19 304.27"/><polygon class="cls-3" points="163.81 306.34 163.98 307.02 167.51 303.99 167.34 303.3 163.81 306.34"/><polygon class="cls-6" points="160.19 304.27 163.81 306.34 167.34 303.3 163.71 301.23 160.19 304.27"/></g><g class="cls-7"><polygon class="cls-15" points="164.58 306.78 164.75 307.46 194.71 324.58 194.54 323.89 164.58 306.78"/><polygon class="cls-3" points="194.54 323.89 194.71 324.58 198.24 321.54 198.07 320.86 194.54 323.89"/><polygon class="cls-6" points="164.58 306.78 194.54 323.89 198.07 320.86 168.1 303.74 164.58 306.78"/></g><g class="cls-7"><polygon class="cls-15" points="195.31 324.33 195.48 325.02 199.1 327.09 198.93 326.4 195.31 324.33"/><polygon class="cls-3" points="198.93 326.4 199.1 327.09 202.63 324.05 202.46 323.37 198.93 326.4"/><polygon class="cls-6" points="195.31 324.33 198.93 326.4 202.46 323.37 198.84 321.3 195.31 324.33"/></g><g class="cls-7"><polygon class="cls-15" points="212.5 322.1 212.67 322.79 220.68 327.37 220.51 326.68 212.5 322.1"/><polygon class="cls-3" points="220.51 326.68 220.68 327.37 224.21 324.33 224.04 323.65 220.51 326.68"/><polygon class="cls-6" points="212.5 322.1 220.51 326.68 224.04 323.65 216.03 319.07 212.5 322.1"/></g><g class="cls-7"><polygon class="cls-15" points="206.1 324.47 206.27 325.16 209.89 327.23 209.72 326.54 206.1 324.47"/><polygon class="cls-3" points="209.72 326.54 209.89 327.23 213.42 324.19 213.25 323.5 209.72 326.54"/><polygon class="cls-6" points="206.1 324.47 209.72 326.54 213.25 323.5 209.62 321.44 206.1 324.47"/></g><g class="cls-7"><polygon class="cls-15" points="199.7 326.84 199.87 327.53 203.49 329.6 203.32 328.91 199.7 326.84"/><polygon class="cls-3" points="203.32 328.91 203.49 329.6 207.02 326.56 206.85 325.87 203.32 328.91"/><polygon class="cls-6" points="199.7 326.84 203.32 328.91 206.85 325.87 203.22 323.81 199.7 326.84"/></g><g class="cls-7"><polygon class="cls-15" points="210.49 326.98 210.66 327.67 216.48 330.99 216.31 330.3 210.49 326.98"/><polygon class="cls-3" points="216.31 330.3 216.48 330.99 220 327.95 219.83 327.27 216.31 330.3"/><polygon class="cls-6" points="210.49 326.98 216.31 330.3 219.83 327.27 214.01 323.94 210.49 326.98"/></g><g class="cls-7"><polygon class="cls-15" points="204.09 329.35 204.26 330.03 212.27 334.61 212.1 333.92 204.09 329.35"/><polygon class="cls-3" points="212.1 333.92 212.27 334.61 215.8 331.57 215.63 330.89 212.1 333.92"/><polygon class="cls-6" points="204.09 329.35 212.1 333.92 215.63 330.89 207.62 326.31 204.09 329.35"/></g><g class="cls-7"><polygon class="cls-2" points="283.57 176.05 280.65 174.36 219.31 382.19 222.22 383.88 283.57 176.05"/><polygon class="cls-6" points="287.52 175.65 284.6 173.95 280.65 174.36 283.57 176.05 287.52 175.65"/><polygon class="cls-4" points="283.57 176.05 222.22 383.88 226.17 383.48 287.52 175.65 283.57 176.05"/></g><g class="cls-7"><polygon class="cls-4" points="307.86 217.6 310.15 216.26 310.16 212.81 307.87 214.15 307.86 217.6"/><polygon class="cls-4" points="307.87 214.15 310.16 212.81 279.8 195.28 277.5 196.61 307.87 214.15"/><polygon class="cls-2" points="277.5 196.61 275.04 198.65 307.86 217.6 307.87 214.15 277.5 196.61"/></g><g class="cls-7"><polygon class="cls-4" points="300.31 242.68 302.61 241.34 302.62 237.89 300.32 239.23 300.31 242.68"/><polygon class="cls-4" points="300.32 239.23 302.62 237.89 272.25 220.36 269.95 221.7 300.32 239.23"/><polygon class="cls-2" points="269.95 221.7 267.5 223.73 300.31 242.68 300.32 239.23 269.95 221.7"/></g><g class="cls-7"><polygon class="cls-4" points="292.99 267.86 295.29 266.52 295.3 263.07 293 264.41 292.99 267.86"/><polygon class="cls-4" points="293 264.41 295.3 263.07 264.93 245.54 262.63 246.88 293 264.41"/><polygon class="cls-2" points="262.63 246.88 260.18 248.91 292.99 267.86 293 264.41 262.63 246.88"/></g><g class="cls-7"><polygon class="cls-4" points="285.43 292.93 287.73 291.6 287.73 288.15 285.44 289.48 285.43 292.93"/><polygon class="cls-4" points="285.44 289.48 287.73 288.15 257.37 270.61 255.07 271.95 285.44 289.48"/><polygon class="cls-2" points="255.07 271.95 252.62 273.99 285.43 292.93 285.44 289.48 255.07 271.95"/></g><g class="cls-7"><polygon class="cls-4" points="278.11 318.11 280.41 316.78 280.42 313.33 278.12 314.66 278.11 318.11"/><polygon class="cls-4" points="278.12 314.66 280.42 313.33 250.05 295.8 247.75 297.13 278.12 314.66"/><polygon class="cls-2" points="247.75 297.13 245.3 299.17 278.11 318.11 278.12 314.66 247.75 297.13"/></g><g class="cls-7"><polygon class="cls-4" points="278.09 318.11 280.39 316.78 280.4 313.33 278.1 314.66 278.09 318.11"/><polygon class="cls-4" points="278.1 314.66 280.4 313.33 250.03 295.8 247.73 297.13 278.1 314.66"/></g><g class="cls-7"><polygon class="cls-4" points="270.77 343.29 273.07 341.96 273.08 338.51 270.78 339.84 270.77 343.29"/><polygon class="cls-4" points="270.78 339.84 273.08 338.51 242.71 320.98 240.41 322.31 270.78 339.84"/><polygon class="cls-2" points="240.41 322.31 237.96 324.35 270.77 343.29 270.78 339.84 240.41 322.31"/></g><g class="cls-7"><polygon class="cls-4" points="263.33 368.44 265.63 367.1 265.64 363.65 263.34 364.99 263.33 368.44"/><polygon class="cls-4" points="263.34 364.99 265.64 363.65 235.27 346.12 232.97 347.45 263.34 364.99"/><polygon class="cls-2" points="232.97 347.45 230.52 349.49 263.33 368.44 263.34 364.99 232.97 347.45"/></g><g class="cls-7"><polygon class="cls-4" points="255.89 393.55 258.19 392.21 258.2 388.76 255.9 390.1 255.89 393.55"/><polygon class="cls-4" points="255.9 390.1 258.2 388.76 227.83 371.23 225.53 372.56 255.9 390.1"/><polygon class="cls-2" points="225.53 372.56 223.08 374.6 255.89 393.55 255.9 390.1 225.53 372.56"/></g><g class="cls-7"><polygon class="cls-2" points="316 194.94 313.08 193.25 251.74 401.08 254.66 402.77 316 194.94"/><polygon class="cls-6" points="319.95 194.53 317.03 192.84 313.08 193.25 316 194.94 319.95 194.53"/><polygon class="cls-4" points="316 194.94 254.66 402.77 258.6 402.36 319.95 194.53 316 194.94"/></g><g id="man"><g id="man-2" data-name="man"><path class="cls-47" d="M248.37,360.48c.25-.57.65-.36,1.12-.44a4.26,4.26,0,0,0,1.65-.78c.62-.43,1.17-.95,1.75-1.43A15.92,15.92,0,0,1,258,355a5.42,5.42,0,0,1,2.67-.32,5.49,5.49,0,0,1,1.93.68,2.49,2.49,0,0,1,1,1.22,4.09,4.09,0,0,1,.07,1.56,4.7,4.7,0,0,1-.27,1.39,5.63,5.63,0,0,1-1.79,2.18,9.7,9.7,0,0,1-2.76,1.77,24.64,24.64,0,0,0-2.55.86,5.42,5.42,0,0,0-1.42,1.1,4.53,4.53,0,0,1-1,1,6.24,6.24,0,0,1-3,.74,3.24,3.24,0,0,1-3.34-3.52,9.84,9.84,0,0,1,.48-2.15A8.35,8.35,0,0,1,248.37,360.48Z"/></g><g id="man-3" data-name="man"><path class="cls-47" d="M231.28,375.81c.28-.56.67-.33,1.14-.39a4.4,4.4,0,0,0,1.68-.72c.63-.4,1.2-.9,1.81-1.36a15.88,15.88,0,0,1,5.21-2.62,5.16,5.16,0,0,1,3.69-.06,3.73,3.73,0,0,1,1.62,1.45,3,3,0,0,1,.25,2,4.56,4.56,0,0,1-.32,1.38,5.68,5.68,0,0,1-1.88,2.11,9.41,9.41,0,0,1-2.83,1.66c-.85.29-1.76.38-2.58.75a5.59,5.59,0,0,0-1.46,1,4.32,4.32,0,0,1-1.07,1,6.27,6.27,0,0,1-3,.62,3.25,3.25,0,0,1-3.2-3.65,10.74,10.74,0,0,1,.57-2.14C231.08,376.41,231.16,376.06,231.28,375.81Z"/></g><path class="cls-48" d="M241.93,324.46c0-.61-.08-1-.85-1.25-2.19-.68-4.4-1.39-6.63-1.93a18.73,18.73,0,0,0-4-.57l-2.92-2.63a30.26,30.26,0,0,0-.28,7.66c.63,5.54,2.08,18.33,2.46,24.43.26,4.14.26,8.28.29,12.42s.35,8.11.64,12.15a3.8,3.8,0,0,0,.82,2.54,4.35,4.35,0,0,0,2.55,1.16,4.93,4.93,0,0,0,4-1.41c.66-.66.63-1.95.73-2.83s.13-1.59.16-2.39c.09-2.3.09-4.61.17-6.91s.21-4.87.37-7.3c.12-1.59.24-3.19.38-4.78l.24-2.63c.26-2.47.66-4.94.9-7.44q.67-7,.86-14.09c0-1.17.05-2.35.06-3.52C241.92,324.89,241.93,324.66,241.93,324.46Z"/><path class="cls-49" d="M243.08,311.52c-2.18,0-4.81,4.56-6.16,5.86s-2.56,2.35-3.89,3.47a12.18,12.18,0,0,1-1.93,1.59c-.59.3-1.31.25-1.93.57s-2.16-1.81-2.25-1.27a8,8,0,0,0,2.34,5c6,4.35,13.6,5.58,19.39,10.17,2.44,1.93,4.39,4.39,6.64,6.53a3.46,3.46,0,0,0,.91.7,3.51,3.51,0,0,0,2,.19c2.37-.29,1.74-1.61,2.51-4.11.58-1.87,3.62-1.94,3.32-3.88-.45-2.85-2.72-4.89-4-6.36-5-5.59-9.69-11.43-14.72-17a4.42,4.42,0,0,0-1.76-1.37A1.85,1.85,0,0,0,243.08,311.52Z"/><path class="cls-50" d="M254.27,290.24c0,.69-.06,2-.73,2.48a6.22,6.22,0,0,1-2.4.29c-2,.19-3.95.31-5.92.44-.9.06-1.8.12-2.69.15a39.61,39.61,0,0,1-7.79-.52,8.1,8.1,0,0,1-3.43-1.06,2.92,2.92,0,0,1-.73-2.76,5.27,5.27,0,0,1,3-4.45c1.79-.72,3.57-.41,5.35-.19A98,98,0,0,1,251.06,287a6,6,0,0,1,2,.82A3.35,3.35,0,0,1,254.27,290.24Z"/><path class="cls-51" d="M253.57,288v-.19a6.28,6.28,0,0,0-.65-3.28,7.69,7.69,0,0,0-2.43-1.77,43.32,43.32,0,0,0-8.64-4.25c-4.61-1.66-9.31-5-14.23-2.26a6.59,6.59,0,0,0-1.39,1c-2.53,2.47-2.24,6.45-1.84,9.64.51,4.11,1.73,8.08,2.44,12.15.15.85.28,1.71.39,2.56.37,3,.1,6,.5,8.92.35,2.55-.45,5.46-.78,8-.21,1.58-.38,3.31.48,4.64s2.76,2,4.43,2.34c6.12,1.41,12.67,2.48,18.57.32a4,4,0,0,0,2.57-2,4.72,4.72,0,0,0,.13-2.18,124.63,124.63,0,0,1-.22-24.88A76.14,76.14,0,0,0,253.57,288Z"/><path class="cls-52" d="M252.78,284c-1.72-1.12-3.87-1.9-5.68-.93a4.91,4.91,0,0,0-1.68,1.68,8.07,8.07,0,0,0-.93,1.8,6.45,6.45,0,0,0,.45,4.79,7.13,7.13,0,0,0,3.85,3.37c1.42.66,2.82,1.4,4.2,2.16a67.46,67.46,0,0,0,8.43,4.19c1.7.63,3.62,1.07,5.13.12a4.12,4.12,0,0,0,1.77-3.25c.18-3.29-2-3.87-2.31-4.1C256.11,286.65,252.55,283.8,252.78,284Z"/><path class="cls-53" d="M276.52,287.41c.08-.21.14-.42.24-.63a13.74,13.74,0,0,1,1.94-3,5.44,5.44,0,0,1,2.51-2c.92-.2,1.71-.54,2.56.1a1.07,1.07,0,0,1,.38.57c0,.18-.09.39-.06.54.08.35.68.64.92,1a.6.6,0,0,1,.17.59c-.08.15-.29.25-.28.42s.33.28.27.56c0,.1-.12.17-.13.28s.1.26.13.38a1.27,1.27,0,0,1,0,.58.4.4,0,0,1-.07.18.36.36,0,0,1-.17.07c-.54.1-1,0-1.59,0a1.88,1.88,0,0,0-1.08.57,12.11,12.11,0,0,0-.82.93,6.28,6.28,0,0,1-1.13,1c-.35.25-1.09.69-1.25.83Z"/><path class="cls-52" d="M279.48,287.1a3.51,3.51,0,0,1,.82,2.47c-.18.62-1.08,1.2-1.48,1.6-1.26,1.28-2.55,2.51-3.84,3.74-.59.56-1.17,1.12-1.77,1.66a31.8,31.8,0,0,1-5.63,4,6.09,6.09,0,0,1-2.93,1.08c-.88-.09-1.5-.93-2-1.87a6.06,6.06,0,0,1-.35-5.36,8.56,8.56,0,0,1,3.58-3.2,73.9,73.9,0,0,1,9.63-5,4.41,4.41,0,0,1,1.83-.48A3.06,3.06,0,0,1,279.48,287.1Z"/><path class="cls-53" d="M243.08,274.49c.18-1.22,1.1-.94.63-2a5.94,5.94,0,0,0-1.8-2.43,4.3,4.3,0,0,0-2.84-.93c-.35,0-.58.22-.93.22a19.78,19.78,0,0,0-2.88,0c-.95.14-1.83.21-1.83,1.28a13.1,13.1,0,0,1-.39,4.22,9.71,9.71,0,0,0-.68,2.27,4,4,0,0,0,2.4,3.67,9.32,9.32,0,0,0,5.5.49c.92-.13,2.22-.31,2.76-1.19a3.53,3.53,0,0,0,.14-2.25A12.35,12.35,0,0,1,243.08,274.49Z"/><path class="cls-53" d="M247.16,258.9a5,5,0,0,1,1.17,2.43c.31,2.06-.52,4.19-.07,6.24s-.42,6.5-4.34,7.66c-2,.59-5.9-.1-7.16-.7a10.12,10.12,0,0,1-3.8-4C224.77,257.49,241.61,252.14,247.16,258.9Z"/><path class="cls-47" d="M230.56,256.35a5.09,5.09,0,0,1,1.48-1,1.36,1.36,0,0,0,.5-.31,2.1,2.1,0,0,0,.21-.39,3.18,3.18,0,0,1,1.41-1.35,11.73,11.73,0,0,1,7.31-.92,9.79,9.79,0,0,1,2.45.62,8.72,8.72,0,0,1,2.38,1.62,9.61,9.61,0,0,1,2.47,3.29,16.72,16.72,0,0,1,.46,1.82,1.46,1.46,0,0,1-.49,1.52c-.19.15-.42.24-.62.38-.83.56-1,1.85-1.35,2.73-.22.55-.67.85-.8,1.45a17,17,0,0,1-.32,1.87c-.09.29-.28.6-.59.62a.58.58,0,0,1-.35-.11,1.7,1.7,0,0,1-.65-1,4.13,4.13,0,0,0-.4-1.15.32.32,0,0,0-.13-.13.26.26,0,0,0-.15,0,1.35,1.35,0,0,0-.9.75A6.06,6.06,0,0,0,242,268a14.24,14.24,0,0,0-.32,2.13,3.81,3.81,0,0,1-.84,2.13c-1.19,1.29-3.48,1.22-5,.87a7.08,7.08,0,0,1-1.64-.5,7.88,7.88,0,0,1-2.77-2.79,11.86,11.86,0,0,1-1.77-3.16,11.4,11.4,0,0,1-.39-2C228.85,261.93,228.56,258.41,230.56,256.35Z"/><path class="cls-53" d="M242.73,264.61c-1.54-.34-2.22,1.53-1.37,3.18a7.9,7.9,0,0,0,1.1,1.36c2.43,2.78,3.51.32,2.75-.62C243.43,266.35,244.67,265,242.73,264.61Z"/><path class="cls-54" d="M242.77,267.61c-.16-.19-1.78-1.5-.46-2,.36-.15.69.2.69.56,0,.19-.09.36-.09.55a1.16,1.16,0,0,0,.08.32c.12.28.62.61.46,1S242.86,267.72,242.77,267.61Z"/><path class="cls-49" d="M263.18,340c0,.09-.07.18-.1.26-1.52,4-2.65,8.14-4,12.21-.89,2.7-2.86,10.11-5.93,10.09-1.52,0-4.37-.61-4.71-2-1.25-5.29,3.31-20.66,4.64-25,.34-1.09.33-.65.64-1.75.25-.88.3-2.24.87-3,1.1-1.41,3.15.31,4.19,1.06,1.51,1.1,3.54,2.08,4.64,3.57S263.76,338.51,263.18,340Z"/></g><g class="cls-7"><polygon class="cls-4" points="136.75 308.6 136.74 312.12 125.23 305.48 125.24 301.95 136.75 308.6"/><g class="cls-7"><path class="cls-4" d="M137.62,309.81v3.52a1.49,1.49,0,0,0-.87-1.21V308.6A1.48,1.48,0,0,1,137.62,309.81Z"/><g class="cls-55"><g class="cls-7"><path class="cls-4" d="M137.62,309.81v3.52a1.49,1.49,0,0,0-.87-1.21V308.6A1.48,1.48,0,0,1,137.62,309.81Z"/></g></g></g><g class="cls-7"><path class="cls-4" d="M147.17,312v3.53a6.55,6.55,0,0,1-1.27,3.79v-3.52A6.61,6.61,0,0,0,147.17,312Z"/><g class="cls-56"><g class="cls-7"><path class="cls-4" d="M147.17,312v3.53a6.55,6.55,0,0,1-1.27,3.79v-3.52A6.61,6.61,0,0,0,147.17,312Z"/></g></g></g><g class="cls-7"><path class="cls-4" d="M111.77,315.38v-3.52c0,2.64,1.74,5.28,5.23,7.3,5.19,3,12.79,3.75,19.17,2.25v3.53c-6.38,1.5-14,.74-19.17-2.26C113.51,320.67,111.77,318,111.77,315.38Z"/><g class="cls-57"><g class="cls-7"><path class="cls-4" d="M136.18,321.41v3.53a28.39,28.39,0,0,1-2.95.52v-3.52A28.4,28.4,0,0,0,136.18,321.41Z"/><path class="cls-4" d="M133.23,321.94v3.52c-5.66.7-11.81-.23-16.22-2.78-3.49-2-5.23-4.66-5.23-7.3v-3.52c0,2.64,1.74,5.28,5.23,7.3C121.42,321.71,127.57,322.63,133.23,321.94Z"/></g></g></g><g class="cls-7"><path class="cls-4" d="M207.32,349.81v3.52a4.47,4.47,0,0,0-4.06,0V349.8A4.5,4.5,0,0,1,207.32,349.81Z"/><g class="cls-58"><g class="cls-7"><path class="cls-4" d="M207.32,349.81v3.52a4.48,4.48,0,0,0-2.64-.45v-3.52A4.33,4.33,0,0,1,207.32,349.81Z"/><path class="cls-4" d="M204.68,349.36v3.52a3.76,3.76,0,0,0-1.42.45V349.8A3.76,3.76,0,0,1,204.68,349.36Z"/></g></g></g><polygon class="cls-4" points="185.45 349.86 185.44 353.38 136.17 324.94 136.18 321.41 185.45 349.86"/><polygon class="cls-4" points="203.26 349.8 203.25 353.33 195.62 357.76 195.63 354.24 203.26 349.8"/><g class="cls-7"><path class="cls-4" d="M194.79,358.93V355.4a1.42,1.42,0,0,1,.83-1.16v3.52A1.43,1.43,0,0,0,194.79,358.93Z"/><g class="cls-59"><g class="cls-7"><path class="cls-4" d="M195.63,354.24v3.52a2.07,2.07,0,0,0-.52.42v-3.52A1.87,1.87,0,0,1,195.63,354.24Z"/><path class="cls-4" d="M195.11,354.66v3.52a1.1,1.1,0,0,0-.31.75V355.4A1.1,1.1,0,0,1,195.11,354.66Z"/></g></g></g><g class="cls-7"><path class="cls-4" d="M219.7,353.55v3.52a6.46,6.46,0,0,1-.76,3v-3.52A6.46,6.46,0,0,0,219.7,353.55Z"/><g class="cls-60"><g class="cls-7"><path class="cls-4" d="M219.7,353.55v3.52a6.46,6.46,0,0,1-.76,3v-3.52A6.46,6.46,0,0,0,219.7,353.55Z"/></g></g></g><polygon class="cls-4" points="218.94 356.51 218.93 360.04 207.31 353.33 207.32 349.81 218.94 356.51"/><g class="cls-7"><path class="cls-4" d="M184.31,357v-3.52c0,2.63,1.73,5.28,5.22,7.29,4.81,2.78,11.67,3.62,17.73,2.55v3.52c-6.06,1.08-12.92.23-17.73-2.55C186,362.26,184.3,359.62,184.31,357Z"/><g class="cls-61"><g class="cls-7"><path class="cls-4" d="M207.27,363.3v3.52c-.5.09-1,.16-1.5.23l0-3.53C206.28,363.46,206.77,363.39,207.27,363.3Z"/><path class="cls-4" d="M205.78,363.52l0,3.53c-5.66.7-11.81-.22-16.23-2.78-3.49-2-5.23-4.65-5.22-7.29v-3.52c0,2.63,1.73,5.28,5.22,7.29C194,363.3,200.11,364.22,205.78,363.52Z"/></g></g></g><path class="cls-3" d="M214.48,346.25c4.81,2.78,6.3,6.75,4.46,10.27l-11.62-6.71a4.5,4.5,0,0,0-4.06,0l-7.63,4.44a1.24,1.24,0,0,0,0,2.35l11.62,6.71c-6.06,1.07-12.92.23-17.73-2.55-5.1-2.94-6.46-7.23-4.09-10.89l-49.27-28.45c-6.38,1.5-14,.75-19.17-2.25-4.54-2.62-6.12-6.31-4.74-9.67l11.51,6.64a4.49,4.49,0,0,0,2.83.44l7-1.08a2.65,2.65,0,0,0,2.06-1.2l1.86-4.06c.26-.58,0-1.2-.77-1.63L125.24,302c5.79-.81,12.17.09,16.71,2.71,5.2,3,6.52,7.4,4,11.1L195,344.09C201.41,342.48,209.19,343.2,214.48,346.25Z"/></g><g id="man-4" data-name="man"><g id="man-5" data-name="man"><path class="cls-4" d="M112.24,283.77c.1-.33.31-.51.92-.56s1.43-.09,2.15-.14l2.91-.19c0-.78-.07-1.58-.16-2.36a4,4,0,0,0,2.6-.45c1.16-.43,2.34-.81,3.53-1.16a3.22,3.22,0,0,1,1.56-.18c1.31.26,2,2.42,1.85,3.56a3.23,3.23,0,0,1-1.3,2,8,8,0,0,1-3.5,1.55,7.2,7.2,0,0,0-3.52,1.41c-1.34,1-2.3,2.16-4.08,2.29a2.91,2.91,0,0,1-3.34-2.81,9.34,9.34,0,0,1,.2-2C112.14,284.33,112.16,284,112.24,283.77Z"/><path class="cls-15" d="M117.68,286c0-.14,0-.28,0-.42a9.12,9.12,0,0,1,1-4,3.11,3.11,0,0,1,.83-1.36c1-.77,2.49-.1,3.1,1,.28.5.44,1.05.69,1.56a3.61,3.61,0,0,0,2.62,2.18,49.12,49.12,0,0,0,4.92-.57,4.23,4.23,0,0,1,1.84.17c1.35.55,1.74,2.74,1.26,4a3.32,3.32,0,0,1-1.71,1.65,8,8,0,0,1-3.76.73,7.38,7.38,0,0,0-3.74.6c-2,1-4.43,2.36-6.5.47a3.08,3.08,0,0,1-.89-2C117.21,288.57,117.66,287.29,117.68,286Z"/></g><path class="cls-62" d="M113.37,225.76c1,1,4.71-.84,4.76-1.33,4.43-3.43,3.9,10.28,2.63,15.73-.68,2.93-.5,6-.91,9a68.92,68.92,0,0,1-2.1,9.84,4.71,4.71,0,0,1-.92,1.94c-1,1.09-2.77,1-4.24.74-1.28-.21-2.71-.57-3.34-1.7a4.63,4.63,0,0,1-.37-2.34,32,32,0,0,0-.39-6.34l-1.35-6.62a57.43,57.43,0,0,1-1-5.82,41.91,41.91,0,0,1,.49-10.61c.29-1.84-.33-5.29,2.29-5.66C111.31,222.22,112.71,225.1,113.37,225.76Z"/><path class="cls-63" d="M118.32,255.84l.73-3.08C118.76,253.77,118.52,254.8,118.32,255.84Z"/><path class="cls-62" d="M117.22,257.8c-.75-1.05-2.63-1-3.26-.71s-4.09-1.85-5.14-2.64a5.06,5.06,0,0,1-.08,1.06l-.06,1.1c0,.72-.07,1.44-.1,2.16q-.08,2.12-.06,4.23a73.88,73.88,0,0,0,.49,8.28,67.22,67.22,0,0,0,1.52,8.32c.26,1,.55,2.09.86,3.12a3.73,3.73,0,0,0,1.34,2.24,3.48,3.48,0,0,0,1.31.38,5.09,5.09,0,0,0,1.35,0,2.14,2.14,0,0,0,1.3-.63,4.16,4.16,0,0,0,.75-1.52,10.55,10.55,0,0,0,.31-2.92c0-4.61-.29-9.22-.29-13.84a54.7,54.7,0,0,1,.86-10.62Z"/><path class="cls-52" d="M120.21,226.72c.42-.22,2.6-1.31,2.58-1.9,0-.4,1.06-.73,1.33-.72a2.71,2.71,0,0,1,1.41.61,6.6,6.6,0,0,1,2.18,3,17,17,0,0,1,.86,5.09,96.4,96.4,0,0,1-.39,15.48q-.42,3.9-1.15,7.73c-.24,1.28-.51,2.56-.81,3.82a2.84,2.84,0,0,1-1.55,2.25c-2.2,1.38-6.15,1.19-7.72-1.29-1.69-2.67-1-6.83-1.52-9.84-.79-4.36-3.7-7.57-5-11.71a18.41,18.41,0,0,1-.33-9c.24-1.46.69-5,2.19-5.83a5.1,5.1,0,0,1,5.26,1.32C118.79,226.93,118.64,227.53,120.21,226.72Z"/><path class="cls-17" d="M105.27,214.66c-.09-.76-.21-1.53-.34-2.3-.65-3.66-1.74-7.23-2.2-10.93-.36-2.87-.62-6.45,1.66-8.66a6.23,6.23,0,0,1,1.24-.92c4.43-2.5,8.66.55,12.8,2a38.44,38.44,0,0,1,7.77,3.83,6.86,6.86,0,0,1,2.29,1.75,5.79,5.79,0,0,1,1,2.95,16.86,16.86,0,0,1-.36,3.67,75,75,0,0,0-.87,21.4c.37,3.06.73,11.43.73,11.43-1,.44-1.67.86-6.61,1-10.2.18-15.85-2.39-16.44-2.93s-.38-1.77-.4-2.52c-.06-2.22,0-4.44,0-6.66A86.83,86.83,0,0,0,105.27,214.66Z"/><path class="cls-52" d="M126.07,261.84q-.28,3.36-.52,6.71c-.13,1.78-.24,3.55-.33,5.32-.07,1.37-.13,2.73-.18,4.1-.26,7.48.53,9.16-3,10.13a4.77,4.77,0,0,1-2.43.08c-2.29-.56-2.69-2.58-3-5.08-.16-1.41-.24-3.1-.28-4.53,0-1.2-.07-2.4-.08-3.6,0-1.63-.05-3.26-.07-4.88,0-2.15,0-4.29,0-6.44,0-2.74-.26-5.55-.27-8.29a1.26,1.26,0,0,1,.56-1c.41-.27,8.68,2.75,9.52,3.69A11.31,11.31,0,0,1,126.07,261.84Z"/><path class="cls-53" d="M119.54,190.29c.16-1.1,1-.84.57-1.84a5.48,5.48,0,0,0-1.62-2.18,3.9,3.9,0,0,0-2.55-.84c-.32,0-.53.2-.84.2a18.66,18.66,0,0,0-2.59,0c-.86.13-1.65.19-1.65,1.16a11.83,11.83,0,0,1-.35,3.79,9.39,9.39,0,0,0-.62,2,3.6,3.6,0,0,0,2.17,3.31,8.46,8.46,0,0,0,5,.44c.82-.12,2-.29,2.47-1.07a3.13,3.13,0,0,0,.13-2A10.72,10.72,0,0,1,119.54,190.29Z"/><g class="cls-7"><g class="cls-7"><path class="cls-5" d="M117.68,173.82l-3.59,2.09a1,1,0,0,1,1,.09l3.59-2.09A1,1,0,0,0,117.68,173.82Z"/><g class="cls-64"><g class="cls-7"><path class="cls-65" d="M115.08,176l3.59-2.09a1,1,0,0,0-1-.09l-3.59,2.09A1,1,0,0,1,115.08,176Z"/></g></g></g></g><path class="cls-53" d="M123.24,176.28a4.45,4.45,0,0,1,1.05,2.18c.28,1.87-.47,3.78-.07,5.63s-.37,5.86-3.9,6.9a12.56,12.56,0,0,1-6.45-.63,9.13,9.13,0,0,1-3.43-3.64C103.06,175,118.23,170.19,123.24,176.28Z"/><path class="cls-40" d="M107.08,181.47c0,.35.1.7.16,1a5.12,5.12,0,0,0,.2.77,4.93,4.93,0,0,0,.24.64,13.12,13.12,0,0,0,1.35,2.2,7,7,0,0,0,2.49,2.51,6.35,6.35,0,0,0,1.48.46c1.39.31,3.45.37,4.52-.78a3.48,3.48,0,0,0,.76-1.93,12.92,12.92,0,0,1,.29-1.92c0-.16.09-.32.14-.49a3.57,3.57,0,0,1,.31-.76,1.76,1.76,0,0,1,1-.86c.73-.22,1.61.2,2.24-.23a1.88,1.88,0,0,0,.64-1c.15-.36.28-.76.43-1.16a5.59,5.59,0,0,1,.74-1.44,3.94,3.94,0,0,0,.51-.65,2.22,2.22,0,0,0,.42-1c.07-1.71-1.34-3.41-2.53-4.5a7.55,7.55,0,0,0-2.13-1.46,8.86,8.86,0,0,0-2.21-.56,10.54,10.54,0,0,0-6.59.83,2.91,2.91,0,0,0-1.27,1.21,1.45,1.45,0,0,1-.18.35,1.34,1.34,0,0,1-.45.29,4.44,4.44,0,0,0-1.34.93C106.48,175.84,106.74,179,107.08,181.47Z"/><path class="cls-53" d="M119.2,181.55c-1.41-.12-1.8,1.63-.85,3a6.87,6.87,0,0,0,1.14,1.08c2.5,2.21,3.17-.12,2.38-.87C120,183,121,181.7,119.2,181.55Z"/><path class="cls-54" d="M119.59,184.23c-.16-.15-1.76-1.13-.65-1.76a.49.49,0,0,1,.68.42c0,.17,0,.34,0,.51a.73.73,0,0,0,.1.28c.14.23.63.46.53.8S119.68,184.32,119.59,184.23Z"/></g><g class="cls-7"><polygon class="cls-3" points="185.92 144.35 182.89 142.57 192.02 129.04 195.04 130.82 185.92 144.35"/><g class="cls-7"><path class="cls-3" d="M183.18,145.71l-3-1.77c.73.42,1.91-.15,2.73-1.37l3,1.78C185.1,145.56,183.91,146.14,183.18,145.71Z"/><g class="cls-66"><g class="cls-7"><path class="cls-3" d="M183.18,145.71l-3-1.77a1.29,1.29,0,0,0,1.15,0l3,1.78A1.34,1.34,0,0,1,183.18,145.71Z"/><path class="cls-3" d="M184.34,145.73l-3-1.78a3,3,0,0,0,.78-.47l3,1.77A3.24,3.24,0,0,1,184.34,145.73Z"/><path class="cls-3" d="M185.11,145.25l-3-1.77a4.24,4.24,0,0,0,.8-.91l3,1.78A4.46,4.46,0,0,1,185.11,145.25Z"/></g></g></g><polygon class="cls-3" points="125.54 218.28 122.51 216.5 167.51 149.79 170.53 151.56 125.54 218.28"/><g class="cls-7"><path class="cls-3" d="M125.14,226.9l-3-1.77a1.83,1.83,0,0,1-.36-.26c-1.71-1.47-1.37-5.22.75-8.37l3,1.77c-2.13,3.15-2.47,6.9-.76,8.38A2.31,2.31,0,0,0,125.14,226.9Z"/><g class="cls-67"><g class="cls-7"><path class="cls-3" d="M125.14,226.9l-3-1.77a1.83,1.83,0,0,1-.36-.26,3.37,3.37,0,0,1-1.05-2.24l3,1.78a3.43,3.43,0,0,0,1,2.24A2.31,2.31,0,0,0,125.14,226.9Z"/><path class="cls-3" d="M123.73,224.41l-3-1.78a6.91,6.91,0,0,1,.12-2.19l3,1.77A7,7,0,0,0,123.73,224.41Z"/><path class="cls-3" d="M123.85,222.21l-3-1.77a11,11,0,0,1,1.68-3.94l3,1.77A11,11,0,0,0,123.85,222.21Z"/></g></g></g><g class="cls-7"><path class="cls-3" d="M174.7,133.67l-3-1.77c3.77-5.6,8.76-9,12.92-9.27l3,1.77C183.46,124.69,178.48,128.07,174.7,133.67Z"/><g class="cls-68"><g class="cls-7"><path class="cls-3" d="M174.7,133.67l-3-1.77a26.22,26.22,0,0,1,5-5.61l3,1.77A27,27,0,0,0,174.7,133.67Z"/><path class="cls-3" d="M179.7,128.06l-3-1.77a17.3,17.3,0,0,1,4.75-2.9l3,1.77A17.7,17.7,0,0,0,179.7,128.06Z"/><path class="cls-3" d="M184.45,125.16l-3-1.77a10.59,10.59,0,0,1,3.17-.76l3,1.77A10.74,10.74,0,0,0,184.45,125.16Z"/></g></g></g><g class="cls-7"><path class="cls-3" d="M170.53,151.56l-3-1.77c-1.47-4.68,0-11.73,4.17-17.89l3,1.77C170.54,139.83,169.06,146.88,170.53,151.56Z"/><g class="cls-69"><g class="cls-7"><path class="cls-3" d="M170.53,151.56l-3-1.77a12.08,12.08,0,0,1-.46-2.17l3,1.77A11.9,11.9,0,0,0,170.53,151.56Z"/><path class="cls-3" d="M170.08,149.39l-3-1.77a18.31,18.31,0,0,1,.31-5.64l3,1.78A18.21,18.21,0,0,0,170.08,149.39Z"/><path class="cls-3" d="M170.38,143.76l-3-1.78a28.28,28.28,0,0,1,4.32-10.08l3,1.77A28.33,28.33,0,0,0,170.38,143.76Z"/></g></g></g><path class="cls-4" d="M174.7,133.67c3.78-5.6,8.76-9,12.92-9.27l-9.12,13.53c-.88,1.31-1,2.87-.31,3.48L183,145.6c.7.61,2,.05,2.88-1.25L195,130.82c.86,4.62-.72,11-4.49,16.55-4,5.94-9.37,9.39-13.67,9.29l-45.16,67c-2.13,3.15-5.23,4.5-6.94,3s-1.37-5.23.76-8.38l45-66.71C169.06,146.88,170.54,139.83,174.7,133.67Z"/></g><path class="cls-53" d="M152.59,192.24c-.27.12-.68.19-.7-.17,0-.62.34-1.23.23-1.85,0-.21-.18-.45-.41-.46s-.42.27-.52.51a8.2,8.2,0,0,1-.81,1.72,10.58,10.58,0,0,1-.94,1.07,3.63,3.63,0,0,0-.78,1.17,2,2,0,0,0,0,1.19,5.83,5.83,0,0,1-.09,1.1,8.49,8.49,0,0,0,.16,1.59,1.68,1.68,0,0,0,.52,1.07c.38.23.79-.06,1.06-.31a10.14,10.14,0,0,0,.95-1.4c.16-.21.23-.45.39-.65a2.45,2.45,0,0,1,.74-.53,5.87,5.87,0,0,0,1.55-1.3,3.6,3.6,0,0,0,.93-1.79,11.49,11.49,0,0,0,.12-1.44,2.58,2.58,0,0,0-.32-1.54c-.37-.61-.47.13-.68.43a6.74,6.74,0,0,1-1.22,1.49A.85.85,0,0,1,152.59,192.24Z"/><path class="cls-6" d="M150.2,196.54A2.3,2.3,0,0,0,149,196a3.26,3.26,0,0,0-2.5.9c-2.24,1.86-3.88,4.89-6.79,5.76a5,5,0,0,1-3.67-.79c-1.46-.83-3-1.43-4.55-2.17a33,33,0,0,0-3-1.44,4.78,4.78,0,0,0-4.19-.06,5.11,5.11,0,0,0-2.35,3.36,4.63,4.63,0,0,0,1.2,4.15,9.15,9.15,0,0,0,3.69,1.93c1.46.5,2.91,1,4.38,1.54.75.25,1.5.5,2.27.73s1.38.27,2.08.43a11,11,0,0,0,5.1-.37,7.88,7.88,0,0,0,2.84-1.55,29.2,29.2,0,0,0,6.93-8,4.32,4.32,0,0,0,.77-1.93A2.79,2.79,0,0,0,150.2,196.54Z"/><path class="cls-5" d="M199.8,95.23l-11-35.92Z"/><rect class="cls-70" x="193.22" y="58.49" width="2.16" height="37.57" transform="translate(-14.11 60.29) rotate(-17.03)"/><path class="cls-4" d="M212.91,208a28.7,28.7,0,0,1-13.33-18.18c.78,3.43,3.46,6.84,8,9.59,11.45,6.89,30.39,7.08,42.31.43,5.12-2.86,8.12-6.51,9-10.29a28.56,28.56,0,0,1-6.42,12.63,29.92,29.92,0,0,1-11.39,8C232,213.84,221,213,212.91,208Z"/><path class="cls-17" d="M250.13,126.23c11.15,6.71,10.77,17.41-.86,23.89s-30.09,6.3-41.24-.42-10.77-17.4.85-23.89S239,119.52,250.13,126.23Z"/><g class="cls-7"><path class="cls-3" d="M199.55,189.74l-9-39.3c1.05,4.58,4.53,9,10.49,12.59,14.86,8.95,39.48,9.2,55,.56,6.66-3.71,10.55-8.46,11.64-13.37l-8.77,39.35c-.84,3.78-3.84,7.43-9,10.29-11.92,6.65-30.86,6.46-42.31-.43C203,196.68,200.36,193.26,199.55,189.74Z"/></g><path class="cls-2" d="M204.1,125.19c15.19-8.25,36.69-8,51.14.58-1.29-.78-3.09-.72-5.11.41-11.16-6.71-29.62-6.9-41.25-.42s-12,17.18-.85,23.89,29.62,6.9,41.24.42,12-17.18.86-23.89c2-1.13,3.82-1.19,5.11-.41,3,2,7.59,4.91,10.77,11.13a20.11,20.11,0,0,1,1.68,13.22c-1.13,5-5,9.79-11.67,13.5-15.49,8.64-40.11,8.39-55-.56-6-3.58-9.44-8-10.49-12.58a20.25,20.25,0,0,1-.37-6.84,20.61,20.61,0,0,1,2-6.62A27.72,27.72,0,0,1,204.1,125.19Z"/><path class="cls-6" d="M245.26,77.72c8.56,5.15,8.27,13.36-.65,18.33s-23.08,4.83-31.64-.32-8.26-13.36.66-18.33S236.71,72.57,245.26,77.72Z"/><g class="cls-7"><path class="cls-3" d="M201.67,139.12c-13.77-8.53-16.79-19.8-16.9-27.76,0,6.39,4.12,12.78,12.36,17.74,17,10.22,45.11,10.51,62.81.64,9.11-5.08,13.69-11.86,13.67-18.64a29.66,29.66,0,0,1-2.06,11,32.87,32.87,0,0,1-4.91,8.43A39.68,39.68,0,0,1,250,142.36C231.76,149.48,212.57,145.86,201.67,139.12Z"/></g><path class="cls-17" d="M202.94,76.12a54.09,54.09,0,0,1,26.91-6.43,53.29,53.29,0,0,1,26.84,7.11c-2.9-1.74-6.95-1.57-11.43.92-8.55-5.15-22.72-5.29-31.63-.32s-9.21,13.18-.66,18.33,22.72,5.29,31.64.32,9.21-13.18.65-18.33c4.48-2.49,8.53-2.66,11.43-.92,4.08,2.64,16.5,10.66,16.9,27.76,0,6.78-4.56,13.56-13.67,18.64-17.7,9.87-45.82,9.59-62.81-.63-8.24-5-12.34-11.36-12.36-17.75A30.48,30.48,0,0,1,186,96.08a31.41,31.41,0,0,1,4.23-8.73A37.46,37.46,0,0,1,202.94,76.12Z"/><path class="cls-39" d="M237.91,129.91c-14.39,1.69-29.89-.78-40.8-7.34-8.19-4.94-12.3-11.28-12.36-17.64a15.92,15.92,0,0,1,4.55-11c0,5.7,3.74,11.39,11.09,15.82,9.78,5.89,23.68,8.1,36.59,6.58A118.17,118.17,0,0,1,237.91,129.91Z"/><g class="cls-7"><path class="cls-2" d="M184.77,111.36l0-6.54c0,6.39,4.12,12.78,12.36,17.75,17,10.22,45.11,10.5,62.81.63,9.11-5.08,13.69-11.86,13.67-18.64l0,6.54c0,6.78-4.56,13.56-13.67,18.64-17.7,9.87-45.82,9.58-62.81-.64C188.89,124.14,184.78,117.75,184.77,111.36Z"/></g><path class="cls-12" d="M192,111.55c-.88,2.46-2.37,2.63-3.41.37-1.73-3.77,0-8.32,2.28-7.67a1.8,1.8,0,0,1,.85.6C193.12,106.9,192.35,110.46,192,111.55Z"/><path class="cls-12" d="M217.14,122.72c-.65,3.7-5.31,4.33-7.66,1s.24-7.42,3.67-7l.42.08A5.23,5.23,0,0,1,217.14,122.72Z"/><path class="cls-5" d="M258.63,106.78c0-2.19-1.54-3.08-3.44-2a7.6,7.6,0,0,0-3.44,6c0,2.19,1.54,3.08,3.44,2A7.59,7.59,0,0,0,258.63,106.78Z"/><path class="cls-5" d="M255.64,108.82,280.71,90Z"/><path class="cls-70" d="M255.64,109.9a1.08,1.08,0,0,1-.65-2l25.08-18.82a1.08,1.08,0,0,1,1.51.22,1.07,1.07,0,0,1-.22,1.51l-25.07,18.82A1.06,1.06,0,0,1,255.64,109.9Z"/><path class="cls-5" d="M287.08,88.65a5.83,5.83,0,1,0-5.83,5.83A5.83,5.83,0,0,0,287.08,88.65Z"/><path class="cls-5" d="M194.1,59.31a5.83,5.83,0,1,0-5.83,5.83A5.83,5.83,0,0,0,194.1,59.31Z"/><g class="cls-7"><g class="cls-7"><path class="cls-6" d="M263.79,148.34,268,150.8c-1.8-1-4.29-.9-7,.69L256.74,149C259.49,147.44,262,147.29,263.79,148.34Z"/><g class="cls-71"><g class="cls-7"><path class="cls-6" d="M261,151.49,256.74,149c2.75-1.59,5.25-1.74,7.05-.69L268,150.8C266.23,149.76,263.74,149.9,261,151.49Z"/></g></g></g><path class="cls-12" d="M262,155.64c3.75-2.17,6.8-.42,6.81,3.89A14.92,14.92,0,0,1,262,171.26c-3.75,2.17-6.81.42-6.82-3.89A15,15,0,0,1,262,155.64Z"/><g class="cls-7"><path class="cls-6" d="M254,175l-4.24-2.46c-1.78-1-2.88-3.23-2.89-6.36,0-6.29,4.4-13.95,9.88-17.11l4.24,2.46c-5.47,3.16-9.9,10.83-9.88,17.12C251.11,171.73,252.21,173.93,254,175Z"/><g class="cls-72"><g class="cls-7"><path class="cls-6" d="M254,175l-4.24-2.46c-1.58-.92-2.63-2.76-2.85-5.34l4.25,2.46C251.37,172.21,252.41,174.05,254,175Z"/><path class="cls-6" d="M251.15,169.62l-4.25-2.46c0-.33,0-.67,0-1,0-5.42,3.27-11.87,7.68-15.57l4.25,2.47c-4.42,3.7-7.7,10.14-7.69,15.57C251.1,169,251.12,169.3,251.15,169.62Z"/><path class="cls-6" d="M258.79,153l-4.25-2.47a15.07,15.07,0,0,1,2.2-1.54l4.24,2.46A15.88,15.88,0,0,0,258.79,153Z"/></g></g></g><g class="cls-7"><path class="cls-6" d="M262,155.64l-1-4.15c5.48-3.16,9.93-.62,9.95,5.67s-4.41,14-9.88,17.11-9.93.63-10-5.66,4.41-14,9.88-17.12l1,4.15a15,15,0,0,0-6.78,11.73c0,4.31,3.07,6.06,6.82,3.89a14.92,14.92,0,0,0,6.77-11.73C268.77,155.22,265.72,153.47,262,155.64Z"/><g class="cls-73"><g class="cls-7"><path class="cls-15" d="M262,155.64l-1-4.15c5.48-3.16,9.93-.62,9.95,5.67s-4.41,14-9.88,17.11-9.93.63-10-5.66,4.41-14,9.88-17.12l1,4.15a15,15,0,0,0-6.78,11.73c0,4.31,3.07,6.06,6.82,3.89a14.92,14.92,0,0,0,6.77-11.73C268.77,155.22,265.72,153.47,262,155.64Z"/></g></g></g></g><g class="cls-7"><polygon class="cls-4" points="348.75 354.73 348.75 360.12 314.08 380.27 314.08 374.88 348.75 354.73"/><polygon class="cls-3" points="314.08 374.88 314.08 380.27 279.17 360.13 279.17 354.73 314.08 374.88"/><polygon class="cls-16" points="348.54 354.73 313.87 374.88 278.97 354.73 313.64 334.57 348.54 354.73"/></g><g class="cls-7"><polygon class="cls-3" points="349.39 347.55 349.39 352.95 314.72 373.1 314.72 367.7 349.39 347.55"/><polygon class="cls-3" points="314.72 367.7 314.72 373.1 279.82 352.95 279.82 347.55 314.72 367.7"/><polygon class="cls-16" points="349.19 347.55 314.51 367.7 279.61 347.55 314.28 327.4 349.19 347.55"/></g><g class="cls-7"><polygon class="cls-4" points="355.86 343.4 355.86 348.8 321.18 368.95 321.18 363.56 355.86 343.4"/><polygon class="cls-3" points="321.18 363.56 321.18 368.95 286.28 348.8 286.28 343.4 321.18 363.56"/><polygon class="cls-16" points="355.86 343.4 321.18 363.56 286.28 343.4 320.96 323.25 355.86 343.4"/></g><g class="cls-7"><polygon class="cls-4" points="355.86 336.52 355.86 341.92 321.18 362.07 321.18 356.68 355.86 336.52"/><polygon class="cls-3" points="321.18 356.68 321.18 362.07 286.28 341.92 286.28 336.52 321.18 356.68"/><polygon class="cls-16" points="355.86 336.52 321.18 356.68 286.28 336.52 320.96 316.37 355.86 336.52"/></g><g class="cls-7"><polygon class="cls-4" points="355.86 328.74 355.86 334.14 321.18 354.29 321.18 348.89 355.86 328.74"/><polygon class="cls-3" points="321.18 348.89 321.18 354.29 286.28 334.14 286.28 328.74 321.18 348.89"/><polygon class="cls-17" points="355.86 328.74 321.18 348.89 286.28 328.74 320.96 308.59 355.86 328.74"/></g></g></g></svg>