<svg xmlns="http://www.w3.org/2000/svg" viewBox="0 0 452.73 385.22"><defs><style>.cls-1{isolation:isolate;}.cls-2{fill:#c9eeff;}.cls-3{fill:#e5b37c;}.cls-24,.cls-25,.cls-28,.cls-30,.cls-4{fill:#0062db;}.cls-29,.cls-4{opacity:0.5;}.cls-20,.cls-25,.cls-28,.cls-29,.cls-4{mix-blend-mode:multiply;}.cls-22,.cls-5{fill:#fff;}.cls-6{fill:#e88a12;}.cls-23,.cls-7{fill:none;stroke:#fff;stroke-miterlimit:10;}.cls-7{stroke-width:0.81px;}.cls-8{fill:#eaada9;}.cls-9{fill:#e1787f;}.cls-10{fill:#5d1f74;}.cls-11{fill:#db2852;}.cls-12{fill:#070c4d;}.cls-13{fill:#1b348c;}.cls-14{fill:#0b137a;}.cls-15{fill:#97adf3;}.cls-16{fill:#6374da;}.cls-17{fill:#cfdaff;}.cls-18,.cls-19,.cls-20,.cls-21{fill:#64c3e3;}.cls-18,.cls-26{opacity:0.6;}.cls-19{opacity:0.8;}.cls-20{opacity:0.9;}.cls-22,.cls-24{opacity:0.45;}.cls-22,.cls-26,.cls-27{mix-blend-mode:screen;}.cls-23{stroke-width:0.8px;}.cls-25{opacity:0.72;}.cls-26,.cls-27{fill:#3384e8;}.cls-27{opacity:0.95;}.cls-28{opacity:0.25;}</style></defs><g class="cls-1"><g id="OBJECTS"><circle class="cls-2" cx="171.6" cy="159.08" r="151.56" transform="translate(-62.23 167.93) rotate(-45)"/><circle class="cls-2" cx="323.9" cy="213.59" r="115.87" transform="translate(-56.16 291.59) rotate(-45)"/><rect class="cls-3" x="73.36" y="78.6" width="192.83" height="103.32" rx="4.98"/><rect class="cls-4" x="87.02" y="118.13" width="8.92" height="49.01"/><rect class="cls-4" x="100.83" y="108.92" width="8.92" height="58.21"/><rect class="cls-4" x="114.63" y="101.6" width="8.92" height="65.53"/><rect class="cls-4" x="128.43" y="129.84" width="8.92" height="37.3"/><rect class="cls-4" x="142.24" y="101.6" width="8.92" height="65.53"/><rect class="cls-5" x="181.69" y="115.83" width="71.32" height="5.65"/><rect class="cls-5" x="181.69" y="126.07" width="68.18" height="5.65"/><rect class="cls-5" x="181.69" y="136.32" width="60.65" height="5.65"/><rect class="cls-5" x="181.7" y="146.57" width="51.02" height="5.64"/><rect class="cls-5" x="236.28" y="146.57" width="16.74" height="5.64"/><rect class="cls-5" x="181.69" y="156.82" width="46.43" height="5.65"/><path class="cls-6" d="M261.38,78.6H78.17a4.81,4.81,0,0,0-4.81,4.81v8.16H266.19V83.41A4.81,4.81,0,0,0,261.38,78.6Z"/><path class="cls-5" d="M86.6,85.22A2.58,2.58,0,1,1,84,82.64,2.57,2.57,0,0,1,86.6,85.22Z"/><path class="cls-5" d="M96.22,85.22a2.58,2.58,0,1,1-2.57-2.58A2.57,2.57,0,0,1,96.22,85.22Z"/><path class="cls-5" d="M105.85,85.22a2.58,2.58,0,1,1-2.58-2.58A2.58,2.58,0,0,1,105.85,85.22Z"/><rect class="cls-7" x="75.59" y="80.55" width="192.83" height="103.31" rx="4.98"/><path class="cls-5" d="M319.59,197.23c-1.07-.8-7.7,1.31-12.22,3.76S295.06,212.87,295,212.92c-.25-.83-2.5-5.77-2.5-5.77L296.57,189l6.86-16.17.88-2.5h0l1.27-3.62.35-3.93,1-11.38s-3.4-1.78-5.71-1.9S279.15,171,278,172.91s-6.39,27.42-6.94,30-10.67,27.79-10.69,27.85h0c-1.74.88-3.82,1.88-6.16,3-.64-3.92-1.31-7.74-1.95-11.61-2.46-15-15.59-27.66-15.59-27.66a139.16,139.16,0,0,0-27.22-12.76c-3.33-1.14-6.78-2.26-10.25-3.35.21-1.11.46-2.37.72-3.72.82-4.15,1.79-9,2.33-11.65,5.5,1.11,10.76,2,12.13,1.76,2.78-.37,7.65-13.09,9.73-17.35,1.9-3.87,5.74-11.52,6-20.42,0-.11,0-.22,0-.34,0-.45,0-.9,0-1.36,4.63-.67,8.36-1.62,9.74-2.9,2.32-2.14,7.12-16,7-20.73a17.71,17.71,0,0,0-1.16-6.21h0a12.12,12.12,0,0,0-.57-1.14l-.06-.11a9.59,9.59,0,0,0-.69-1l-.1-.12a6.91,6.91,0,0,0-.85-.86l-.1-.09a7.51,7.51,0,0,0-1.07-.74h0a5.58,5.58,0,0,0-.69-.35c-.29-.13-.61-.25-.94-.36-2.26-.71-6.31-1.11-11.07-1.39A37.41,37.41,0,0,0,229.5,82l.06.07a26.59,26.59,0,0,0,2.06,2.23s2.1-6,1.9-8.75a10.16,10.16,0,0,1,3.54,2.6s-.06-8.06-3.82-13.89l2.64.75S231.7,55.94,215,48.77l1.77-.27s-6.91-3.12-20-3.4l4.75-1.94s-11.92.19-18.94,2.94l1.31-1.4s-13.31,2.55-20.27,13.14L163,53.78a10.34,10.34,0,0,0-1.4,5l-2-1.4.73,3A17.26,17.26,0,0,0,153.75,62l3.69.81A22.77,22.77,0,0,0,150,70.65c-2.65,5-1.45,18.68-1.45,18.68l1.08-1.92s.07.71.15,1.75c0,.36.06.77.08,1.19s.05.82.08,1.25L150,93c0,.9,0,1.79,0,2.56,0,0-.71,7.84,0,12,0,0-1,6.49-.48,10.44l.78-1.8s.87,13.36,7.18,20.37v-3.35c.38,2.08,3,5.55,3,5.55l-.58-1.87a19.08,19.08,0,0,0,4.58,2.46l0-.18.52.46-.49-.28s-8.19,17.86-9.36,20.21-7.29,10.66-7.29,10.66c-10.47,7.82-31.56,23.69-33.7,26.29h0c-24.54,28.87-4.95,75.89,5.55,101.49.66,3.11,1.27,6,1.79,8.6v.05c.07.31.13.62.19.92,0,.12,0,.24.07.35,0,.26.11.52.16.77l.09.47c0,.23.09.46.13.69s.06.3.09.46.11.55.16.82.11.55.16.81,0,.28.08.42.07.39.11.57,0,.29.07.43.07.37.1.55,0,.24.07.36.06.37.1.55a3.06,3.06,0,0,0,0,.32c0,.21.07.42.1.62l0,.16c0,.25.08.48.11.7l0,.21c0,.15,0,.3.06.43l0,.21c0,.13,0,.25,0,.36a1.11,1.11,0,0,0,0,.19l0,.32s0,.09,0,.14,0,.26,0,.37,0,.46,0,.73c0,.08,0,.17,0,.26s0,.39,0,.61,0,.21,0,.32,0,.47-.05.72c0,.1,0,.2,0,.31,0,.36-.06.73-.09,1.13V323c0,.37-.07.76-.11,1.15,0,.14,0,.27,0,.41,0,.31-.07.63-.11,1,0,.15,0,.3,0,.44,0,.37-.08.74-.13,1.12,0,.11,0,.22,0,.33-.12,1-.26,2.1-.41,3.21l0,.27-.21,1.5,0,.22c-1.85,13.37-4.93,30.76-4.93,30.76l23.14-.25,0,0,6.42-.05.08-.06,98-1.1-.58-3.09,13.71.57,3.39.15s-4.61-18.42-6.78-28.39c-.38-1.82-.7-3.36-.89-4.45h0l0-.23-.06-.33,0-.2a.68.68,0,0,0,0-.15c0-.05,0-.09,0-.13a.68.68,0,0,1,0-.14c0-.12,0-.23,0-.31v-.83c0-5.25.83-30.12,1.26-43.57.09-2.7.16-4.94.21-6.46l2.63-.9c0-5.2-.14-9.94-.41-14.37,8.63-6.7,14.32-11.22,14.32-11.49h0s7.6-2.49,10.39-4.25a.6.6,0,0,0,.13-.09c1.55-1,5.35-4.32,8.26-6.9,2.09-1.84,3.73-3.33,3.74-3.34,4.51-2.67,11-16.07,11-16.07s6.11-5,9.75-8.49S320.67,198,319.59,197.23Z"/><path class="cls-8" d="M264.05,364.71l-3.39-.16-25.94-1.2L232,323.86l-3.86-47.35v-.07l.06,0,29.38-4.24s-.11,3.69-.27,9.18c-.41,14.23-1.15,40.56-1.18,46.12,0,.4,0,.7,0,.87a62.76,62.76,0,0,0,1.1,6.29C259.41,345.2,264.05,364.71,264.05,364.71Z"/><path class="cls-9" d="M247.49,334c.22-1.4,7.69-3,8.83-4.09h0a2,2,0,0,0,0-.24c0-.12,0-.23,0-.34l0-.22c0-.1,0-.2,0-.29s0-.1,0-.15a2.23,2.23,0,0,1,0-.33c0-.18,0-.47,0-.87l-11.23-.77.83-40.79,11.58-4.57c.16-5.49.27-9.18.27-9.18l-29.38,4.24-.06.09L232,323.87l2.74,39.49,21.06,1C253,355.15,247.23,335.72,247.49,334Z"/><path class="cls-6" d="M239.14,194.4s13.13,12.67,15.59,27.66,5.46,29.11,5.38,51.43c0,0-16.82,5.88-23.21,6.65S239.14,194.4,239.14,194.4Z"/><path class="cls-10" d="M236.9,280.14c4.41-.53,13.8-3.5,19.19-5.29-.8-7.44-1.79-17.54-2.82-30.14-2.4-29.5-12.51-48.13-12.51-48.13S230.51,280.92,236.9,280.14Z"/><path class="cls-6" d="M119.76,363.37s6.55-37,6.29-44.54-18.16-82.7-18.91-92.3,6.63-26.59,9.45-30c2.1-2.58,23.23-18.48,33.71-26.3,3.52-2.63,5.84-4.34,5.84-4.34s31.17,7.32,55.78,15.79a139.45,139.45,0,0,1,27.22,12.76c11.35,10.71-1,118.06-.48,121.39l8.7,46.16Z"/><path class="cls-10" d="M231.1,320.87s-15.61,8.48-22.61,11.86S189.62,338,189.62,338s19.61-1.92,21-3S231.1,320.87,231.1,320.87Z"/><path class="cls-10" d="M175.15,207.89s13.93,9.78,34.5,5.31C209.65,213.2,189.45,222.47,175.15,207.89Z"/><path class="cls-10" d="M141.68,208.4s8.07,3.49,15.41,16.22c3.6,6.24,24.13,44.79,24.13,44.79l-17,5.19Z"/><polygon class="cls-10" points="157.87 235.26 152.72 206.77 163.87 245.31 157.87 235.26"/><path class="cls-10" d="M142.87,363.16l6.42-.05c5.79-4.64,19.1-15.34,21.21-17.37,2.7-2.6,46.15-54,46.15-54l-62.79-8.46-38.17-55.62-6.83,8.94c4.65,23.33,17,76,17.19,82.26.11,3-.87,10.67-2.08,18.8l3.93-5.5,7.52,15.92-3.75-20,15.72,27.37Z"/><path class="cls-8" d="M207.9,206.91c-18.9,4.18-48.79-11.14-57.6-36.72,3.52-2.63,5.84-4.34,5.84-4.34s31.17,7.32,55.78,15.79C215.8,188.2,223,203.56,207.9,206.91Z"/><path class="cls-5" d="M228.91,221.82a1.26,1.26,0,1,1-1.29-1.21A1.26,1.26,0,0,1,228.91,221.82Z"/><path class="cls-8" d="M205.14,160.82s-1.53,7.61-2.75,13.75c-.63,3.21-1.17,6-1.35,7.12-.52,3.15-3.94,7-3.94,7S166,187.6,150.3,170.19c0,0,6.11-8.33,7.29-10.66s9.35-20.21,9.35-20.21l10.12,5.7Z"/><path class="cls-9" d="M205.14,160.82s-1.53,7.61-2.75,13.75a33.85,33.85,0,0,1-7.64-4.55c-10.1-8.08-18.82-24.9-18.82-24.9l1.13-.1Z"/><path class="cls-8" d="M174,144.38s12.73,13.24,17,15.05,23.07,5.63,25.85,5.25,7.65-13.09,9.73-17.35,6.53-13.05,5.91-23.08-1.9-23.09-1.51-27.85,2.66-12.09-.45-21.47S213.22,49.85,188.36,57.4s-31.34,22-33.67,35.46-2.76,33.58,13.33,47.26Z"/><path class="cls-9" d="M187.57,122.09s4.28,2.78,7.12,4.36,13.19,2.34,13.19,2.34l2.54-3.44,4.65,5.57,2.55-2.88,14.79,1.05a32.41,32.41,0,0,0,.08-4.84c-.09-1.44-.19-2.94-.3-4.47l-25.72-3.92Z"/><path class="cls-11" d="M216.17,144.83s-6.2,2.09-11.65-.09-6.51-4.8-6.51-4.8-.55.22-.4.64a12.52,12.52,0,0,0,8,5.58,17.25,17.25,0,0,0,10.08-.83A1.34,1.34,0,0,0,216.17,144.83Z"/><path class="cls-12" d="M166.94,139.32s-.43-3.75-.69-5.1-1.08-4.15-1.08-4.15l-.31-9.2-2.52-15.15-9.87,1.8s-1,6.49-.48,10.44l.78-1.8s.87,13.36,7.18,20.37v-3.35c.38,2.08,3,5.55,3,5.55l-.58-1.87A19.11,19.11,0,0,0,166.94,139.32Z"/><path class="cls-13" d="M179.49,99s5.51-7.09,6.32-11.2l1.52,1.83s3.1-7.43,2.87-14c0,0,12.39-1.89,21.67.09l-3.66-2.8s10.48.37,17.89,6.09l-1-1.85s5.87,3.56,7,4.89a26.59,26.59,0,0,0,2.06,2.23s2.1-6,1.9-8.75a10.16,10.16,0,0,1,3.54,2.6s-.07-8.06-3.82-13.89l2.64.75s-4.18-9.07-20.85-16.24l1.77-.27s-6.91-3.12-20-3.4l4.75-1.94s-11.92.19-18.94,2.94l1.31-1.4s-13.31,2.55-20.27,13.14l-.66-4.06a10.34,10.34,0,0,0-1.4,5l-2-1.4.73,3A17.26,17.26,0,0,0,156.26,62l3.68.81a22.79,22.79,0,0,0-7.47,7.89c-2.65,5-1.45,18.68-1.45,18.68l1.08-1.92a79.78,79.78,0,0,1,.38,8.11c-.1,3.07,12.92,4.51,17,4.27S179.49,99,179.49,99Z"/><polygon class="cls-12" points="175.2 98.86 177.17 89.27 176.9 99.75 175.2 98.86"/><path class="cls-12" d="M166.92,98.62l-.21-6.27c-.09-2.61-.05-10.57-.05-10.57s-2.52,8.77-2.72,9.1-.94,3.06-.94,3.06a52.17,52.17,0,0,1-2-5.27c0-.62.14-5.13.14-5.13l-1.83,7.81s-3.21-2.09-3.92-4.37-1.17-10-1.17-10-2.87,5.39-3.46,8.6c.08,2.22.22,3.75.22,3.75l1.08-1.92a79.78,79.78,0,0,1,.38,8.11c-.08,2.54,8.8,4,14.18,4.24Z"/><path class="cls-14" d="M170.05,111.62a45.39,45.39,0,0,0,.71,5.91l.7-.75s.53,4.69.73,6a22,22,0,0,0,.67,2.8s.89-6.25,1.26-7.63,1.1-3.17,1.1-3.17l.46,1.39,1.6-5.33-6.61-.46Z"/><path class="cls-15" d="M152.47,107.52s17.05,4.86,32.81,4.88l1.6-14.56s-26.51-.22-34.4-2.32C152.48,95.52,151.77,103.36,152.47,107.52Z"/><path class="cls-16" d="M152.47,107.52s17.05,4.86,32.81,4.88l1.55-14.14c-.31-.16-.61-.3-.89-.43l-2.53,0c-.85,2.52-3.21,9.63-3.19,10.32s-20.57-.22-27.88-1.6C152.38,106.86,152.42,107.2,152.47,107.52Z"/><path class="cls-15" d="M249.22,101.58c.16,4.73-4.64,18.59-7,20.73-3.92,3.63-26.49,4.54-35.43,4.42h-.54c-1.26,0-2.48-.09-3.64-.2l-.13,0c-6.73-.61-11.76-2.43-15-4.41a15.85,15.85,0,0,1-2.8-4.85,17.26,17.26,0,0,1-.59-1.76,17.54,17.54,0,0,1-.5-2.13,22.93,22.93,0,0,1-.36-5.34c.39-9.23,2.47-17.67,10.22-19.61s10.58-.36,21.2.11,23.46.6,28.25,2.11c.33.11.64.23.94.36C248,92.78,249.07,97.16,249.22,101.58Z"/><path class="cls-5" d="M194.59,113s-1.24-7.4.52-13.18,3.31-7.3,5.85-8.36l-6-1.05s6.85.67,7.62.57a46.89,46.89,0,0,1,7.38-.32c3.36.17,20.13,1.2,26.81.62s-1.54,7.94-7,10.7-22.18,10.32-24.95,10.83S194.59,113,194.59,113Z"/><path class="cls-16" d="M198.54,118.79a66.76,66.76,0,0,1-14.36-3.31,17.54,17.54,0,0,1-.5-2.13c4.95,1.63,14.66,3.49,14.66,3.49Z"/><path class="cls-16" d="M206.29,126.72c-1.26,0-2.48-.09-3.64-.2l-.13,0c-6.73-.61-11.76-2.43-15-4.41a15.85,15.85,0,0,1-2.8-4.85,50.5,50.5,0,0,0,12.86,3.39C203.24,121.32,205.79,124.42,206.29,126.72Z"/><path class="cls-17" d="M249.22,101.58c.16,4.73-4.64,18.59-7,20.73-3.92,3.63-26.49,4.54-35.43,4.42-1.46,0-2.85-.09-4.18-.21l-.13,0c-.78-.11-5.09-1-6.79-6.51-1.89-6.07-2.5-24,5.05-27.65,0,0,3.85-1.67,12.1-1s22.47.08,26.78-.35a22.66,22.66,0,0,1,4.27,0C248,92.78,249.07,97.16,249.22,101.58Z"/><path class="cls-5" d="M239.66,91c-2,.2-6.14.44-10.81.57l-25.74,35c1.19.1,2.43.17,3.72.18,2.4,0,5.79,0,9.53-.16,4.47-6.64,20.76-30.82,24.14-35.6Z"/><path class="cls-5" d="M230.43,125.5l17.63-30.13a8,8,0,0,0-3.44-4c-5.26,7.93-17.83,26.86-23.24,35C224.45,126.12,227.56,125.85,230.43,125.5Z"/><path class="cls-5" d="M188.92,96.36a.55.55,0,1,1-1-.35.55.55,0,1,1,1,.35Z"/><path class="cls-5" d="M189.73,98.08c0,.2-.18.35-.33.32a.32.32,0,0,1-.23-.4.33.33,0,0,1,.33-.32A.32.32,0,0,1,189.73,98.08Z"/><path class="cls-8" d="M170.05,111.63c-.05-.17-4.81-7.2-10.31-5.65s-6.06,12.55-2.75,17.57S167.57,130,167.57,130s2.63-8.24,2.85-14.33C170.19,113.87,170.05,111.64,170.05,111.63Z"/><path class="cls-9" d="M159,110.3s3.73-1,6,1.31a12.83,12.83,0,0,1,3,5.49l-1.1,1.51s.6-4-2.41-6.41S159,110.3,159,110.3Z"/><path class="cls-12" d="M169.65,86.7c0-.31-.51-5.94.22-8.9a15.66,15.66,0,0,1,2.65-5.32,50.74,50.74,0,0,0-2.05,7.5C170,83.24,169.65,86.7,169.65,86.7Z"/><path class="cls-12" d="M164.32,65.12a14.32,14.32,0,0,0-5,5.09c-1.67,3.2-1.89,9-1.89,9s1.27-5.8,3.26-8.8S164.32,65.12,164.32,65.12Z"/><path class="cls-5" d="M174.12,58a27.33,27.33,0,0,1,12.31-7c8.09-2.27,23,.57,23,.57s-15-1.89-22.69.46A47.37,47.37,0,0,0,174.12,58Z"/><path class="cls-5" d="M188.63,54s12.57-2.52,23.56.66C212.19,54.7,199.47,52.73,188.63,54Z"/><path class="cls-12" d="M162.36,75.34a12.74,12.74,0,0,1,4.89-10S163,70.5,162.36,75.34Z"/><path class="cls-5" d="M181.85,63.9s11.75-2.18,20.5-.18C202.35,63.72,192.17,59.78,181.85,63.9Z"/><path class="cls-10" d="M148.6,337.7s9.58,6.79,21.16-13.7-26.13-13.48-26.13-13.48A27.94,27.94,0,0,0,148.6,337.7Z"/><path class="cls-8" d="M175.48,266.89s66.79-25.71,87.36-36.18c0,0,11.14,15.8,11.18,16.92s-94.89,73-97.59,75.59-20.44,6.27-21.28,6-12-8.51-12-8.51S146.53,281,175.48,266.89Z"/><path class="cls-9" d="M175.48,266.89c-28.95,14.1-32.34,53.84-32.34,53.84s11.16,8.26,12,8.51,18.57-3.42,21.28-6c1.41-1.37,28.14-21.74,53.27-41,7.57-8,12.8-13.64,12.8-13.64s-60.09,42-67.19,42.47-15.49,5.76-15.49,5.76-7-1.7-6.76-7.93C153.63,295.05,175.48,266.89,175.48,266.89Z"/><path class="cls-6" d="M116.58,196.49s12.27-8.37,22.7,3,36.2,67.4,36.2,67.4-41,38.23-26.88,70.81c0,0-16-14.11-26.46-39.7S92,225.37,116.58,196.49Z"/><path class="cls-8" d="M309.45,151.42l-1,11.38-.35,3.93-2.15,6.12L299.08,189,295,207.15s2.26,4.95,2.5,5.77-1,20.13-1,20.13-1.65,1.49-3.74,3.34c-2.91,2.58-6.71,5.88-8.26,6.9a.6.6,0,0,1-.13.09c-2.79,1.76-10.39,4.25-10.39,4.25s-.63-.49-1.55-1.26l-1.17-1c-2-1.7-4.41-4-5.29-5.64-1.57-2.88-3.17-9-3.17-9s10.15-25.32,10.69-27.85,5.75-28,6.94-30,21-23.52,23.27-23.39S309.45,151.42,309.45,151.42Z"/><path class="cls-9" d="M308.44,162.8l-.35,3.93-1.27,3.62c-2.88,1.06-9.45,3.73-11.77,6.87-2.95,4-10.45,23-10.68,23.57h0l2.46-13.46s3.66-9.33,8.07-14.71C298.68,168,306.34,163.88,308.44,162.8Z"/><path class="cls-8" d="M297.53,212.92s7.83-9.47,12.35-11.93,11.15-4.56,12.22-3.76-1.2,7.78-4.85,11.26S307.5,217,307.5,217s-6.45,13.4-11,16.07-8.73-4.31-8.73-4.31Z"/><path class="cls-9" d="M288.54,223.42a22.92,22.92,0,0,0-3.28,6.25c-.49,2-1.36,5.06-1.36,5.06s-.33-5.57.19-6.84S288.54,223.42,288.54,223.42Z"/><path class="cls-9" d="M251.88,261.08s17.19-15.1,17.62-14.84a5.45,5.45,0,0,1,1,1.08Z"/><path class="cls-5" d="M159,261.8a2.09,2.09,0,1,1-2.16-2A2.09,2.09,0,0,1,159,261.8Z"/><path class="cls-5" d="M151.45,255.68a.94.94,0,0,1-.9,1,.94.94,0,1,1-.07-1.88A.93.93,0,0,1,151.45,255.68Z"/><path class="cls-5" d="M185.27,265.51S246.34,240,256,235.89l-7.37,4.86Z"/><path class="cls-5" d="M317.3,203.67a.91.91,0,1,1-1.81.06.89.89,0,0,1,.87-.93A.91.91,0,0,1,317.3,203.67Z"/><path class="cls-18" d="M294.93,243.24,316.42,111.8a3.6,3.6,0,0,1,3.86-3c14.41,1.27,72.87,5.54,115.49-4.43a.71.71,0,0,1,.86.83l-20.2,104.44a2.06,2.06,0,0,1-.8,1.28c-5.6,4.1-46.88,32.64-116.94,36.49A3.6,3.6,0,0,1,294.93,243.24Z"/><path class="cls-19" d="M423.2,127.7c-2.72,15.68-10.71,61-15,78.62a155.21,155.21,0,0,1-19.88,9.29c2.74-12.45,13-59.15,16.86-82.08C411.17,131.87,417.2,129.93,423.2,127.7Z"/><path class="cls-20" d="M435.77,104.37c-42.62,10-101.08,5.7-115.49,4.43a3.6,3.6,0,0,0-3.86,3l-2,12.34c19.31,2.06,77.56,6.24,120.85-11.77l1.38-7.17A.71.71,0,0,0,435.77,104.37Z"/><path class="cls-21" d="M351.85,142.71l-4.19,22.89c-7.65.82-14.87,1.41-21.39,1.84l4.35-23.72C337.08,143.62,344.22,143.33,351.85,142.71Z"/><path class="cls-21" d="M375.09,140,371,162.52c-5.94.95-11.78,1.75-17.44,2.42l4.16-22.74C363.29,141.66,369.12,140.93,375.09,140Z"/><path class="cls-21" d="M394.27,136.3,390.12,159h0c-5.14,1.1-10.29,2.07-15.4,2.93l4.11-22.52C383.89,138.53,389.06,137.51,394.27,136.3Z"/><path class="cls-22" d="M388.85,167.39,386.59,177a303.64,303.64,0,0,1-53.75,11.22L335,177.1A407.79,407.79,0,0,0,388.85,167.39Z"/><path class="cls-22" d="M320.75,197.93c9.79-.9,21.14-2.25,33.11-4.29l-1.6,9.25c-12.32,2.55-23.86,4.25-33.7,5.38Z"/><path class="cls-22" d="M384.71,187l-1.94,8c-8.64,2.71-17.24,4.94-25.55,6.78l1.57-9C367.28,191.24,376,189.34,384.71,187Z"/><path class="cls-22" d="M380.35,204l-1.66,8.92a270.68,270.68,0,0,1-37.89,11.15l1.76-10.16A307.58,307.58,0,0,0,380.35,204Z"/><path class="cls-23" d="M302.51,249.15,323.1,117.7a3.48,3.48,0,0,1,3.71-3C340.69,116,397,120.17,438,110.17a.69.69,0,0,1,.83.83L419.5,215.46a2.1,2.1,0,0,1-.78,1.28c-5.38,4.1-45.12,32.67-112.58,36.58A3.55,3.55,0,0,1,302.51,249.15Z"/><path class="cls-24" d="M251.36,375.48h-170a4.67,4.67,0,0,1-4.67-4.36L71.9,263.74a4.55,4.55,0,0,1,4.52-4.86H256.35a4.55,4.55,0,0,1,4.51,4.86L256,371.12A4.67,4.67,0,0,1,251.36,375.48Z"/><path class="cls-25" d="M256.35,258.88H76.42a4.55,4.55,0,0,0-4.52,4.86l.82,18.1H260.05l.81-18.1A4.55,4.55,0,0,0,256.35,258.88Z"/><polygon class="cls-26" points="173.97 348.57 93.61 348.57 91.54 291.18 174.18 291.18 173.97 348.57"/><polygon class="cls-26" points="243.36 304.32 188.73 304.32 188.81 297.29 243.63 297.29 243.36 304.32"/><polygon class="cls-26" points="188.59 317.44 232.1 317.44 231.92 322.91 188.53 322.91 188.59 317.44"/><polygon class="cls-26" points="188.48 327.7 241.88 327.7 241.68 333.12 188.42 333.12 188.48 327.7"/><polygon class="cls-26" points="188.37 337.85 196.69 337.85 196.61 343.22 188.31 343.22 188.37 337.85"/><polygon class="cls-26" points="213.6 337.85 213.47 343.22 203.03 343.22 203.12 337.85 213.6 337.85"/><polygon class="cls-26" points="244.86 337.85 244.65 343.22 215.74 343.22 215.87 337.85 244.86 337.85"/><polygon class="cls-26" points="249.99 317.44 249.76 322.91 235.71 322.91 235.89 317.44 249.99 317.44"/><path class="cls-27" d="M89.12,270.44a3.68,3.68,0,0,1-3.66,3.9,4,4,0,0,1-4-3.9,3.69,3.69,0,0,1,3.66-3.91A4,4,0,0,1,89.12,270.44Z"/><path class="cls-27" d="M104.65,270.44a3.71,3.71,0,0,1-3.69,3.9,4,4,0,0,1-3.93-3.9,3.72,3.72,0,0,1,3.69-3.91A4,4,0,0,1,104.65,270.44Z"/><path class="cls-27" d="M120.18,270.44a3.75,3.75,0,0,1-3.72,3.9,4,4,0,0,1-3.9-3.9,3.75,3.75,0,0,1,3.72-3.91A4,4,0,0,1,120.18,270.44Z"/><polygon class="cls-28" points="141.61 321.17 126.43 312.47 126.76 329.8 141.61 321.17"/><path class="cls-7" d="M248,379.25H78.06a4.67,4.67,0,0,1-4.67-4.36L68.56,267.5a4.55,4.55,0,0,1,4.51-4.86H253a4.54,4.54,0,0,1,4.51,4.86l-4.83,107.39A4.67,4.67,0,0,1,248,379.25Z"/><path class="cls-6" d="M322.11,291.28l-11.76-6.79a1.34,1.34,0,0,0-2,1.15v13.59a1.34,1.34,0,0,0,2,1.16l11.76-6.8A1.33,1.33,0,0,0,322.11,291.28Z"/><rect class="cls-6" x="336.87" y="283.86" width="5.58" height="17.15" rx="0.85"/><rect class="cls-6" x="346.36" y="283.86" width="5.58" height="17.15" rx="0.85"/><polygon class="cls-6" points="59.35 30.14 61.36 34.2 65.84 34.85 62.6 38.01 63.36 42.47 59.35 40.37 55.34 42.47 56.11 38.01 52.87 34.85 57.35 34.2 59.35 30.14"/><polygon class="cls-6" points="76.5 30.14 78.5 34.2 82.98 34.85 79.74 38.01 80.51 42.47 76.5 40.37 72.49 42.47 73.26 38.01 70.01 34.85 74.5 34.2 76.5 30.14"/><polygon class="cls-6" points="93.64 30.14 95.65 34.2 100.13 34.85 96.89 38.01 97.65 42.47 93.64 40.37 89.64 42.47 90.4 38.01 87.16 34.85 91.64 34.2 93.64 30.14"/><polygon class="cls-5" points="110.79 30.14 112.8 34.2 117.28 34.85 114.03 38.01 114.8 42.47 110.79 40.37 106.78 42.47 107.55 38.01 104.31 34.85 108.79 34.2 110.79 30.14"/><polygon class="cls-5" points="127.94 30.14 129.94 34.2 134.42 34.85 131.18 38.01 131.94 42.47 127.94 40.37 123.93 42.47 124.69 38.01 121.45 34.85 125.93 34.2 127.94 30.14"/><path class="cls-19" d="M73.65,217.06a11.2,11.2,0,0,0-.08-1.3l3.84-3.34-1.72-3-1.72-3-4.82,1.65a10.94,10.94,0,0,0-2.25-1.31l-1-5H59.05l-1,5a10.94,10.94,0,0,0-2.25,1.31L51,206.47l-3.44,5.95,3.84,3.34a9.51,9.51,0,0,0,0,2.61l-3.84,3.34L51,227.66,55.83,226a10.94,10.94,0,0,0,2.25,1.31l1,5h6.88l1-5A10.94,10.94,0,0,0,69.15,226L74,227.66l1.72-3,1.72-3-3.84-3.34A11.24,11.24,0,0,0,73.65,217.06Zm-11.16,4.8a4.8,4.8,0,1,1,4.8-4.8A4.8,4.8,0,0,1,62.49,221.86Z"/><rect class="cls-4" x="303.98" y="56.6" width="23.01" height="20.37" rx="1.92"/><path class="cls-5" d="M313.34,72.3h0a1.66,1.66,0,0,1-1.15-.5L307.57,67a1.62,1.62,0,0,1,2.34-2.24l3.47,3.62,7.71-7.62a1.62,1.62,0,1,1,2.28,2.31l-8.89,8.77A1.61,1.61,0,0,1,313.34,72.3Z"/><g class="cls-29"><rect class="cls-30" x="57.59" y="121.47" width="1.62" height="16.94"/><rect class="cls-30" x="86.21" y="220.67" width="1.62" height="13.94"/><rect class="cls-30" x="294.79" y="105.51" width="1.62" height="23.42"/><rect class="cls-30" x="246.55" y="12.93" width="1.62" height="19.8"/><rect class="cls-30" x="152.86" y="32.73" width="1.62" height="12.55"/><rect class="cls-30" x="288.38" y="307.12" width="1.62" height="17.85"/><rect class="cls-30" x="288.38" y="331.1" width="1.62" height="5.85"/><rect class="cls-30" x="387.09" y="246.89" width="1.62" height="14.5"/></g><rect class="cls-2" x="356.98" y="76.79" width="1.62" height="13.94"/><rect class="cls-2" x="35.32" y="266.41" width="1.62" height="20.5"/><rect class="cls-2" x="24.45" y="279.37" width="1.62" height="28.86"/><rect class="cls-2" x="32.81" y="91.98" width="1.62" height="28.44"/><rect class="cls-2" x="401.32" y="295.27" width="1.62" height="5.85"/><rect class="cls-2" x="401.32" y="308.23" width="1.62" height="16.31"/><polygon class="cls-7" points="324.45 317.09 312.75 323.9 324.5 330.62 324.45 317.09"/><polygon class="cls-7" points="46.8 166.77 42.91 184.94 60.59 179.22 46.8 166.77"/><polygon class="cls-7" points="227.52 33.45 220.15 34.9 225.09 40.56 227.52 33.45"/><path class="cls-5" d="M138.75,65.91a2.65,2.65,0,1,1-2.65-2.65A2.64,2.64,0,0,1,138.75,65.91Z"/><path class="cls-5" d="M287.85,277.49a2.65,2.65,0,1,1-2.65-2.65A2.66,2.66,0,0,1,287.85,277.49Z"/><path class="cls-5" d="M98.18,200.32a2.66,2.66,0,1,1-2.66-2.65A2.66,2.66,0,0,1,98.18,200.32Z"/><path class="cls-5" d="M288.22,145.66a2.66,2.66,0,1,1-2.65-2.65A2.66,2.66,0,0,1,288.22,145.66Z"/></g></g></svg>