<svg xmlns="http://www.w3.org/2000/svg" viewBox="0 0 500 400"><defs><style>.cls-1{isolation:isolate;}.cls-2{fill:#e5d0ba;}.cls-3{fill:#e59641;}.cls-4{fill:#dae6ea;}.cls-5{fill:#ecf9ff;}.cls-6{fill:#fff;}.cls-7{fill:#edf2f2;}.cls-8{fill:#444244;}.cls-9{fill:#e1f7ff;}.cls-10{fill:#d3e7f1;}.cls-11{fill:#9cd1f0;}.cls-12{fill:#a9e2ff;}.cls-13{fill:#f2f2f2;}.cls-14{fill:#e5c29c;opacity:0.5;mix-blend-mode:multiply;}.cls-15{fill:#514342;}.cls-16{fill:#463c3a;}.cls-17{fill:#323d4e;}.cls-18{fill:#fffff6;}.cls-19{fill:#ede3d7;}.cls-20{fill:#f9a587;}.cls-21{fill:#ea795c;}.cls-22{fill:#30323e;}.cls-23{fill:#353b4a;}.cls-24{fill:#382823;}.cls-25{fill:#8a9077;}.cls-26{fill:#787160;}.cls-27{fill:#ffba73;}.cls-28{fill:#858789;}.cls-29{fill:#d2d4d5;}</style></defs><g class="cls-1"><g id="Layer_1" data-name="Layer 1"><path class="cls-2" d="M232.45,361.93c115.63,15.54,263.42-95.4,214.87-171.07-14.41-22.47-43-31.12-62-49.87C368,123.92,359.54,99.38,342,82.52A75.77,75.77,0,0,0,276.58,63c-25.12,4.72-46.78,22.1-72.15,25.13-26.77,3.21-40.09-7.92-79,10.83-50.33,24.25-56.25,57.5-56,114.9.32,92.35,55.47,50.4,43.9,134.67-.74,5.38-1.45,11.25,1.33,15.91,5.12,8.62,17.75,7.45,27.51,5.17C174.12,362.09,199.52,357.73,232.45,361.93Z"/><path class="cls-2" d="M131.68,370.5c-7.81,0-13.2-2.44-16.11-7.32-3-5.14-2.16-11.62-1.45-16.83,6-43.56-5.22-54-18.19-66.18-12.65-11.84-27-25.26-27.16-72.84-.11-29.69,1.45-53.37,9.41-72.41,8.44-20.17,23.5-34.61,48.82-46.81C154.27,75,169.17,76,185,77c7.32.47,14.9,1,23.84-.1,13.79-1.65,26.78-7.55,39.35-13.26,11.24-5.11,22.86-10.39,35.14-12.69A78.74,78.74,0,0,1,351.4,71.28c9.21,8.87,16.1,19.93,22.76,30.62,6.47,10.39,13.17,21.12,21.95,29.78,8.1,8,18.06,14.3,27.69,20.4,13.6,8.61,27.66,17.52,36.45,31.21a61,61,0,0,1,9.63,39.2c-1.17,13.13-6.23,26.79-15,40.59-18.33,28.79-51.74,56.09-91.65,74.9-34,16-69.5,24.46-102.12,24.46a175.21,175.21,0,0,1-23.37-1.52c-32.29-4.12-57.63-.41-93.08,7.88A58.39,58.39,0,0,1,131.68,370.5ZM172.32,77.65c-11.8,0-25,2-44.79,11.56C78,113.06,69.76,144.93,70,207.33c.17,47,14.31,60.28,26.78,71.95,6.51,6.09,12.66,11.85,16.44,21.66,4.22,10.93,4.89,25.42,2.13,45.58-.69,5-1.55,11.27,1.29,16,4,6.72,13.34,8.42,27.75,5.05,35.59-8.32,61-12,93.52-7.9A173.2,173.2,0,0,0,261,361.22c77.71,0,161-48.76,192.89-98.79,12.67-19.89,23.88-49.65,5.39-78.48-8.64-13.47-22.59-22.3-36.08-30.85-9.69-6.13-19.7-12.47-27.9-20.55-8.88-8.76-15.61-19.56-22.12-30-6.62-10.64-13.47-21.63-22.57-30.39a77.53,77.53,0,0,0-67.06-20c-12.13,2.28-23.69,7.53-34.86,12.61C236,70.47,222.91,76.41,208.93,78.09c-9,1.08-16.68.58-24.06.1C180.7,77.92,176.6,77.65,172.32,77.65Z"/><path class="cls-3" d="M446.86,251.66l-.63-.08a9,9,0,0,1-6.69-13.48,278.89,278.89,0,0,0,21.57-46.4c5-13.91.48-15.58-3.68-22.75-8.82-15.24,1.32-38.51-11.92-50.12-2.11-1.85-4.72-3.24-6.29-5.57-4.4-6.58.91-31.47-12.38-52.72-5.4-8.62-18.57-17.75-26.31-.43-10.21,22.81-9.7,59.84-35.7,73-33.95,17.14-69.23-26.6-94,117.67-5.53,32.23-19.87,64,56.41,74.12C379.93,331.83,478.69,255.62,446.86,251.66Z"/><path class="cls-3" d="M241.34,256.41c-5.13-14.37-19.77-27.48-18.75-56.85.39-11.45,3.27-23.79-2.35-33.78-2.23-4-5.62-7.12-8.62-10.53-15.24-17.32-25.2-50.45-52-54.57C142.58,98,84.48,115.34,34.25,145.47a9,9,0,0,0-.82,15C50.28,173.2,78.56,172.38,94.55,188c4.81,4.71,8.32,10.8,13.88,14.6,16.91,11.57,44.32-3.54,52,4.49,6.61,6.93-3.07,30.77-4.33,46.63-1,12.87,3.83,27.93,16,32.19,10.28,3.58,22-1.81,32.37,1.56,11.88,3.87,19.9,25.65,32.32,14.78C246.82,293.51,245.28,267.45,241.34,256.41Z"/><path class="cls-3" d="M202.11,91.26c-10.75-54.8,28.44-66.32,38.1-61.47,10.47,5.26,6,34.72,19.92,45.37,5.14,3.93,11.84,5,17.94,7.14,22.09,7.85,36.32,33.29,31.44,56.22-4,18.65-18.59,34.07-20.76,53-1.15,10-.33,12.22,14.76,94.64a9,9,0,0,1-14.58,8.64c-4.8-3.9-9-7.52-10.45-9.76-8.4-12.94-11.47-27.17-13.3-42.27C258.62,188.55,213.32,148.34,202.11,91.26Z"/><path class="cls-4" d="M335.52,174.91c-35.51,3.46-56.71,3.73-92.07,0a3.16,3.16,0,0,1-2.84-3.14V111.54a3.17,3.17,0,0,1,3.58-3.14c33.32,4.42,56.25,4.41,90.62,0a3.17,3.17,0,0,1,3.57,3.13v60.24A3.17,3.17,0,0,1,335.52,174.91Z"/><path class="cls-5" d="M340.46,171c-35.51,3.46-56.71,3.73-92.08,0a3.16,3.16,0,0,1-2.83-3.15V107.58a3.16,3.16,0,0,1,3.58-3.14c33.32,4.42,56.24,4.41,90.62,0a3.16,3.16,0,0,1,3.57,3.13V167.8A3.17,3.17,0,0,1,340.46,171Z"/><path class="cls-6" d="M266,117.82h-10.5a1.24,1.24,0,1,1,0-2.47H266a1.24,1.24,0,1,1,0,2.47Z"/><path class="cls-6" d="M287.42,117.82H276.91a1.24,1.24,0,0,1,0-2.47h10.51a1.24,1.24,0,1,1,0,2.47Z"/><path class="cls-6" d="M308.81,117.82H298.3a1.24,1.24,0,0,1,0-2.47h10.51a1.24,1.24,0,1,1,0,2.47Z"/><path class="cls-6" d="M330.2,117.82H319.69a1.24,1.24,0,1,1,0-2.47H330.2a1.24,1.24,0,1,1,0,2.47Z"/><path class="cls-6" d="M266,128.9h-10.5a1.24,1.24,0,1,1,0-2.47H266a1.24,1.24,0,1,1,0,2.47Z"/><path class="cls-6" d="M287.42,128.9H276.91a1.24,1.24,0,0,1,0-2.47h10.51a1.24,1.24,0,1,1,0,2.47Z"/><path class="cls-6" d="M308.81,128.9H298.3a1.24,1.24,0,0,1,0-2.47h10.51a1.24,1.24,0,1,1,0,2.47Z"/><path class="cls-6" d="M330.2,128.9H319.69a1.24,1.24,0,1,1,0-2.47H330.2a1.24,1.24,0,1,1,0,2.47Z"/><path class="cls-6" d="M266,140.26h-10.5a1.24,1.24,0,1,1,0-2.47H266a1.24,1.24,0,1,1,0,2.47Z"/><path class="cls-6" d="M287.42,140.26H276.91a1.24,1.24,0,0,1,0-2.47h10.51a1.24,1.24,0,1,1,0,2.47Z"/><path class="cls-6" d="M308.81,140.26H298.3a1.24,1.24,0,0,1,0-2.47h10.51a1.24,1.24,0,1,1,0,2.47Z"/><path class="cls-6" d="M330.2,140.26H319.69a1.24,1.24,0,1,1,0-2.47H330.2a1.24,1.24,0,1,1,0,2.47Z"/><path class="cls-6" d="M266,151.18h-10.5a1.24,1.24,0,1,1,0-2.47H266a1.24,1.24,0,1,1,0,2.47Z"/><path class="cls-6" d="M287.42,151.18H276.91a1.24,1.24,0,0,1,0-2.47h10.51a1.24,1.24,0,1,1,0,2.47Z"/><path class="cls-6" d="M308.81,151.18H298.3a1.24,1.24,0,0,1,0-2.47h10.51a1.24,1.24,0,1,1,0,2.47Z"/><path class="cls-6" d="M330.2,151.18H319.69a1.24,1.24,0,1,1,0-2.47H330.2a1.24,1.24,0,1,1,0,2.47Z"/><path class="cls-6" d="M266,160.79h-10.5a1.24,1.24,0,1,1,0-2.47H266a1.24,1.24,0,1,1,0,2.47Z"/><path class="cls-6" d="M287.42,160.79H276.91a1.24,1.24,0,0,1,0-2.47h10.51a1.24,1.24,0,1,1,0,2.47Z"/><path class="cls-6" d="M308.81,160.79H298.3a1.24,1.24,0,0,1,0-2.47h10.51a1.24,1.24,0,1,1,0,2.47Z"/><path class="cls-6" d="M330.2,160.79H319.69a1.24,1.24,0,1,1,0-2.47H330.2a1.24,1.24,0,1,1,0,2.47Z"/><path class="cls-7" d="M379.64,218.76c-41.55-2.14-70.59-3.27-110.3-.11a3.16,3.16,0,0,1-3.41-3.15V145.77a3.16,3.16,0,0,1,3.46-3.15c31.5,3.14,67.59,1.95,110.25-.19a3.16,3.16,0,0,1,3.33,3.15v70A3.17,3.17,0,0,1,379.64,218.76Z"/><path class="cls-6" d="M383.17,224.16c-41.56-2.14-70.6-3.26-110.3-.11a3.16,3.16,0,0,1-3.42-3.15V151.17a3.16,3.16,0,0,1,3.47-3.15c31.5,3.15,67.58,1.95,110.25-.19A3.17,3.17,0,0,1,386.5,151v70A3.17,3.17,0,0,1,383.17,224.16Z"/><path class="cls-8" d="M290,181.4h1.38v7.18c0,2.85-1.4,3.73-3.25,3.73a4.35,4.35,0,0,1-1.48-.26l.21-1.13a3.34,3.34,0,0,0,1.16.21c1.25,0,2-.56,2-2.66Z"/><path class="cls-8" d="M298,192.13l-.11-1h-.05a2.86,2.86,0,0,1-2.36,1.15,2.2,2.2,0,0,1-2.36-2.22c0-1.86,1.66-2.88,4.64-2.86v-.16a1.59,1.59,0,0,0-1.75-1.79,3.85,3.85,0,0,0-2,.58l-.32-.93a4.82,4.82,0,0,1,2.53-.68c2.36,0,2.93,1.61,2.93,3.15v2.89a11.37,11.37,0,0,0,.13,1.84Zm-.21-3.93c-1.53,0-3.27.24-3.27,1.74a1.24,1.24,0,0,0,1.33,1.33,1.9,1.9,0,0,0,1.86-1.29,1.36,1.36,0,0,0,.08-.44Z"/><path class="cls-8" d="M301.78,184.42l1.51,4.34a18.52,18.52,0,0,1,.63,2h0c.18-.64.4-1.27.66-2l1.49-4.34h1.47l-3,7.71h-1.34l-2.93-7.71Z"/><path class="cls-8" d="M313.11,192.13l-.11-1H313a2.86,2.86,0,0,1-2.36,1.15,2.2,2.2,0,0,1-2.36-2.22c0-1.86,1.66-2.88,4.64-2.86v-.16a1.59,1.59,0,0,0-1.75-1.79,3.85,3.85,0,0,0-2,.58l-.32-.93a4.82,4.82,0,0,1,2.53-.68c2.36,0,2.93,1.61,2.93,3.15v2.89a11.37,11.37,0,0,0,.13,1.84Zm-.21-3.93c-1.53,0-3.27.24-3.27,1.74a1.24,1.24,0,0,0,1.33,1.33,1.9,1.9,0,0,0,1.86-1.29,1.36,1.36,0,0,0,.08-.44Z"/><path class="cls-8" d="M319.75,190.44a4.84,4.84,0,0,0,2.49.71c1.41,0,2.24-.75,2.24-1.84s-.57-1.57-2-2.13c-1.75-.62-2.84-1.53-2.84-3,0-1.68,1.39-2.92,3.48-2.92a4.87,4.87,0,0,1,2.37.53l-.38,1.13a4.3,4.3,0,0,0-2-.51c-1.47,0-2,.87-2,1.61,0,1,.65,1.49,2.13,2.07,1.82.7,2.74,1.58,2.74,3.15s-1.23,3.09-3.76,3.09a5.55,5.55,0,0,1-2.74-.68Z"/><path class="cls-8" d="M333.34,191.85a5.21,5.21,0,0,1-2.21.44,3.66,3.66,0,0,1-3.84-3.93,3.92,3.92,0,0,1,4.14-4.1,4.67,4.67,0,0,1,1.94.4l-.32,1.09a3.13,3.13,0,0,0-1.62-.37,2.91,2.91,0,0,0-.05,5.8,4.06,4.06,0,0,0,1.72-.38Z"/><path class="cls-8" d="M335,186.83c0-.91,0-1.69-.06-2.41h1.22l.05,1.52h.07a2.3,2.3,0,0,1,2.13-1.69,1.25,1.25,0,0,1,.4.05v1.32a2.21,2.21,0,0,0-.48-.05,2,2,0,0,0-1.88,1.8,4.12,4.12,0,0,0-.06.65v4.11H335Z"/><path class="cls-8" d="M341.82,182.26a.87.87,0,0,1-1.74,0,.86.86,0,0,1,.88-.88A.83.83,0,0,1,341.82,182.26Zm-1.57,9.87v-7.71h1.41v7.71Z"/><path class="cls-8" d="M344,186.94c0-1,0-1.78-.06-2.52h1.26l.06,1.33h0a3,3,0,0,1,2.74-1.5c1.87,0,3.27,1.57,3.27,3.92,0,2.77-1.69,4.14-3.51,4.14a2.7,2.7,0,0,1-2.37-1.21h0v4.19H344Zm1.39,2.06a3.43,3.43,0,0,0,.06.57,2.17,2.17,0,0,0,2.1,1.64c1.49,0,2.35-1.21,2.35-3,0-1.54-.82-2.87-2.3-2.87a2.25,2.25,0,0,0-2.12,1.74,2.61,2.61,0,0,0-.09.57Z"/><path class="cls-8" d="M354.74,182.21v2.21h2v1.07h-2v4.16c0,.95.27,1.5,1.05,1.5a3,3,0,0,0,.81-.1l.06,1a3.46,3.46,0,0,1-1.24.19,1.91,1.91,0,0,1-1.51-.59,2.83,2.83,0,0,1-.54-2v-4.21h-1.2v-1.07h1.2v-1.84Z"/><path class="cls-4" d="M293.85,238.1c-27,3.11-44.26,3.44-69.22.06a3.16,3.16,0,0,1-2.74-3.14V191.67a3.16,3.16,0,0,1,3.43-3.15c26.23,2.2,43,3,67.8.14a3.17,3.17,0,0,1,3.54,3.14V235A3.16,3.16,0,0,1,293.85,238.1Z"/><path class="cls-5" d="M289.77,241.58c-27,3.1-44.26,3.44-69.22,0a3.16,3.16,0,0,1-2.74-3.13V195.15a3.16,3.16,0,0,1,3.43-3.15c26.23,2.19,43,3,67.8.14a3.17,3.17,0,0,1,3.54,3.14v43.16A3.17,3.17,0,0,1,289.77,241.58Z"/><path class="cls-6" d="M241.15,211.62H225.41a2.46,2.46,0,0,1,0-4.92h15.74a2.46,2.46,0,0,1,0,4.92Z"/><path class="cls-6" d="M263.06,211.62H247.33a2.46,2.46,0,1,1,0-4.92h15.73a2.46,2.46,0,0,1,0,4.92Z"/><path class="cls-6" d="M285,211.62H269.24a2.46,2.46,0,0,1,0-4.92H285a2.46,2.46,0,0,1,0,4.92Z"/><path class="cls-6" d="M241.15,220.47H225.41a2.46,2.46,0,0,1,0-4.92h15.74a2.46,2.46,0,1,1,0,4.92Z"/><path class="cls-6" d="M263.06,220.47H247.33a2.46,2.46,0,1,1,0-4.92h15.73a2.46,2.46,0,1,1,0,4.92Z"/><path class="cls-6" d="M285,220.47H269.24a2.46,2.46,0,0,1,0-4.92H285a2.46,2.46,0,1,1,0,4.92Z"/><path class="cls-6" d="M241.15,229.33H225.41a2.46,2.46,0,0,1,0-4.92h15.74a2.46,2.46,0,0,1,0,4.92Z"/><path class="cls-6" d="M263.06,229.33H247.33a2.46,2.46,0,1,1,0-4.92h15.73a2.46,2.46,0,0,1,0,4.92Z"/><path class="cls-6" d="M285,229.33H269.24a2.46,2.46,0,0,1,0-4.92H285a2.46,2.46,0,0,1,0,4.92Z"/><path class="cls-4" d="M155,194.63c-28.06,12.23-42.58-2.79-69.22.05-1.57.17-2.74-1.55-2.74-3.13V148.2c0-1.85,1.69-3.79,3.43-3.15,26.2,9.63,43.77-2.88,67.8.14,1.88.23,3.54,1.24,3.54,3.13v43.17C157.76,193.09,156.42,194,155,194.63Z"/><path class="cls-5" d="M158.15,200.29c-28.06,12.24-42.58-2.79-69.22.06-1.58.17-2.75-1.55-2.75-3.14V153.86c0-1.85,1.7-3.79,3.43-3.15,26.21,9.63,43.78-2.88,67.81.14,1.88.24,3.53,1.25,3.53,3.14v43.16C161,198.76,159.62,199.65,158.15,200.29Z"/><path class="cls-6" d="M125.13,163.78H92.88a1.13,1.13,0,1,1,0-2.25h32.25a1.13,1.13,0,0,1,0,2.25Z"/><path class="cls-6" d="M154.26,163.78h-21.1a1.13,1.13,0,1,1,0-2.25h21.1a1.13,1.13,0,1,1,0,2.25Z"/><path class="cls-6" d="M122,168.1h32.25a1.13,1.13,0,0,0,0-2.26H122a1.13,1.13,0,0,0,0,2.26Z"/><path class="cls-6" d="M92.88,168.1H114a1.13,1.13,0,0,0,0-2.26H92.88a1.13,1.13,0,0,0,0,2.26Z"/><path class="cls-6" d="M125.13,172.42H92.88a1.13,1.13,0,1,1,0-2.26h32.25a1.13,1.13,0,0,1,0,2.26Z"/><path class="cls-6" d="M154.26,172.42h-21.1a1.13,1.13,0,0,1,0-2.26h21.1a1.13,1.13,0,0,1,0,2.26Z"/><path class="cls-6" d="M122,176.73h32.25a1.13,1.13,0,1,0,0-2.25H122a1.13,1.13,0,1,0,0,2.25Z"/><path class="cls-6" d="M92.88,176.73H114a1.13,1.13,0,1,0,0-2.25H92.88a1.13,1.13,0,1,0,0,2.25Z"/><path class="cls-6" d="M125.13,181.05H92.88a1.13,1.13,0,1,1,0-2.25h32.25a1.13,1.13,0,0,1,0,2.25Z"/><path class="cls-6" d="M154.26,181.05h-21.1a1.13,1.13,0,1,1,0-2.25h21.1a1.13,1.13,0,1,1,0,2.25Z"/><path class="cls-6" d="M122,185.37h32.25a1.13,1.13,0,0,0,0-2.26H122a1.13,1.13,0,0,0,0,2.26Z"/><path class="cls-6" d="M92.88,185.37H114a1.13,1.13,0,1,0,0-2.26H92.88a1.13,1.13,0,0,0,0,2.26Z"/><path class="cls-6" d="M125.13,189.69H92.88a1.13,1.13,0,0,1,0-2.26h32.25a1.13,1.13,0,0,1,0,2.26Z"/><path class="cls-6" d="M154.26,189.69h-21.1a1.13,1.13,0,0,1,0-2.26h21.1a1.13,1.13,0,0,1,0,2.26Z"/><path class="cls-6" d="M122,194h32.25a1.13,1.13,0,1,0,0-2.25H122a1.13,1.13,0,1,0,0,2.25Z"/><path class="cls-6" d="M92.88,194H114a1.13,1.13,0,1,0,0-2.25H92.88a1.13,1.13,0,1,0,0,2.25Z"/><path class="cls-9" d="M402,175.88c-27.29,4.05-45.48-6.19-74.86,0-1.52.32-2.67-1.57-2.67-3.13V136.92a3.16,3.16,0,0,1,3.62-3.13c28.29,4.12,41-5,72.93.1,1.93.31,3.69,1.16,3.69,3.12v35.74A3.17,3.17,0,0,1,402,175.88Z"/><path class="cls-10" d="M405.51,172.48c-27.29,4.05-45.48-6.19-74.87,0-1.52.32-2.66-1.57-2.66-3.12V133.52a3.17,3.17,0,0,1,3.62-3.13c28.29,4.12,41-5,72.92.11,1.93.3,3.69,1.15,3.69,3.11v35.74A3.16,3.16,0,0,1,405.51,172.48Z"/><circle class="cls-6" cx="338.63" cy="140.12" r="1.69"/><path class="cls-6" d="M352.36,141.8h-6.75a1.69,1.69,0,1,1,0-3.37h6.75a1.69,1.69,0,0,1,0,3.37Z"/><path class="cls-6" d="M397.56,141.8h-6.75a1.69,1.69,0,1,1,0-3.37h6.75a1.69,1.69,0,0,1,0,3.37Z"/><path class="cls-6" d="M383.43,141.8H360.2a1.69,1.69,0,1,1,0-3.37h23.23a1.69,1.69,0,0,1,0,3.37Z"/><circle class="cls-6" cx="338.63" cy="145.65" r="1.69"/><path class="cls-6" d="M352.36,147.34h-6.75a1.69,1.69,0,0,1,0-3.38h6.75a1.69,1.69,0,0,1,0,3.38Z"/><path class="cls-6" d="M397.56,147.34h-6.75a1.69,1.69,0,0,1,0-3.38h6.75a1.69,1.69,0,0,1,0,3.38Z"/><path class="cls-6" d="M383.43,147.34H360.2a1.69,1.69,0,0,1,0-3.38h23.23a1.69,1.69,0,0,1,0,3.38Z"/><circle class="cls-6" cx="338.63" cy="151.18" r="1.69"/><path class="cls-6" d="M352.36,152.87h-6.75a1.69,1.69,0,1,1,0-3.38h6.75a1.69,1.69,0,0,1,0,3.38Z"/><path class="cls-6" d="M397.56,152.87h-6.75a1.69,1.69,0,0,1,0-3.38h6.75a1.69,1.69,0,0,1,0,3.38Z"/><path class="cls-6" d="M383.43,152.87H360.2a1.69,1.69,0,0,1,0-3.38h23.23a1.69,1.69,0,0,1,0,3.38Z"/><circle class="cls-6" cx="338.63" cy="156.71" r="1.69"/><path class="cls-6" d="M352.36,158.4h-6.75a1.69,1.69,0,1,1,0-3.37h6.75a1.69,1.69,0,0,1,0,3.37Z"/><path class="cls-6" d="M397.56,158.4h-6.75a1.69,1.69,0,1,1,0-3.37h6.75a1.69,1.69,0,0,1,0,3.37Z"/><path class="cls-6" d="M383.43,158.4H360.2a1.69,1.69,0,1,1,0-3.37h23.23a1.69,1.69,0,0,1,0,3.37Z"/><circle class="cls-6" cx="338.63" cy="162.25" r="1.69"/><path class="cls-6" d="M352.36,163.93h-6.75a1.69,1.69,0,1,1,0-3.37h6.75a1.69,1.69,0,0,1,0,3.37Z"/><path class="cls-6" d="M397.56,163.93h-6.75a1.69,1.69,0,1,1,0-3.37h6.75a1.69,1.69,0,0,1,0,3.37Z"/><path class="cls-6" d="M383.43,163.93H360.2a1.69,1.69,0,1,1,0-3.37h23.23a1.69,1.69,0,0,1,0,3.37Z"/><path class="cls-11" d="M422.69,244c-28.77-2.82-46.07-1.6-72.49.14a3.17,3.17,0,0,1-3.37-3.16V207.9a3.16,3.16,0,0,1,3.54-3.14c28,3.38,47.22,4.78,72.06.28a3.16,3.16,0,0,1,3.73,3.11v32.69A3.16,3.16,0,0,1,422.69,244Z"/><path class="cls-12" d="M419.16,240c-28.76-2.83-46.06-1.61-72.49.13A3.17,3.17,0,0,1,343.3,237V203.89a3.17,3.17,0,0,1,3.55-3.14c28,3.38,47.21,4.78,72.06.28a3.17,3.17,0,0,1,3.73,3.11v32.69A3.17,3.17,0,0,1,419.16,240Z"/><path class="cls-6" d="M361.33,214.69h-9.39a1.54,1.54,0,1,1,0-3.07h9.39a1.54,1.54,0,0,1,0,3.07Z"/><path class="cls-6" d="M378.89,214.69H369.5a1.54,1.54,0,1,1,0-3.07h9.39a1.54,1.54,0,0,1,0,3.07Z"/><path class="cls-6" d="M396.44,214.69h-9.39a1.54,1.54,0,0,1,0-3.07h9.39a1.54,1.54,0,1,1,0,3.07Z"/><path class="cls-6" d="M414,214.69h-9.39a1.54,1.54,0,0,1,0-3.07H414a1.54,1.54,0,1,1,0,3.07Z"/><path class="cls-6" d="M361.33,222h-9.39a1.54,1.54,0,1,1,0-3.07h9.39a1.54,1.54,0,0,1,0,3.07Z"/><path class="cls-6" d="M378.89,222H369.5a1.54,1.54,0,1,1,0-3.07h9.39a1.54,1.54,0,0,1,0,3.07Z"/><path class="cls-6" d="M396.44,222h-9.39a1.54,1.54,0,0,1,0-3.07h9.39a1.54,1.54,0,1,1,0,3.07Z"/><path class="cls-6" d="M414,222h-9.39a1.54,1.54,0,0,1,0-3.07H414a1.54,1.54,0,1,1,0,3.07Z"/><path class="cls-6" d="M361.33,229.23h-9.39a1.54,1.54,0,1,1,0-3.07h9.39a1.54,1.54,0,0,1,0,3.07Z"/><path class="cls-6" d="M378.89,229.23H369.5a1.54,1.54,0,1,1,0-3.07h9.39a1.54,1.54,0,0,1,0,3.07Z"/><path class="cls-6" d="M396.44,229.23h-9.39a1.54,1.54,0,0,1,0-3.07h9.39a1.54,1.54,0,1,1,0,3.07Z"/><path class="cls-6" d="M414,229.23h-9.39a1.54,1.54,0,0,1,0-3.07H414a1.54,1.54,0,1,1,0,3.07Z"/><path class="cls-12" d="M170.82,224.9c-32,15.61-46.06-1.6-72.48.13A3.16,3.16,0,0,1,95,221.88V188.82a3.17,3.17,0,0,1,3.55-3.14c28,3.37,45.12,14.75,72.06.28,1.74-.94,3.73,1.13,3.73,3.1v32.69C174.3,223.62,172.5,224.08,170.82,224.9Z"/><path class="cls-11" d="M174,229.64c-32,15.6-46.06-1.61-72.48.13a3.17,3.17,0,0,1-3.38-3.16V193.55a3.17,3.17,0,0,1,3.55-3.14c28,3.38,45.12,14.75,72.06.28,1.74-.93,3.73,1.14,3.73,3.11v32.69C177.49,228.36,175.69,228.82,174,229.64Z"/><path class="cls-6" d="M121.52,208.67H104.91a1.77,1.77,0,0,1,0-3.54h16.61a1.77,1.77,0,0,1,0,3.54Z"/><path class="cls-6" d="M158.9,208.67h-30a1.77,1.77,0,0,1,0-3.54h30a1.77,1.77,0,0,1,0,3.54Z"/><path class="cls-6" d="M170.73,208.67h-5a1.77,1.77,0,1,1,0-3.54h5a1.77,1.77,0,1,1,0,3.54Z"/><path class="cls-6" d="M154.13,215.08h16.6a1.77,1.77,0,1,0,0-3.54h-16.6a1.77,1.77,0,1,0,0,3.54Z"/><path class="cls-6" d="M116.74,215.08h30a1.77,1.77,0,1,0,0-3.54h-30a1.77,1.77,0,1,0,0,3.54Z"/><path class="cls-6" d="M104.91,215.08h5a1.77,1.77,0,0,0,0-3.54h-5a1.77,1.77,0,1,0,0,3.54Z"/><path class="cls-6" d="M121.52,221.49H104.91a1.77,1.77,0,1,1,0-3.54h16.61a1.77,1.77,0,0,1,0,3.54Z"/><path class="cls-6" d="M158.9,221.49h-30a1.77,1.77,0,0,1,0-3.54h30a1.77,1.77,0,0,1,0,3.54Z"/><path class="cls-6" d="M170.73,221.49h-5a1.77,1.77,0,1,1,0-3.54h5a1.77,1.77,0,0,1,0,3.54Z"/><path class="cls-13" d="M375.51,273.69c-12.76.61-26.37-11.22-43.8.31-1.82,1.2-4-1.45-3.7-3.61,1.85-11.52.41-21.51-.64-36.9a3.17,3.17,0,0,1,3.46-3.37c17.11,1.67,27.36,7.67,44.93.43,1.83-.75,3.74,1.13,3.74,3.1v37C379.5,272.73,377.59,273.59,375.51,273.69Z"/><path class="cls-6" d="M377.35,275.61c-12.76.6-26.37-11.22-43.81.3-1.82,1.2-4-1.45-3.7-3.6,1.86-11.52.42-21.52-.63-36.91a3.16,3.16,0,0,1,3.46-3.36c17.11,1.66,27.36,7.66,44.93.42,1.83-.75,3.73,1.13,3.73,3.11v37C381.33,274.64,379.43,275.51,377.35,275.61Z"/><path class="cls-8" d="M335.17,247.75a14.26,14.26,0,0,1,2.38-.19,3.94,3.94,0,0,1,2.69.8,2.59,2.59,0,0,1,.85,2,2.83,2.83,0,0,1-.75,2.06,4,4,0,0,1-2.93,1,4.36,4.36,0,0,1-1-.08v3.85h-1.24Zm1.24,4.63a3.74,3.74,0,0,0,1,.1c1.5,0,2.41-.72,2.41-2s-.89-1.88-2.26-1.88a5,5,0,0,0-1.17.1Z"/><path class="cls-8" d="M343.23,250.35l1.51,4.07c.15.46.33,1,.44,1.42h0c.13-.42.27-1,.44-1.44l1.37-4.05h1.33l-1.89,4.92c-.9,2.36-1.51,3.57-2.36,4.32a3.49,3.49,0,0,1-1.54.81l-.32-1.06a3.31,3.31,0,0,0,1.1-.61,3.91,3.91,0,0,0,1.06-1.4,1.14,1.14,0,0,0,.1-.3,1,1,0,0,0-.09-.32l-2.55-6.36Z"/><path class="cls-8" d="M351,248.36v2h1.8v1H351V255c0,.86.24,1.34.94,1.34a3,3,0,0,0,.73-.08l.06.94a3.13,3.13,0,0,1-1.12.17,1.75,1.75,0,0,1-1.35-.53,2.52,2.52,0,0,1-.49-1.79V251.3H348.7v-1h1.07v-1.66Z"/><path class="cls-8" d="M354.21,247.12h1.25v4.31h0a2.31,2.31,0,0,1,.9-.88,2.51,2.51,0,0,1,1.28-.36c.93,0,2.41.57,2.41,2.95v4.11h-1.25v-4c0-1.11-.41-2.05-1.6-2.05a1.81,1.81,0,0,0-1.68,1.25,1.58,1.58,0,0,0-.09.6v4.17h-1.25Z"/><path class="cls-8" d="M368.37,253.74a3.37,3.37,0,0,1-3.44,3.66,3.27,3.27,0,0,1-3.3-3.55,3.36,3.36,0,0,1,3.42-3.66A3.27,3.27,0,0,1,368.37,253.74Zm-5.47.07c0,1.51.87,2.65,2.09,2.65s2.1-1.12,2.1-2.68c0-1.17-.59-2.65-2.07-2.65S362.9,252.5,362.9,253.81Z"/><path class="cls-8" d="M370,252.21c0-.71,0-1.29-.06-1.86H371l.07,1.14h0a2.53,2.53,0,0,1,2.28-1.3c1,0,2.44.57,2.44,2.94v4.12h-1.25v-4c0-1.11-.42-2-1.6-2a1.77,1.77,0,0,0-1.68,1.28,1.74,1.74,0,0,0-.09.59v4.15H370Z"/><path class="cls-7" d="M188.27,216.65c-12.76.6-26.37-11.22-43.81.3-1.82,1.21-4-1.44-3.7-3.6,1.86-11.52.42-21.51-.63-36.9a3.17,3.17,0,0,1,3.46-3.37c17.11,1.67,27.36,7.66,44.93.43,1.83-.76,3.73,1.13,3.73,3.1v37C192.25,215.68,190.35,216.55,188.27,216.65Z"/><path class="cls-6" d="M186,219.82c-12.76.6-26.37-11.22-43.8.3-1.82,1.21-4-1.45-3.7-3.6,1.85-11.52.41-21.51-.64-36.9a3.17,3.17,0,0,1,3.46-3.37c17.11,1.66,27.36,7.66,44.93.42,1.83-.75,3.74,1.14,3.74,3.11v37C190,218.85,188.05,219.72,186,219.82Z"/><path class="cls-8" d="M150,192.29a16.41,16.41,0,0,1,2.66-.2,4.41,4.41,0,0,1,3,.89,2.88,2.88,0,0,1,.94,2.24,3.17,3.17,0,0,1-.83,2.3,4.47,4.47,0,0,1-3.28,1.18,4.76,4.76,0,0,1-1.12-.1v4.3H150Zm1.39,5.18a4.66,4.66,0,0,0,1.15.11c1.67,0,2.69-.81,2.69-2.29s-1-2.1-2.53-2.1a5.5,5.5,0,0,0-1.31.11Z"/><path class="cls-8" d="M159.91,192.17v4.49h5.19v-4.49h1.4V202.9h-1.4v-5h-5.19v5h-1.39V192.17Z"/><path class="cls-8" d="M168.91,192.29a16.31,16.31,0,0,1,2.66-.2,4.38,4.38,0,0,1,3,.89,2.88,2.88,0,0,1,.94,2.24,3.17,3.17,0,0,1-.83,2.3,4.45,4.45,0,0,1-3.28,1.18,4.76,4.76,0,0,1-1.12-.1v4.3h-1.38Zm1.38,5.18a4.71,4.71,0,0,0,1.15.11c1.67,0,2.69-.81,2.69-2.29s-1-2.1-2.53-2.1a5.5,5.5,0,0,0-1.31.11Z"/><circle class="cls-5" cx="308.13" cy="253.52" r="12.75" transform="translate(-9.4 495.15) rotate(-76.72)"/><path class="cls-5" d="M308.13,270.49a17,17,0,1,1,17-17A17,17,0,0,1,308.13,270.49Zm0-33.54a16.57,16.57,0,1,0,16.57,16.57A16.58,16.58,0,0,0,308.13,237Z"/><ellipse class="cls-5" cx="386.5" cy="273.2" rx="26.47" ry="12.83"/><path class="cls-5" d="M386.5,287.39c-16,0-29.06-6.37-29.06-14.19S370.47,259,386.5,259s29.05,6.36,29.05,14.18S402.52,287.39,386.5,287.39Zm0-28c-15.8,0-28.65,6.18-28.65,13.78S370.7,287,386.5,287s28.65-6.18,28.65-13.78S402.29,259.42,386.5,259.42Z"/><circle class="cls-5" cx="292.58" cy="86.92" r="7.15"/><path class="cls-5" d="M292.58,96.31A9.39,9.39,0,1,1,302,86.92,9.4,9.4,0,0,1,292.58,96.31Zm0-18.38a9,9,0,1,0,9,9A9,9,0,0,0,292.58,77.93Z"/><path class="cls-5" d="M292.58,97.53a10.62,10.62,0,1,1,10.61-10.61A10.62,10.62,0,0,1,292.58,97.53Zm0-20.82a10.21,10.21,0,1,0,10.21,10.21A10.22,10.22,0,0,0,292.58,76.71Z"/><circle class="cls-5" cx="120.37" cy="252.2" r="7.15"/><path class="cls-5" d="M120.37,261.59a9.39,9.39,0,1,1,9.39-9.39A9.4,9.4,0,0,1,120.37,261.59Zm0-18.37a9,9,0,1,0,9,9A9,9,0,0,0,120.37,243.22Z"/><path class="cls-5" d="M120.37,262.82A10.62,10.62,0,1,1,131,252.2,10.63,10.63,0,0,1,120.37,262.82Zm0-20.83a10.21,10.21,0,1,0,10.21,10.21A10.22,10.22,0,0,0,120.37,242Z"/><rect class="cls-5" x="131.11" y="113.9" width="53.3" height="21.66" rx="3.16"/><rect class="cls-10" x="130.09" y="115.65" width="53.3" height="21.66" rx="3.16"/><circle class="cls-5" cx="140.54" cy="126.48" r="7.15"/><circle class="cls-5" cx="156.74" cy="126.48" r="7.15"/><circle class="cls-5" cx="172.94" cy="126.48" r="7.15"/><path class="cls-14" d="M211.46,319.71c-92.28,0-93-19.48,0-19.48C303.73,300.23,304.47,319.71,211.46,319.71Z"/><path class="cls-15" d="M213.85,272.16c19.42,6.11,10.56,30.8-7.9,28.64-10.3-1.2-60.49-18.95-65.89-26.47a8.34,8.34,0,0,1-.52-9c2.5-4.07,6.57-3.28,10.46-2.68C150.58,262.76,198.19,267.23,213.85,272.16Z"/><path class="cls-16" d="M208.21,301.14a19.92,19.92,0,0,1-2.28-.14c-10.65-1.24-60.69-19.11-66-26.55a8.55,8.55,0,0,1-.53-9.21c2.48-4,6.44-3.43,10.28-2.83l.38.06,1.16.12c18.08,1.82,50.26,5.46,62.72,9.38,9.84,3.1,11.94,10.72,10.75,16.3A16.65,16.65,0,0,1,208.21,301.14Zm-62.65-38.75a6.23,6.23,0,0,0-5.84,3.06,8.12,8.12,0,0,0,.51,8.76c5.3,7.39,55.13,25.15,65.75,26.39a16.35,16.35,0,0,0,18.28-12.41c1.22-5.68-.9-12.82-10.47-15.83-12.43-3.91-44.58-7.55-62.64-9.37l-1.18-.12-.39-.06A26.64,26.64,0,0,0,145.56,262.39Z"/><path class="cls-15" d="M209.23,271c-19.42,6.11-10.56,30.79,7.89,28.64,10.31-1.21,60.5-19,65.9-26.47a8.36,8.36,0,0,0,.52-9c-2.5-4.06-6.57-3.28-10.46-2.68C272.5,261.61,224.89,266.09,209.23,271Z"/><path class="cls-16" d="M214.87,300a16.66,16.66,0,0,1-16.45-12.86c-1.19-5.59.91-13.21,10.75-16.31,12.46-3.92,44.64-7.56,62.72-9.38l1.16-.12.38-.06c3.84-.59,7.8-1.21,10.28,2.84a8.55,8.55,0,0,1-.53,9.21c-5.34,7.43-55.38,25.3-66,26.55A19.86,19.86,0,0,1,214.87,300Zm-5.64-29,.06.19c-9.57,3-11.69,10.15-10.47,15.83a16.34,16.34,0,0,0,18.28,12.41c10.62-1.24,60.45-19,65.75-26.38a8.12,8.12,0,0,0,.51-8.76c-2.34-3.81-6.16-3.22-9.86-2.65l-.39.06-1.18.12c-18.06,1.82-50.21,5.46-62.64,9.37Z"/><path class="cls-15" d="M240.7,294.66c-23.21,6-36.79,6.07-59.34,0,1.72-18.52,1.61-30.24,6.27-47.43l46.21,2.08C239.32,266.81,239.39,277.43,240.7,294.66Z"/><path class="cls-16" d="M210.66,299.41c-9.1,0-18.07-1.52-29.35-4.55l-.17-.05,0-.17c.4-4.29.69-8.17,1-11.93,1-12.46,1.71-22.31,5.3-35.54l0-.15h.16L234,249.11l0,.14c4.74,15.12,5.43,25,6.38,38.65.16,2.15.31,4.38.49,6.74v.17l-.16.05C229,297.89,219.75,299.41,210.66,299.41Zm-29.08-4.9c22.33,6,35.59,6,58.9,0-.17-2.3-.32-4.49-.47-6.58-.95-13.59-1.64-23.42-6.32-38.43l-45.9-2.06c-3.55,13.11-4.3,22.91-5.24,35.3C182.26,286.45,182,290.28,181.58,294.51Z"/><path class="cls-17" d="M213.88,280.56a.2.2,0,0,1-.2-.17c-1.91-11-4.08-23.46-1.39-35.16a.2.2,0,0,1,.39.09c-2.67,11.62-.51,24.05,1.4,35a.2.2,0,0,1-.17.23Z"/><path class="cls-17" d="M212.15,269.79a.2.2,0,0,1-.13,0c-6.76-5.73-6.58-7.62-4.77-25.74a.21.21,0,0,1,.41,0c-1.79,17.93-2,19.8,4.62,25.39a.19.19,0,0,1,0,.28A.18.18,0,0,1,212.15,269.79Z"/><path class="cls-17" d="M184.51,262a.2.2,0,0,1-.19-.14.2.2,0,0,1,.12-.26c6.63-2.21,8-2.67,11.25-16.41a.2.2,0,1,1,.39.1c-3.29,14-4.71,14.42-11.51,16.7Z"/><path class="cls-17" d="M184.51,262a.2.2,0,0,1-.19-.14.2.2,0,0,1,.12-.26c6.63-2.21,8-2.67,11.25-16.41a.2.2,0,1,1,.39.1c-3.29,14-4.71,14.42-11.51,16.7Z"/><path class="cls-17" d="M237.21,262.38h-.06l-.26-.08c-6.58-2.2-7.95-2.66-11.19-16.39a.2.2,0,0,1,.15-.24.21.21,0,0,1,.25.15c3.19,13.51,4.37,13.9,10.91,16.09l.27.09a.19.19,0,0,1,.12.25A.18.18,0,0,1,237.21,262.38Z"/><path class="cls-18" d="M221.13,298.11a20.41,20.41,0,0,0,.45,11c-14,.81-45.74,7.61-46.59,2.14-.18-1.13-.36-.68,23.69-13.24,4.08-2.14,6.35-1,6.94,3.13C205.84,302.64,219.66,298.61,221.13,298.11Z"/><path class="cls-19" d="M182.08,313.52c-4.24,0-7-.61-7.29-2.28-.16-1-.16-1,10.8-6.7,3.25-1.68,7.49-3.88,13-6.75,2.14-1.12,3.85-1.37,5.07-.74s1.87,1.94,2.17,4c0,0,0,0,.05.06,1.32.81,13.14-2.51,15.19-3.21l.35-.12-.08.35a20.15,20.15,0,0,0,.44,10.86l.08.25h-.26c-4.27.25-10.18,1.06-16.44,1.91C196.64,312.34,188,313.52,182.08,313.52Zm20.07-16.4a7.57,7.57,0,0,0-3.38,1c-5.5,2.87-9.74,5.07-13,6.75-10.5,5.44-10.7,5.56-10.59,6.24.57,3.63,16.16,1.51,29.91-.36,6.14-.84,11.95-1.63,16.21-1.9a20.66,20.66,0,0,1-.45-10.47c-2.3.72-13.67,4-15.19,3.06a.43.43,0,0,1-.24-.34c-.28-1.95-.94-3.2-2-3.72A2.78,2.78,0,0,0,202.15,297.12Z"/><path class="cls-19" d="M185.1,311.48a.2.2,0,0,1,0-.4,88.65,88.65,0,0,0,18.3-2,.2.2,0,1,1,.09.39,88.84,88.84,0,0,1-18.39,2Z"/><path class="cls-15" d="M284.6,290.25c19.51-8.89,7.07-33.55-12-28.92-10.61,2.59-60.79,27.61-65.46,36.16a8.78,8.78,0,0,0,.61,9.46c3.13,3.93,7.29,2.58,11.28,1.46C219.68,308.24,268.86,297.42,284.6,290.25Z"/><path class="cls-16" d="M213.17,309.78a6.65,6.65,0,0,1-5.53-2.7,9,9,0,0,1-.63-9.68c4.62-8.46,54.62-33.59,65.59-36.27A17.65,17.65,0,0,1,293.81,272c2,5.68.75,13.91-9.13,18.41-12.51,5.7-45.68,13.66-64.33,17.9l-1.21.27-.4.12A21.12,21.12,0,0,1,213.17,309.78ZM277.3,261a19.29,19.29,0,0,0-4.6.57c-10.94,2.66-60.75,27.66-65.34,36.06a8.58,8.58,0,0,0,.6,9.24c2.94,3.69,6.87,2.57,10.67,1.5l.4-.12,1.23-.28c18.64-4.23,51.78-12.18,64.25-17.87l.09.19-.09-.19c9.63-4.38,10.92-12.13,8.92-17.91A17.08,17.08,0,0,0,277.3,261Z"/><path class="cls-18" d="M203.43,297.51a20.45,20.45,0,0,1-.4,11c14,.74,45.77,7.41,46.6,1.94.17-1.14.36-.68-23.74-13.15-4.09-2.11-6.36-1-6.93,3.17C218.75,302,204.9,298,203.43,297.51Z"/><path class="cls-19" d="M242.32,312.75c-5.89,0-14.45-1.13-22.85-2.24-6.26-.82-12.17-1.6-16.45-1.83l-.26,0,.08-.25a20.11,20.11,0,0,0,.4-10.85l-.09-.36.35.12c2.06.69,13.89,4,15.21,3.15,0,0,0-.05,0-.06.29-2.08,1-3.44,2.15-4s2.93-.39,5.07.71c5.52,2.86,9.76,5,13,6.71,11,5.63,11,5.63,10.84,6.61C249.58,312.13,246.68,312.75,242.32,312.75Zm-39-4.46c4.27.24,10.08,1,16.23,1.82,13.76,1.82,29.35,3.87,29.9.28.11-.72-.09-.84-10.61-6.23-3.27-1.68-7.51-3.85-13-6.71-2-1-3.6-1.28-4.69-.71s-1.67,1.78-1.94,3.73a.49.49,0,0,1-.24.34c-1.52.94-12.9-2.29-15.21-3A20.47,20.47,0,0,1,203.3,308.29Z"/><path class="cls-19" d="M239.52,310.74a89.62,89.62,0,0,1-18.4-1.94.2.2,0,0,1,.09-.39,88.74,88.74,0,0,0,18.31,1.92.2.2,0,0,1,.2.2A.21.21,0,0,1,239.52,310.74Z"/><path class="cls-15" d="M140,291.59c-19.54-8.83-7.19-33.53,11.84-29,10.63,2.55,60.9,27.4,65.6,35.93a8.78,8.78,0,0,1-.59,9.46c-3.11,3.94-7.28,2.61-11.27,1.5C205,309.35,155.73,298.7,140,291.59Z"/><path class="cls-16" d="M211.44,310.87a21.36,21.36,0,0,1-5.55-1.05l-.39-.11-1.21-.27c-18.67-4.17-51.87-12-64.4-17.67-9.9-4.47-11.14-12.69-9.2-18.38a17.64,17.64,0,0,1,21.17-11c11,2.64,61.07,27.59,65.72,36a9,9,0,0,1-.6,9.69A6.65,6.65,0,0,1,211.44,310.87Zm-64.21-48.6a17.06,17.06,0,0,0-16.15,11.25c-2,5.79-.67,13.53,9,17.88,12.51,5.65,45.67,13.48,64.33,17.65l1.22.27.4.11c3.81,1.07,7.74,2.17,10.66-1.53a8.56,8.56,0,0,0,.57-9.24c-4.62-8.39-54.51-33.21-65.46-35.84A19.81,19.81,0,0,0,147.23,262.27Z"/><path class="cls-20" d="M202.81,177.86c.09,6.9,2.37,12-10.32,18,7.55,10.39,15,14.23,15,14.23s15.92-7.16,21.39-11.9c-2.85-2.07-5.82-3.62-8.44-5.46-5.19-3.65-2.13-11.74-3.14-14.73Z"/><path class="cls-21" d="M218.74,191c-1.4-2-1.48-4.41-1.4-7.68-6.66,4.71-9.86,2.55-14.07-.54C209.3,191.49,212.85,188.29,218.74,191Z"/><path class="cls-20" d="M215.32,185.27c3.63-1.15,9.52-11.71,7.31-24.71s-16.81-14.67-22.59-5.83C194.47,163.24,198.07,190.78,215.32,185.27Z"/><path class="cls-22" d="M205.18,158.57c2.4-.49,5.23-3.72,7.76-2.11,4.43,2.82,9.12,4.93,9.34,17.19,2.65-10.43,2-8,4.25-9.94,3.47-3-1.47-8.4-2.29-11.05s-.07-6-5.59-7.77c-1.74-.58-2.15-.2-3.37.14-6.41,1.8-13.4-7.29-18.25,2.82-1.07,2.23-.54,2.44-.19,4.07.78,3.61-2.71,6.76-3.17,10.42-.19,1.57,4.9,11,4.9,11s0-4.31.1-5.2C200.13,157.37,203.12,159,205.18,158.57Z"/><path class="cls-20" d="M224.37,166.34c-2.53-.63-2.47,4.61-2.37,7.2C222.2,178.66,228.34,167.34,224.37,166.34Z"/><path class="cls-20" d="M196.49,167.43c2.47-.84,2.84,4.38,3,7C199.67,179.52,192.61,168.75,196.49,167.43Z"/><path class="cls-22" d="M213.3,164.3c.19.1,6.5.56,6.6.53,1.52-.51-3.87-2.66-6.52-1.5C213.05,163.48,213,164.12,213.3,164.3Z"/><path class="cls-22" d="M207.21,163.14c-2.69-1.06-7.71,1.37-6.44,1.8C202.46,164.94,209.6,164.08,207.21,163.14Z"/><path class="cls-21" d="M210.42,174.85a1.82,1.82,0,0,1-.59-.12c-.86-.31-.61-1.5-.29-3a13.12,13.12,0,0,0,.39-3.11.2.2,0,1,1,.4,0,12.78,12.78,0,0,1-.4,3.21c-.26,1.27-.49,2.36,0,2.55a1.23,1.23,0,0,0,1,0,2.23,2.23,0,0,1,.82-.17.21.21,0,1,1,0,.41,1.9,1.9,0,0,0-.68.14A1.88,1.88,0,0,1,210.42,174.85Z"/><path class="cls-6" d="M213.11,178.21c.16-.09.45,0,.43.17a5.24,5.24,0,0,1-1.79,3.38c-2.07,1.25-4.31-3-2.8-3C209.73,178.74,211.55,179.12,213.11,178.21Z"/><path class="cls-21" d="M223.21,172.57a.2.2,0,0,1-.11,0,.2.2,0,0,1-.06-.28,4.27,4.27,0,0,0,.42-3.65.19.19,0,0,1,.12-.25.2.2,0,0,1,.26.12,4.66,4.66,0,0,1-.46,4A.21.21,0,0,1,223.21,172.57Z"/><path class="cls-21" d="M198.2,173.54a.18.18,0,0,1-.15-.07A4.63,4.63,0,0,1,197,169.6a.2.2,0,0,1,.23-.17.2.2,0,0,1,.17.24,4.24,4.24,0,0,0,1,3.53.2.2,0,0,1,0,.29A.24.24,0,0,1,198.2,173.54Z"/><path class="cls-23" d="M211.75,154.78a.11.11,0,0,1-.08,0,.2.2,0,0,1-.1-.27,14.19,14.19,0,0,0,1-8,.2.2,0,0,1,.17-.23.21.21,0,0,1,.23.18,14.63,14.63,0,0,1-1,8.25A.21.21,0,0,1,211.75,154.78Z"/><path class="cls-23" d="M219.7,147.34a.2.2,0,0,1-.13,0,4.19,4.19,0,0,0-5.41,0,.2.2,0,0,1-.28,0,.2.2,0,0,1,0-.28,4.6,4.6,0,0,1,5.9,0,.21.21,0,0,1,0,.29A.2.2,0,0,1,219.7,147.34Z"/><path class="cls-23" d="M218.08,151.17c-.67,0-2.8-.1-4-1.35a.19.19,0,0,1,0-.28.21.21,0,0,1,.29,0c1.22,1.31,3.81,1.21,3.83,1.21a.18.18,0,0,1,.21.19.19.19,0,0,1-.19.21Z"/><path class="cls-23" d="M218.3,158.49a.19.19,0,0,1-.12,0,7.84,7.84,0,0,1-2.59-3.08,2.76,2.76,0,0,0-2.28-1.87.21.21,0,0,1-.17-.24.2.2,0,0,1,.24-.16,3.14,3.14,0,0,1,2.56,2.08,7.64,7.64,0,0,0,2.48,2.94.2.2,0,0,1,0,.28A.18.18,0,0,1,218.3,158.49Z"/><path class="cls-23" d="M210.54,146.65a11.54,11.54,0,0,1-3.62-.81c-1.69-.57-3.15-1.07-4-.08a.21.21,0,0,1-.31-.27c1-1.19,2.71-.63,4.46,0,1.52.51,3.25,1.1,4.77.59a.2.2,0,0,1,.25.13.2.2,0,0,1-.13.26A4.44,4.44,0,0,1,210.54,146.65Z"/><path class="cls-23" d="M208.19,150.48a.15.15,0,0,1-.11,0,.2.2,0,0,1-.05-.28c.81-1.16,2.34-.77,3.43-.37a.22.22,0,0,1,.12.26.2.2,0,0,1-.26.12c-1.54-.57-2.46-.5-3,.22A.2.2,0,0,1,208.19,150.48Z"/><path class="cls-23" d="M204.66,156.57a.21.21,0,0,1-.17-.09.2.2,0,0,1,.06-.28,4.83,4.83,0,0,1,2.7-1.07c.74-.07,1.39-.13,3.3-2a.2.2,0,0,1,.28,0,.21.21,0,0,1,0,.29c-2,1.93-2.76,2-3.55,2.06a4.53,4.53,0,0,0-2.5,1A.19.19,0,0,1,204.66,156.57Z"/><path class="cls-23" d="M198.19,167.16a.2.2,0,0,1-.2-.14,2.39,2.39,0,0,0-1.78-1.56.2.2,0,1,1,.08-.4,2.83,2.83,0,0,1,2.09,1.83.21.21,0,0,1-.13.26Z"/><path class="cls-23" d="M222.14,166.17h0a.21.21,0,0,1-.18-.23c.14-1.09,1.36-1.49,2-1.7a.2.2,0,0,1,.26.13.21.21,0,0,1-.13.25c-.79.26-1.64.6-1.74,1.37A.2.2,0,0,1,222.14,166.17Z"/><path class="cls-23" d="M196.37,160.54h-.05a.22.22,0,0,1-.15-.24,7.53,7.53,0,0,1,1.49-3c.93-1.25,1.67-2.24.82-5.85-.31-1.31-.47-2.59.92-3.77a.21.21,0,0,1,.29,0,.21.21,0,0,1,0,.29c-1.11.94-1.14,1.87-.79,3.37.89,3.79.07,4.9-.88,6.18a7,7,0,0,0-1.42,2.85A.2.2,0,0,1,196.37,160.54Z"/><path class="cls-23" d="M225.85,161.39a.11.11,0,0,1-.08,0,.2.2,0,0,1-.1-.27,3.71,3.71,0,0,0-.58-3.89,7.34,7.34,0,0,0-1.25-1.09c-1.09-.8-2.11-1.56-2-4.18a.2.2,0,0,1,.21-.19.19.19,0,0,1,.19.21c-.14,2.4.72,3,1.8,3.83a8.55,8.55,0,0,1,1.32,1.15,4.16,4.16,0,0,1,.64,4.33A.21.21,0,0,1,225.85,161.39Z"/><path class="cls-24" d="M204,170.25c-.76-.05-1.15-3,.7-2.87C205.67,167.45,205.23,170.34,204,170.25Z"/><path class="cls-24" d="M216,170.25c-.76-.05-1.15-3,.7-2.87C217.69,167.45,217.25,170.34,216,170.25Z"/><path class="cls-25" d="M199.44,192.44c4.88,5.48,14.17,9.21,20.57.84.51-.66-.06-.85,14.1,4.31,6.3,53.72,8.92,67.54,3.76,68-19.13,1.87-42,10.21-54,1-7-5.36-1.55-64.37.52-69C199.29,191.79,198.79,191.71,199.44,192.44Z"/><path class="cls-26" d="M199.56,271.05c-6.17,0-11.68-1.1-15.85-4.3S180,243.51,180.5,231.8c.74-16.12,2.62-32,3.67-34.33l0-.07.08,0,7.73-3c7-2.73,7-2.73,7.54-2.09l0,0c2.55,2.86,7,5.85,11.72,5.67,3.32-.12,6.19-1.74,8.54-4.82l.05-.07c.51-.71.51-.71,13.7,4.1l.69.26,0,.12c1,8.32,1.86,15.68,2.64,22.18,3.7,30.65,5.08,42.12,2.62,45.19a2.33,2.33,0,0,1-1.68.89c-5.16.51-10.68,1.5-16,2.46C214.25,269.66,206.49,271.05,199.56,271.05ZM184.5,197.71c-1,2.58-2.88,18.63-3.6,34.11-.92,19.8.2,32.41,3.06,34.61,8.72,6.69,23.52,4,37.84,1.46,5.35-1,10.87-1.95,16-2.46a2,2,0,0,0,1.41-.75c2.35-2.93.87-15.21-2.71-44.88-.78-6.47-1.66-13.79-2.63-22.06l-.46-.16c-12.17-4.45-12.9-4.71-13.23-4.25l-.06.08c-2.43,3.17-5.4,4.85-8.84,5-4.91.18-9.43-2.88-12-5.81l0-.05c-.36-.41-.5-.37-7.09,2.21Z"/><path class="cls-21" d="M207.17,262.93c-.74-.76.87-1.84,1.42-.57a1.34,1.34,0,0,1-.22,1.29c1,.2,1.29-1.65,2.28-1.56,1.86.17.41,9.4-5.06,8.39-1.17-.22-.48-1.16-.24-2C207,263.19,203.6,260.19,207.17,262.93Z"/><path class="cls-20" d="M183.39,265.7l1.73-6,12.48,4.17c5.21-.51,8.14-2.79,11.73.12a.51.51,0,0,1,0,.83,4,4,0,0,1-3.09.07c-2.31-.34-5.48,3.31-1.26,4.67,6,1.91,6.21-5.34,8-6,1.6-.61,1.09,2.48-1.57,6.86-1.51,2.47-1.87,1.16-5.3,2.44a2.07,2.07,0,0,1-2.17,0C195,268.58,197.87,269.71,183.39,265.7Z"/><path class="cls-25" d="M149.22,247.82c-6.23,9.45,1,13.31,6.75,15.05,7.65,2.3,39.5,10.1,40.75,6.74,2.25-6.06,2.56-7.14,1.28-7.86-31.41-17.54-35.57-6.63-17.18-25a13.75,13.75,0,0,0,3.86-7.66c1.66-11.06,3-32.79-.33-31.52C176.09,200.74,166.32,221.86,149.22,247.82Z"/><path class="cls-26" d="M193.53,270.61c-9,0-32.83-6.11-37.62-7.54s-7.9-3.64-8.91-6.42c-.9-2.49-.22-5.5,2.05-8.94,5.48-8.33,10.21-16.15,14.38-23.05,8.81-14.58,15.17-25.11,20.85-27.29a.83.83,0,0,1,.88.13c2.58,2.07,1.17,22-.28,31.6a13.79,13.79,0,0,1-3.92,7.77c-2.37,2.38-4.37,4.26-6,5.78-3.4,3.21-5.1,4.82-4.89,5.85s2.1,1.64,5.56,2.89a141.48,141.48,0,0,1,22.44,10.18c1.46.82,1,2.12-1.18,8.11C196.66,270.33,195.43,270.61,193.53,270.61Zm-44.14-22.68c-2.19,3.33-2.87,6.21-2,8.58,1,2.66,3.88,4.73,8.65,6.17,9.95,3,39.42,9.76,40.5,6.86,2.22-6,2.49-7,1.37-7.61a141.45,141.45,0,0,0-22.39-10.16c-3.71-1.34-5.57-2-5.82-3.19s1.39-2.81,5-6.22c1.61-1.52,3.6-3.41,6-5.77a13.47,13.47,0,0,0,3.81-7.55c1.66-11.08,2.6-29.48.43-31.22a.46.46,0,0,0-.49-.08c-5.54,2.14-11.87,12.62-20.64,27.12-4.17,6.91-8.9,14.74-14.39,23.07Z"/><path class="cls-21" d="M210.82,262.5c.7-.79-1-1.8-1.44-.5a1.29,1.29,0,0,0,.28,1.27c-1,.26-1.38-1.58-2.35-1.44-1.85.27.06,9.42,5.47,8.13,1.16-.28.42-1.18.14-2C211.05,262.74,214.25,259.58,210.82,262.5Z"/><path class="cls-20" d="M234.71,264.07l-2-5.94-12.25,4.8c-5.23-.25-8.27-2.38-11.71.7a.51.51,0,0,0,.08.83,4,4,0,0,0,3.09-.08c2.29-.45,5.64,3,1.49,4.6-5.85,2.21-6.47-5-8.28-5.59-1.63-.53-1,2.53,1.92,6.77,1.63,2.39,1.91,1.07,5.41,2.18a2.09,2.09,0,0,0,2.17-.14C223.29,267.53,220.45,268.8,234.71,264.07Z"/><path class="cls-25" d="M245.8,249c-15.11,5.78-23.23,9.89-26,11.37-1.73.93-.35,2.66,1.14,8a1.62,1.62,0,0,0,1.79,1.16c48.59-7.62,50.95-11.56,46.59-21.15-3-6.59-28.19-48.27-35.23-50.82-2.55-.92-3,20.25-1.32,29C234.32,234.71,249.65,247.54,245.8,249Z"/><path class="cls-26" d="M222.5,269.78a1.8,1.8,0,0,1-1.74-1.33c-.41-1.5-.83-2.73-1.16-3.72-.87-2.6-1.27-3.78.13-4.53,2.79-1.5,10.9-5.6,26-11.38a.66.66,0,0,0,.46-.46c.34-1.26-2.28-4.52-5.06-8-3.64-4.53-7.76-9.66-8.54-13.77-1.54-8.19-1.26-27.24.89-29.07a.68.68,0,0,1,.7-.15c7.21,2.61,32.55,44.79,35.34,50.93,1.41,3.09,2.1,5.6.89,7.83-2.66,4.94-15.13,8.5-47.63,13.6Zm23.37-20.58c-15.07,5.77-23.17,9.86-26,11.36-1,.56-.83,1.36.07,4.05.33,1,.74,2.22,1.16,3.73a1.41,1.41,0,0,0,1.57,1c32.35-5.08,44.74-8.58,47.34-13.39,1.12-2.09.49-4.41-.9-7.47-3.42-7.51-28.27-48.23-35.12-50.71a.26.26,0,0,0-.29.07c-1.89,1.6-2.38,20.1-.76,28.69.76,4,5,9.32,8.46,13.59,3.09,3.84,5.52,6.87,5.13,8.33a1.08,1.08,0,0,1-.71.73Z"/><path class="cls-27" d="M201.06,253.38a.19.19,0,0,1-.16-.09C197,248,192.2,241.45,191.46,234c-.44-4.47.59-9,1.6-13.34,1.12-4.9,2.29-10,1.29-14.9a35.64,35.64,0,0,0-2.86-7.7l-1.26-2.73a.21.21,0,0,1,.1-.27.2.2,0,0,1,.27.1l1.26,2.73a35.88,35.88,0,0,1,2.89,7.79c1,5-.16,10.13-1.3,15.07-1,4.33-2,8.8-1.59,13.21.73,7.38,5.52,13.9,9.37,19.13a.22.22,0,0,1,0,.29A.21.21,0,0,1,201.06,253.38Z"/><path class="cls-27" d="M231.13,252.9a.2.2,0,0,1-.2-.22c.45-6.05.92-12.32-.36-18.37a66.59,66.59,0,0,0-2.41-8,47.39,47.39,0,0,1-2.91-11.22c-.61-6.73,1.64-13.21,4.16-19.21a.21.21,0,0,1,.38.16c-2.51,5.95-4.74,12.37-4.14,19a47.54,47.54,0,0,0,2.89,11.12,66.74,66.74,0,0,1,2.43,8.05c1.29,6.11.82,12.41.36,18.5A.19.19,0,0,1,231.13,252.9Z"/><path class="cls-6" d="M217,228.17c-9.27,0-18.69-2.48-27.24-4.73-6.8-1.79-13.22-3.48-18.29-3.49a26.08,26.08,0,0,0-5,.49.2.2,0,0,1-.23-.16.19.19,0,0,1,.15-.24,26.94,26.94,0,0,1,5.13-.5c5.11,0,11.56,1.71,18.38,3.51,11.12,2.93,23.73,6.25,35.51,3.95a78.85,78.85,0,0,0,11.15-3.35c5-1.77,10.14-3.6,15.72-4a.2.2,0,0,1,0,.4c-5.52.35-10.65,2.17-15.61,3.93a78.79,78.79,0,0,1-11.2,3.37A44.28,44.28,0,0,1,217,228.17Z"/><path class="cls-27" d="M150.07,260.36a.2.2,0,0,1-.13,0,.21.21,0,0,1,0-.29,104.32,104.32,0,0,1,8-8.76c4.59-4.64,9.35-9.45,12.24-15.37A61,61,0,0,0,174,224.48a69,69,0,0,1,3.24-10.23,67.38,67.38,0,0,1,3.38-6.48c1-1.77,2-3.61,2.92-5.48a28,28,0,0,0,1.89-5.27.21.21,0,0,1,.24-.15.21.21,0,0,1,.15.25,28.05,28.05,0,0,1-1.91,5.34C183,204.35,182,206.19,181,208a70.13,70.13,0,0,0-3.36,6.44,69.34,69.34,0,0,0-3.21,10.17,61.27,61.27,0,0,1-3.83,11.49c-2.92,6-7.7,10.82-12.32,15.49a106.66,106.66,0,0,0-8,8.72A.21.21,0,0,1,150.07,260.36Z"/><path class="cls-27" d="M262.57,261.37a.2.2,0,0,1-.14-.06,19.61,19.61,0,0,1-4.48-7.64,60,60,0,0,1-1.83-7.6c-.38-2-.79-4.06-1.35-6a42.92,42.92,0,0,0-8.19-15.38c-.52-.65-1.07-1.29-1.6-1.91a40.11,40.11,0,0,1-4-5.23,35,35,0,0,1-3.7-10.43c-.6-2.73-1.13-5.5-1.55-8.25a.21.21,0,0,1,.16-.24.21.21,0,0,1,.24.17c.42,2.75.94,5.51,1.55,8.23a34.26,34.26,0,0,0,3.64,10.32,41.29,41.29,0,0,0,3.93,5.16c.53.63,1.08,1.27,1.61,1.92a43.48,43.48,0,0,1,8.26,15.53c.57,2,1,4.08,1.36,6.08a60.06,60.06,0,0,0,1.81,7.55,19.24,19.24,0,0,0,4.39,7.48.21.21,0,0,1,0,.29A.22.22,0,0,1,262.57,261.37Z"/><path class="cls-6" d="M214.15,244.73a76.76,76.76,0,0,1-15.44-1.62c-4.49-.92-9-2.28-13.33-3.59-8.93-2.69-18.17-5.47-27.81-4.62a.19.19,0,0,1-.21-.18.2.2,0,0,1,.18-.22c9.72-.86,19,1.94,28,4.64,4.33,1.3,8.82,2.65,13.29,3.57,20.21,4.15,34.4-.56,46.92-4.71A119.82,119.82,0,0,1,261,233.65a.2.2,0,0,1,.23.16.21.21,0,0,1-.16.24,119.33,119.33,0,0,0-15.23,4.33C236.72,241.41,226.72,244.73,214.15,244.73Z"/><path class="cls-6" d="M223.56,215c-7.22,0-14.34-1.95-21.26-3.85-9.1-2.5-18.52-5.08-28-3.11a.2.2,0,1,1-.08-.39c9.6-2,19.07.6,28.22,3.11,7.74,2.12,15.74,4.31,23.81,3.74,5-.36,9.92-1.78,14.67-3.16,1.51-.44,3.07-.89,4.62-1.3a.19.19,0,0,1,.24.14.2.2,0,0,1-.14.25c-1.54.41-3.1.86-4.61,1.3-4.77,1.38-9.71,2.82-14.75,3.17C225.35,215,224.45,215,223.56,215Z"/><path class="cls-27" d="M217,261.74h-.06a.2.2,0,0,1-.14-.25,31.36,31.36,0,0,0-.4-18.35,64.21,64.21,0,0,0-2.87-6.77,45.64,45.64,0,0,1-3.62-9.46c-1.14-5.15-.47-10.58.18-15.84.52-4.27,1.07-8.69.6-12.85a.2.2,0,0,1,.18-.22.21.21,0,0,1,.23.18c.47,4.2-.08,8.65-.61,12.94-.64,5.22-1.3,10.62-.18,15.71a45.44,45.44,0,0,0,3.59,9.37,63.34,63.34,0,0,1,2.88,6.82,31.75,31.75,0,0,1,.41,18.59A.2.2,0,0,1,217,261.74Z"/><path class="cls-6" d="M206.37,203.89c-5.28,0-10.59-1.16-15.77-2.29-3.1-.68-6.31-1.38-9.47-1.83a.2.2,0,0,1-.17-.23.21.21,0,0,1,.23-.17c3.18.45,6.39,1.15,9.49,1.83,7.3,1.6,14.84,3.24,22.15,1.61a47.18,47.18,0,0,0,6.7-2.17,64,64,0,0,1,13.18-3.74.2.2,0,0,1,.23.16.21.21,0,0,1-.17.24A63.4,63.4,0,0,0,219.68,201a48.92,48.92,0,0,1-6.76,2.19A30.24,30.24,0,0,1,206.37,203.89Z"/><path class="cls-6" d="M146.89,253.52a.2.2,0,0,1-.16-.09.21.21,0,0,1,.05-.29c6.63-4.44,14.48-4.19,20.2-4,1.28,0,2.5.07,3.52.05a.21.21,0,0,1,.2.2.2.2,0,0,1-.19.21c-1,0-2.25,0-3.54-.06-5.67-.18-13.44-.43-20,3.94A.28.28,0,0,1,146.89,253.52Z"/><path class="cls-6" d="M167.67,266.12l-.1,0a.21.21,0,0,1-.08-.28,24.48,24.48,0,0,1,14.34-12,.2.2,0,0,1,.26.13.21.21,0,0,1-.13.25A24.09,24.09,0,0,0,167.85,266,.21.21,0,0,1,167.67,266.12Z"/><path class="cls-6" d="M270.83,253.75h0c-5-.6-9.53-2.53-13.89-4.41-4-1.74-8.21-3.53-12.7-4.18a.2.2,0,0,1-.17-.23.21.21,0,0,1,.23-.18c4.54.66,8.74,2.47,12.81,4.22,4.32,1.86,8.8,3.79,13.77,4.38a.19.19,0,0,1,.17.22A.2.2,0,0,1,270.83,253.75Z"/><path class="cls-27" d="M213.63,266.62a.18.18,0,0,1-.1,0,.2.2,0,0,1-.08-.27c1.43-2.68,8-3.86,16.23-5.36,6.87-1.24,14.66-2.65,21-5.25,1.66-.68,3.31-1.48,4.9-2.24a52,52,0,0,1,9.18-3.71c.88-.24,1.85-.43,2.88-.63l1.93-.39a.2.2,0,0,1,.09.39c-.65.15-1.31.27-1.94.4-1,.2-2,.39-2.86.62a51.74,51.74,0,0,0-9.1,3.68c-1.6.77-3.26,1.57-4.93,2.26-6.33,2.61-14.14,4-21,5.27-7.83,1.42-14.6,2.64-15.94,5.15A.2.2,0,0,1,213.63,266.62Z"/><path class="cls-6" d="M250.74,264.68a.13.13,0,0,1-.09,0c-3.92-2-6.94-5.23-9.61-8.11-2.33-2.51-4.53-4.89-7-6.12a.2.2,0,0,1,.18-.36c2.54,1.26,4.76,3.67,7.12,6.21,2.77,3,5.64,6.08,9.49,8a.2.2,0,0,1,.09.27A.21.21,0,0,1,250.74,264.68Z"/><path class="cls-27" d="M202.89,266.09h0c-3.81-.61-7.23-2.64-10.53-4.59S185.73,257.6,182,257a31.19,31.19,0,0,0-5.71-.23c-.86,0-1.74,0-2.61,0-10.75-.18-16.68-4.47-21.45-7.91-.89-.65-1.73-1.25-2.55-1.79a.2.2,0,1,1,.22-.34c.83.54,1.67,1.15,2.56,1.8,4.73,3.41,10.61,7.66,21.23,7.83.86,0,1.74,0,2.59,0a31.11,31.11,0,0,1,5.78.23c3.79.64,7.17,2.64,10.44,4.58s6.65,3.94,10.39,4.54a.2.2,0,0,1,0,.4Z"/><path class="cls-26" d="M253,249.76a9.24,9.24,0,0,1-4.69-1.28.21.21,0,0,1-.07-.27.2.2,0,0,1,.28-.07,8.83,8.83,0,0,0,6.63.94.21.21,0,0,1,.25.15.19.19,0,0,1-.15.24A9,9,0,0,1,253,249.76Z"/><path class="cls-26" d="M168.38,249.07a6.79,6.79,0,0,1-5.81-3.37.2.2,0,0,1,.07-.28.21.21,0,0,1,.28.08,6.38,6.38,0,0,0,5.46,3.16h0a.21.21,0,0,1,.21.2A.23.23,0,0,1,168.38,249.07Z"/><path class="cls-26" d="M207.92,254.54a.2.2,0,0,1,0-.4c10.9-1.67,16.63-13.12,20.42-20.69a.2.2,0,0,1,.27-.1.21.21,0,0,1,.09.28c-3.83,7.65-9.61,19.21-20.72,20.91Z"/><path class="cls-26" d="M208.83,201.7c-5.45,0-11.21-3-12.43-6.47a.2.2,0,0,1,.12-.26.2.2,0,0,1,.26.12c1.19,3.4,6.94,6.31,12.29,6.2a.21.21,0,0,1,.21.2.22.22,0,0,1-.2.21Z"/><path class="cls-26" d="M182.49,238.74a.21.21,0,0,1-.15-.35,16.21,16.21,0,0,0,4.55-9.55.2.2,0,0,1,.22-.18.19.19,0,0,1,.18.22,16.64,16.64,0,0,1-4.66,9.8A.2.2,0,0,1,182.49,238.74Z"/><rect class="cls-28" x="176.37" y="228.42" width="67.88" height="51.84" rx="5.53"/><path class="cls-29" d="M238.72,280.46H181.9a5.74,5.74,0,0,1-5.73-5.73V234a5.74,5.74,0,0,1,5.73-5.74h56.82a5.74,5.74,0,0,1,5.73,5.74v40.78A5.74,5.74,0,0,1,238.72,280.46ZM181.9,228.62a5.33,5.33,0,0,0-5.33,5.33v40.78a5.33,5.33,0,0,0,5.33,5.32h56.82a5.33,5.33,0,0,0,5.33-5.32V234a5.33,5.33,0,0,0-5.33-5.33Z"/><path class="cls-29" d="M215,254.34a4.71,4.71,0,1,1-4.71-4.71A4.7,4.7,0,0,1,215,254.34Z"/><path class="cls-28" d="M210.31,259.25a4.91,4.91,0,1,1,4.91-4.91A4.92,4.92,0,0,1,210.31,259.25Zm0-9.42a4.51,4.51,0,1,0,4.5,4.51A4.51,4.51,0,0,0,210.31,249.83Z"/><polygon class="cls-6" points="193.46 247.57 193.09 247.39 193.13 247.32 193.5 247.48 193.46 247.57"/></g></g></svg>