<svg id="Ñëîé_1" data-name="Ñëîé 1" xmlns="http://www.w3.org/2000/svg" viewBox="0 0 478.01 342.11"><defs><style>.cls-1,.cls-2{fill:#173d7a;}.cls-1{opacity:0.5;}.cls-3{fill:#d4ecff;}.cls-4{fill:#396caa;}.cls-5{fill:#5793ce;}.cls-6{fill:#ffc2b0;}.cls-7{fill:#fff;}.cls-8{fill:#ea9c92;}.cls-9{fill:#e57700;}.cls-10{fill:#e29b54;}</style></defs><ellipse class="cls-1" cx="80.59" cy="271.4" rx="18.88" ry="10.9"/><path class="cls-2" d="M79.48,265.66c.21.52,3.85,4.94,7.48,6a8.42,8.42,0,0,0,3.34.46,1.1,1.1,0,0,0,.89-1.47,13.83,13.83,0,0,0-7-7.68C78.06,260,79.48,265.66,79.48,265.66Z"/><path class="cls-2" d="M78.27,267.35a30.18,30.18,0,0,1,1.79,5.9c.26,1.64-.64,3.77-1.38,5.18a1.51,1.51,0,0,1-2.36.4,8.75,8.75,0,0,1-2.94-5.63c-.42-4.53,0-5.32,0-5.32Z"/><path class="cls-3" d="M69.52,212.63a86.82,86.82,0,0,0,0,12c.48,6.32,2.17,35.86,2.49,43,0,0-.16,2.15,4,1.68s3.83-2.87,3.83-2.87,5.85-.07,6-3.52,6-41.18,6-54.74Z"/><path class="cls-4" d="M79.85,266.44a12.18,12.18,0,0,0,1.67-.17h0l1.14-45.92Z"/><path class="cls-5" d="M75.71,170.73c-9.45,3.91-9.26,9.5-9.26,9.5s1.85,20.48,1.22,34.16c-.27,5.72,30.38,6.15,25.81-9.1-5.39-18-3.37-32.55-5.89-34.74S78.15,169.71,75.71,170.73Z"/><ellipse class="cls-6" cx="77.39" cy="174.46" rx="4.87" ry="3.59" transform="translate(-41.07 24.82) rotate(-14.45)"/><path class="cls-7" d="M76.69,178.74c-2.23,0-4.14-1.13-4.6-2.91h0c-.57-2.23,1.34-4.66,4.25-5.42s5.77.46,6.34,2.69a3.76,3.76,0,0,1-.86,3.34,6.41,6.41,0,0,1-3.39,2.07A7.05,7.05,0,0,1,76.69,178.74Zm-3.45-3.21c.42,1.6,2.61,2.42,4.89,1.83a5.26,5.26,0,0,0,2.77-1.67,2.6,2.6,0,0,0,.63-2.29c-.41-1.6-2.61-2.42-4.89-1.84s-3.81,2.37-3.4,4Z"/><path class="cls-6" d="M79.5,170.3a23.73,23.73,0,0,0,.08,3.37c0,1-3.25,1.82-4.1,1s-.51-1.74-.71-4.94S79.5,170.3,79.5,170.3Z"/><path class="cls-8" d="M74.77,169.7s.81,3,4.81,4.11l-.06-2.7Z"/><circle class="cls-6" cx="79.27" cy="163.97" r="7.27" transform="translate(-36.08 23.03) rotate(-13.5)"/><path class="cls-8" d="M77.6,164.24s4,1.72,6.78,1.74,2.16-2.31,2.16-2.31l-8.23-1.19Z"/><path class="cls-9" d="M85.21,164.69a13,13,0,0,0-6.55-.86,3.17,3.17,0,0,0-1.85,1.1,1.1,1.1,0,0,1-.56.4c-.54.13-1.43-2.13-2.49-2.18s-1.76.7-.89,2.08.57,2.94.17,3.16-4.61-3-.89-10.39,13.18-3.4,14.65-1.91c0,0,1.55,1.35,2.81.15C89.61,156.24,91,166.83,85.21,164.69Z"/><path class="cls-6" d="M92.21,169.05l5.08-2.19a2.28,2.28,0,0,0,1.24-1.34l5-14.54,2.32.41-4.05,18.09a3.06,3.06,0,0,1-1.49,2l-8.46,4.75Z"/><path class="cls-6" d="M39.34,171.41l-1.17-.53A9.32,9.32,0,0,1,35.5,169l-.82-.8a1.59,1.59,0,0,1-.34-1.73h0a.87.87,0,0,1,1.19-.44L38,167.29s-.38-1.08-.19-1.36,2.06,1.8,2.94,3.28S39.34,171.41,39.34,171.41Z"/><path class="cls-6" d="M59.62,177.23l-4.35-.48a7.72,7.72,0,0,1-2.92-.95l-11.64-6.59-1.37,2.2,11.9,9.2a5.54,5.54,0,0,0,1.2.7l7.1,3Z"/><path class="cls-6" d="M105.87,151.39l.45-.52a4,4,0,0,0,1-2.08l.31-2.12a1.81,1.81,0,0,0-.7-1.73l-.06,0a1.1,1.1,0,0,0-1.61.53l-1,2.52s.33-1.31-.09-1.45-.9,1.52-.55,2.42a3.89,3.89,0,0,1,0,2.06Z"/><path class="cls-7" d="M82.16,169l1.88-.51a4.55,4.55,0,0,1-2.21,1.77c-1.31.36-1.51-.75-1.51-.75Z"/><path class="cls-5" d="M85,169.5s8.49-1.68,11.08-2.46,3.67,6.33,3.48,8.13-9,3.82-10.08,6.92S85,169.5,85,169.5Z"/><path class="cls-5" d="M72,172.63a67,67,0,0,1-16.59,4,1.14,1.14,0,0,0-.92.74,12.21,12.21,0,0,0-.55,6.24,2.29,2.29,0,0,0,2.27,1.8c3.25,0,10.24.29,11.38,3.33C69.08,192.67,72,172.63,72,172.63Z"/><path class="cls-7" d="M75.65,178.22l1.7,1.85a1.11,1.11,0,0,1,.29.89l-1.17,10.11a1.1,1.1,0,0,0,.22.8l3.66,4.78a.33.33,0,0,0,.58-.1l2-6.27a1.11,1.11,0,0,0,0-.72l-3.51-9.19a1.23,1.23,0,0,1,0-.63l.52-2.43Z"/><path class="cls-4" d="M57.07,183.48c1.85.22,6.41.61,9.91.9a3.23,3.23,0,0,1,2.84,4.06c-1.87,7.17.6,18.7.16,22.61-.54,4.67,2.3,6.48,2.31,6.48-2.8-.6-4.69-1.7-4.62-3.14A262,262,0,0,0,67,187.82c-2-2.23-8-2.48-10.86-2.46a2.27,2.27,0,0,1-2.24-1.86,10.94,10.94,0,0,1,0-3.78C53.89,179.79,53.9,183.11,57.07,183.48Z"/><polygon class="cls-1" points="141.46 307.52 129.02 300.33 141.45 293.15 153.89 300.33 141.46 307.52"/><polygon class="cls-10" points="153.89 291.22 141.46 298.4 141.46 284.04 153.89 276.86 153.89 291.22"/><polygon class="cls-9" points="141.46 284.04 129.02 276.86 141.45 269.68 153.89 276.86 141.46 284.04"/><polygon class="cls-9" points="141.46 298.4 129.02 291.22 129.02 276.86 141.46 284.04 141.46 298.4"/><polygon class="cls-7" points="136.97 290.64 133.5 288.63 133.5 284.62 136.97 286.62 136.97 290.64"/><polygon class="cls-1" points="409.95 251.63 398.25 244.88 409.95 238.13 421.65 244.88 409.95 251.63"/><polygon class="cls-2" points="421.65 236.31 409.95 243.06 409.95 229.55 421.65 222.8 421.65 236.31"/><polygon class="cls-3" points="409.95 229.55 398.25 222.8 409.95 216.05 421.65 222.8 409.95 229.55"/><polygon class="cls-5" points="409.95 243.06 398.25 236.31 398.25 222.8 409.95 229.55 409.95 243.06"/><polygon class="cls-7" points="405.74 235.76 402.46 233.87 402.46 230.1 405.74 231.98 405.74 235.76"/><ellipse class="cls-1" cx="359.29" cy="151.27" rx="19.65" ry="11.34"/><path class="cls-9" d="M368.69,35.16s-.42,8.82-1.1,14.74-14.94-4.55-14.94-4.55V38.6Z"/><path class="cls-2" d="M361.09,144.87c-.21.53-3.91,5-7.61,6.16a8.59,8.59,0,0,1-3.4.47,1.12,1.12,0,0,1-.91-1.49,14.07,14.07,0,0,1,7.1-7.82C362.54,139.08,361.09,144.87,361.09,144.87Z"/><path class="cls-2" d="M362.32,146.6a30.8,30.8,0,0,0-1.82,6c-.26,1.67.66,3.83,1.41,5.27a1.54,1.54,0,0,0,2.4.41,8.89,8.89,0,0,0,3-5.73c.43-4.61,0-5.42,0-5.42Z"/><path class="cls-3" d="M371.23,90.89a86.34,86.34,0,0,1,0,12.25c-.48,6.43-2.21,36.5-2.53,43.74,0,0,.16,2.19-4.08,1.71s-3.9-2.92-3.9-2.92-6-.08-6.14-3.59-6.1-41.92-6.1-55.73Z"/><path class="cls-6" d="M346.28,60.83l-2.92,4.52-10,12.11a2.25,2.25,0,0,0,1.59,1.42c1,.23,9.41-7.82,13.06-11.35a2.78,2.78,0,0,0,.38-3.55Z"/><path class="cls-5" d="M352,42.28s-4.64-.12-6.25,6.58-2.87,15.08-1.47,15.78c4.21,2.09,6.88-.35,6.88-.35Z"/><path class="cls-5" d="M350.58,42.56a3.77,3.77,0,0,1,2.5-.13c3.95,1.13,18.8,5.49,21.25,7.58,2.82,2.42-4.24,16-4.14,20.45s.6,9.7,1,14.54.92,7.49-3,9.55a15.56,15.56,0,0,1-15.77-1.7c-5.06-3.86-4.14-6.5-3.93-9.3s1.93-14.9,1.78-18.33a13.12,13.12,0,0,1-3.1-3.57c-1.32-2.25,1-6.39,2-9.08s-.55-5.77-.25-8A2.51,2.51,0,0,1,350.58,42.56Z"/><path class="cls-7" d="M361.93,51.71l-1.69,1.94a1.19,1.19,0,0,0-.27.91l1.48,10.31a1.12,1.12,0,0,1-.2.81l-3.61,5a.34.34,0,0,1-.59-.09l-2.21-6.35a1.08,1.08,0,0,1,0-.75L358.17,54a1.16,1.16,0,0,0,0-.64l-.59-2.48Z"/><path class="cls-7" d="M355.33,47.19c-.31,2.45,1.93,4.75,5,5.15s5.83-1.27,6.15-3.72-1.93-4.75-5-5.14S355.64,44.75,355.33,47.19Z"/><path class="cls-6" d="M356.92,47.4c-.22,1.75,1.38,3.39,3.58,3.67s4.17-.9,4.39-2.65-1.38-3.39-3.58-3.68S357.14,45.65,356.92,47.4Z"/><path class="cls-6" d="M359.11,41.66s2.68-2.21,3.21-1.09,1,5.91,1,5.91L358,47.91l.81-4.86S357.7,42.15,359.11,41.66Z"/><circle class="cls-6" cx="358.72" cy="35.94" r="7.95"/><path class="cls-8" d="M362.69,42c0,.25.09.52.13.79-.53,2.77-4.67,4-4.67,4l.61-3.68s-.5-.42-.36-.85C360,41.69,362.1,41.23,362.69,42Z"/><circle class="cls-6" cx="358.72" cy="35.94" r="7.95"/><polygon class="cls-6" points="378.3 69.58 377.42 90.85 374.31 91.17 372.28 72.02 378.3 69.58"/><path class="cls-4" d="M368.09,67.8c.16-.74,1.53-1.35,1.73-2.31a87,87,0,0,0,1.33-12.26l.87,10c-1,3-1.87,5.67-1.83,7.25.06,2.61.26,5.5.49,8.42h0S367.06,72.34,368.09,67.8Z"/><path class="cls-5" d="M373.73,49.57s2.49,1,3.9,8.59,2.46,15.29-.05,16.27-4.61,1.73-5.34-.31S371,62.23,371,58.69,370.72,50.27,373.73,49.57Z"/><path class="cls-6" d="M334.07,76.58a6.69,6.69,0,0,0-2.32,1.55,15.83,15.83,0,0,0-1.58,2.13c-.77,1.16-1.43,3.65-1,4s3.18-4.18,3.61-3.13,0,2,.56,2,2.5-4.51,4-5.92S334.07,76.58,334.07,76.58Z"/><path class="cls-4" d="M360.72,145.67a12.66,12.66,0,0,1-1.7-.17h0l-1.16-46.76Z"/><path class="cls-4" d="M365.22,120.42l1.66-2.16,17.39-10.07a2.44,2.44,0,0,0,1-1.94V92l1-1.31-.94-.54h0a.65.65,0,0,0-.68,0l-19.72,11.42a2.4,2.4,0,0,0-1,1.93l0,15.51a.88.88,0,0,0,.37.83h0Z"/><path class="cls-4" d="M377.25,112.25l1.24-.71,6.79-11.79V92l1-1.31-.94-.54h0a.65.65,0,0,0-.68,0l-19.72,11.42a2,2,0,0,0-.74.86Z"/><path class="cls-4" d="M385.82,91.28l.45-.58-.94-.54h0a.65.65,0,0,0-.68,0l-.35.2Z"/><path class="cls-4" d="M364.75,101.74a2.5,2.5,0,0,0-.82,1.66l1.92,1.12.93-1.61Z"/><path class="cls-3" d="M365.87,102.16l19.71-11.42c.56-.32,1,0,1,.77V107a2.42,2.42,0,0,1-1,1.93l-19.71,11.42c-.56.32-1,0-1-.77l0-15.51A2.42,2.42,0,0,1,365.87,102.16Z"/><path class="cls-7" d="M365.57,102l19.72-11.41a.58.58,0,0,1,.8.07.77.77,0,0,0-.51.1l-19.71,11.42a2.42,2.42,0,0,0-1,1.93l0,15.51a1.09,1.09,0,0,0,.2.69c-.3-.06-.5-.37-.5-.87l0-15.51A2.42,2.42,0,0,1,365.57,102Z"/><polygon class="cls-7" points="369.92 113.28 370.86 112.74 370.86 104.68 369.92 105.22 369.92 113.28"/><polygon class="cls-7" points="372.11 112.02 373.05 111.48 373.05 103.41 372.11 103.95 372.11 112.02"/><polygon class="cls-7" points="374.31 110.75 375.25 110.21 375.25 102.14 374.31 102.69 374.31 110.75"/><path class="cls-6" d="M377.39,90.67a48.63,48.63,0,0,1,.7,6.55c-.13,1.59-1,4.21-1.62,4.16s0-6.39-1.16-5.76-1.25,1.71-1.77,1.33.9-5.8.52-8.15S377.39,90.67,377.39,90.67Z"/><path class="cls-8" d="M355.67,36.63c-4,1.42-4.76.56-4.8.51a5.82,5.82,0,0,1-.08-.73,7.93,7.93,0,0,1,.27-2.54l10.34-1.4A11.23,11.23,0,0,1,355.67,36.63Z"/><path class="cls-9" d="M350.5,28.49c.94-.8,4.33-4.79,10.41-3.85,3.79.59,7,3.18,7.7,9.09a13.58,13.58,0,0,1-3.67,10.8,2.89,2.89,0,0,1-.43-.22c-1.52-1-1.69-1.55-1.69-1.55l-.33-3a.85.85,0,0,1,.75-.84,1.52,1.52,0,0,0,1.12-.68,1.77,1.77,0,0,0-1.28-3,1.34,1.34,0,0,1-1.39-1,.71.71,0,0,0-.93-.48c-2,.72-6.88,2.27-10,1.37C346.71,34,349.56,29.3,350.5,28.49Z"/><path class="cls-7" d="M355,40.22l-2.43-.66a5.89,5.89,0,0,0,2.86,2.29c1.69.46,2-1,2-1Z"/><polygon class="cls-4" points="373.26 96.8 375.33 95.61 374.55 96.88 373.5 97.27 373.26 96.8"/><path class="cls-7" d="M363.36,38.42a.83.83,0,1,0,.83-.83A.83.83,0,0,0,363.36,38.42Z"/><path class="cls-1" d="M231,231.07l-29.86-17.24c-1.83-1.06-1.61-2.91.51-4.13l28.84-16.65a8,8,0,0,1,7.15-.3L267.52,210c1.83,1.06,1.6,2.9-.52,4.13l-28.83,16.65A8,8,0,0,1,231,231.07Z"/><path class="cls-4" d="M277.42,196.86h0V184l-28.93,0-10-5.77c-2.3-1.33-6.31-1.16-9,.37l-9.33,5.39-29,0v13.27a2.6,2.6,0,0,0,1.54,2.4l37.4,21.59c2.29,1.33,6.3,1.16,8.95-.37L275.24,200C276.77,199.07,277.51,197.93,277.42,196.86Z"/><path class="cls-4" d="M234.33,177.28a10.39,10.39,0,0,0-4.8,1.26l-9.33,5.39-29,0v13.27a2.6,2.6,0,0,0,1.54,2.4l37.4,21.59a8,8,0,0,0,4.15.89Z"/><path class="cls-5" d="M194.52,183.91h-3.28v13.27a2.6,2.6,0,0,0,1.54,2.4l1.74,1Z"/><path class="cls-5" d="M230.75,221.46a10.21,10.21,0,0,0,7.16-.08V206.31h-7.16Z"/><path class="cls-3" d="M230.18,208l-37.4-21.59c-2.3-1.33-2-3.64.64-5.17l36.11-20.85c2.65-1.53,6.66-1.7,9-.37l37.4,21.59c2.29,1.33,2,3.64-.65,5.17l-36.11,20.85C236.48,209.11,232.47,209.28,230.18,208Z"/><path class="cls-5" d="M230.85,204.07,199.51,186c-1.92-1.11-1.68-3.05.54-4.33l30.26-17.47c2.22-1.29,5.58-1.43,7.5-.31L269.16,182c1.92,1.11,1.68,3.05-.54,4.33l-30.27,17.47C236.13,205,232.77,205.18,230.85,204.07Z"/><path class="cls-3" d="M263.67,200.27a3.37,3.37,0,0,1-1.51,2.62c-.84.48-1.51.09-1.51-.88a3.31,3.31,0,0,1,1.51-2.61C263,198.92,263.67,199.31,263.67,200.27Z"/><path class="cls-3" d="M268.53,197.46a3.34,3.34,0,0,1-1.51,2.62c-.84.48-1.51.09-1.51-.87a3.32,3.32,0,0,1,1.51-2.62C267.85,196.11,268.53,196.5,268.53,197.46Z"/><path class="cls-3" d="M273.39,194.66a3.34,3.34,0,0,1-1.51,2.61c-.84.49-1.51.1-1.51-.87a3.31,3.31,0,0,1,1.51-2.61C272.71,193.3,273.39,193.69,273.39,194.66Z"/><path class="cls-4" d="M277.42,176.24h0v-12.9l-28.93,0-10-5.77c-2.3-1.33-6.31-1.16-9,.37l-9.33,5.39-29,0v13.27a2.61,2.61,0,0,0,1.54,2.4l37.4,21.59c2.29,1.33,6.3,1.16,8.95-.37l36.11-20.85C276.77,178.45,277.51,177.31,277.42,176.24Z"/><path class="cls-4" d="M234.33,156.66a10.27,10.27,0,0,0-4.8,1.26l-9.33,5.39-29,0v13.27a2.61,2.61,0,0,0,1.54,2.4l37.4,21.59a8,8,0,0,0,4.15.89Z"/><path class="cls-5" d="M194.52,163.29h-3.28v13.27a2.61,2.61,0,0,0,1.54,2.4l1.74,1Z"/><path class="cls-5" d="M230.75,200.84a10.21,10.21,0,0,0,7.16-.09V185.69h-7.16Z"/><path class="cls-3" d="M230.18,187.33l-37.4-21.59c-2.3-1.33-2-3.64.64-5.17l36.11-20.85c2.65-1.53,6.66-1.7,9-.37l37.4,21.59c2.29,1.32,2,3.64-.65,5.17L239.13,187C236.48,188.49,232.47,188.66,230.18,187.33Z"/><path class="cls-5" d="M230.85,183.44l-31.34-18.09c-1.92-1.11-1.68-3,.54-4.33l30.26-17.48c2.22-1.28,5.58-1.42,7.5-.31l31.35,18.1c1.92,1.11,1.68,3-.54,4.33l-30.27,17.47C236.13,184.41,232.77,184.55,230.85,183.44Z"/><path class="cls-3" d="M263.67,179.65a3.34,3.34,0,0,1-1.51,2.61c-.84.49-1.51.1-1.51-.87a3.31,3.31,0,0,1,1.51-2.61C263,178.29,263.67,178.68,263.67,179.65Z"/><path class="cls-3" d="M268.53,176.84a3.34,3.34,0,0,1-1.51,2.62c-.84.48-1.51.09-1.51-.87A3.32,3.32,0,0,1,267,176C267.85,175.49,268.53,175.88,268.53,176.84Z"/><path class="cls-3" d="M273.39,174a3.34,3.34,0,0,1-1.51,2.61c-.84.48-1.51.09-1.51-.87a3.35,3.35,0,0,1,1.51-2.62C272.71,172.68,273.39,173.07,273.39,174Z"/><path class="cls-4" d="M277.42,155.62h0v-12.9l-28.93,0-10-5.77c-2.3-1.33-6.31-1.16-9,.37l-9.33,5.38h-29v13.27a2.61,2.61,0,0,0,1.54,2.4l37.4,21.59c2.29,1.33,6.3,1.16,8.95-.37l36.11-20.85C276.77,157.83,277.51,156.69,277.42,155.62Z"/><path class="cls-4" d="M234.33,136a10.27,10.27,0,0,0-4.8,1.26l-9.33,5.38h-29v13.27a2.61,2.61,0,0,0,1.54,2.4l37.4,21.59a8,8,0,0,0,4.15.89Z"/><path class="cls-5" d="M194.52,142.67h-3.28v13.27a2.61,2.61,0,0,0,1.54,2.4l1.74,1Z"/><path class="cls-5" d="M230.75,180.21a10.21,10.21,0,0,0,7.16-.08V165.06h-7.16Z"/><path class="cls-3" d="M230.18,166.71l-37.4-21.59c-2.3-1.33-2-3.64.64-5.17l36.11-20.85c2.65-1.53,6.66-1.7,9-.37l37.4,21.59c2.29,1.32,2,3.64-.65,5.17l-36.11,20.85C236.48,167.87,232.47,168,230.18,166.71Z"/><path class="cls-5" d="M230.85,162.82l-31.34-18.09c-1.92-1.11-1.68-3,.54-4.34l30.26-17.47c2.22-1.28,5.58-1.42,7.5-.31l31.35,18.1c1.92,1.11,1.68,3-.54,4.33l-30.27,17.47C236.13,163.79,232.77,163.93,230.85,162.82Z"/><path class="cls-3" d="M263.67,159a3.34,3.34,0,0,1-1.51,2.61c-.84.48-1.51.09-1.51-.87a3.35,3.35,0,0,1,1.51-2.62C263,157.67,263.67,158.06,263.67,159Z"/><path class="cls-3" d="M268.53,156.22a3.36,3.36,0,0,1-1.51,2.62c-.84.48-1.51.09-1.51-.88a3.31,3.31,0,0,1,1.51-2.61C267.85,154.87,268.53,155.26,268.53,156.22Z"/><path class="cls-3" d="M273.39,153.41a3.34,3.34,0,0,1-1.51,2.62c-.84.48-1.51.09-1.51-.87a3.33,3.33,0,0,1,1.51-2.62C272.71,152.06,273.39,152.45,273.39,153.41Z"/><path class="cls-4" d="M277.42,135h0V122.1l-28.93,0-10-5.78c-2.3-1.32-6.31-1.15-9,.38l-9.33,5.38h-29v13.27a2.61,2.61,0,0,0,1.54,2.4l37.4,21.59c2.29,1.33,6.3,1.16,8.95-.37l36.11-20.85C276.77,137.21,277.51,136.06,277.42,135Z"/><path class="cls-4" d="M234.33,115.42a10.27,10.27,0,0,0-4.8,1.26l-9.33,5.38h-29v13.27a2.61,2.61,0,0,0,1.54,2.4l37.4,21.59a8,8,0,0,0,4.15.89Z"/><path class="cls-5" d="M194.52,122.05h-3.28v13.27a2.61,2.61,0,0,0,1.54,2.4l1.74,1Z"/><path class="cls-5" d="M230.75,159.59a10.21,10.21,0,0,0,7.16-.08V144.44h-7.16Z"/><path class="cls-3" d="M230.18,146.09l-37.4-21.6c-2.3-1.32-2-3.64.64-5.17l36.11-20.84c2.65-1.54,6.66-1.7,9-.38l37.4,21.6c2.29,1.32,2,3.64-.65,5.17l-36.11,20.85C236.48,147.25,232.47,147.41,230.18,146.09Z"/><path class="cls-5" d="M230.85,142.2l-31.34-18.09c-1.92-1.11-1.68-3,.54-4.34l30.26-17.47c2.22-1.28,5.58-1.42,7.5-.31l31.35,18.09c1.92,1.12,1.68,3.06-.54,4.34l-30.27,17.47C236.13,143.17,232.77,143.31,230.85,142.2Z"/><path class="cls-3" d="M263.67,138.4a3.34,3.34,0,0,1-1.51,2.62c-.84.48-1.51.09-1.51-.87a3.33,3.33,0,0,1,1.51-2.62C263,137.05,263.67,137.44,263.67,138.4Z"/><path class="cls-3" d="M268.53,135.6a3.37,3.37,0,0,1-1.51,2.62c-.84.48-1.51.09-1.51-.88a3.31,3.31,0,0,1,1.51-2.61C267.85,134.25,268.53,134.64,268.53,135.6Z"/><path class="cls-3" d="M273.39,132.79a3.34,3.34,0,0,1-1.51,2.62c-.84.48-1.51.09-1.51-.87a3.32,3.32,0,0,1,1.51-2.62C272.71,131.44,273.39,131.83,273.39,132.79Z"/><path class="cls-4" d="M277.42,114.38h0V101.47H248.49l-10-5.78c-2.3-1.32-6.31-1.16-9,.37l-9.33,5.39h-29V114.7a2.62,2.62,0,0,0,1.54,2.4l37.4,21.59c2.29,1.32,6.3,1.16,8.95-.37l36.11-20.85C276.77,116.59,277.51,115.44,277.42,114.38Z"/><path class="cls-2" d="M234.33,94.8a10.38,10.38,0,0,0-4.8,1.25l-9.33,5.39h-29V114.7a2.62,2.62,0,0,0,1.54,2.4l37.4,21.59a8.13,8.13,0,0,0,4.15.89Z"/><path class="cls-5" d="M194.52,101.43h-3.28V114.7a2.62,2.62,0,0,0,1.54,2.4l1.74,1Z"/><path class="cls-5" d="M230.75,139a10.21,10.21,0,0,0,7.16-.08V123.82h-7.16Z"/><path class="cls-3" d="M230.18,125.47l-37.4-21.6c-2.3-1.32-2-3.64.64-5.17l36.11-20.85c2.65-1.53,6.66-1.69,9-.37l37.4,21.59c2.29,1.33,2,3.64-.65,5.17l-36.11,20.85C236.48,126.62,232.47,126.79,230.18,125.47Z"/><path class="cls-5" d="M230.85,121.58l-31.34-18.1c-1.92-1.11-1.68-3,.54-4.33l30.26-17.47c2.22-1.28,5.58-1.42,7.5-.31l31.35,18.09c1.92,1.11,1.68,3.05-.54,4.34l-30.27,17.47C236.13,122.55,232.77,122.69,230.85,121.58Z"/><rect class="cls-7" x="246.12" y="122.84" width="17.32" height="0.61" transform="translate(-27.43 143.97) rotate(-30.02)"/><path class="cls-3" d="M263.67,117.78a3.34,3.34,0,0,1-1.51,2.62c-.84.48-1.51.09-1.51-.87a3.32,3.32,0,0,1,1.51-2.62C263,116.43,263.67,116.82,263.67,117.78Z"/><path class="cls-3" d="M268.53,115a3.34,3.34,0,0,1-1.51,2.61c-.84.49-1.51.09-1.51-.87a3.31,3.31,0,0,1,1.51-2.61C267.85,113.62,268.53,114,268.53,115Z"/><path class="cls-3" d="M273.39,112.17a3.36,3.36,0,0,1-1.51,2.62c-.84.48-1.51.09-1.51-.87a3.32,3.32,0,0,1,1.51-2.62C272.71,110.82,273.39,111.21,273.39,112.17Z"/><path class="cls-4" d="M277.42,93.61h0V80.71l-28.93,0-10-5.77c-2.3-1.32-6.31-1.16-9,.37l-9.33,5.39-29,0V93.93a2.6,2.6,0,0,0,1.54,2.4l37.4,21.6c2.29,1.32,6.3,1.15,8.95-.38l36.11-20.84C276.77,95.82,277.51,94.68,277.42,93.61Z"/><path class="cls-2" d="M234.33,74a10.39,10.39,0,0,0-4.8,1.26l-9.33,5.39-29,0V93.93a2.6,2.6,0,0,0,1.54,2.4l37.4,21.6a8.13,8.13,0,0,0,4.15.88Z"/><path class="cls-5" d="M194.52,80.66h-3.28V93.93a2.6,2.6,0,0,0,1.54,2.4l1.74,1Z"/><path class="cls-5" d="M230.75,118.21a10.21,10.21,0,0,0,7.16-.08V103.06h-7.16Z"/><path class="cls-3" d="M230.18,104.7l-37.4-21.59c-2.3-1.33-2-3.64.64-5.17l36.11-20.85c2.65-1.53,6.66-1.7,9-.37l37.4,21.59c2.29,1.33,2,3.64-.65,5.17l-36.11,20.85C236.48,105.86,232.47,106,230.18,104.7Z"/><path class="cls-7" d="M275.24,80.94l-36.11,20.85c-2.65,1.53-6.66,1.7-8.95.37l-37.4-21.59a3.52,3.52,0,0,1-1.15-1c-.79,1.27-.43,2.65,1.15,3.56l37.4,21.59c2.29,1.33,6.3,1.16,8.95-.37l36.11-20.85c2.06-1.19,2.69-2.85,1.79-4.15A5,5,0,0,1,275.24,80.94Z"/><path class="cls-3" d="M263.67,97a3.36,3.36,0,0,1-1.51,2.62c-.84.48-1.51.09-1.51-.88a3.31,3.31,0,0,1,1.51-2.61C263,95.67,263.67,96.06,263.67,97Z"/><path class="cls-3" d="M248.78,105.2a3.32,3.32,0,0,1-1.51,2.62c-.83.48-1.51.09-1.51-.87a3.34,3.34,0,0,1,1.51-2.62C248.11,103.85,248.78,104.24,248.78,105.2Z"/><path class="cls-7" d="M248.78,126.6a3.35,3.35,0,0,1-1.51,2.62c-.83.48-1.51.09-1.51-.88a3.34,3.34,0,0,1,1.51-2.61C248.11,125.25,248.78,125.64,248.78,126.6Z"/><path class="cls-3" d="M268.53,94.21A3.34,3.34,0,0,1,267,96.83c-.84.48-1.51.09-1.51-.87A3.33,3.33,0,0,1,267,93.34C267.85,92.86,268.53,93.25,268.53,94.21Z"/><path class="cls-3" d="M273.39,91.41A3.34,3.34,0,0,1,271.88,94c-.84.49-1.51.1-1.51-.87a3.31,3.31,0,0,1,1.51-2.61C272.71,90.05,273.39,90.45,273.39,91.41Z"/><path class="cls-2" d="M232.39,91.32l-17.5-10.11c-1.08-.62-.94-1.7.3-2.42L232.09,69a4.65,4.65,0,0,1,4.19-.18L253.78,79c1.07.62.94,1.7-.3,2.42l-16.9,9.75A4.65,4.65,0,0,1,232.39,91.32Z"/><path class="cls-3" d="M234.06,82.86l-2.42-1.4c-.15-.09-.13-.24,0-.34L234,79.77a.63.63,0,0,1,.58,0l2.42,1.4c.15.08.13.23,0,.33l-2.34,1.35A.66.66,0,0,1,234.06,82.86Z"/><path class="cls-4" d="M214.89,81.21l.05,0a1.56,1.56,0,0,1,.25-.17l16.9-9.76a4.64,4.64,0,0,1,4.19-.17l17.45,10.07c1-.71,1-1.67.05-2.24l-17.5-10.11a4.65,4.65,0,0,0-4.19.18l-16.9,9.75C214,79.51,213.81,80.59,214.89,81.21Z"/><path class="cls-3" d="M228.73,107.76c0,1-.72,1.43-1.6.92a3.54,3.54,0,0,1-1.59-2.76c0-1,.72-1.42,1.59-.91A3.51,3.51,0,0,1,228.73,107.76Z"/><path class="cls-5" d="M223.79,104.93c0,1-.71,1.43-1.59.92a3.53,3.53,0,0,1-1.6-2.76c0-1,.72-1.42,1.6-.92A3.53,3.53,0,0,1,223.79,104.93Z"/><path class="cls-3" d="M228.73,113.72c0,1-.72,1.43-1.6.92a3.54,3.54,0,0,1-1.59-2.76c0-1,.72-1.42,1.59-.92A3.54,3.54,0,0,1,228.73,113.72Z"/><path class="cls-3" d="M223.79,110.89c0,1-.71,1.43-1.59.92a3.53,3.53,0,0,1-1.6-2.76c0-1,.72-1.42,1.6-.92A3.52,3.52,0,0,1,223.79,110.89Z"/><path class="cls-3" d="M228.73,128.25c0,1-.72,1.42-1.6.92a3.56,3.56,0,0,1-1.59-2.76c0-1,.72-1.43,1.59-.92A3.53,3.53,0,0,1,228.73,128.25Z"/><path class="cls-3" d="M223.79,125.41c0,1-.71,1.43-1.59.92a3.51,3.51,0,0,1-1.6-2.75c0-1,.72-1.43,1.6-.92A3.51,3.51,0,0,1,223.79,125.41Z"/><path class="cls-5" d="M228.73,134.21c0,1-.72,1.42-1.6.92a3.56,3.56,0,0,1-1.59-2.76c0-1,.72-1.43,1.59-.92A3.53,3.53,0,0,1,228.73,134.21Z"/><path class="cls-3" d="M223.79,131.37c0,1-.71,1.43-1.59.92a3.51,3.51,0,0,1-1.6-2.75c0-1,.72-1.43,1.6-.92A3.5,3.5,0,0,1,223.79,131.37Z"/><path class="cls-3" d="M228.73,148.76c0,1-.72,1.42-1.6.92a3.56,3.56,0,0,1-1.59-2.76c0-1,.72-1.43,1.59-.92A3.53,3.53,0,0,1,228.73,148.76Z"/><path class="cls-5" d="M223.79,145.92c0,1-.71,1.43-1.59.92a3.51,3.51,0,0,1-1.6-2.75c0-1,.72-1.43,1.6-.92A3.5,3.5,0,0,1,223.79,145.92Z"/><path class="cls-3" d="M228.73,154.72c0,1-.72,1.42-1.6.91a3.52,3.52,0,0,1-1.59-2.75c0-1,.72-1.43,1.59-.92A3.53,3.53,0,0,1,228.73,154.72Z"/><path class="cls-5" d="M223.79,151.88c0,1-.71,1.43-1.59.92a3.52,3.52,0,0,1-1.6-2.75c0-1,.72-1.43,1.6-.92A3.5,3.5,0,0,1,223.79,151.88Z"/><path class="cls-5" d="M228.73,169.47c0,1-.72,1.42-1.6.91a3.52,3.52,0,0,1-1.59-2.75c0-1,.72-1.43,1.59-.92A3.53,3.53,0,0,1,228.73,169.47Z"/><path class="cls-3" d="M223.79,166.63c0,1-.71,1.43-1.59.92a3.51,3.51,0,0,1-1.6-2.75c0-1,.72-1.43,1.6-.92A3.5,3.5,0,0,1,223.79,166.63Z"/><path class="cls-3" d="M228.73,175.43c0,1-.72,1.42-1.6.91a3.52,3.52,0,0,1-1.59-2.75c0-1,.72-1.43,1.59-.92A3.53,3.53,0,0,1,228.73,175.43Z"/><path class="cls-5" d="M223.79,172.59c0,1-.71,1.43-1.59.92a3.53,3.53,0,0,1-1.6-2.76c0-1,.72-1.42,1.6-.91A3.5,3.5,0,0,1,223.79,172.59Z"/><path class="cls-5" d="M228.73,190c0,1-.72,1.42-1.6.91a3.52,3.52,0,0,1-1.59-2.75c0-1,.72-1.43,1.59-.92A3.53,3.53,0,0,1,228.73,190Z"/><path class="cls-3" d="M223.79,187.14c0,1-.71,1.43-1.59.92a3.52,3.52,0,0,1-1.6-2.75c0-1,.72-1.43,1.6-.92A3.5,3.5,0,0,1,223.79,187.14Z"/><path class="cls-5" d="M228.73,195.93c0,1-.72,1.43-1.6.92a3.52,3.52,0,0,1-1.59-2.75c0-1,.72-1.43,1.59-.92A3.51,3.51,0,0,1,228.73,195.93Z"/><path class="cls-3" d="M223.79,193.1c0,1-.71,1.43-1.59.92a3.53,3.53,0,0,1-1.6-2.76c0-1,.72-1.42,1.6-.91A3.5,3.5,0,0,1,223.79,193.1Z"/><path class="cls-3" d="M228.73,210.74c0,1-.72,1.43-1.6.92a3.54,3.54,0,0,1-1.59-2.76c0-1,.72-1.42,1.59-.92A3.53,3.53,0,0,1,228.73,210.74Z"/><path class="cls-5" d="M223.79,207.91c0,1-.71,1.42-1.59.92a3.54,3.54,0,0,1-1.6-2.76c0-1,.72-1.43,1.6-.92A3.52,3.52,0,0,1,223.79,207.91Z"/><path class="cls-3" d="M228.73,216.7c0,1-.72,1.43-1.6.92a3.54,3.54,0,0,1-1.59-2.76c0-1,.72-1.43,1.59-.92A3.53,3.53,0,0,1,228.73,216.7Z"/><path class="cls-3" d="M223.79,213.87c0,1-.71,1.42-1.59.92a3.54,3.54,0,0,1-1.6-2.76c0-1,.72-1.43,1.6-.92A3.52,3.52,0,0,1,223.79,213.87Z"/><path class="cls-1" d="M289.76,264.89,259.9,247.65c-1.83-1.06-1.61-2.91.51-4.13l28.84-16.65a8,8,0,0,1,7.15-.3l29.87,17.25c1.83,1.05,1.6,2.9-.52,4.12l-28.83,16.65A7.94,7.94,0,0,1,289.76,264.89Z"/><path class="cls-4" d="M336.17,230.68h0v-12.9l-28.93,0-10-5.77c-2.3-1.33-6.31-1.16-9,.37L279,217.75l-29,0V231a2.61,2.61,0,0,0,1.54,2.4L288.93,255c2.29,1.33,6.3,1.16,8.95-.37L334,233.77C335.52,232.89,336.26,231.75,336.17,230.68Z"/><path class="cls-2" d="M293.08,211.1a10.27,10.27,0,0,0-4.8,1.26L279,217.75l-29,0V231a2.61,2.61,0,0,0,1.54,2.4L288.93,255a8,8,0,0,0,4.15.89Z"/><path class="cls-5" d="M253.27,217.73H250V231a2.61,2.61,0,0,0,1.54,2.4l1.74,1Z"/><path class="cls-5" d="M289.5,255.27a10.16,10.16,0,0,0,7.16-.08V240.12H289.5Z"/><path class="cls-3" d="M288.93,241.77l-37.4-21.59c-2.3-1.33-2-3.64.64-5.17l36.11-20.85c2.65-1.53,6.66-1.7,9-.37l37.4,21.59c2.29,1.32,2,3.64-.65,5.17L297.88,241.4C295.23,242.93,291.22,243.09,288.93,241.77Z"/><path class="cls-5" d="M289.6,237.88l-31.34-18.09c-1.92-1.11-1.68-3,.54-4.33L289.06,198c2.22-1.28,5.58-1.42,7.5-.31l31.35,18.1c1.92,1.11,1.68,3-.54,4.33L297.1,237.57C294.88,238.85,291.52,239,289.6,237.88Z"/><path class="cls-3" d="M322.42,234.09a3.34,3.34,0,0,1-1.51,2.61c-.84.49-1.51.1-1.51-.87a3.31,3.31,0,0,1,1.51-2.61C321.74,232.73,322.42,233.12,322.42,234.09Z"/><path class="cls-3" d="M327.28,231.28a3.36,3.36,0,0,1-1.51,2.62c-.84.48-1.51.09-1.51-.87a3.32,3.32,0,0,1,1.51-2.62C326.6,229.93,327.28,230.32,327.28,231.28Z"/><path class="cls-3" d="M332.14,228.48a3.34,3.34,0,0,1-1.51,2.61c-.84.48-1.51.09-1.51-.87a3.35,3.35,0,0,1,1.51-2.62C331.46,227.12,332.14,227.51,332.14,228.48Z"/><path class="cls-4" d="M336.17,210.06h0v-12.9l-28.93,0-10-5.77c-2.3-1.33-6.31-1.16-9,.37L279,197.12H250v13.27a2.61,2.61,0,0,0,1.54,2.4l37.4,21.59c2.29,1.33,6.3,1.16,8.95-.37L334,213.15C335.52,212.27,336.26,211.12,336.17,210.06Z"/><path class="cls-2" d="M293.08,190.48a10.27,10.27,0,0,0-4.8,1.26L279,197.12H250v13.27a2.61,2.61,0,0,0,1.54,2.4l37.4,21.59a8,8,0,0,0,4.15.89Z"/><path class="cls-5" d="M253.27,197.11H250v13.27a2.61,2.61,0,0,0,1.54,2.4l1.74,1Z"/><path class="cls-5" d="M289.5,234.65a10.21,10.21,0,0,0,7.16-.08V219.5H289.5Z"/><path class="cls-3" d="M288.93,221.15l-37.4-21.59c-2.3-1.33-2-3.64.64-5.17l36.11-20.85c2.65-1.53,6.66-1.7,9-.38l37.4,21.6c2.29,1.32,2,3.64-.65,5.17l-36.11,20.85C295.23,222.31,291.22,222.47,288.93,221.15Z"/><path class="cls-5" d="M289.6,217.26l-31.34-18.09c-1.92-1.11-1.68-3,.54-4.34l30.26-17.47c2.22-1.28,5.58-1.42,7.5-.31l31.35,18.1c1.92,1.11,1.68,3-.54,4.33L297.1,217C294.88,218.23,291.52,218.37,289.6,217.26Z"/><path class="cls-3" d="M322.42,213.47a3.34,3.34,0,0,1-1.51,2.61c-.84.48-1.51.09-1.51-.87a3.35,3.35,0,0,1,1.51-2.62C321.74,212.11,322.42,212.5,322.42,213.47Z"/><path class="cls-3" d="M327.28,210.66a3.37,3.37,0,0,1-1.51,2.62c-.84.48-1.51.09-1.51-.88a3.31,3.31,0,0,1,1.51-2.61C326.6,209.31,327.28,209.7,327.28,210.66Z"/><path class="cls-3" d="M332.14,207.85a3.34,3.34,0,0,1-1.51,2.62c-.84.48-1.51.09-1.51-.87a3.32,3.32,0,0,1,1.51-2.62C331.46,206.5,332.14,206.89,332.14,207.85Z"/><path class="cls-4" d="M336.17,189.44h0V176.53H307.24l-10-5.78c-2.3-1.32-6.31-1.15-9,.38L279,176.5H250v13.27a2.62,2.62,0,0,0,1.54,2.4l37.4,21.59c2.29,1.32,6.3,1.16,8.95-.37L334,192.53C335.52,191.65,336.26,190.5,336.17,189.44Z"/><path class="cls-2" d="M293.08,169.86a10.27,10.27,0,0,0-4.8,1.26L279,176.5H250v13.27a2.62,2.62,0,0,0,1.54,2.4l37.4,21.59a8,8,0,0,0,4.15.89Z"/><path class="cls-5" d="M253.27,176.49H250v13.27a2.62,2.62,0,0,0,1.54,2.4l1.74,1Z"/><path class="cls-5" d="M289.5,214a10.21,10.21,0,0,0,7.16-.08V198.88H289.5Z"/><path class="cls-3" d="M288.93,200.53l-37.4-21.6c-2.3-1.32-2-3.64.64-5.17l36.11-20.85c2.65-1.53,6.66-1.69,9-.37l37.4,21.6c2.29,1.32,2,3.64-.65,5.17l-36.11,20.84C295.23,201.69,291.22,201.85,288.93,200.53Z"/><path class="cls-5" d="M289.6,196.64l-31.34-18.09c-1.92-1.12-1.68-3.06.54-4.34l30.26-17.47c2.22-1.28,5.58-1.42,7.5-.31l31.35,18.09c1.92,1.11,1.68,3-.54,4.34L297.1,196.33C294.88,197.61,291.52,197.75,289.6,196.64Z"/><path class="cls-3" d="M322.42,192.84a3.34,3.34,0,0,1-1.51,2.62c-.84.48-1.51.09-1.51-.87a3.33,3.33,0,0,1,1.51-2.62C321.74,191.49,322.42,191.88,322.42,192.84Z"/><path class="cls-3" d="M327.28,190a3.34,3.34,0,0,1-1.51,2.61c-.84.49-1.51.1-1.51-.87a3.31,3.31,0,0,1,1.51-2.61C326.6,188.68,327.28,189.08,327.28,190Z"/><path class="cls-3" d="M332.14,187.23a3.34,3.34,0,0,1-1.51,2.62c-.84.48-1.51.09-1.51-.87a3.32,3.32,0,0,1,1.51-2.62C331.46,185.88,332.14,186.27,332.14,187.23Z"/><path class="cls-4" d="M336.17,168.82h0V155.91H307.24l-10-5.78c-2.3-1.32-6.31-1.16-9,.37L279,155.88H250v13.27a2.62,2.62,0,0,0,1.54,2.4l37.4,21.59c2.29,1.32,6.3,1.16,8.95-.37L334,171.91C335.52,171,336.26,169.88,336.17,168.82Z"/><path class="cls-2" d="M293.08,149.23a10.51,10.51,0,0,0-4.8,1.26L279,155.88H250v13.27a2.62,2.62,0,0,0,1.54,2.4l37.4,21.59a8.23,8.23,0,0,0,4.15.89Z"/><path class="cls-5" d="M253.27,155.87H250v13.27a2.62,2.62,0,0,0,1.54,2.4l1.74,1Z"/><path class="cls-5" d="M289.5,193.41a10.21,10.21,0,0,0,7.16-.08V178.26H289.5Z"/><path class="cls-3" d="M288.93,179.9l-37.4-21.59c-2.3-1.32-2-3.64.64-5.17l36.11-20.85c2.65-1.53,6.66-1.69,9-.37l37.4,21.59c2.29,1.33,2,3.64-.65,5.17l-36.11,20.85C295.23,181.06,291.22,181.23,288.93,179.9Z"/><path class="cls-5" d="M289.6,176l-31.34-18.1c-1.92-1.11-1.68-3,.54-4.33l30.26-17.47c2.22-1.28,5.58-1.42,7.5-.31l31.35,18.09c1.92,1.11,1.68,3-.54,4.34L297.1,175.71C294.88,177,291.52,177.13,289.6,176Z"/><path class="cls-3" d="M322.42,172.22a3.34,3.34,0,0,1-1.51,2.62c-.84.48-1.51.09-1.51-.87a3.32,3.32,0,0,1,1.51-2.62C321.74,170.87,322.42,171.26,322.42,172.22Z"/><path class="cls-3" d="M327.28,169.42a3.34,3.34,0,0,1-1.51,2.61c-.84.48-1.51.09-1.51-.87a3.35,3.35,0,0,1,1.51-2.62C326.6,168.06,327.28,168.45,327.28,169.42Z"/><path class="cls-3" d="M332.14,166.61a3.36,3.36,0,0,1-1.51,2.62c-.84.48-1.51.09-1.51-.88a3.31,3.31,0,0,1,1.51-2.61C331.46,165.26,332.14,165.65,332.14,166.61Z"/><path class="cls-4" d="M336.17,148.2h0V135.29H307.24l-10-5.78c-2.3-1.32-6.31-1.16-9,.37L279,135.26l-29,0v13.27a2.6,2.6,0,0,0,1.54,2.4l37.4,21.6c2.29,1.32,6.3,1.16,8.95-.37L334,151.29C335.52,150.4,336.26,149.26,336.17,148.2Z"/><path class="cls-2" d="M293.08,128.61a10.39,10.39,0,0,0-4.8,1.26L279,135.26l-29,0v13.27a2.6,2.6,0,0,0,1.54,2.4l37.4,21.6a8.13,8.13,0,0,0,4.15.88Z"/><path class="cls-5" d="M253.27,135.25H250v13.27a2.6,2.6,0,0,0,1.54,2.4l1.74,1Z"/><path class="cls-5" d="M289.5,172.79a10.21,10.21,0,0,0,7.16-.08V157.64H289.5Z"/><path class="cls-3" d="M288.93,159.28l-37.4-21.59c-2.3-1.32-2-3.64.64-5.17l36.11-20.85c2.65-1.53,6.66-1.7,9-.37l37.4,21.59c2.29,1.33,2,3.64-.65,5.17l-36.11,20.85C295.23,160.44,291.22,160.61,288.93,159.28Z"/><path class="cls-5" d="M289.6,155.4l-31.34-18.1c-1.92-1.11-1.68-3.05.54-4.33l30.26-17.47c2.22-1.28,5.58-1.42,7.5-.31l31.35,18.09c1.92,1.11,1.68,3.05-.54,4.33L297.1,155.09C294.88,156.37,291.52,156.51,289.6,155.4Z"/><rect class="cls-7" x="304.87" y="156.66" width="17.32" height="0.61" transform="matrix(0.87, -0.5, 0.5, 0.87, -36.47, 177.92)"/><path class="cls-3" d="M322.42,151.6a3.36,3.36,0,0,1-1.51,2.62c-.84.48-1.51.09-1.51-.87a3.32,3.32,0,0,1,1.51-2.62C321.74,150.25,322.42,150.64,322.42,151.6Z"/><path class="cls-3" d="M327.28,148.8a3.34,3.34,0,0,1-1.51,2.61c-.84.48-1.51.09-1.51-.87a3.33,3.33,0,0,1,1.51-2.62C326.6,147.44,327.28,147.83,327.28,148.8Z"/><path class="cls-3" d="M332.14,146a3.37,3.37,0,0,1-1.51,2.62c-.84.48-1.51.09-1.51-.88a3.31,3.31,0,0,1,1.51-2.61C331.46,144.64,332.14,145,332.14,146Z"/><path class="cls-4" d="M336.17,127.43h0v-12.9l-28.93,0-10-5.77c-2.3-1.33-6.31-1.16-9,.37L279,114.5l-29,0v13.27a2.61,2.61,0,0,0,1.54,2.4l37.4,21.59c2.29,1.33,6.3,1.16,8.95-.37L334,130.52C335.52,129.64,336.26,128.5,336.17,127.43Z"/><path class="cls-2" d="M293.08,107.85a10.27,10.27,0,0,0-4.8,1.26L279,114.5l-29,0v13.27a2.61,2.61,0,0,0,1.54,2.4l37.4,21.59a8,8,0,0,0,4.15.89Z"/><path class="cls-5" d="M253.27,114.48H250v13.27a2.61,2.61,0,0,0,1.54,2.4l1.74,1Z"/><path class="cls-5" d="M289.5,152a10.21,10.21,0,0,0,7.16-.09V136.88H289.5Z"/><path class="cls-3" d="M288.93,138.52l-37.4-21.59c-2.3-1.33-2-3.64.64-5.17l36.11-20.85c2.65-1.53,6.66-1.7,9-.37l37.4,21.59c2.29,1.32,2,3.64-.65,5.17l-36.11,20.85C295.23,139.68,291.22,139.85,288.93,138.52Z"/><path class="cls-7" d="M334,114.76l-36.11,20.85c-2.65,1.53-6.66,1.7-8.95.37l-37.4-21.59a3.52,3.52,0,0,1-1.15-1c-.79,1.27-.43,2.65,1.15,3.56l37.4,21.59c2.29,1.33,6.3,1.16,8.95-.37L334,117.3c2.06-1.19,2.69-2.85,1.79-4.15A5.1,5.1,0,0,1,334,114.76Z"/><path class="cls-3" d="M322.42,130.84a3.34,3.34,0,0,1-1.51,2.61c-.84.49-1.51.1-1.51-.87a3.31,3.31,0,0,1,1.51-2.61C321.74,129.48,322.42,129.87,322.42,130.84Z"/><path class="cls-3" d="M307.53,139a3.35,3.35,0,0,1-1.51,2.62c-.83.48-1.51.09-1.51-.88a3.34,3.34,0,0,1,1.51-2.61C306.86,137.67,307.53,138.06,307.53,139Z"/><path class="cls-7" d="M307.53,160.42A3.31,3.31,0,0,1,306,163c-.83.49-1.51.1-1.51-.87a3.34,3.34,0,0,1,1.51-2.61C306.86,159.06,307.53,159.45,307.53,160.42Z"/><path class="cls-3" d="M327.28,128a3.34,3.34,0,0,1-1.51,2.62c-.84.48-1.51.09-1.51-.87a3.32,3.32,0,0,1,1.51-2.62C326.6,126.68,327.28,127.07,327.28,128Z"/><path class="cls-3" d="M332.14,125.23a3.34,3.34,0,0,1-1.51,2.61c-.84.48-1.51.09-1.51-.87a3.35,3.35,0,0,1,1.51-2.62C331.46,123.87,332.14,124.26,332.14,125.23Z"/><path class="cls-2" d="M291.14,125.13,273.64,115c-1.08-.62-.94-1.7.3-2.42l16.9-9.76a4.67,4.67,0,0,1,4.19-.17l17.5,10.1c1.07.62.94,1.71-.3,2.42L295.33,125A4.64,4.64,0,0,1,291.14,125.13Z"/><path class="cls-3" d="M292.81,116.67l-2.42-1.39c-.15-.09-.13-.24,0-.34l2.34-1.35a.63.63,0,0,1,.58,0l2.42,1.39c.15.09.13.24,0,.34l-2.34,1.35A.63.63,0,0,1,292.81,116.67Z"/><path class="cls-4" d="M273.64,115l.05,0a2.7,2.7,0,0,1,.25-.18l16.9-9.75A4.65,4.65,0,0,1,295,105L312.48,115c1-.71,1-1.67,0-2.25L295,102.68a4.67,4.67,0,0,0-4.19.17l-16.9,9.76C272.7,113.33,272.56,114.41,273.64,115Z"/><path class="cls-3" d="M287.48,141.58c0,1-.72,1.43-1.6.92a3.54,3.54,0,0,1-1.59-2.76c0-1,.72-1.42,1.59-.92A3.54,3.54,0,0,1,287.48,141.58Z"/><path class="cls-5" d="M282.54,138.75c0,1-.71,1.42-1.59.92a3.53,3.53,0,0,1-1.6-2.76c0-1,.72-1.43,1.6-.92A3.52,3.52,0,0,1,282.54,138.75Z"/><path class="cls-3" d="M287.48,147.54c0,1-.72,1.43-1.6.92a3.54,3.54,0,0,1-1.59-2.76c0-1,.72-1.42,1.59-.92A3.53,3.53,0,0,1,287.48,147.54Z"/><path class="cls-3" d="M282.54,144.71c0,1-.71,1.42-1.59.92a3.54,3.54,0,0,1-1.6-2.76c0-1,.72-1.43,1.6-.92A3.52,3.52,0,0,1,282.54,144.71Z"/><path class="cls-3" d="M287.48,162.06c0,1-.72,1.43-1.6.92a3.52,3.52,0,0,1-1.59-2.75c0-1,.72-1.43,1.59-.92A3.52,3.52,0,0,1,287.48,162.06Z"/><path class="cls-3" d="M282.54,159.23c0,1-.71,1.43-1.59.92a3.53,3.53,0,0,1-1.6-2.76c0-1,.72-1.42,1.6-.91A3.5,3.5,0,0,1,282.54,159.23Z"/><path class="cls-5" d="M287.48,168c0,1-.72,1.43-1.6.92a3.52,3.52,0,0,1-1.59-2.75c0-1,.72-1.43,1.59-.92A3.51,3.51,0,0,1,287.48,168Z"/><path class="cls-3" d="M282.54,165.19c0,1-.71,1.43-1.59.92a3.53,3.53,0,0,1-1.6-2.76c0-1,.72-1.42,1.6-.91A3.5,3.5,0,0,1,282.54,165.19Z"/><path class="cls-3" d="M287.48,182.57c0,1-.72,1.43-1.6.92a3.52,3.52,0,0,1-1.59-2.75c0-1,.72-1.43,1.59-.92A3.51,3.51,0,0,1,287.48,182.57Z"/><path class="cls-5" d="M282.54,179.74c0,1-.71,1.43-1.59.92a3.53,3.53,0,0,1-1.6-2.76c0-1,.72-1.42,1.6-.91A3.5,3.5,0,0,1,282.54,179.74Z"/><path class="cls-3" d="M287.48,188.53c0,1-.72,1.43-1.6.92a3.54,3.54,0,0,1-1.59-2.75c0-1,.72-1.43,1.59-.92A3.51,3.51,0,0,1,287.48,188.53Z"/><path class="cls-5" d="M282.54,185.7c0,1-.71,1.43-1.59.92a3.53,3.53,0,0,1-1.6-2.76c0-1,.72-1.42,1.6-.92A3.53,3.53,0,0,1,282.54,185.7Z"/><path class="cls-5" d="M287.48,203.28c0,1-.72,1.43-1.6.92a3.52,3.52,0,0,1-1.59-2.75c0-1,.72-1.43,1.59-.92A3.51,3.51,0,0,1,287.48,203.28Z"/><path class="cls-3" d="M282.54,200.45c0,1-.71,1.43-1.59.92a3.53,3.53,0,0,1-1.6-2.76c0-1,.72-1.42,1.6-.92A3.53,3.53,0,0,1,282.54,200.45Z"/><path class="cls-3" d="M287.48,209.24c0,1-.72,1.43-1.6.92a3.54,3.54,0,0,1-1.59-2.76c0-1,.72-1.42,1.59-.91A3.51,3.51,0,0,1,287.48,209.24Z"/><path class="cls-5" d="M282.54,206.41c0,1-.71,1.43-1.59.92a3.53,3.53,0,0,1-1.6-2.76c0-1,.72-1.42,1.6-.92A3.53,3.53,0,0,1,282.54,206.41Z"/><path class="cls-5" d="M287.48,223.79c0,1-.72,1.43-1.6.92a3.54,3.54,0,0,1-1.59-2.75c0-1,.72-1.43,1.59-.92A3.51,3.51,0,0,1,287.48,223.79Z"/><path class="cls-3" d="M282.54,221c0,1-.71,1.43-1.59.92a3.53,3.53,0,0,1-1.6-2.76c0-1,.72-1.42,1.6-.92A3.53,3.53,0,0,1,282.54,221Z"/><path class="cls-5" d="M287.48,229.75c0,1-.72,1.43-1.6.92a3.54,3.54,0,0,1-1.59-2.76c0-1,.72-1.42,1.59-.91A3.51,3.51,0,0,1,287.48,229.75Z"/><path class="cls-3" d="M282.54,226.92c0,1-.71,1.43-1.59.92a3.53,3.53,0,0,1-1.6-2.76c0-1,.72-1.42,1.6-.92A3.52,3.52,0,0,1,282.54,226.92Z"/><path class="cls-3" d="M287.48,244.56c0,1-.72,1.42-1.6.92a3.56,3.56,0,0,1-1.59-2.76c0-1,.72-1.43,1.59-.92A3.53,3.53,0,0,1,287.48,244.56Z"/><path class="cls-5" d="M282.54,241.73c0,1-.71,1.42-1.59.91a3.51,3.51,0,0,1-1.6-2.75c0-1,.72-1.43,1.6-.92A3.52,3.52,0,0,1,282.54,241.73Z"/><path class="cls-3" d="M287.48,250.52c0,1-.72,1.42-1.6.92a3.56,3.56,0,0,1-1.59-2.76c0-1,.72-1.43,1.59-.92A3.53,3.53,0,0,1,287.48,250.52Z"/><path class="cls-3" d="M282.54,247.68c0,1-.71,1.43-1.59.92a3.51,3.51,0,0,1-1.6-2.75c0-1,.72-1.43,1.6-.92A3.51,3.51,0,0,1,282.54,247.68Z"/><path class="cls-1" d="M172.26,265l-29.87-17.24c-1.83-1.06-1.6-2.91.52-4.13L171.74,227a8,8,0,0,1,7.16-.29l29.86,17.24c1.83,1.06,1.61,2.91-.51,4.13l-28.84,16.65A8,8,0,0,1,172.26,265Z"/><path class="cls-4" d="M218.67,230.78h0V217.87H189.73l-10-5.78c-2.29-1.32-6.3-1.16-8.95.37l-9.33,5.39-29,0V231.1a2.57,2.57,0,0,0,1.53,2.39l37.4,21.6c2.3,1.32,6.31,1.16,9-.37l36.11-20.85C218,233,218.76,231.84,218.67,230.78Z"/><path class="cls-2" d="M175.58,211.19a10.36,10.36,0,0,0-4.8,1.26l-9.33,5.39-29,0V231.1a2.57,2.57,0,0,0,1.53,2.39l37.4,21.6a8.15,8.15,0,0,0,4.16.88Z"/><path class="cls-5" d="M135.76,217.83h-3.27V231.1a2.57,2.57,0,0,0,1.53,2.39l1.74,1Z"/><path class="cls-5" d="M172,255.37a10.21,10.21,0,0,0,7.16-.08V240.22H172Z"/><path class="cls-3" d="M171.42,241.86,134,220.27c-2.29-1.32-2-3.64.65-5.17l36.11-20.85c2.65-1.53,6.66-1.69,8.95-.37l37.4,21.59c2.3,1.33,2,3.64-.64,5.17l-36.11,20.85C177.73,243,173.72,243.19,171.42,241.86Z"/><path class="cls-5" d="M172.1,238l-31.35-18.1c-1.92-1.11-1.68-3,.54-4.33l30.27-17.47c2.22-1.28,5.58-1.42,7.5-.31l31.34,18.09c1.92,1.11,1.68,3-.54,4.33L179.6,237.67C177.38,239,174,239.09,172.1,238Z"/><path class="cls-3" d="M204.91,234.18a3.33,3.33,0,0,1-1.51,2.62c-.83.48-1.51.09-1.51-.87a3.34,3.34,0,0,1,1.51-2.62C204.24,232.83,204.91,233.22,204.91,234.18Z"/><path class="cls-3" d="M209.77,231.38a3.31,3.31,0,0,1-1.51,2.61c-.83.48-1.51.09-1.51-.87a3.36,3.36,0,0,1,1.51-2.62C209.1,230,209.77,230.41,209.77,231.38Z"/><path class="cls-3" d="M214.63,228.57a3.35,3.35,0,0,1-1.51,2.62c-.83.48-1.51.09-1.51-.88a3.34,3.34,0,0,1,1.51-2.61C214,227.22,214.63,227.61,214.63,228.57Z"/><path class="cls-4" d="M218.67,210.15h0v-12.9l-28.94,0-10-5.77c-2.29-1.33-6.3-1.16-8.95.37l-9.33,5.39-29,0v13.27a2.58,2.58,0,0,0,1.53,2.4l37.4,21.59c2.3,1.33,6.31,1.16,9-.37l36.11-20.85C218,212.36,218.76,211.22,218.67,210.15Z"/><path class="cls-2" d="M175.58,190.57a10.36,10.36,0,0,0-4.8,1.26l-9.33,5.39-29,0v13.27a2.58,2.58,0,0,0,1.53,2.4l37.4,21.59a8,8,0,0,0,4.16.89Z"/><path class="cls-5" d="M135.76,197.2h-3.27v13.27a2.58,2.58,0,0,0,1.53,2.4l1.74,1Z"/><path class="cls-5" d="M172,234.75a10.21,10.21,0,0,0,7.16-.08V219.6H172Z"/><path class="cls-3" d="M171.42,221.24,134,199.65c-2.29-1.33-2-3.64.65-5.17l36.11-20.85c2.65-1.53,6.66-1.7,8.95-.37l37.4,21.59c2.3,1.33,2,3.64-.64,5.17l-36.11,20.85C177.73,222.4,173.72,222.57,171.42,221.24Z"/><path class="cls-5" d="M172.1,217.36l-31.35-18.1c-1.92-1.11-1.68-3,.54-4.33l30.27-17.47c2.22-1.29,5.58-1.43,7.5-.31l31.34,18.09c1.92,1.11,1.68,3-.54,4.33L179.6,217C177.38,218.33,174,218.47,172.1,217.36Z"/><path class="cls-3" d="M204.91,213.56a3.35,3.35,0,0,1-1.51,2.62c-.83.48-1.51.09-1.51-.88a3.34,3.34,0,0,1,1.51-2.61C204.24,212.21,204.91,212.6,204.91,213.56Z"/><path class="cls-3" d="M209.77,210.75a3.32,3.32,0,0,1-1.51,2.62c-.83.48-1.51.09-1.51-.87a3.34,3.34,0,0,1,1.51-2.62C209.1,209.4,209.77,209.79,209.77,210.75Z"/><path class="cls-3" d="M214.63,208a3.31,3.31,0,0,1-1.51,2.61c-.83.49-1.51.1-1.51-.87a3.34,3.34,0,0,1,1.51-2.61C214,206.59,214.63,207,214.63,208Z"/><path class="cls-4" d="M218.67,189.53h0v-12.9l-28.94,0-10-5.77c-2.29-1.33-6.3-1.16-8.95.37l-9.33,5.39-29,0v13.27a2.59,2.59,0,0,0,1.53,2.4l37.4,21.59c2.3,1.33,6.31,1.16,9-.37l36.11-20.85C218,191.74,218.76,190.6,218.67,189.53Z"/><path class="cls-2" d="M175.58,170a10.24,10.24,0,0,0-4.8,1.26l-9.33,5.39-29,0v13.27a2.59,2.59,0,0,0,1.53,2.4l37.4,21.59a8,8,0,0,0,4.16.89Z"/><path class="cls-5" d="M135.76,176.58h-3.27v13.27a2.59,2.59,0,0,0,1.53,2.4l1.74,1Z"/><path class="cls-5" d="M172,214.13a10.21,10.21,0,0,0,7.16-.09V199H172Z"/><path class="cls-3" d="M171.42,200.62,134,179c-2.29-1.33-2-3.64.65-5.17L170.78,153c2.65-1.53,6.66-1.7,8.95-.37l37.4,21.59c2.3,1.32,2,3.64-.64,5.17l-36.11,20.85C177.73,201.78,173.72,202,171.42,200.62Z"/><path class="cls-5" d="M172.1,196.73l-31.35-18.09c-1.92-1.11-1.68-3,.54-4.33l30.27-17.48c2.22-1.28,5.58-1.42,7.5-.31l31.34,18.1c1.92,1.11,1.68,3-.54,4.33L179.6,196.42C177.38,197.7,174,197.84,172.1,196.73Z"/><path class="cls-3" d="M204.91,192.94a3.31,3.31,0,0,1-1.51,2.61c-.83.49-1.51.1-1.51-.87a3.34,3.34,0,0,1,1.51-2.61C204.24,191.58,204.91,192,204.91,192.94Z"/><path class="cls-3" d="M209.77,190.13a3.32,3.32,0,0,1-1.51,2.62c-.83.48-1.51.09-1.51-.87a3.34,3.34,0,0,1,1.51-2.62C209.1,188.78,209.77,189.17,209.77,190.13Z"/><path class="cls-3" d="M214.63,187.33a3.31,3.31,0,0,1-1.51,2.61c-.83.48-1.51.09-1.51-.87a3.37,3.37,0,0,1,1.51-2.62C214,186,214.63,186.36,214.63,187.33Z"/><path class="cls-4" d="M218.67,168.91h0V156l-28.94,0-10-5.77c-2.29-1.33-6.3-1.16-8.95.37L161.45,156h-29v13.27a2.59,2.59,0,0,0,1.53,2.4l37.4,21.59c2.3,1.33,6.31,1.16,9-.37L216.49,172C218,171.12,218.76,170,218.67,168.91Z"/><path class="cls-2" d="M175.58,149.33a10.24,10.24,0,0,0-4.8,1.26L161.45,156h-29v13.27a2.59,2.59,0,0,0,1.53,2.4l37.4,21.59a8,8,0,0,0,4.16.89Z"/><path class="cls-5" d="M135.76,156h-3.27v13.27a2.59,2.59,0,0,0,1.53,2.4l1.74,1Z"/><path class="cls-5" d="M172,193.5a10.21,10.21,0,0,0,7.16-.08V178.35H172Z"/><path class="cls-3" d="M171.42,180,134,158.41c-2.29-1.33-2-3.64.65-5.17l36.11-20.85c2.65-1.53,6.66-1.7,8.95-.37l37.4,21.59c2.3,1.32,2,3.64-.64,5.17l-36.11,20.85C177.73,181.16,173.72,181.32,171.42,180Z"/><path class="cls-5" d="M172.1,176.11,140.75,158c-1.92-1.11-1.68-3.05.54-4.34l30.27-17.47c2.22-1.28,5.58-1.42,7.5-.31L210.4,154c1.92,1.11,1.68,3.05-.54,4.33L179.6,175.8C177.38,177.08,174,177.22,172.1,176.11Z"/><path class="cls-3" d="M204.91,172.32a3.31,3.31,0,0,1-1.51,2.61c-.83.48-1.51.09-1.51-.87a3.37,3.37,0,0,1,1.51-2.62C204.24,171,204.91,171.35,204.91,172.32Z"/><path class="cls-3" d="M209.77,169.51a3.33,3.33,0,0,1-1.51,2.62c-.83.48-1.51.09-1.51-.88a3.34,3.34,0,0,1,1.51-2.61C209.1,168.16,209.77,168.55,209.77,169.51Z"/><path class="cls-3" d="M214.63,166.7a3.32,3.32,0,0,1-1.51,2.62c-.83.48-1.51.09-1.51-.87a3.36,3.36,0,0,1,1.51-2.62C214,165.35,214.63,165.74,214.63,166.7Z"/><path class="cls-4" d="M218.67,148.29h0v-12.9l-28.94,0-10-5.78c-2.29-1.32-6.3-1.15-8.95.38l-9.33,5.38h-29v13.27A2.59,2.59,0,0,0,134,151l37.4,21.59c2.3,1.33,6.31,1.16,9-.37l36.11-20.85C218,150.5,218.76,149.35,218.67,148.29Z"/><path class="cls-2" d="M175.58,128.71a10.24,10.24,0,0,0-4.8,1.26l-9.33,5.38h-29v13.27A2.59,2.59,0,0,0,134,151l37.4,21.59a8,8,0,0,0,4.16.89Z"/><path class="cls-5" d="M135.76,135.34h-3.27v13.27A2.59,2.59,0,0,0,134,151l1.74,1Z"/><path class="cls-5" d="M172,172.88a10.21,10.21,0,0,0,7.16-.08V157.73H172Z"/><path class="cls-3" d="M171.42,159.38,134,137.78c-2.29-1.32-2-3.64.65-5.17l36.11-20.84c2.65-1.54,6.66-1.7,8.95-.38l37.4,21.6c2.3,1.32,2,3.64-.64,5.17L180.38,159C177.73,160.54,173.72,160.7,171.42,159.38Z"/><path class="cls-5" d="M172.1,155.49,140.75,137.4c-1.92-1.11-1.68-3.05.54-4.34l30.27-17.47c2.22-1.28,5.58-1.42,7.5-.31l31.34,18.09c1.92,1.12,1.68,3.06-.54,4.34L179.6,155.18C177.38,156.46,174,156.6,172.1,155.49Z"/><rect class="cls-7" x="187.36" y="156.75" width="17.32" height="0.61" transform="translate(-52.28 119.13) rotate(-30.02)"/><path class="cls-3" d="M204.91,151.69a3.32,3.32,0,0,1-1.51,2.62c-.83.48-1.51.09-1.51-.87a3.36,3.36,0,0,1,1.51-2.62C204.24,150.34,204.91,150.73,204.91,151.69Z"/><path class="cls-3" d="M209.77,148.89a3.35,3.35,0,0,1-1.51,2.62c-.83.48-1.51.09-1.51-.88a3.34,3.34,0,0,1,1.51-2.61C209.1,147.54,209.77,147.93,209.77,148.89Z"/><path class="cls-3" d="M214.63,146.08a3.32,3.32,0,0,1-1.51,2.62c-.83.48-1.51.09-1.51-.87a3.34,3.34,0,0,1,1.51-2.62C214,144.73,214.63,145.12,214.63,146.08Z"/><path class="cls-4" d="M218.67,127.53h0V114.62H189.73l-10-5.78c-2.29-1.32-6.3-1.16-8.95.37l-9.33,5.39-29,0v13.28a2.57,2.57,0,0,0,1.53,2.39l37.4,21.6c2.3,1.32,6.31,1.16,9-.37l36.11-20.85C218,129.73,218.76,128.59,218.67,127.53Z"/><path class="cls-2" d="M175.58,107.94a10.36,10.36,0,0,0-4.8,1.26l-9.33,5.39-29,0v13.28a2.57,2.57,0,0,0,1.53,2.39l37.4,21.6a8.25,8.25,0,0,0,4.16.89Z"/><path class="cls-5" d="M135.76,114.58h-3.27v13.28a2.57,2.57,0,0,0,1.53,2.39l1.74,1Z"/><path class="cls-5" d="M172,152.12a10.21,10.21,0,0,0,7.16-.08V137H172Z"/><path class="cls-3" d="M171.42,138.61,134,117c-2.29-1.32-2-3.64.65-5.17L170.78,91c2.65-1.53,6.66-1.69,8.95-.37l37.4,21.59c2.3,1.33,2,3.64-.64,5.17l-36.11,20.85C177.73,139.77,173.72,139.94,171.42,138.61Z"/><path class="cls-7" d="M216.49,114.85,180.38,135.7c-2.65,1.53-6.66,1.7-9,.37L134,114.48a3.45,3.45,0,0,1-1.14-1c-.79,1.26-.43,2.64,1.14,3.55l37.4,21.59c2.3,1.33,6.31,1.16,9-.37l36.11-20.85c2.06-1.19,2.68-2.85,1.79-4.15A5,5,0,0,1,216.49,114.85Z"/><path class="cls-3" d="M204.91,130.93a3.32,3.32,0,0,1-1.51,2.62c-.83.48-1.51.09-1.51-.87a3.34,3.34,0,0,1,1.51-2.62C204.24,129.58,204.91,130,204.91,130.93Z"/><path class="cls-3" d="M190,139.11a3.34,3.34,0,0,1-1.51,2.62c-.84.48-1.51.09-1.51-.87a3.32,3.32,0,0,1,1.51-2.62C189.35,137.76,190,138.15,190,139.11Z"/><path class="cls-7" d="M190,160.51a3.34,3.34,0,0,1-1.51,2.62c-.84.48-1.51.09-1.51-.87a3.32,3.32,0,0,1,1.51-2.62C189.35,159.16,190,159.55,190,160.51Z"/><path class="cls-3" d="M209.77,128.13a3.31,3.31,0,0,1-1.51,2.61c-.83.48-1.51.09-1.51-.87a3.37,3.37,0,0,1,1.51-2.62C209.1,126.77,209.77,127.16,209.77,128.13Z"/><path class="cls-3" d="M214.63,125.32a3.35,3.35,0,0,1-1.51,2.62c-.83.48-1.51.09-1.51-.88a3.34,3.34,0,0,1,1.51-2.61C214,124,214.63,124.36,214.63,125.32Z"/><path class="cls-2" d="M173.63,125.23l-17.5-10.11c-1.07-.62-.94-1.7.3-2.42l16.9-9.75a4.65,4.65,0,0,1,4.19-.18L195,112.88c1.08.62.94,1.7-.3,2.42l-16.9,9.75A4.65,4.65,0,0,1,173.63,125.23Z"/><path class="cls-3" d="M175.31,116.77l-2.42-1.4c-.15-.09-.13-.24,0-.34l2.34-1.35a.66.66,0,0,1,.58,0l2.42,1.4c.15.08.13.23,0,.33l-2.34,1.35A.66.66,0,0,1,175.31,116.77Z"/><path class="cls-4" d="M156.13,115.12l.05,0a2.2,2.2,0,0,1,.25-.17l16.9-9.76a4.68,4.68,0,0,1,4.19-.17L195,115.12c1-.7,1.05-1.67.05-2.24l-17.5-10.11a4.65,4.65,0,0,0-4.19.18l-16.9,9.75C155.19,113.42,155.06,114.5,156.13,115.12Z"/><path class="cls-3" d="M170,141.67c0,1-.71,1.43-1.59.92a3.5,3.5,0,0,1-1.59-2.75c0-1,.71-1.43,1.59-.92A3.5,3.5,0,0,1,170,141.67Z"/><path class="cls-5" d="M165,138.84c0,1-.71,1.43-1.59.92a3.52,3.52,0,0,1-1.59-2.76c0-1,.71-1.42,1.59-.91A3.5,3.5,0,0,1,165,138.84Z"/><path class="cls-3" d="M170,147.63c0,1-.71,1.43-1.59.92a3.51,3.51,0,0,1-1.59-2.75c0-1,.71-1.43,1.59-.92A3.5,3.5,0,0,1,170,147.63Z"/><path class="cls-3" d="M165,144.8c0,1-.71,1.43-1.59.92a3.52,3.52,0,0,1-1.59-2.76c0-1,.71-1.42,1.59-.92A3.53,3.53,0,0,1,165,144.8Z"/><path class="cls-3" d="M170,162.16c0,1-.71,1.43-1.59.92a3.52,3.52,0,0,1-1.59-2.76c0-1,.71-1.43,1.59-.92A3.52,3.52,0,0,1,170,162.16Z"/><path class="cls-9" d="M165,159.33c0,1-.71,1.42-1.59.92a3.53,3.53,0,0,1-1.59-2.76c0-1,.71-1.43,1.59-.92A3.52,3.52,0,0,1,165,159.33Z"/><path class="cls-5" d="M170,168.12c0,1-.71,1.42-1.59.92a3.53,3.53,0,0,1-1.59-2.76c0-1,.71-1.43,1.59-.92A3.52,3.52,0,0,1,170,168.12Z"/><path class="cls-3" d="M165,165.29c0,1-.71,1.42-1.59.91a3.5,3.5,0,0,1-1.59-2.75c0-1,.71-1.43,1.59-.92A3.52,3.52,0,0,1,165,165.29Z"/><path class="cls-3" d="M170,182.67c0,1-.71,1.42-1.59.92a3.52,3.52,0,0,1-1.59-2.76c0-1,.71-1.43,1.59-.92A3.52,3.52,0,0,1,170,182.67Z"/><path class="cls-5" d="M165,179.84c0,1-.71,1.42-1.59.91a3.5,3.5,0,0,1-1.59-2.75c0-1,.71-1.43,1.59-.92A3.52,3.52,0,0,1,165,179.84Z"/><path class="cls-9" d="M170,188.63c0,1-.71,1.42-1.59.92a3.53,3.53,0,0,1-1.59-2.76c0-1,.71-1.43,1.59-.92A3.52,3.52,0,0,1,170,188.63Z"/><path class="cls-5" d="M165,185.8c0,1-.71,1.42-1.59.91a3.5,3.5,0,0,1-1.59-2.75c0-1,.71-1.43,1.59-.92A3.52,3.52,0,0,1,165,185.8Z"/><path class="cls-5" d="M170,203.38c0,1-.71,1.42-1.59.92a3.53,3.53,0,0,1-1.59-2.76c0-1,.71-1.43,1.59-.92A3.52,3.52,0,0,1,170,203.38Z"/><path class="cls-3" d="M165,200.55c0,1-.71,1.42-1.59.91a3.5,3.5,0,0,1-1.59-2.75c0-1,.71-1.43,1.59-.92A3.52,3.52,0,0,1,165,200.55Z"/><path class="cls-3" d="M170,209.34c0,1-.71,1.42-1.59.92a3.53,3.53,0,0,1-1.59-2.76c0-1,.71-1.43,1.59-.92A3.52,3.52,0,0,1,170,209.34Z"/><path class="cls-5" d="M165,206.5c0,1-.71,1.43-1.59.92a3.5,3.5,0,0,1-1.59-2.75c0-1,.71-1.43,1.59-.92A3.51,3.51,0,0,1,165,206.5Z"/><path class="cls-9" d="M170,223.89c0,1-.71,1.42-1.59.92a3.53,3.53,0,0,1-1.59-2.76c0-1,.71-1.43,1.59-.92A3.52,3.52,0,0,1,170,223.89Z"/><path class="cls-9" d="M165,221.05c0,1-.71,1.43-1.59.92a3.5,3.5,0,0,1-1.59-2.75c0-1,.71-1.43,1.59-.92A3.51,3.51,0,0,1,165,221.05Z"/><path class="cls-9" d="M170,229.85c0,1-.71,1.42-1.59.91a3.5,3.5,0,0,1-1.59-2.75c0-1,.71-1.43,1.59-.92A3.52,3.52,0,0,1,170,229.85Z"/><path class="cls-3" d="M165,227c0,1-.71,1.43-1.59.92a3.5,3.5,0,0,1-1.59-2.75c0-1,.71-1.43,1.59-.92A3.5,3.5,0,0,1,165,227Z"/><path class="cls-3" d="M170,244.65c0,1-.71,1.43-1.59.92a3.52,3.52,0,0,1-1.59-2.76c0-1,.71-1.42,1.59-.92A3.53,3.53,0,0,1,170,244.65Z"/><path class="cls-5" d="M165,241.82c0,1-.71,1.43-1.59.92a3.52,3.52,0,0,1-1.59-2.76c0-1,.71-1.42,1.59-.92A3.52,3.52,0,0,1,165,241.82Z"/><path class="cls-3" d="M170,250.61c0,1-.71,1.43-1.59.92a3.52,3.52,0,0,1-1.59-2.76c0-1,.71-1.42,1.59-.92A3.53,3.53,0,0,1,170,250.61Z"/><path class="cls-3" d="M165,247.78c0,1-.71,1.43-1.59.92a3.52,3.52,0,0,1-1.59-2.76c0-1,.71-1.43,1.59-.92A3.52,3.52,0,0,1,165,247.78Z"/><path class="cls-5" d="M307,286a.7.7,0,0,1-.39-.11l-41.54-24.6a.77.77,0,0,1,.79-1.33l41.54,24.6A.77.77,0,0,1,307,286Z"/><path class="cls-1" d="M231,298.8l-29.87-17.24c-1.83-1.06-1.6-2.91.52-4.13l28.83-16.65a8,8,0,0,1,7.16-.3l29.86,17.25c1.83,1.06,1.61,2.9-.51,4.13l-28.84,16.65A8,8,0,0,1,231,298.8Z"/><path class="cls-4" d="M277.42,264.59h0v-12.9l-28.94,0-10-5.77c-2.29-1.33-6.3-1.16-8.95.37l-9.33,5.39-29,0v13.27a2.58,2.58,0,0,0,1.53,2.4l37.4,21.59c2.3,1.33,6.31,1.16,9-.37l36.11-20.85C276.77,266.8,277.51,265.66,277.42,264.59Z"/><path class="cls-2" d="M234.33,245a10.36,10.36,0,0,0-4.8,1.26l-9.33,5.39-29,0v13.27a2.58,2.58,0,0,0,1.53,2.4l37.4,21.59a8,8,0,0,0,4.16.89Z"/><path class="cls-5" d="M194.51,251.64h-3.27v13.27a2.58,2.58,0,0,0,1.53,2.4l1.74,1Z"/><path class="cls-5" d="M230.75,289.19a10.21,10.21,0,0,0,7.16-.09V274h-7.16Z"/><path class="cls-3" d="M230.17,275.68l-37.4-21.59c-2.29-1.33-2-3.64.65-5.17l36.11-20.85c2.65-1.53,6.66-1.7,8.95-.37l37.4,21.59c2.3,1.33,2,3.64-.64,5.17l-36.11,20.85C236.48,276.84,232.47,277,230.17,275.68Z"/><path class="cls-5" d="M230.85,271.79,199.5,253.7c-1.92-1.11-1.68-3,.54-4.33l30.27-17.47c2.22-1.29,5.58-1.43,7.5-.32l31.34,18.1c1.92,1.11,1.68,3-.54,4.33l-30.26,17.47C236.13,272.77,232.77,272.91,230.85,271.79Z"/><path class="cls-3" d="M263.66,268a3.35,3.35,0,0,1-1.51,2.62c-.83.48-1.51.09-1.51-.88a3.34,3.34,0,0,1,1.51-2.61C263,266.65,263.66,267,263.66,268Z"/><path class="cls-3" d="M268.52,265.19a3.32,3.32,0,0,1-1.51,2.62c-.83.48-1.51.09-1.51-.87a3.34,3.34,0,0,1,1.51-2.62C267.85,263.84,268.52,264.23,268.52,265.19Z"/><path class="cls-3" d="M273.38,262.39a3.31,3.31,0,0,1-1.51,2.61c-.83.49-1.51.09-1.51-.87a3.34,3.34,0,0,1,1.51-2.61C272.71,261,273.38,261.42,273.38,262.39Z"/><path class="cls-4" d="M277.42,244h0v-12.9l-28.94,0-10-5.77c-2.29-1.33-6.3-1.16-8.95.37L220.2,231l-29,0v13.27a2.59,2.59,0,0,0,1.53,2.4l37.4,21.59c2.3,1.33,6.31,1.16,9-.37l36.11-20.85C276.77,246.18,277.51,245,277.42,244Z"/><path class="cls-2" d="M234.33,224.39a10.24,10.24,0,0,0-4.8,1.26L220.2,231l-29,0v13.27a2.59,2.59,0,0,0,1.53,2.4l37.4,21.59a8,8,0,0,0,4.16.89Z"/><path class="cls-5" d="M194.51,231h-3.27v13.27a2.59,2.59,0,0,0,1.53,2.4l1.74,1Z"/><path class="cls-5" d="M230.75,268.56a10.16,10.16,0,0,0,7.16-.08V253.41h-7.16Z"/><path class="cls-3" d="M230.17,255.06l-37.4-21.59c-2.29-1.33-2-3.64.65-5.17l36.11-20.85c2.65-1.53,6.66-1.7,8.95-.37l37.4,21.59c2.3,1.32,2,3.64-.64,5.17l-36.11,20.85C236.48,256.22,232.47,256.38,230.17,255.06Z"/><path class="cls-5" d="M230.85,251.17,199.5,233.08c-1.92-1.11-1.68-3.05.54-4.33l30.27-17.48c2.22-1.28,5.58-1.42,7.5-.31l31.34,18.1c1.92,1.11,1.68,3.05-.54,4.33l-30.26,17.47C236.13,252.14,232.77,252.28,230.85,251.17Z"/><path class="cls-3" d="M263.66,247.38a3.31,3.31,0,0,1-1.51,2.61c-.83.49-1.51.1-1.51-.87a3.34,3.34,0,0,1,1.51-2.61C263,246,263.66,246.41,263.66,247.38Z"/><path class="cls-3" d="M268.52,244.57a3.33,3.33,0,0,1-1.51,2.62c-.83.48-1.51.09-1.51-.87A3.34,3.34,0,0,1,267,243.7C267.85,243.22,268.52,243.61,268.52,244.57Z"/><path class="cls-3" d="M273.38,241.77a3.31,3.31,0,0,1-1.51,2.61c-.83.48-1.51.09-1.51-.87a3.37,3.37,0,0,1,1.51-2.62C272.71,240.41,273.38,240.8,273.38,241.77Z"/><path class="cls-4" d="M277.42,223.35h0v-12.9l-28.94,0-10-5.77c-2.29-1.33-6.3-1.16-8.95.37l-9.33,5.38h-29v13.27a2.59,2.59,0,0,0,1.53,2.4l37.4,21.59c2.3,1.33,6.31,1.16,9-.37l36.11-20.85C276.77,225.56,277.51,224.41,277.42,223.35Z"/><path class="cls-2" d="M234.33,203.77a10.24,10.24,0,0,0-4.8,1.26l-9.33,5.38h-29v13.27a2.59,2.59,0,0,0,1.53,2.4l37.4,21.59a8,8,0,0,0,4.16.89Z"/><path class="cls-5" d="M194.51,210.4h-3.27v13.27a2.59,2.59,0,0,0,1.53,2.4l1.74,1Z"/><path class="cls-5" d="M230.75,247.94a10.21,10.21,0,0,0,7.16-.08V232.79h-7.16Z"/><path class="cls-3" d="M230.17,234.44l-37.4-21.59c-2.29-1.33-2-3.64.65-5.17l36.11-20.85c2.65-1.53,6.66-1.7,8.95-.38l37.4,21.6c2.3,1.32,2,3.64-.64,5.17l-36.11,20.85C236.48,235.6,232.47,235.76,230.17,234.44Z"/><path class="cls-5" d="M230.85,230.55,199.5,212.46c-1.92-1.11-1.68-3.05.54-4.34l30.27-17.47c2.22-1.28,5.58-1.42,7.5-.31l31.34,18.1c1.92,1.11,1.68,3.05-.54,4.33l-30.26,17.47C236.13,231.52,232.77,231.66,230.85,230.55Z"/><path class="cls-3" d="M263.66,226.76a3.31,3.31,0,0,1-1.51,2.61c-.83.48-1.51.09-1.51-.87a3.37,3.37,0,0,1,1.51-2.62C263,225.4,263.66,225.79,263.66,226.76Z"/><path class="cls-3" d="M268.52,224a3.35,3.35,0,0,1-1.51,2.62c-.83.48-1.51.09-1.51-.88a3.34,3.34,0,0,1,1.51-2.61C267.85,222.6,268.52,223,268.52,224Z"/><path class="cls-3" d="M273.38,221.14a3.32,3.32,0,0,1-1.51,2.62c-.83.48-1.51.09-1.51-.87a3.34,3.34,0,0,1,1.51-2.62C272.71,219.79,273.38,220.18,273.38,221.14Z"/><path class="cls-4" d="M277.42,202.73h0V189.82H248.48l-10-5.78c-2.29-1.32-6.3-1.15-8.95.38l-9.33,5.38h-29v13.27a2.59,2.59,0,0,0,1.53,2.4L230.17,227c2.3,1.32,6.31,1.16,9-.37l36.11-20.85C276.77,204.94,277.51,203.79,277.42,202.73Z"/><path class="cls-2" d="M234.33,183.15a10.24,10.24,0,0,0-4.8,1.26l-9.33,5.38h-29v13.27a2.59,2.59,0,0,0,1.53,2.4L230.17,227a8,8,0,0,0,4.16.89Z"/><path class="cls-5" d="M194.51,189.78h-3.27v13.27a2.59,2.59,0,0,0,1.53,2.4l1.74,1Z"/><path class="cls-5" d="M230.75,227.32a10.21,10.21,0,0,0,7.16-.08V212.17h-7.16Z"/><path class="cls-3" d="M230.17,213.82l-37.4-21.6c-2.29-1.32-2-3.64.65-5.17l36.11-20.85c2.65-1.53,6.66-1.69,8.95-.37l37.4,21.6c2.3,1.32,2,3.64-.64,5.17l-36.11,20.84C236.48,215,232.47,215.14,230.17,213.82Z"/><path class="cls-5" d="M230.85,209.93,199.5,191.84c-1.92-1.12-1.68-3.06.54-4.34L230.31,170c2.22-1.28,5.58-1.42,7.5-.31l31.34,18.09c1.92,1.11,1.68,3.05-.54,4.34l-30.26,17.47C236.13,210.9,232.77,211,230.85,209.93Z"/><path class="cls-3" d="M263.66,206.13a3.32,3.32,0,0,1-1.51,2.62c-.83.48-1.51.09-1.51-.87a3.36,3.36,0,0,1,1.51-2.62C263,204.78,263.66,205.17,263.66,206.13Z"/><path class="cls-3" d="M268.52,203.33a3.31,3.31,0,0,1-1.51,2.61c-.83.49-1.51.1-1.51-.87a3.34,3.34,0,0,1,1.51-2.61C267.85,202,268.52,202.37,268.52,203.33Z"/><path class="cls-3" d="M273.38,200.52a3.32,3.32,0,0,1-1.51,2.62c-.83.48-1.51.09-1.51-.87a3.34,3.34,0,0,1,1.51-2.62C272.71,199.17,273.38,199.56,273.38,200.52Z"/><path class="cls-4" d="M277.42,182.11h0V169.2H248.48l-10-5.78c-2.29-1.32-6.3-1.16-8.95.37l-9.33,5.39-29,0v13.28a2.59,2.59,0,0,0,1.53,2.4l37.4,21.59c2.3,1.32,6.31,1.16,9-.37l36.11-20.85C276.77,184.31,277.51,183.17,277.42,182.11Z"/><path class="cls-2" d="M234.33,162.52a10.48,10.48,0,0,0-4.8,1.26l-9.33,5.39-29,0v13.28a2.59,2.59,0,0,0,1.53,2.4l37.4,21.59a8.25,8.25,0,0,0,4.16.89Z"/><path class="cls-5" d="M194.51,169.16h-3.27v13.28a2.59,2.59,0,0,0,1.53,2.4l1.74,1Z"/><path class="cls-5" d="M230.75,206.7a10.21,10.21,0,0,0,7.16-.08V191.55h-7.16Z"/><path class="cls-3" d="M230.17,193.19l-37.4-21.59c-2.29-1.32-2-3.64.65-5.17l36.11-20.85c2.65-1.53,6.66-1.69,8.95-.37l37.4,21.59c2.3,1.33,2,3.64-.64,5.17l-36.11,20.85C236.48,194.35,232.47,194.52,230.17,193.19Z"/><path class="cls-5" d="M230.85,189.31l-31.35-18.1c-1.92-1.11-1.68-3.05.54-4.33l30.27-17.47c2.22-1.28,5.58-1.42,7.5-.31l31.34,18.09c1.92,1.11,1.68,3.05-.54,4.34L238.35,189C236.13,190.28,232.77,190.42,230.85,189.31Z"/><rect class="cls-7" x="246.11" y="190.57" width="17.32" height="0.61" transform="translate(-61.32 153.05) rotate(-30.02)"/><path class="cls-3" d="M263.66,185.51a3.32,3.32,0,0,1-1.51,2.62c-.83.48-1.51.09-1.51-.87a3.34,3.34,0,0,1,1.51-2.62C263,184.16,263.66,184.55,263.66,185.51Z"/><path class="cls-3" d="M268.52,182.71a3.31,3.31,0,0,1-1.51,2.61c-.83.48-1.51.09-1.51-.87a3.37,3.37,0,0,1,1.51-2.62C267.85,181.35,268.52,181.74,268.52,182.71Z"/><path class="cls-3" d="M273.38,179.9a3.33,3.33,0,0,1-1.51,2.62c-.83.48-1.51.09-1.51-.88a3.34,3.34,0,0,1,1.51-2.61C272.71,178.55,273.38,178.94,273.38,179.9Z"/><path class="cls-4" d="M277.42,161.34h0v-12.9l-28.94,0-10-5.77c-2.29-1.33-6.3-1.16-8.95.37l-9.33,5.39-29,0v13.27a2.58,2.58,0,0,0,1.53,2.4l37.4,21.6c2.3,1.32,6.31,1.15,9-.38l36.11-20.85C276.77,163.55,277.51,162.41,277.42,161.34Z"/><path class="cls-2" d="M234.33,141.76a10.36,10.36,0,0,0-4.8,1.26l-9.33,5.39-29,0v13.27a2.58,2.58,0,0,0,1.53,2.4l37.4,21.6a8.15,8.15,0,0,0,4.16.88Z"/><path class="cls-5" d="M194.51,148.39h-3.27v13.27a2.58,2.58,0,0,0,1.53,2.4l1.74,1Z"/><path class="cls-5" d="M230.75,185.94a10.21,10.21,0,0,0,7.16-.08V170.79h-7.16Z"/><path class="cls-3" d="M230.17,172.43l-37.4-21.59c-2.29-1.33-2-3.64.65-5.17l36.11-20.85c2.65-1.53,6.66-1.7,8.95-.37L275.88,146c2.3,1.33,2,3.64-.64,5.17l-36.11,20.85C236.48,173.59,232.47,173.76,230.17,172.43Z"/><path class="cls-7" d="M275.24,148.67l-36.11,20.85c-2.65,1.53-6.66,1.7-9,.37l-37.4-21.59a3.47,3.47,0,0,1-1.14-1c-.79,1.27-.43,2.65,1.14,3.56l37.4,21.59c2.3,1.33,6.31,1.16,9-.37l36.11-20.85c2.06-1.19,2.68-2.85,1.79-4.15A5,5,0,0,1,275.24,148.67Z"/><path class="cls-3" d="M263.66,164.75a3.35,3.35,0,0,1-1.51,2.62c-.83.48-1.51.09-1.51-.88a3.34,3.34,0,0,1,1.51-2.61C263,163.4,263.66,163.79,263.66,164.75Z"/><path class="cls-3" d="M248.78,172.93a3.36,3.36,0,0,1-1.51,2.62c-.84.48-1.51.09-1.51-.87a3.32,3.32,0,0,1,1.51-2.62C248.1,171.58,248.78,172,248.78,172.93Z"/><path class="cls-7" d="M248.78,194.33a3.37,3.37,0,0,1-1.51,2.62c-.84.48-1.51.09-1.51-.88a3.31,3.31,0,0,1,1.51-2.61C248.1,193,248.78,193.37,248.78,194.33Z"/><path class="cls-3" d="M268.52,161.94a3.32,3.32,0,0,1-1.51,2.62c-.83.48-1.51.09-1.51-.87a3.34,3.34,0,0,1,1.51-2.62C267.85,160.59,268.52,161,268.52,161.94Z"/><path class="cls-3" d="M273.38,159.14a3.31,3.31,0,0,1-1.51,2.61c-.83.49-1.51.1-1.51-.87a3.34,3.34,0,0,1,1.51-2.61C272.71,157.78,273.38,158.17,273.38,159.14Z"/><path class="cls-2" d="M232.38,159l-17.5-10.1c-1.07-.62-.94-1.7.3-2.42l16.9-9.76a4.68,4.68,0,0,1,4.19-.17l17.5,10.11c1.08.62.94,1.7-.3,2.41l-16.9,9.76A4.64,4.64,0,0,1,232.38,159Z"/><path class="cls-3" d="M234.06,150.58l-2.42-1.39c-.15-.09-.13-.24,0-.34L234,147.5a.63.63,0,0,1,.58,0l2.42,1.4c.15.08.13.23,0,.33l-2.34,1.35A.63.63,0,0,1,234.06,150.58Z"/><path class="cls-4" d="M214.88,148.94l.05,0a2.2,2.2,0,0,1,.25-.17l16.9-9.76a4.64,4.64,0,0,1,4.19-.17l17.45,10.07c1-.71,1.05-1.67.05-2.24l-17.5-10.11a4.68,4.68,0,0,0-4.19.17l-16.9,9.76C213.94,147.24,213.81,148.32,214.88,148.94Z"/><path class="cls-3" d="M228.72,175.49c0,1-.71,1.43-1.59.92a3.52,3.52,0,0,1-1.59-2.76c0-1,.71-1.42,1.59-.91A3.5,3.5,0,0,1,228.72,175.49Z"/><path class="cls-5" d="M223.78,172.66c0,1-.71,1.43-1.59.92a3.52,3.52,0,0,1-1.59-2.76c0-1,.71-1.42,1.59-.92A3.52,3.52,0,0,1,223.78,172.66Z"/><path class="cls-9" d="M228.72,181.45c0,1-.71,1.43-1.59.92a3.52,3.52,0,0,1-1.59-2.76c0-1,.71-1.42,1.59-.92A3.53,3.53,0,0,1,228.72,181.45Z"/><path class="cls-3" d="M223.78,178.62c0,1-.71,1.43-1.59.92a3.52,3.52,0,0,1-1.59-2.76c0-1,.71-1.43,1.59-.92A3.52,3.52,0,0,1,223.78,178.62Z"/><path class="cls-3" d="M228.72,196c0,1-.71,1.42-1.59.92a3.53,3.53,0,0,1-1.59-2.76c0-1,.71-1.43,1.59-.92A3.52,3.52,0,0,1,228.72,196Z"/><path class="cls-3" d="M223.78,193.14c0,1-.71,1.43-1.59.92a3.5,3.5,0,0,1-1.59-2.75c0-1,.71-1.43,1.59-.92A3.51,3.51,0,0,1,223.78,193.14Z"/><path class="cls-5" d="M228.72,201.94c0,1-.71,1.42-1.59.91a3.5,3.5,0,0,1-1.59-2.75c0-1,.71-1.43,1.59-.92A3.52,3.52,0,0,1,228.72,201.94Z"/><path class="cls-3" d="M223.78,199.1c0,1-.71,1.43-1.59.92a3.51,3.51,0,0,1-1.59-2.75c0-1,.71-1.43,1.59-.92A3.5,3.5,0,0,1,223.78,199.1Z"/><path class="cls-3" d="M228.72,216.49c0,1-.71,1.42-1.59.91a3.5,3.5,0,0,1-1.59-2.75c0-1,.71-1.43,1.59-.92A3.52,3.52,0,0,1,228.72,216.49Z"/><path class="cls-5" d="M223.78,213.65c0,1-.71,1.43-1.59.92a3.5,3.5,0,0,1-1.59-2.75c0-1,.71-1.43,1.59-.92A3.5,3.5,0,0,1,223.78,213.65Z"/><path class="cls-3" d="M228.72,222.44c0,1-.71,1.43-1.59.92a3.5,3.5,0,0,1-1.59-2.75c0-1,.71-1.43,1.59-.92A3.51,3.51,0,0,1,228.72,222.44Z"/><path class="cls-9" d="M223.78,219.61c0,1-.71,1.43-1.59.92a3.52,3.52,0,0,1-1.59-2.76c0-1,.71-1.42,1.59-.91A3.5,3.5,0,0,1,223.78,219.61Z"/><path class="cls-9" d="M228.72,237.2c0,1-.71,1.42-1.59.91a3.5,3.5,0,0,1-1.59-2.75c0-1,.71-1.43,1.59-.92A3.52,3.52,0,0,1,228.72,237.2Z"/><path class="cls-3" d="M223.78,234.36c0,1-.71,1.43-1.59.92a3.51,3.51,0,0,1-1.59-2.75c0-1,.71-1.43,1.59-.92A3.5,3.5,0,0,1,223.78,234.36Z"/><path class="cls-9" d="M228.72,243.15c0,1-.71,1.43-1.59.92a3.5,3.5,0,0,1-1.59-2.75c0-1,.71-1.43,1.59-.92A3.51,3.51,0,0,1,228.72,243.15Z"/><path class="cls-5" d="M223.78,240.32c0,1-.71,1.43-1.59.92a3.52,3.52,0,0,1-1.59-2.76c0-1,.71-1.42,1.59-.91A3.5,3.5,0,0,1,223.78,240.32Z"/><path class="cls-9" d="M228.72,257.7c0,1-.71,1.43-1.59.92a3.5,3.5,0,0,1-1.59-2.75c0-1,.71-1.43,1.59-.92A3.51,3.51,0,0,1,228.72,257.7Z"/><path class="cls-3" d="M223.78,254.87c0,1-.71,1.43-1.59.92A3.52,3.52,0,0,1,220.6,253c0-1,.71-1.42,1.59-.91A3.5,3.5,0,0,1,223.78,254.87Z"/><path class="cls-5" d="M228.72,263.66c0,1-.71,1.43-1.59.92a3.5,3.5,0,0,1-1.59-2.75c0-1,.71-1.43,1.59-.92A3.5,3.5,0,0,1,228.72,263.66Z"/><path class="cls-9" d="M223.78,260.83c0,1-.71,1.43-1.59.92A3.52,3.52,0,0,1,220.6,259c0-1,.71-1.42,1.59-.92A3.53,3.53,0,0,1,223.78,260.83Z"/><path class="cls-3" d="M228.72,278.47c0,1-.71,1.43-1.59.92a3.52,3.52,0,0,1-1.59-2.76c0-1,.71-1.42,1.59-.92A3.52,3.52,0,0,1,228.72,278.47Z"/><path class="cls-5" d="M223.78,275.64c0,1-.71,1.42-1.59.92a3.53,3.53,0,0,1-1.59-2.76c0-1,.71-1.43,1.59-.92A3.52,3.52,0,0,1,223.78,275.64Z"/><path class="cls-3" d="M228.72,284.43c0,1-.71,1.43-1.59.92a3.52,3.52,0,0,1-1.59-2.76c0-1,.71-1.43,1.59-.92A3.52,3.52,0,0,1,228.72,284.43Z"/><path class="cls-9" d="M223.78,281.6c0,1-.71,1.42-1.59.92a3.53,3.53,0,0,1-1.59-2.76c0-1,.71-1.43,1.59-.92A3.52,3.52,0,0,1,223.78,281.6Z"/><rect class="cls-5" x="408.66" y="182.73" width="5.81" height="12.54" transform="translate(818.15 -10.49) rotate(129.2)"/><path class="cls-5" d="M416.05,195.3a4.53,4.53,0,0,0,2.59-3.18c.21-1.29-.61-2-1.83-1.5a4.54,4.54,0,0,0-2.6,3.18C414,195.1,414.82,195.77,416.05,195.3Z"/><rect class="cls-5" x="398.73" y="175.96" width="9.42" height="12.81" transform="translate(799.75 -15.01) rotate(129.2)"/><path class="cls-4" d="M410.14,184.09l3.29,2.68a7.51,7.51,0,0,1-3.67,4.5l-3.29-2.68A7.51,7.51,0,0,1,410.14,184.09Z"/><path class="cls-5" d="M407.79,190.22a7.39,7.39,0,0,0,4.21-5.17c.34-2.09-1-3.18-3-2.43a7.37,7.37,0,0,0-4.21,5.17C404.47,189.88,405.8,191,407.79,190.22Z"/><path class="cls-5" d="M397.86,182.12a7.39,7.39,0,0,0,4.21-5.17c.34-2.09-1-3.18-3-2.43a7.37,7.37,0,0,0-4.21,5.16C394.54,181.78,395.87,182.87,397.86,182.12Z"/><path class="cls-3" d="M398.12,180.47a4.16,4.16,0,0,0,2.38-2.92c.2-1.19-.56-1.8-1.68-1.38a4.18,4.18,0,0,0-2.38,2.92C396.25,180.28,397,180.89,398.12,180.47Z"/><path class="cls-3" d="M416.08,191.62c.47.39.94.21,1-.4a2.15,2.15,0,0,0-.69-1.8c-.48-.39-.94-.21-1,.4A2.12,2.12,0,0,0,416.08,191.62Z"/><path class="cls-5" d="M317.2,290.55a9.86,9.86,0,0,1-5.07-1.43L305.25,285a.77.77,0,1,1,.79-1.33l6.88,4.07a8.28,8.28,0,0,0,12.53-7.68L325.3,278c-2.41-33.95-6.9-97.15,19.73-104a209.18,209.18,0,0,0,20.05-6.23c13.66-4.9,14.6-4.63,33.45,9.6a.78.78,0,1,1-.94,1.24c-18.71-14.13-19-14-32-9.38a210.6,210.6,0,0,1-20.18,6.28c-25.38,6.49-20.95,68.85-18.57,102.35L327,280a9.67,9.67,0,0,1-4.66,9.08A9.79,9.79,0,0,1,317.2,290.55Z"/><ellipse class="cls-1" cx="369.45" cy="288.6" rx="25.2" ry="14.55"/><path class="cls-2" d="M381.47,282.36a3.89,3.89,0,0,1,2.19,3.89,6.27,6.27,0,0,1-.32,1.9,3.2,3.2,0,0,1-4.29,1.32c-2.36-.94-7.61-5.87-7.81-9.09C370.88,274.38,377.73,280.77,381.47,282.36Z"/><path class="cls-2" d="M367.59,292.28s.57,3.45.29,4.09a4.46,4.46,0,0,1-4.35,1.69c-2.43-.29-9.42-2.7-11-7.31-2.41-7.14,13.49.54,13.49.54Z"/><path class="cls-3" d="M360.76,237l-.54,54a3.78,3.78,0,0,0,2.94,3.74l.66.08a3.36,3.36,0,0,0,3.2-1.32,3.94,3.94,0,0,0,.72-2.18l.69-23,3.44-20.59,4.76,36.44a3.11,3.11,0,0,0,1.3,2.4,3.63,3.63,0,0,0,2.17.59,4,4,0,0,0,2.89-1.42,2.94,2.94,0,0,0,.68-1.95l-1.88-21.93-.7-28Z"/><path class="cls-6" d="M367.75,188.74l.85,4.91a2.26,2.26,0,0,1-1.84,2.15c-1.87.46-2.45-.75-2.45-.75l-.85-5.53Z"/><path class="cls-6" d="M357.75,188.89c3.13,3.11,7.91,3.37,10.67.58s2.47-7.59-.66-10.71-7.9-3.37-10.67-.58S354.62,185.77,357.75,188.89Z"/><path class="cls-5" d="M367.52,193.74c.13-.05,8-5.08,10.84.18,4.71,8.59,4.43,36.23,2.94,39.82-1.37,3.31-4.81,5.75-7.22,7.13a14.46,14.46,0,0,1-7,2c-2.44,0-7.12-2.15-6.95-5.34.78-14.69-.52-27.07-1.72-39.08C358.4,198.44,359.9,196.83,367.52,193.74Z"/><path class="cls-4" d="M371.87,247.68l4.76,36.44a3.11,3.11,0,0,0,1.3,2.4,4,4,0,0,0,.41.23c-1-.74-3.87-31.33-4.41-34.73S371.87,247.68,371.87,247.68Z"/><polygon class="cls-6" points="342.53 195.36 338.28 181.45 340.53 180.52 345.53 191.43 342.53 195.36"/><polygon class="cls-6" points="385.34 184.4 382.16 169.92 379.62 169.95 380.58 181.96 385.34 184.4"/><path class="cls-5" d="M358.4,198.44s-7.63,1.53-12.48-7.36a1.21,1.21,0,0,0-2-.21c-.77,1.18-1.81,3-1.27,5,2.36,8.69,15.19,10.61,17.49,15.64S358.4,198.44,358.4,198.44Z"/><path class="cls-5" d="M372.48,191.94s6,.46,6.91-4.77a38.74,38.74,0,0,0,.61-5.23,1.06,1.06,0,0,1,1.19-1c1.44.18,3.68.61,4,1.58.45,1.45,1.31,8.55-4.66,19.45C376.61,209.09,372.48,191.94,372.48,191.94Z"/><path class="cls-6" d="M382.17,170l-.06-1.65a3.45,3.45,0,0,0-.49-1.65L380,163.9l-.44-.55a1.27,1.27,0,0,0-1.67-.28l-.39.24a1.57,1.57,0,0,0-.73,1.44l.86,2.35-1.09-.21a.39.39,0,0,0-.46.31h0a.4.4,0,0,0,.24.43l1.79.72,1.62,2.3Z"/><path class="cls-6" d="M338.22,181.53l-.5-1.58a3.31,3.31,0,0,1-.1-1.71l.64-3.16.22-.66a1.27,1.27,0,0,1,1.48-.84l.44.1a1.58,1.58,0,0,1,1.19,1.1l0,2.5,1-.57a.38.38,0,0,1,.53.14h0a.4.4,0,0,1-.07.49l-1.44,1.28-.84,3Z"/><path class="cls-4" d="M362,209c.7,3.17-1.25,27.8,5.1,33.89-2.44,0-7.12-2.15-6.95-5.34a195.76,195.76,0,0,0-.59-27c-2.49-3.23-9.34-5.28-13.63-9.42C346.21,201.19,361.28,205.83,362,209Z"/><path class="cls-7" d="M370.33,192.35l-1.08-1.11a8.94,8.94,0,0,1-3.22,2.14,16.63,16.63,0,0,1-2.57.53l-.7,1.93S368.45,195.43,370.33,192.35Z"/><path class="cls-2" d="M362.33,186.64a.92.92,0,0,1-.84,0c-.47-.24-1.21-2.08-2.18-1.94-1.5.21-3.67,3.36-6.38-1-1.41-2.29-.59-3.52-1.27-4.82,0,0,.24.7,6.14-2.9s10.72.79,12.22,3.3,2.46,7.41-1.41,10.18c-.64.46-4.77-.36-4.86-.71s1-.9.4-1.71A1.3,1.3,0,0,0,362.33,186.64Z"/></svg>