<svg id="Ñëîé_1" data-name="Ñëîé 1" xmlns="http://www.w3.org/2000/svg" viewBox="0 0 410.9 309.1"><defs><style>.cls-1,.cls-2{fill:#173d7a;}.cls-1{opacity:0.5;}.cls-3{fill:#d4ecff;}.cls-4{fill:#396caa;}.cls-5{fill:#ffe000;}.cls-6{fill:#ffc2b0;}.cls-7{fill:#fff;}.cls-8{fill:#ea9c92;}.cls-9{fill:#ff2c9c;}.cls-10{fill:#e2c100;}.cls-11{fill:#d3008d;}.cls-12{fill:#5793ce;}.cls-13{fill:#66e205;}.cls-14{fill:#397704;}</style></defs><ellipse class="cls-1" cx="60.76" cy="261.31" rx="18.88" ry="10.9"/><path class="cls-2" d="M59.66,255.57c.21.52,3.84,4.94,7.47,6.05a8.42,8.42,0,0,0,3.34.46,1.09,1.09,0,0,0,.89-1.46,13.77,13.77,0,0,0-7-7.69C58.23,249.88,59.66,255.57,59.66,255.57Z"/><path class="cls-2" d="M58.44,257.26a30.18,30.18,0,0,1,1.79,5.9c.26,1.64-.64,3.77-1.38,5.18a1.5,1.5,0,0,1-2.35.4,8.69,8.69,0,0,1-3-5.63c-.42-4.53,0-5.32,0-5.32Z"/><path class="cls-3" d="M49.69,202.54a86.82,86.82,0,0,0,0,12c.48,6.32,2.17,35.86,2.49,43,0,0-.16,2.15,4,1.68S60,256.36,60,256.36s5.85-.08,6-3.53,6-41.18,6-54.74Z"/><path class="cls-4" d="M60,256.36a11.42,11.42,0,0,0,1.67-.18h0l1.14-45.92Z"/><path class="cls-5" d="M55.88,160.64c-9.45,3.92-9.26,9.5-9.26,9.5s1.85,20.48,1.22,34.16c-.26,5.72,30.38,6.15,25.81-9.1-5.39-18-3.37-32.55-5.89-34.74S58.33,159.62,55.88,160.64Z"/><ellipse class="cls-6" cx="57.56" cy="164.37" rx="4.87" ry="3.59" transform="translate(-39.18 19.56) rotate(-14.45)"/><path class="cls-7" d="M56.86,168.65c-2.23,0-4.14-1.13-4.6-2.91h0c-.57-2.23,1.34-4.66,4.26-5.41s5.76.45,6.34,2.68a3.77,3.77,0,0,1-.87,3.34,6.37,6.37,0,0,1-3.39,2.07A6.61,6.61,0,0,1,56.86,168.65Zm-3.44-3.21c.41,1.6,2.6,2.42,4.89,1.83a5.23,5.23,0,0,0,2.76-1.67,2.61,2.61,0,0,0,.64-2.29c-.42-1.6-2.62-2.42-4.9-1.83s-3.81,2.36-3.39,4Z"/><path class="cls-6" d="M59.67,160.21a23.73,23.73,0,0,0,.08,3.37c0,.95-3.24,1.83-4.1,1s-.51-1.73-.71-4.94S59.67,160.21,59.67,160.21Z"/><path class="cls-8" d="M54.94,159.61s.81,3,4.81,4.11l-.06-2.7Z"/><circle class="cls-6" cx="59.45" cy="153.88" r="7.27" transform="translate(-34.27 18.12) rotate(-13.5)"/><path class="cls-8" d="M57.78,154.15s4,1.72,6.77,1.74,2.17-2.31,2.17-2.31l-8.24-1.19Z"/><path class="cls-9" d="M65.38,154.6a13,13,0,0,0-6.55-.86,3.17,3.17,0,0,0-1.85,1.1,1.1,1.1,0,0,1-.56.4c-.54.13-1.43-2.13-2.48-2.18s-1.76.7-.9,2.08.57,2.94.18,3.16-4.62-3-.9-10.39S65.5,144.51,67,146c0,0,1.55,1.36,2.81.15C69.78,146.15,71.2,156.74,65.38,154.6Z"/><path class="cls-6" d="M72.38,159l5.08-2.19a2.28,2.28,0,0,0,1.24-1.34l5-14.54,2.32.41L82,159.39a3.06,3.06,0,0,1-1.49,2L72,166.14Z"/><path class="cls-6" d="M19.51,161.33l-1.17-.54a9.32,9.32,0,0,1-2.67-1.85l-.81-.8a1.57,1.57,0,0,1-.35-1.73h0A.88.88,0,0,1,15.7,156l2.44,1.23s-.38-1.07-.2-1.35,2.07,1.8,2.94,3.27S19.51,161.33,19.51,161.33Z"/><path class="cls-6" d="M39.79,167.14l-4.35-.48a7.78,7.78,0,0,1-2.92-.95l-11.64-6.59-1.37,2.21,11.9,9.19a5.54,5.54,0,0,0,1.2.7l7.1,3Z"/><path class="cls-6" d="M86,141.3l.45-.51a4.09,4.09,0,0,0,1-2.09l.31-2.12a1.82,1.82,0,0,0-.69-1.73l-.06,0a1.09,1.09,0,0,0-1.61.53l-1,2.52s.33-1.31-.09-1.45-.9,1.52-.55,2.42a3.78,3.78,0,0,1,0,2.06Z"/><path class="cls-7" d="M62.33,158.89l1.88-.51a4.56,4.56,0,0,1-2.2,1.77c-1.31.36-1.52-.75-1.52-.75Z"/><path class="cls-5" d="M65.15,159.41s8.49-1.68,11.08-2.46,3.68,6.33,3.48,8.13-9,3.82-10.08,6.92S65.15,159.41,65.15,159.41Z"/><path class="cls-5" d="M52.17,162.54a67.12,67.12,0,0,1-16.59,4,1.11,1.11,0,0,0-.92.73,12.32,12.32,0,0,0-.55,6.24,2.28,2.28,0,0,0,2.27,1.8c3.25,0,10.25.29,11.38,3.33C49.25,182.58,52.17,162.54,52.17,162.54Z"/><path class="cls-7" d="M55.82,168.13l1.7,1.85a1.11,1.11,0,0,1,.29.89L56.64,181a1.15,1.15,0,0,0,.22.8l3.66,4.78a.33.33,0,0,0,.58-.1l2-6.27a1,1,0,0,0,0-.72l-3.51-9.19a1.23,1.23,0,0,1-.05-.63l.52-2.43Z"/><path class="cls-10" d="M37.24,173.39c1.85.22,6.41.61,9.92.9A3.22,3.22,0,0,1,50,178.35c-1.87,7.17.61,18.71.16,22.61-.53,4.67,2.3,6.48,2.31,6.49-2.79-.61-4.69-1.71-4.62-3.15a262,262,0,0,0-.64-26.57c-2-2.23-8-2.48-10.85-2.45a2.29,2.29,0,0,1-2.25-1.87,10.69,10.69,0,0,1,0-3.78C34.07,169.7,34.07,173,37.24,173.39Z"/><polygon class="cls-1" points="121.63 297.43 109.19 290.25 121.63 283.06 134.06 290.25 121.63 297.43"/><polygon class="cls-11" points="134.06 281.13 121.63 288.31 121.63 273.95 134.06 266.77 134.06 281.13"/><polygon class="cls-9" points="121.63 273.95 109.19 266.77 121.63 259.59 134.06 266.77 121.63 273.95"/><polygon class="cls-9" points="121.63 288.31 109.19 281.13 109.19 266.77 121.63 273.95 121.63 288.31"/><polygon class="cls-7" points="117.15 280.55 113.67 278.54 113.67 274.53 117.15 276.54 117.15 280.55"/><polygon class="cls-1" points="390.12 241.54 378.43 234.79 390.12 228.04 401.82 234.79 390.12 241.54"/><polygon class="cls-2" points="401.82 226.22 390.12 232.97 390.12 219.46 401.82 212.71 401.82 226.22"/><polygon class="cls-3" points="390.12 219.46 378.43 212.71 390.12 205.96 401.82 212.71 390.12 219.46"/><polygon class="cls-12" points="390.12 232.97 378.43 226.22 378.43 212.71 390.12 219.46 390.12 232.97"/><polygon class="cls-7" points="385.91 225.67 382.64 223.78 382.64 220.01 385.91 221.9 385.91 225.67"/><ellipse class="cls-1" cx="339.46" cy="141.18" rx="19.65" ry="11.34"/><path class="cls-9" d="M348.87,25.07s-.43,8.82-1.1,14.74-14.95-4.55-14.95-4.55V28.51Z"/><path class="cls-2" d="M341.26,134.78c-.21.53-3.91,5-7.61,6.16a8.36,8.36,0,0,1-3.39.47,1.12,1.12,0,0,1-.91-1.49,14,14,0,0,1,7.09-7.82C342.71,129,341.26,134.78,341.26,134.78Z"/><path class="cls-2" d="M342.5,136.51a30.5,30.5,0,0,0-1.83,6c-.26,1.67.66,3.83,1.41,5.27a1.54,1.54,0,0,0,2.4.41,8.85,8.85,0,0,0,3-5.73c.43-4.61,0-5.42,0-5.42Z"/><path class="cls-3" d="M351.4,80.8a86.39,86.39,0,0,1,0,12.25c-.48,6.43-2.2,36.5-2.53,43.74,0,0,.16,2.19-4.08,1.71s-3.89-2.92-3.89-2.92-6-.08-6.15-3.59-6.1-41.92-6.1-55.73Z"/><path class="cls-6" d="M326.45,50.74l-2.92,4.52-10,12.11a2.26,2.26,0,0,0,1.6,1.42c1,.23,9.41-7.82,13-11.35a2.78,2.78,0,0,0,.38-3.55Z"/><path class="cls-13" d="M332.14,32.19s-4.63-.12-6.25,6.58S323,53.86,324.42,54.55c4.21,2.09,6.88-.35,6.88-.35Z"/><path class="cls-13" d="M330.75,32.48a3.8,3.8,0,0,1,2.51-.14c3.95,1.13,18.79,5.49,21.24,7.58,2.83,2.42-4.24,16-4.14,20.45s.61,9.7,1,14.54.92,7.49-3,9.55a15.58,15.58,0,0,1-15.78-1.7c-5.06-3.86-4.14-6.5-3.93-9.29s1.93-14.91,1.78-18.34a13.12,13.12,0,0,1-3.1-3.57c-1.32-2.25,1-6.39,2-9.08s-.55-5.77-.25-8A2.49,2.49,0,0,1,330.75,32.48Z"/><path class="cls-7" d="M342.1,41.62l-1.68,1.94a1.12,1.12,0,0,0-.27.91l1.47,10.31a1.15,1.15,0,0,1-.2.82l-3.61,5a.34.34,0,0,1-.59-.09L335,54.15a1,1,0,0,1,0-.74l3.33-9.49a1.16,1.16,0,0,0,0-.64l-.59-2.48Z"/><path class="cls-7" d="M335.5,37.1c-.31,2.45,1.93,4.75,5,5.15s5.83-1.27,6.15-3.72-1.93-4.74-5-5.14S335.81,34.66,335.5,37.1Z"/><path class="cls-6" d="M337.09,37.31c-.22,1.75,1.38,3.39,3.58,3.67s4.17-.9,4.4-2.65-1.38-3.39-3.59-3.68S337.32,35.56,337.09,37.31Z"/><path class="cls-6" d="M339.28,31.57s2.68-2.2,3.21-1.09,1,5.91,1,5.91l-5.32,1.43.8-4.86S337.87,32.06,339.28,31.57Z"/><circle class="cls-6" cx="338.9" cy="25.85" r="7.95"/><path class="cls-8" d="M342.86,31.87c.05.25.09.52.13.79-.53,2.77-4.67,4-4.67,4l.61-3.68s-.5-.42-.36-.85C340.21,31.6,342.27,31.14,342.86,31.87Z"/><circle class="cls-6" cx="338.9" cy="25.85" r="7.95"/><polygon class="cls-6" points="358.48 59.49 357.59 80.76 354.48 81.08 352.45 61.93 358.48 59.49"/><path class="cls-14" d="M348.26,57.71c.17-.74,1.53-1.35,1.74-2.31a87.91,87.91,0,0,0,1.32-12.26l.87,10c-1,3-1.86,5.67-1.83,7.25.06,2.61.26,5.5.49,8.42h0S347.23,62.25,348.26,57.71Z"/><path class="cls-13" d="M353.91,39.48s2.48,1,3.89,8.59,2.46,15.29-.05,16.27-4.6,1.73-5.34-.31-1.2-11.89-1.29-15.43S350.89,40.18,353.91,39.48Z"/><path class="cls-6" d="M314.25,66.49A6.6,6.6,0,0,0,311.93,68a15.23,15.23,0,0,0-1.59,2.13c-.77,1.16-1.43,3.65-.95,4S312.56,70,313,71s0,2,.55,2,2.5-4.51,4-5.92S314.25,66.49,314.25,66.49Z"/><path class="cls-4" d="M340.9,135.58a12.73,12.73,0,0,1-1.71-.17h0L338,88.65Z"/><path class="cls-4" d="M345.4,110.33l1.65-2.16,17.4-10.07a2.43,2.43,0,0,0,1-1.94V81.92l1-1.3-.94-.55h0a.65.65,0,0,0-.68,0L345.1,91.53a2.4,2.4,0,0,0-1,1.93l0,15.51a.88.88,0,0,0,.37.83h0Z"/><path class="cls-4" d="M357.43,102.16l1.23-.71,6.79-11.79V81.92l1-1.3-.94-.55h0a.65.65,0,0,0-.68,0L345.1,91.53a2,2,0,0,0-.74.87Z"/><path class="cls-4" d="M366,81.2l.44-.58-.94-.55h0a.65.65,0,0,0-.68,0l-.35.2Z"/><path class="cls-4" d="M344.92,91.65a2.5,2.5,0,0,0-.82,1.66L346,94.43l.92-1.61Z"/><path class="cls-3" d="M346,92.07l19.72-11.41c.55-.33,1,0,1,.76V96.93a2.41,2.41,0,0,1-1,1.93l-19.72,11.42c-.56.32-1,0-1-.77L345,94A2.42,2.42,0,0,1,346,92.07Z"/><path class="cls-7" d="M345.74,91.89l19.72-11.41a.58.58,0,0,1,.8.07.69.69,0,0,0-.5.11L346,92.07A2.42,2.42,0,0,0,345,94l0,15.51a1,1,0,0,0,.21.69c-.3-.06-.51-.37-.51-.86l0-15.52A2.43,2.43,0,0,1,345.74,91.89Z"/><polygon class="cls-7" points="350.09 103.2 351.03 102.65 351.03 94.59 350.09 95.13 350.09 103.2"/><polygon class="cls-7" points="352.28 101.93 353.22 101.39 353.22 93.32 352.28 93.86 352.28 101.93"/><polygon class="cls-7" points="354.48 100.66 355.42 100.12 355.42 92.05 354.48 92.59 354.48 100.66"/><path class="cls-6" d="M357.56,80.58a48.63,48.63,0,0,1,.7,6.55c-.12,1.59-1,4.22-1.62,4.16s0-6.39-1.16-5.76-1.25,1.71-1.76,1.33.89-5.8.52-8.15S357.56,80.58,357.56,80.58Z"/><path class="cls-8" d="M335.84,26.54c-4,1.42-4.76.56-4.8.51,0-.24-.06-.48-.08-.73a7.93,7.93,0,0,1,.27-2.54l10.34-1.4A11.23,11.23,0,0,1,335.84,26.54Z"/><path class="cls-9" d="M330.68,18.4c.94-.8,4.33-4.79,10.4-3.85,3.8.59,7,3.18,7.7,9.09a13.58,13.58,0,0,1-3.67,10.8,3.48,3.48,0,0,1-.43-.22c-1.52-1-1.69-1.55-1.69-1.55l-.33-3a.85.85,0,0,1,.76-.84,1.51,1.51,0,0,0,1.11-.68,1.77,1.77,0,0,0-1.28-3,1.34,1.34,0,0,1-1.39-1,.71.71,0,0,0-.93-.49c-2,.72-6.88,2.27-10,1.38C326.88,23.9,329.74,19.21,330.68,18.4Z"/><path class="cls-7" d="M335.2,30.13l-2.43-.66a5.89,5.89,0,0,0,2.86,2.29c1.69.46,2-1,2-1Z"/><polygon class="cls-4" points="353.43 86.7 355.5 85.52 354.72 86.79 353.68 87.18 353.43 86.7"/><path class="cls-7" d="M343.54,28.33a.82.82,0,1,0,1.64,0,.82.82,0,1,0-1.64,0Z"/><path class="cls-1" d="M211.19,221l-29.87-17.24c-1.83-1.06-1.6-2.91.51-4.13L210.67,183a8,8,0,0,1,7.15-.29l29.87,17.24c1.83,1.06,1.6,2.91-.51,4.13l-28.84,16.65A8,8,0,0,1,211.19,221Z"/><path class="cls-4" d="M257.6,186.78h0V173.87l-28.94,0-10-5.77c-2.3-1.32-6.3-1.16-9,.37l-9.33,5.39-29,0v13.27a2.6,2.6,0,0,0,1.54,2.4l37.4,21.6c2.29,1.32,6.3,1.15,9-.38l36.12-20.84C256.94,189,257.68,187.84,257.6,186.78Z"/><path class="cls-4" d="M214.51,167.19a10.43,10.43,0,0,0-4.81,1.26l-9.33,5.39-29,0v13.27a2.6,2.6,0,0,0,1.54,2.4l37.4,21.6a8.15,8.15,0,0,0,4.16.88Z"/><path class="cls-12" d="M174.69,173.82h-3.28v13.27a2.6,2.6,0,0,0,1.54,2.4l1.74,1Z"/><path class="cls-12" d="M210.93,211.37a10.18,10.18,0,0,0,7.15-.08V196.22h-7.15Z"/><path class="cls-3" d="M210.35,197.86,173,176.27c-2.3-1.33-2-3.64.64-5.17l36.11-20.85c2.66-1.53,6.66-1.7,9-.37l37.4,21.59c2.29,1.33,2,3.64-.64,5.17L219.3,197.49C216.65,199,212.64,199.19,210.35,197.86Z"/><path class="cls-12" d="M211,194l-31.34-18.1c-1.92-1.11-1.68-3,.54-4.33l30.26-17.47a8.33,8.33,0,0,1,7.51-.31l31.34,18.09c1.92,1.11,1.68,3-.54,4.33l-30.26,17.47A8.33,8.33,0,0,1,211,194Z"/><path class="cls-3" d="M243.84,190.18a3.36,3.36,0,0,1-1.51,2.62c-.83.48-1.51.09-1.51-.88a3.34,3.34,0,0,1,1.51-2.61C243.16,188.83,243.84,189.22,243.84,190.18Z"/><path class="cls-3" d="M248.7,187.37a3.34,3.34,0,0,1-1.51,2.62c-.83.48-1.51.09-1.51-.87a3.36,3.36,0,0,1,1.51-2.62C248,186,248.7,186.41,248.7,187.37Z"/><path class="cls-3" d="M253.56,184.57a3.34,3.34,0,0,1-1.51,2.61c-.83.49-1.51.1-1.51-.87a3.34,3.34,0,0,1,1.51-2.61C252.88,183.21,253.56,183.61,253.56,184.57Z"/><path class="cls-4" d="M257.6,166.15h0v-12.9l-28.94,0-10-5.77c-2.3-1.33-6.3-1.16-9,.37l-9.33,5.39-29,0v13.27a2.6,2.6,0,0,0,1.54,2.4l37.4,21.59c2.29,1.33,6.3,1.16,9-.37l36.12-20.85C256.94,168.36,257.68,167.22,257.6,166.15Z"/><path class="cls-4" d="M214.51,146.57a10.31,10.31,0,0,0-4.81,1.26l-9.33,5.39-29,0v13.27a2.6,2.6,0,0,0,1.54,2.4l37.4,21.59a8,8,0,0,0,4.16.89Z"/><path class="cls-12" d="M174.69,153.2h-3.28v13.27a2.6,2.6,0,0,0,1.54,2.4l1.74,1Z"/><path class="cls-12" d="M210.93,190.75a10.19,10.19,0,0,0,7.15-.09V175.6h-7.15Z"/><path class="cls-3" d="M210.35,177.24,173,155.65c-2.3-1.33-2-3.64.64-5.17l36.11-20.85c2.66-1.53,6.66-1.7,9-.37l37.4,21.59c2.29,1.33,2,3.64-.64,5.17L219.3,176.87C216.65,178.4,212.64,178.57,210.35,177.24Z"/><path class="cls-12" d="M211,173.35l-31.34-18.09c-1.92-1.11-1.68-3,.54-4.33l30.26-17.47a8.33,8.33,0,0,1,7.51-.32l31.34,18.1c1.92,1.11,1.68,3-.54,4.33L218.53,173A8.33,8.33,0,0,1,211,173.35Z"/><path class="cls-3" d="M243.84,169.56a3.37,3.37,0,0,1-1.51,2.62c-.83.48-1.51.09-1.51-.88a3.34,3.34,0,0,1,1.51-2.61C243.16,168.21,243.84,168.6,243.84,169.56Z"/><path class="cls-3" d="M248.7,166.75a3.34,3.34,0,0,1-1.51,2.62c-.83.48-1.51.09-1.51-.87a3.34,3.34,0,0,1,1.51-2.62C248,165.4,248.7,165.79,248.7,166.75Z"/><path class="cls-3" d="M253.56,164a3.34,3.34,0,0,1-1.51,2.61c-.83.48-1.51.09-1.51-.87a3.37,3.37,0,0,1,1.51-2.62C252.88,162.59,253.56,163,253.56,164Z"/><path class="cls-4" d="M257.6,145.53h0v-12.9l-28.94,0-10-5.77c-2.3-1.33-6.3-1.16-9,.37l-9.33,5.39-29,0v13.27a2.61,2.61,0,0,0,1.54,2.4l37.4,21.59c2.29,1.33,6.3,1.16,9-.37l36.12-20.85C256.94,147.74,257.68,146.6,257.6,145.53Z"/><path class="cls-4" d="M214.51,126a10.31,10.31,0,0,0-4.81,1.26l-9.33,5.39-29,0v13.27a2.61,2.61,0,0,0,1.54,2.4l37.4,21.59a8,8,0,0,0,4.16.89Z"/><path class="cls-12" d="M174.69,132.58h-3.28v13.27a2.61,2.61,0,0,0,1.54,2.4l1.74,1Z"/><path class="cls-12" d="M210.93,170.12a10.13,10.13,0,0,0,7.15-.08V155h-7.15Z"/><path class="cls-3" d="M210.35,156.62,173,135c-2.3-1.33-2-3.64.64-5.17L209.7,109c2.66-1.53,6.66-1.7,9-.37l37.4,21.59c2.29,1.32,2,3.64-.64,5.17L219.3,156.25C216.65,157.78,212.64,157.94,210.35,156.62Z"/><path class="cls-12" d="M211,152.73l-31.34-18.09c-1.92-1.11-1.68-3,.54-4.33l30.26-17.48a8.36,8.36,0,0,1,7.51-.31l31.34,18.1c1.92,1.11,1.68,3-.54,4.33l-30.26,17.47A8.36,8.36,0,0,1,211,152.73Z"/><path class="cls-3" d="M243.84,148.94a3.34,3.34,0,0,1-1.51,2.61c-.83.49-1.51.09-1.51-.87a3.34,3.34,0,0,1,1.51-2.61C243.16,147.58,243.84,148,243.84,148.94Z"/><path class="cls-3" d="M248.7,146.13a3.36,3.36,0,0,1-1.51,2.62c-.83.48-1.51.09-1.51-.87a3.34,3.34,0,0,1,1.51-2.62C248,144.78,248.7,145.17,248.7,146.13Z"/><path class="cls-3" d="M253.56,143.33a3.34,3.34,0,0,1-1.51,2.61c-.83.48-1.51.09-1.51-.87a3.36,3.36,0,0,1,1.51-2.62C252.88,142,253.56,142.36,253.56,143.33Z"/><path class="cls-4" d="M257.6,124.91h0V112l-28.94,0-10-5.77c-2.3-1.33-6.3-1.16-9,.37L200.37,112h-29v13.27a2.61,2.61,0,0,0,1.54,2.4l37.4,21.59c2.29,1.33,6.3,1.16,9-.37L255.42,128C256.94,127.12,257.68,126,257.6,124.91Z"/><path class="cls-4" d="M214.51,105.33a10.31,10.31,0,0,0-4.81,1.26L200.37,112h-29v13.27a2.61,2.61,0,0,0,1.54,2.4l37.4,21.59a8,8,0,0,0,4.16.89Z"/><path class="cls-12" d="M174.69,112h-3.28v13.27a2.61,2.61,0,0,0,1.54,2.4l1.74,1Z"/><path class="cls-12" d="M210.93,149.5a10.18,10.18,0,0,0,7.15-.08V134.35h-7.15Z"/><path class="cls-3" d="M210.35,136,173,114.41c-2.3-1.33-2-3.64.64-5.18L209.7,88.39c2.66-1.53,6.66-1.7,9-.38l37.4,21.6c2.29,1.32,2,3.64-.64,5.17L219.3,135.63C216.65,137.16,212.64,137.32,210.35,136Z"/><path class="cls-12" d="M211,132.11,179.68,114c-1.92-1.11-1.68-3,.54-4.34l30.26-17.47A8.36,8.36,0,0,1,218,91.9L249.33,110c1.92,1.11,1.68,3-.54,4.33L218.53,131.8A8.36,8.36,0,0,1,211,132.11Z"/><path class="cls-3" d="M243.84,128.32a3.34,3.34,0,0,1-1.51,2.61c-.83.48-1.51.09-1.51-.87a3.37,3.37,0,0,1,1.51-2.62C243.16,127,243.84,127.35,243.84,128.32Z"/><path class="cls-3" d="M248.7,125.51a3.37,3.37,0,0,1-1.51,2.62c-.83.48-1.51.09-1.51-.88a3.34,3.34,0,0,1,1.51-2.61C248,124.16,248.7,124.55,248.7,125.51Z"/><path class="cls-3" d="M253.56,122.7a3.34,3.34,0,0,1-1.51,2.62c-.83.48-1.51.09-1.51-.87a3.34,3.34,0,0,1,1.51-2.62C252.88,121.35,253.56,121.74,253.56,122.7Z"/><path class="cls-4" d="M257.6,104.29h0V91.38H228.66l-10-5.78c-2.3-1.32-6.3-1.16-9,.38l-9.33,5.38h-29v13.27A2.62,2.62,0,0,0,173,107l37.4,21.59c2.29,1.32,6.3,1.16,9-.37l36.12-20.85C256.94,106.5,257.68,105.35,257.6,104.29Z"/><path class="cls-2" d="M214.51,84.71A10.31,10.31,0,0,0,209.7,86l-9.33,5.38h-29v13.27A2.62,2.62,0,0,0,173,107l37.4,21.59a8.15,8.15,0,0,0,4.16.89Z"/><path class="cls-12" d="M174.69,91.34h-3.28v13.27A2.62,2.62,0,0,0,173,107l1.74,1Z"/><path class="cls-12" d="M210.93,128.88a10.18,10.18,0,0,0,7.15-.08V113.73h-7.15Z"/><path class="cls-3" d="M210.35,115.38,173,93.78c-2.3-1.32-2-3.64.64-5.17L209.7,67.76c2.66-1.53,6.66-1.69,9-.37L256.06,89c2.29,1.32,2,3.64-.64,5.17L219.3,115C216.65,116.53,212.64,116.7,210.35,115.38Z"/><path class="cls-12" d="M211,111.49l-31.34-18.1c-1.92-1.11-1.68-3,.54-4.33l30.26-17.47a8.36,8.36,0,0,1,7.51-.31l31.34,18.09c1.92,1.11,1.68,3-.54,4.34l-30.26,17.47A8.36,8.36,0,0,1,211,111.49Z"/><rect class="cls-7" x="226.29" y="112.75" width="17.32" height="0.61" transform="translate(-25.05 132.7) rotate(-30.02)"/><path class="cls-3" d="M243.84,107.69a3.34,3.34,0,0,1-1.51,2.62c-.83.48-1.51.09-1.51-.87a3.34,3.34,0,0,1,1.51-2.62C243.16,106.34,243.84,106.73,243.84,107.69Z"/><path class="cls-3" d="M248.7,104.89a3.34,3.34,0,0,1-1.51,2.61c-.83.49-1.51.1-1.51-.87a3.34,3.34,0,0,1,1.51-2.61C248,103.53,248.7,103.92,248.7,104.89Z"/><path class="cls-3" d="M253.56,102.08a3.34,3.34,0,0,1-1.51,2.62c-.83.48-1.51.09-1.51-.87a3.34,3.34,0,0,1,1.51-2.62C252.88,100.73,253.56,101.12,253.56,102.08Z"/><path class="cls-4" d="M257.6,83.53h0V70.62H228.66l-10-5.78c-2.3-1.32-6.3-1.16-9,.37l-9.33,5.39-29,0V83.84a2.6,2.6,0,0,0,1.54,2.4l37.4,21.6c2.29,1.32,6.3,1.16,9-.37l36.12-20.85C256.94,85.73,257.68,84.59,257.6,83.53Z"/><path class="cls-2" d="M214.51,63.94a10.43,10.43,0,0,0-4.81,1.26l-9.33,5.39-29,0V83.84a2.6,2.6,0,0,0,1.54,2.4l37.4,21.6a8.15,8.15,0,0,0,4.16.88Z"/><path class="cls-12" d="M174.69,70.58h-3.28V83.84a2.6,2.6,0,0,0,1.54,2.4l1.74,1Z"/><path class="cls-12" d="M210.93,108.12a10.18,10.18,0,0,0,7.15-.08V93h-7.15Z"/><path class="cls-3" d="M210.35,94.61,173,73c-2.3-1.32-2-3.64.64-5.17L209.7,47c2.66-1.53,6.66-1.7,9-.37l37.4,21.59c2.29,1.33,2,3.64-.64,5.17L219.3,94.24C216.65,95.77,212.64,95.94,210.35,94.61Z"/><path class="cls-7" d="M255.42,70.85,219.3,91.7c-2.65,1.53-6.66,1.7-9,.37L173,70.48a3.5,3.5,0,0,1-1.15-1c-.78,1.26-.43,2.64,1.15,3.55l37.4,21.59c2.29,1.33,6.3,1.16,9-.37l36.12-20.85c2.06-1.19,2.68-2.85,1.78-4.15A5,5,0,0,1,255.42,70.85Z"/><path class="cls-3" d="M243.84,86.93a3.36,3.36,0,0,1-1.51,2.62c-.83.48-1.51.09-1.51-.87a3.34,3.34,0,0,1,1.51-2.62C243.16,85.58,243.84,86,243.84,86.93Z"/><path class="cls-3" d="M229,95.11a3.34,3.34,0,0,1-1.51,2.62c-.84.48-1.51.09-1.51-.87a3.32,3.32,0,0,1,1.51-2.62C228.28,93.76,229,94.15,229,95.11Z"/><path class="cls-7" d="M229,116.51a3.36,3.36,0,0,1-1.51,2.62c-.84.48-1.51.09-1.51-.87a3.32,3.32,0,0,1,1.51-2.62C228.28,115.16,229,115.55,229,116.51Z"/><path class="cls-3" d="M248.7,84.13a3.34,3.34,0,0,1-1.51,2.61c-.83.48-1.51.09-1.51-.87a3.36,3.36,0,0,1,1.51-2.62C248,82.77,248.7,83.16,248.7,84.13Z"/><path class="cls-3" d="M253.56,81.32a3.37,3.37,0,0,1-1.51,2.62c-.83.48-1.51.09-1.51-.88a3.34,3.34,0,0,1,1.51-2.61C252.88,80,253.56,80.36,253.56,81.32Z"/><path class="cls-2" d="M212.56,81.23l-17.5-10.11c-1.07-.62-.94-1.7.3-2.42L212.26,59a4.65,4.65,0,0,1,4.19-.18L234,68.88c1.07.62.94,1.7-.3,2.42l-16.9,9.75A4.65,4.65,0,0,1,212.56,81.23Z"/><path class="cls-3" d="M214.24,72.77l-2.43-1.4c-.14-.09-.13-.24.05-.34l2.33-1.35a.63.63,0,0,1,.58,0l2.43,1.4c.14.08.13.23,0,.33l-2.33,1.35A.66.66,0,0,1,214.24,72.77Z"/><path class="cls-4" d="M195.06,71.12l.05,0a2.2,2.2,0,0,1,.25-.17l16.9-9.76a4.68,4.68,0,0,1,4.19-.17L233.9,71.12c1-.71,1-1.67,0-2.24l-17.5-10.11a4.65,4.65,0,0,0-4.19.18l-16.9,9.75C194.12,69.42,194,70.5,195.06,71.12Z"/><path class="cls-3" d="M208.9,97.67c0,1-.71,1.43-1.59.92a3.52,3.52,0,0,1-1.6-2.75c0-1,.72-1.43,1.6-.92A3.5,3.5,0,0,1,208.9,97.67Z"/><path class="cls-12" d="M204,94.84c0,1-.71,1.43-1.59.92A3.52,3.52,0,0,1,200.78,93c0-1,.71-1.42,1.59-.92A3.53,3.53,0,0,1,204,94.84Z"/><path class="cls-3" d="M208.9,103.63c0,1-.71,1.43-1.59.92a3.53,3.53,0,0,1-1.6-2.76c0-1,.72-1.42,1.6-.91A3.5,3.5,0,0,1,208.9,103.63Z"/><path class="cls-3" d="M204,100.8c0,1-.71,1.43-1.59.92A3.52,3.52,0,0,1,200.78,99c0-1,.71-1.42,1.59-.92A3.53,3.53,0,0,1,204,100.8Z"/><path class="cls-3" d="M208.9,118.16c0,1-.71,1.42-1.59.92a3.54,3.54,0,0,1-1.6-2.76c0-1,.72-1.43,1.6-.92A3.52,3.52,0,0,1,208.9,118.16Z"/><path class="cls-3" d="M204,115.33c0,1-.71,1.42-1.59.91a3.5,3.5,0,0,1-1.59-2.75c0-1,.71-1.43,1.59-.92A3.52,3.52,0,0,1,204,115.33Z"/><path class="cls-12" d="M208.9,124.12c0,1-.71,1.42-1.59.92a3.54,3.54,0,0,1-1.6-2.76c0-1,.72-1.43,1.6-.92A3.52,3.52,0,0,1,208.9,124.12Z"/><path class="cls-3" d="M204,121.28c0,1-.71,1.43-1.59.92a3.5,3.5,0,0,1-1.59-2.75c0-1,.71-1.43,1.59-.92A3.51,3.51,0,0,1,204,121.28Z"/><path class="cls-3" d="M208.9,138.67c0,1-.71,1.42-1.59.92a3.54,3.54,0,0,1-1.6-2.76c0-1,.72-1.43,1.6-.92A3.52,3.52,0,0,1,208.9,138.67Z"/><path class="cls-12" d="M204,135.84c0,1-.71,1.42-1.59.91a3.5,3.5,0,0,1-1.59-2.75c0-1,.71-1.43,1.59-.92A3.52,3.52,0,0,1,204,135.84Z"/><path class="cls-3" d="M208.9,144.63c0,1-.71,1.42-1.59.92a3.54,3.54,0,0,1-1.6-2.76c0-1,.72-1.43,1.6-.92A3.52,3.52,0,0,1,208.9,144.63Z"/><path class="cls-12" d="M204,141.79c0,1-.71,1.43-1.59.92a3.5,3.5,0,0,1-1.59-2.75c0-1,.71-1.43,1.59-.92A3.5,3.5,0,0,1,204,141.79Z"/><path class="cls-12" d="M208.9,159.38c0,1-.71,1.42-1.59.92a3.54,3.54,0,0,1-1.6-2.76c0-1,.72-1.43,1.6-.92A3.52,3.52,0,0,1,208.9,159.38Z"/><path class="cls-3" d="M204,156.54c0,1-.71,1.43-1.59.92a3.5,3.5,0,0,1-1.59-2.75c0-1,.71-1.43,1.59-.92A3.51,3.51,0,0,1,204,156.54Z"/><path class="cls-3" d="M208.9,165.34c0,1-.71,1.42-1.59.91a3.51,3.51,0,0,1-1.6-2.75c0-1,.72-1.43,1.6-.92A3.52,3.52,0,0,1,208.9,165.34Z"/><path class="cls-12" d="M204,162.5c0,1-.71,1.43-1.59.92a3.5,3.5,0,0,1-1.59-2.75c0-1,.71-1.43,1.59-.92A3.5,3.5,0,0,1,204,162.5Z"/><path class="cls-12" d="M208.9,179.89c0,1-.71,1.42-1.59.91a3.51,3.51,0,0,1-1.6-2.75c0-1,.72-1.43,1.6-.92A3.52,3.52,0,0,1,208.9,179.89Z"/><path class="cls-3" d="M204,177.05c0,1-.71,1.43-1.59.92a3.5,3.5,0,0,1-1.59-2.75c0-1,.71-1.43,1.59-.92A3.5,3.5,0,0,1,204,177.05Z"/><path class="cls-12" d="M208.9,185.85c0,1-.71,1.42-1.59.91a3.51,3.51,0,0,1-1.6-2.75c0-1,.72-1.43,1.6-.92A3.52,3.52,0,0,1,208.9,185.85Z"/><path class="cls-3" d="M204,183c0,1-.71,1.43-1.59.92a3.52,3.52,0,0,1-1.59-2.76c0-1,.71-1.42,1.59-.91A3.5,3.5,0,0,1,204,183Z"/><path class="cls-3" d="M208.9,200.65c0,1-.71,1.43-1.59.92a3.53,3.53,0,0,1-1.6-2.76c0-1,.72-1.42,1.6-.92A3.53,3.53,0,0,1,208.9,200.65Z"/><path class="cls-12" d="M204,197.82c0,1-.71,1.43-1.59.92a3.52,3.52,0,0,1-1.59-2.76c0-1,.71-1.43,1.59-.92A3.52,3.52,0,0,1,204,197.82Z"/><path class="cls-3" d="M208.9,206.61c0,1-.71,1.43-1.59.92a3.53,3.53,0,0,1-1.6-2.76c0-1,.72-1.42,1.6-.92A3.52,3.52,0,0,1,208.9,206.61Z"/><path class="cls-3" d="M204,203.78c0,1-.71,1.42-1.59.92a3.53,3.53,0,0,1-1.59-2.76c0-1,.71-1.43,1.59-.92A3.52,3.52,0,0,1,204,203.78Z"/><path class="cls-1" d="M269.94,254.8l-29.87-17.24c-1.83-1.06-1.6-2.91.51-4.13l28.84-16.65a8,8,0,0,1,7.15-.3l29.87,17.25c1.83,1.05,1.6,2.9-.51,4.13l-28.84,16.65A8,8,0,0,1,269.94,254.8Z"/><path class="cls-4" d="M316.35,220.59h0v-12.9l-28.94,0-10-5.77c-2.3-1.33-6.3-1.16-9,.37l-9.33,5.39-29,0v13.27a2.61,2.61,0,0,0,1.54,2.4l37.4,21.59c2.29,1.33,6.3,1.16,8.95-.37l36.12-20.85C315.69,222.8,316.43,221.66,316.35,220.59Z"/><path class="cls-2" d="M273.26,201a10.31,10.31,0,0,0-4.81,1.26l-9.33,5.39-29,0v13.27a2.61,2.61,0,0,0,1.54,2.4l37.4,21.59a8,8,0,0,0,4.16.89Z"/><path class="cls-12" d="M233.44,207.64h-3.28v13.27a2.61,2.61,0,0,0,1.54,2.4l1.74,1Z"/><path class="cls-12" d="M269.68,245.19a10.19,10.19,0,0,0,7.15-.09V230h-7.15Z"/><path class="cls-3" d="M269.1,231.68l-37.4-21.59c-2.3-1.33-2-3.64.64-5.17l36.11-20.85c2.66-1.53,6.66-1.7,9-.37l37.4,21.59c2.29,1.32,2,3.64-.64,5.17l-36.12,20.85C275.4,232.84,271.39,233,269.1,231.68Z"/><path class="cls-12" d="M269.77,227.79,238.43,209.7c-1.92-1.11-1.68-3,.54-4.33l30.26-17.48a8.36,8.36,0,0,1,7.51-.31l31.34,18.1c1.92,1.11,1.68,3-.54,4.33l-30.26,17.47A8.33,8.33,0,0,1,269.77,227.79Z"/><path class="cls-3" d="M302.59,224a3.34,3.34,0,0,1-1.51,2.61c-.83.49-1.51.1-1.51-.87a3.34,3.34,0,0,1,1.51-2.61C301.91,222.64,302.59,223,302.59,224Z"/><path class="cls-3" d="M307.45,221.19a3.34,3.34,0,0,1-1.51,2.62c-.83.48-1.51.09-1.51-.87a3.34,3.34,0,0,1,1.51-2.62C306.77,219.84,307.45,220.23,307.45,221.19Z"/><path class="cls-3" d="M312.31,218.39A3.34,3.34,0,0,1,310.8,221c-.83.48-1.51.09-1.51-.87a3.37,3.37,0,0,1,1.51-2.62C311.63,217,312.31,217.42,312.31,218.39Z"/><path class="cls-4" d="M316.35,200h0v-12.9l-28.94,0-10-5.77c-2.3-1.33-6.3-1.16-9,.37L259.12,187l-29,0v13.27a2.61,2.61,0,0,0,1.54,2.4l37.4,21.59c2.29,1.33,6.3,1.16,8.95-.37l36.12-20.85C315.69,202.18,316.43,201,316.35,200Z"/><path class="cls-2" d="M273.26,180.39a10.31,10.31,0,0,0-4.81,1.26L259.12,187l-29,0v13.27a2.61,2.61,0,0,0,1.54,2.4l37.4,21.59a8,8,0,0,0,4.16.89Z"/><path class="cls-12" d="M233.44,187h-3.28v13.27a2.61,2.61,0,0,0,1.54,2.4l1.74,1Z"/><path class="cls-12" d="M269.68,224.56a10.13,10.13,0,0,0,7.15-.08V209.41h-7.15Z"/><path class="cls-3" d="M269.1,211.06l-37.4-21.59c-2.3-1.33-2-3.64.64-5.17l36.11-20.85c2.66-1.53,6.66-1.7,9-.37l37.4,21.59c2.29,1.32,2,3.64-.64,5.17l-36.12,20.85C275.4,212.22,271.39,212.38,269.1,211.06Z"/><path class="cls-12" d="M269.77,207.17l-31.34-18.09c-1.92-1.11-1.68-3.05.54-4.34l30.26-17.47a8.36,8.36,0,0,1,7.51-.31l31.34,18.1c1.92,1.11,1.68,3.05-.54,4.33l-30.26,17.47A8.36,8.36,0,0,1,269.77,207.17Z"/><path class="cls-3" d="M302.59,203.38a3.34,3.34,0,0,1-1.51,2.61c-.83.48-1.51.09-1.51-.87a3.37,3.37,0,0,1,1.51-2.62C301.91,202,302.59,202.41,302.59,203.38Z"/><path class="cls-3" d="M307.45,200.57a3.36,3.36,0,0,1-1.51,2.62c-.83.48-1.51.09-1.51-.87a3.34,3.34,0,0,1,1.51-2.62C306.77,199.22,307.45,199.61,307.45,200.57Z"/><path class="cls-3" d="M312.31,197.76a3.34,3.34,0,0,1-1.51,2.62c-.83.48-1.51.09-1.51-.87a3.36,3.36,0,0,1,1.51-2.62C311.63,196.41,312.31,196.8,312.31,197.76Z"/><path class="cls-4" d="M316.35,179.35h0v-12.9l-28.94,0-10-5.77c-2.3-1.33-6.3-1.16-9,.37l-9.33,5.38h-29v13.27a2.61,2.61,0,0,0,1.54,2.4l37.4,21.59c2.29,1.33,6.3,1.16,8.95-.37l36.12-20.85C315.69,181.56,316.43,180.41,316.35,179.35Z"/><path class="cls-2" d="M273.26,159.77a10.31,10.31,0,0,0-4.81,1.26l-9.33,5.38h-29v13.27a2.61,2.61,0,0,0,1.54,2.4l37.4,21.59a8,8,0,0,0,4.16.89Z"/><path class="cls-12" d="M233.44,166.4h-3.28v13.27a2.61,2.61,0,0,0,1.54,2.4l1.74,1Z"/><path class="cls-12" d="M269.68,203.94a10.18,10.18,0,0,0,7.15-.08V188.79h-7.15Z"/><path class="cls-3" d="M269.1,190.44l-37.4-21.6c-2.3-1.32-2-3.64.64-5.17l36.11-20.84c2.66-1.53,6.66-1.7,9-.38l37.4,21.6c2.29,1.32,2,3.64-.64,5.17l-36.12,20.85C275.4,191.6,271.39,191.76,269.1,190.44Z"/><path class="cls-12" d="M269.77,186.55l-31.34-18.09c-1.92-1.11-1.68-3.05.54-4.34l30.26-17.47a8.36,8.36,0,0,1,7.51-.31l31.34,18.1c1.92,1.11,1.68,3.05-.54,4.33l-30.26,17.47A8.36,8.36,0,0,1,269.77,186.55Z"/><path class="cls-3" d="M302.59,182.76a3.34,3.34,0,0,1-1.51,2.61c-.83.48-1.51.09-1.51-.87a3.36,3.36,0,0,1,1.51-2.62C301.91,181.4,302.59,181.79,302.59,182.76Z"/><path class="cls-3" d="M307.45,180a3.37,3.37,0,0,1-1.51,2.62c-.83.48-1.51.09-1.51-.88a3.34,3.34,0,0,1,1.51-2.61C306.77,178.6,307.45,179,307.45,180Z"/><path class="cls-3" d="M312.31,177.14a3.34,3.34,0,0,1-1.51,2.62c-.83.48-1.51.09-1.51-.87a3.34,3.34,0,0,1,1.51-2.62C311.63,175.79,312.31,176.18,312.31,177.14Z"/><path class="cls-4" d="M316.35,158.73h0V145.82H287.41l-10-5.78c-2.3-1.32-6.3-1.16-9,.37l-9.33,5.39h-29v13.27a2.62,2.62,0,0,0,1.54,2.4L269.1,183c2.29,1.32,6.3,1.16,8.95-.37l36.12-20.85C315.69,160.94,316.43,159.79,316.35,158.73Z"/><path class="cls-2" d="M273.26,139.15a10.42,10.42,0,0,0-4.81,1.25l-9.33,5.39h-29v13.27a2.62,2.62,0,0,0,1.54,2.4L269.1,183a8.15,8.15,0,0,0,4.16.89Z"/><path class="cls-12" d="M233.44,145.78h-3.28v13.27a2.62,2.62,0,0,0,1.54,2.4l1.74,1Z"/><path class="cls-12" d="M269.68,183.32a10.18,10.18,0,0,0,7.15-.08V168.17h-7.15Z"/><path class="cls-3" d="M269.1,169.82l-37.4-21.6c-2.3-1.32-2-3.64.64-5.17l36.11-20.85c2.66-1.53,6.66-1.69,9-.37l37.4,21.59c2.29,1.33,2,3.64-.64,5.17l-36.12,20.85C275.4,171,271.39,171.14,269.1,169.82Z"/><path class="cls-12" d="M269.77,165.93l-31.34-18.1c-1.92-1.11-1.68-3.05.54-4.33L269.23,126a8.36,8.36,0,0,1,7.51-.31l31.34,18.09c1.92,1.11,1.68,3.05-.54,4.34l-30.26,17.47A8.36,8.36,0,0,1,269.77,165.93Z"/><path class="cls-3" d="M302.59,162.13a3.34,3.34,0,0,1-1.51,2.62c-.83.48-1.51.09-1.51-.87a3.34,3.34,0,0,1,1.51-2.62C301.91,160.78,302.59,161.17,302.59,162.13Z"/><path class="cls-3" d="M307.45,159.33a3.34,3.34,0,0,1-1.51,2.61c-.83.49-1.51.1-1.51-.87a3.34,3.34,0,0,1,1.51-2.61C306.77,158,307.45,158.36,307.45,159.33Z"/><path class="cls-3" d="M312.31,156.52a3.36,3.36,0,0,1-1.51,2.62c-.83.48-1.51.09-1.51-.87a3.34,3.34,0,0,1,1.51-2.62C311.63,155.17,312.31,155.56,312.31,156.52Z"/><path class="cls-4" d="M316.35,138.11h0V125.2H287.41l-10-5.78c-2.3-1.32-6.3-1.16-9,.37l-9.33,5.39-29,0v13.28a2.6,2.6,0,0,0,1.54,2.39l37.4,21.6c2.29,1.32,6.3,1.16,8.95-.37l36.12-20.85C315.69,140.31,316.43,139.17,316.35,138.11Z"/><path class="cls-2" d="M273.26,118.52a10.43,10.43,0,0,0-4.81,1.26l-9.33,5.39-29,0v13.28a2.6,2.6,0,0,0,1.54,2.39l37.4,21.6a8.15,8.15,0,0,0,4.16.88Z"/><path class="cls-12" d="M233.44,125.16h-3.28v13.28a2.6,2.6,0,0,0,1.54,2.39l1.74,1Z"/><path class="cls-12" d="M269.68,162.7a10.18,10.18,0,0,0,7.15-.08V147.55h-7.15Z"/><path class="cls-3" d="M269.1,149.19,231.7,127.6c-2.3-1.32-2-3.64.64-5.17l36.11-20.85c2.66-1.53,6.66-1.69,9-.37l37.4,21.59c2.29,1.33,2,3.64-.64,5.17l-36.12,20.85C275.4,150.35,271.39,150.52,269.1,149.19Z"/><path class="cls-12" d="M269.77,145.31l-31.34-18.1c-1.92-1.11-1.68-3,.54-4.33l30.26-17.47a8.36,8.36,0,0,1,7.51-.31l31.34,18.09c1.92,1.11,1.68,3-.54,4.33L277.28,145A8.36,8.36,0,0,1,269.77,145.31Z"/><rect class="cls-7" x="285.04" y="146.57" width="17.32" height="0.61" transform="matrix(0.87, -0.5, 0.5, 0.87, -34.08, 166.65)"/><path class="cls-3" d="M302.59,141.51a3.34,3.34,0,0,1-1.51,2.62c-.83.48-1.51.09-1.51-.87a3.34,3.34,0,0,1,1.51-2.62C301.91,140.16,302.59,140.55,302.59,141.51Z"/><path class="cls-3" d="M307.45,138.71a3.34,3.34,0,0,1-1.51,2.61c-.83.48-1.51.09-1.51-.87a3.37,3.37,0,0,1,1.51-2.62C306.77,137.35,307.45,137.74,307.45,138.71Z"/><path class="cls-3" d="M312.31,135.9a3.37,3.37,0,0,1-1.51,2.62c-.83.48-1.51.09-1.51-.88A3.34,3.34,0,0,1,310.8,135C311.63,134.55,312.31,134.94,312.31,135.9Z"/><path class="cls-4" d="M316.35,117.34h0v-12.9l-28.94,0-10-5.77c-2.3-1.33-6.3-1.16-9,.37l-9.33,5.39-29,0v13.27a2.6,2.6,0,0,0,1.54,2.4l37.4,21.59c2.29,1.33,6.3,1.16,8.95-.37l36.12-20.85C315.69,119.55,316.43,118.41,316.35,117.34Z"/><path class="cls-2" d="M273.26,97.76A10.43,10.43,0,0,0,268.45,99l-9.33,5.39-29,0v13.27a2.6,2.6,0,0,0,1.54,2.4l37.4,21.59a8,8,0,0,0,4.16.89Z"/><path class="cls-12" d="M233.44,104.39h-3.28v13.27a2.6,2.6,0,0,0,1.54,2.4l1.74,1Z"/><path class="cls-12" d="M269.68,141.94a10.19,10.19,0,0,0,7.15-.09V126.79h-7.15Z"/><path class="cls-3" d="M269.1,128.43l-37.4-21.59c-2.3-1.33-2-3.64.64-5.17l36.11-20.85c2.66-1.53,6.66-1.7,9-.37L314.81,102c2.29,1.33,2,3.64-.64,5.17l-36.12,20.85C275.4,129.59,271.39,129.76,269.1,128.43Z"/><path class="cls-7" d="M314.17,104.67l-36.12,20.85c-2.65,1.53-6.66,1.7-8.95.37L231.7,104.3a3.52,3.52,0,0,1-1.15-1c-.78,1.27-.43,2.65,1.15,3.56l37.4,21.59c2.29,1.33,6.3,1.16,8.95-.37l36.12-20.85c2.06-1.19,2.68-2.85,1.78-4.15A5,5,0,0,1,314.17,104.67Z"/><path class="cls-3" d="M302.59,120.75a3.37,3.37,0,0,1-1.51,2.62c-.83.48-1.51.09-1.51-.88a3.34,3.34,0,0,1,1.51-2.61C301.91,119.4,302.59,119.79,302.59,120.75Z"/><path class="cls-3" d="M287.71,128.93a3.36,3.36,0,0,1-1.51,2.62c-.84.48-1.51.09-1.51-.88a3.31,3.31,0,0,1,1.51-2.61C287,127.58,287.71,128,287.71,128.93Z"/><path class="cls-7" d="M287.71,150.33A3.37,3.37,0,0,1,286.2,153c-.84.48-1.51.09-1.51-.88a3.31,3.31,0,0,1,1.51-2.61C287,149,287.71,149.37,287.71,150.33Z"/><path class="cls-3" d="M307.45,117.94a3.34,3.34,0,0,1-1.51,2.62c-.83.48-1.51.09-1.51-.87a3.34,3.34,0,0,1,1.51-2.62C306.77,116.59,307.45,117,307.45,117.94Z"/><path class="cls-3" d="M312.31,115.14a3.34,3.34,0,0,1-1.51,2.61c-.83.49-1.51.09-1.51-.87a3.37,3.37,0,0,1,1.51-2.62C311.63,113.78,312.31,114.17,312.31,115.14Z"/><path class="cls-2" d="M271.31,115l-17.5-10.1c-1.07-.62-.94-1.7.3-2.42L271,92.76a4.68,4.68,0,0,1,4.19-.17l17.5,10.1c1.07.62.94,1.71-.3,2.42l-16.9,9.76A4.64,4.64,0,0,1,271.31,115Z"/><path class="cls-3" d="M273,106.58l-2.43-1.39c-.14-.09-.13-.24.05-.34l2.33-1.35a.63.63,0,0,1,.58,0l2.43,1.4c.14.08.13.23-.05.33l-2.33,1.35A.63.63,0,0,1,273,106.58Z"/><path class="cls-4" d="M253.81,104.94l.05,0a2.2,2.2,0,0,1,.25-.17L271,95a4.64,4.64,0,0,1,4.19-.17l17.45,10.07c1-.71,1-1.67.05-2.25l-17.5-10.1a4.68,4.68,0,0,0-4.19.17l-16.9,9.76C252.87,103.24,252.74,104.32,253.81,104.94Z"/><path class="cls-3" d="M267.65,131.49c0,1-.71,1.43-1.59.92a3.53,3.53,0,0,1-1.6-2.76c0-1,.72-1.42,1.6-.92A3.53,3.53,0,0,1,267.65,131.49Z"/><path class="cls-12" d="M262.71,128.66c0,1-.71,1.43-1.59.92a3.52,3.52,0,0,1-1.59-2.76c0-1,.71-1.43,1.59-.92A3.52,3.52,0,0,1,262.71,128.66Z"/><path class="cls-3" d="M267.65,137.45c0,1-.71,1.43-1.59.92a3.53,3.53,0,0,1-1.6-2.76c0-1,.72-1.42,1.6-.92A3.53,3.53,0,0,1,267.65,137.45Z"/><path class="cls-3" d="M262.71,134.62c0,1-.71,1.42-1.59.92a3.52,3.52,0,0,1-1.59-2.76c0-1,.71-1.43,1.59-.92A3.52,3.52,0,0,1,262.71,134.62Z"/><path class="cls-3" d="M267.65,152c0,1-.71,1.42-1.59.91a3.51,3.51,0,0,1-1.6-2.75c0-1,.72-1.43,1.6-.92A3.52,3.52,0,0,1,267.65,152Z"/><path class="cls-3" d="M262.71,149.14c0,1-.71,1.43-1.59.92a3.5,3.5,0,0,1-1.59-2.75c0-1,.71-1.43,1.59-.92A3.5,3.5,0,0,1,262.71,149.14Z"/><path class="cls-12" d="M267.65,157.93c0,1-.71,1.43-1.59.92a3.51,3.51,0,0,1-1.6-2.75c0-1,.72-1.43,1.6-.92A3.51,3.51,0,0,1,267.65,157.93Z"/><path class="cls-3" d="M262.71,155.1c0,1-.71,1.43-1.59.92a3.52,3.52,0,0,1-1.59-2.76c0-1,.71-1.42,1.59-.91A3.5,3.5,0,0,1,262.71,155.1Z"/><path class="cls-3" d="M267.65,172.49c0,1-.71,1.42-1.59.91a3.51,3.51,0,0,1-1.6-2.75c0-1,.72-1.43,1.6-.92A3.52,3.52,0,0,1,267.65,172.49Z"/><path class="cls-12" d="M262.71,169.65c0,1-.71,1.43-1.59.92a3.52,3.52,0,0,1-1.59-2.76c0-1,.71-1.42,1.59-.91A3.5,3.5,0,0,1,262.71,169.65Z"/><path class="cls-3" d="M267.65,178.44c0,1-.71,1.43-1.59.92a3.51,3.51,0,0,1-1.6-2.75c0-1,.72-1.43,1.6-.92A3.5,3.5,0,0,1,267.65,178.44Z"/><path class="cls-12" d="M262.71,175.61c0,1-.71,1.43-1.59.92a3.52,3.52,0,0,1-1.59-2.76c0-1,.71-1.42,1.59-.91A3.5,3.5,0,0,1,262.71,175.61Z"/><path class="cls-12" d="M267.65,193.19c0,1-.71,1.43-1.59.92a3.51,3.51,0,0,1-1.6-2.75c0-1,.72-1.43,1.6-.92A3.51,3.51,0,0,1,267.65,193.19Z"/><path class="cls-3" d="M262.71,190.36c0,1-.71,1.43-1.59.92a3.52,3.52,0,0,1-1.59-2.76c0-1,.71-1.42,1.59-.91A3.5,3.5,0,0,1,262.71,190.36Z"/><path class="cls-3" d="M267.65,199.15c0,1-.71,1.43-1.59.92a3.51,3.51,0,0,1-1.6-2.75c0-1,.72-1.43,1.6-.92A3.5,3.5,0,0,1,267.65,199.15Z"/><path class="cls-12" d="M262.71,196.32c0,1-.71,1.43-1.59.92a3.52,3.52,0,0,1-1.59-2.76c0-1,.71-1.42,1.59-.92A3.53,3.53,0,0,1,262.71,196.32Z"/><path class="cls-12" d="M267.65,213.7c0,1-.71,1.43-1.59.92a3.51,3.51,0,0,1-1.6-2.75c0-1,.72-1.43,1.6-.92A3.5,3.5,0,0,1,267.65,213.7Z"/><path class="cls-3" d="M262.71,210.87c0,1-.71,1.43-1.59.92a3.52,3.52,0,0,1-1.59-2.76c0-1,.71-1.42,1.59-.92A3.53,3.53,0,0,1,262.71,210.87Z"/><path class="cls-12" d="M267.65,219.66c0,1-.71,1.43-1.59.92a3.53,3.53,0,0,1-1.6-2.76c0-1,.72-1.42,1.6-.91A3.5,3.5,0,0,1,267.65,219.66Z"/><path class="cls-3" d="M262.71,216.83c0,1-.71,1.43-1.59.92a3.52,3.52,0,0,1-1.59-2.76c0-1,.71-1.42,1.59-.92A3.53,3.53,0,0,1,262.71,216.83Z"/><path class="cls-3" d="M267.65,234.47c0,1-.71,1.43-1.59.92a3.53,3.53,0,0,1-1.6-2.76c0-1,.72-1.43,1.6-.92A3.52,3.52,0,0,1,267.65,234.47Z"/><path class="cls-12" d="M262.71,231.64c0,1-.71,1.42-1.59.92a3.53,3.53,0,0,1-1.59-2.76c0-1,.71-1.43,1.59-.92A3.52,3.52,0,0,1,262.71,231.64Z"/><path class="cls-3" d="M267.65,240.43c0,1-.71,1.42-1.59.92a3.54,3.54,0,0,1-1.6-2.76c0-1,.72-1.43,1.6-.92A3.52,3.52,0,0,1,267.65,240.43Z"/><path class="cls-3" d="M262.71,237.6c0,1-.71,1.42-1.59.91a3.5,3.5,0,0,1-1.59-2.75c0-1,.71-1.43,1.59-.92A3.52,3.52,0,0,1,262.71,237.6Z"/><path class="cls-1" d="M152.43,254.9l-29.87-17.25c-1.83-1.06-1.6-2.9.52-4.13l28.84-16.65a7.94,7.94,0,0,1,7.15-.29l29.86,17.24c1.84,1.06,1.61,2.91-.51,4.13L159.58,254.6A8,8,0,0,1,152.43,254.9Z"/><path class="cls-4" d="M198.84,220.69h0V207.78H169.91l-10-5.78c-2.29-1.32-6.3-1.16-9,.37l-9.33,5.39-29,0V221a2.59,2.59,0,0,0,1.54,2.4L151.59,245c2.3,1.32,6.31,1.16,9-.37l36.11-20.85C198.19,222.89,198.93,221.75,198.84,220.69Z"/><path class="cls-2" d="M155.75,201.1a10.51,10.51,0,0,0-4.8,1.26l-9.33,5.39-29,0V221a2.59,2.59,0,0,0,1.54,2.4L151.59,245a8.3,8.3,0,0,0,4.16.89Z"/><path class="cls-12" d="M115.93,207.74h-3.27V221a2.59,2.59,0,0,0,1.54,2.4l1.73,1Z"/><path class="cls-12" d="M152.17,245.28a10.21,10.21,0,0,0,7.16-.08V230.13h-7.16Z"/><path class="cls-3" d="M151.59,231.77,114.2,210.18c-2.3-1.32-2-3.64.64-5.17L151,184.16c2.65-1.53,6.66-1.69,9-.37l37.4,21.59c2.3,1.33,2,3.64-.64,5.17L160.55,231.4C157.9,232.93,153.89,233.1,151.59,231.77Z"/><path class="cls-12" d="M152.27,227.89l-31.34-18.1c-1.93-1.11-1.69-3,.54-4.33L151.73,188c2.22-1.28,5.58-1.42,7.5-.31l31.34,18.09c1.93,1.11,1.68,3-.54,4.33l-30.26,17.48C157.55,228.86,154.19,229,152.27,227.89Z"/><path class="cls-3" d="M185.09,224.09a3.34,3.34,0,0,1-1.51,2.62c-.84.48-1.52.09-1.52-.87a3.33,3.33,0,0,1,1.52-2.62C184.41,222.74,185.09,223.13,185.09,224.09Z"/><path class="cls-3" d="M190,221.29a3.34,3.34,0,0,1-1.51,2.61c-.84.48-1.52.09-1.52-.87a3.36,3.36,0,0,1,1.52-2.62C189.27,219.93,190,220.32,190,221.29Z"/><path class="cls-3" d="M194.81,218.48a3.37,3.37,0,0,1-1.51,2.62c-.84.48-1.52.09-1.52-.88a3.32,3.32,0,0,1,1.52-2.61C194.13,217.13,194.81,217.52,194.81,218.48Z"/><path class="cls-4" d="M198.84,200.07h0V187.16l-28.93,0-10-5.77c-2.29-1.32-6.3-1.16-9,.37l-9.33,5.39-29,0v13.27a2.57,2.57,0,0,0,1.54,2.4l37.39,21.6c2.3,1.32,6.31,1.15,9-.38l36.11-20.84C198.19,202.27,198.93,201.13,198.84,200.07Z"/><path class="cls-2" d="M155.75,180.48a10.39,10.39,0,0,0-4.8,1.26l-9.33,5.39-29,0v13.27a2.57,2.57,0,0,0,1.54,2.4l37.39,21.6a8.19,8.19,0,0,0,4.16.88Z"/><path class="cls-12" d="M115.93,187.11h-3.27v13.27a2.57,2.57,0,0,0,1.54,2.4l1.73,1Z"/><path class="cls-12" d="M152.17,224.66a10.21,10.21,0,0,0,7.16-.08V209.51h-7.16Z"/><path class="cls-3" d="M151.59,211.15,114.2,189.56c-2.3-1.33-2-3.64.64-5.17L151,163.54c2.65-1.53,6.66-1.7,9-.37l37.4,21.59c2.3,1.33,2,3.64-.64,5.17l-36.11,20.85C157.9,212.31,153.89,212.48,151.59,211.15Z"/><path class="cls-12" d="M152.27,207.27l-31.34-18.1c-1.93-1.11-1.69-3,.54-4.33l30.26-17.47a8.31,8.31,0,0,1,7.5-.31l31.34,18.09c1.93,1.11,1.68,3-.54,4.33L159.77,207C157.55,208.24,154.19,208.38,152.27,207.27Z"/><path class="cls-3" d="M185.09,203.47a3.36,3.36,0,0,1-1.51,2.62c-.84.48-1.52.09-1.52-.88a3.32,3.32,0,0,1,1.52-2.61C184.41,202.12,185.09,202.51,185.09,203.47Z"/><path class="cls-3" d="M190,200.66a3.34,3.34,0,0,1-1.51,2.62c-.84.48-1.52.09-1.52-.87a3.34,3.34,0,0,1,1.52-2.62C189.27,199.31,190,199.7,190,200.66Z"/><path class="cls-3" d="M194.81,197.86a3.34,3.34,0,0,1-1.51,2.61c-.84.49-1.52.1-1.52-.87A3.32,3.32,0,0,1,193.3,197C194.13,196.5,194.81,196.9,194.81,197.86Z"/><path class="cls-4" d="M198.84,179.44h0v-12.9l-28.93,0-10-5.77c-2.29-1.33-6.3-1.16-9,.37l-9.33,5.39-29,0v13.27a2.57,2.57,0,0,0,1.54,2.4l37.39,21.59c2.3,1.33,6.31,1.16,9-.37l36.11-20.85C198.19,181.65,198.93,180.51,198.84,179.44Z"/><path class="cls-2" d="M155.75,159.86a10.27,10.27,0,0,0-4.8,1.26l-9.33,5.39-29,0v13.27a2.57,2.57,0,0,0,1.54,2.4l37.39,21.59a8.09,8.09,0,0,0,4.16.89Z"/><path class="cls-12" d="M115.93,166.49h-3.27v13.27a2.57,2.57,0,0,0,1.54,2.4l1.73,1Z"/><path class="cls-12" d="M152.17,204a10.21,10.21,0,0,0,7.16-.09V188.89h-7.16Z"/><path class="cls-3" d="M151.59,190.53,114.2,168.94c-2.3-1.33-2-3.64.64-5.17L151,142.92c2.65-1.53,6.66-1.7,9-.37l37.4,21.59c2.3,1.33,2,3.64-.64,5.17l-36.11,20.85C157.9,191.69,153.89,191.86,151.59,190.53Z"/><path class="cls-12" d="M152.27,186.64l-31.34-18.09c-1.93-1.11-1.69-3.05.54-4.33l30.26-17.47c2.22-1.29,5.58-1.43,7.5-.32l31.34,18.1c1.93,1.11,1.68,3.05-.54,4.33l-30.26,17.47A8.31,8.31,0,0,1,152.27,186.64Z"/><path class="cls-3" d="M185.09,182.85a3.37,3.37,0,0,1-1.51,2.62c-.84.48-1.52.09-1.52-.88a3.32,3.32,0,0,1,1.52-2.61C184.41,181.5,185.09,181.89,185.09,182.85Z"/><path class="cls-3" d="M190,180a3.34,3.34,0,0,1-1.51,2.62c-.84.48-1.52.09-1.52-.87a3.33,3.33,0,0,1,1.52-2.62C189.27,178.69,190,179.08,190,180Z"/><path class="cls-3" d="M194.81,177.24a3.34,3.34,0,0,1-1.51,2.61c-.84.48-1.52.09-1.52-.87a3.36,3.36,0,0,1,1.52-2.62C194.13,175.88,194.81,176.27,194.81,177.24Z"/><path class="cls-4" d="M198.84,158.82h0v-12.9l-28.93,0-10-5.77c-2.29-1.33-6.3-1.16-9,.37l-9.33,5.39-29,0v13.27a2.58,2.58,0,0,0,1.54,2.4l37.39,21.59c2.3,1.33,6.31,1.16,9-.37l36.11-20.85C198.19,161,198.93,159.89,198.84,158.82Z"/><path class="cls-2" d="M155.75,139.24a10.27,10.27,0,0,0-4.8,1.26l-9.33,5.39-29,0v13.27a2.58,2.58,0,0,0,1.54,2.4l37.39,21.59a8.09,8.09,0,0,0,4.16.89Z"/><path class="cls-12" d="M115.93,145.87h-3.27v13.27a2.58,2.58,0,0,0,1.54,2.4l1.73,1Z"/><path class="cls-12" d="M152.17,183.41a10.16,10.16,0,0,0,7.16-.08V168.26h-7.16Z"/><path class="cls-3" d="M151.59,169.91,114.2,148.32c-2.3-1.33-2-3.64.64-5.17L151,122.3c2.65-1.53,6.66-1.7,9-.37l37.4,21.59c2.3,1.32,2,3.64-.64,5.17l-36.11,20.85C157.9,171.07,153.89,171.23,151.59,169.91Z"/><path class="cls-12" d="M152.27,166l-31.34-18.09c-1.93-1.11-1.69-3.05.54-4.33l30.26-17.48c2.22-1.28,5.58-1.42,7.5-.31l31.34,18.1c1.93,1.11,1.68,3.05-.54,4.33l-30.26,17.47C157.55,167,154.19,167.13,152.27,166Z"/><path class="cls-3" d="M185.09,162.23a3.34,3.34,0,0,1-1.51,2.61c-.84.49-1.52.09-1.52-.87a3.32,3.32,0,0,1,1.52-2.61C184.41,160.87,185.09,161.26,185.09,162.23Z"/><path class="cls-3" d="M190,159.42a3.36,3.36,0,0,1-1.51,2.62c-.84.48-1.52.09-1.52-.87a3.33,3.33,0,0,1,1.52-2.62C189.27,158.07,190,158.46,190,159.42Z"/><path class="cls-3" d="M194.81,156.62a3.34,3.34,0,0,1-1.51,2.61c-.84.48-1.52.09-1.52-.87a3.34,3.34,0,0,1,1.52-2.62C194.13,155.26,194.81,155.65,194.81,156.62Z"/><path class="cls-4" d="M198.84,138.2h0V125.3l-28.93,0-10-5.77c-2.29-1.33-6.3-1.16-9,.37l-9.33,5.38h-29v13.27a2.58,2.58,0,0,0,1.54,2.4l37.39,21.59c2.3,1.33,6.31,1.16,9-.37l36.11-20.85C198.19,140.41,198.93,139.26,198.84,138.2Z"/><path class="cls-2" d="M155.75,118.62a10.27,10.27,0,0,0-4.8,1.26l-9.33,5.38h-29v13.27a2.58,2.58,0,0,0,1.54,2.4l37.39,21.59a8.09,8.09,0,0,0,4.16.89Z"/><path class="cls-12" d="M115.93,125.25h-3.27v13.27a2.58,2.58,0,0,0,1.54,2.4l1.73,1Z"/><path class="cls-12" d="M152.17,162.79a10.21,10.21,0,0,0,7.16-.08V147.64h-7.16Z"/><path class="cls-3" d="M151.59,149.29,114.2,127.7c-2.3-1.33-2-3.64.64-5.18L151,101.68c2.65-1.53,6.66-1.7,9-.38l37.4,21.6c2.3,1.32,2,3.64-.64,5.17l-36.11,20.85C157.9,150.45,153.89,150.61,151.59,149.29Z"/><path class="cls-12" d="M152.27,145.4l-31.34-18.09c-1.93-1.11-1.69-3,.54-4.34l30.26-17.47c2.22-1.28,5.58-1.42,7.5-.31l31.34,18.1c1.93,1.11,1.68,3-.54,4.33l-30.26,17.47C157.55,146.37,154.19,146.51,152.27,145.4Z"/><rect class="cls-7" x="167.53" y="146.66" width="17.32" height="0.61" transform="translate(-49.89 107.85) rotate(-30.02)"/><path class="cls-3" d="M185.09,141.61a3.34,3.34,0,0,1-1.51,2.61c-.84.48-1.52.09-1.52-.87a3.36,3.36,0,0,1,1.52-2.62C184.41,140.25,185.09,140.64,185.09,141.61Z"/><path class="cls-3" d="M190,138.8a3.37,3.37,0,0,1-1.51,2.62c-.84.48-1.52.09-1.52-.88a3.32,3.32,0,0,1,1.52-2.61C189.27,137.45,190,137.84,190,138.8Z"/><path class="cls-3" d="M194.81,136a3.34,3.34,0,0,1-1.51,2.62c-.84.48-1.52.09-1.52-.87a3.33,3.33,0,0,1,1.52-2.62C194.13,134.64,194.81,135,194.81,136Z"/><path class="cls-4" d="M198.84,117.44h0V104.53H169.91l-10-5.78c-2.29-1.32-6.3-1.16-9,.37l-9.33,5.39h-29v13.27a2.59,2.59,0,0,0,1.54,2.4l37.39,21.59c2.3,1.32,6.31,1.16,9-.37l36.11-20.85C198.19,119.64,198.93,118.5,198.84,117.44Z"/><path class="cls-2" d="M155.75,97.85a10.51,10.51,0,0,0-4.8,1.26l-9.33,5.39h-29v13.27a2.59,2.59,0,0,0,1.54,2.4l37.39,21.59a8.3,8.3,0,0,0,4.16.89Z"/><path class="cls-12" d="M115.93,104.49h-3.27v13.27a2.59,2.59,0,0,0,1.54,2.4l1.73,1Z"/><path class="cls-12" d="M152.17,142a10.21,10.21,0,0,0,7.16-.08V126.88h-7.16Z"/><path class="cls-3" d="M151.59,128.52,114.2,106.93c-2.3-1.32-2-3.64.64-5.17L151,80.91c2.65-1.53,6.66-1.69,9-.37l37.4,21.59c2.3,1.33,2,3.64-.64,5.17l-36.11,20.85C157.9,129.68,153.89,129.85,151.59,128.52Z"/><path class="cls-7" d="M196.66,104.76l-36.11,20.85c-2.65,1.53-6.66,1.7-9,.38l-37.39-21.6a3.4,3.4,0,0,1-1.15-1c-.79,1.27-.43,2.64,1.15,3.55l37.39,21.59c2.3,1.33,6.31,1.16,9-.37l36.11-20.85c2.06-1.18,2.69-2.85,1.79-4.15A4.92,4.92,0,0,1,196.66,104.76Z"/><path class="cls-3" d="M185.09,120.84a3.34,3.34,0,0,1-1.51,2.62c-.84.48-1.52.09-1.52-.87a3.33,3.33,0,0,1,1.52-2.62C184.41,119.49,185.09,119.88,185.09,120.84Z"/><path class="cls-3" d="M170.2,129a3.32,3.32,0,0,1-1.51,2.62c-.83.48-1.51.09-1.51-.87a3.36,3.36,0,0,1,1.51-2.62C169.53,127.67,170.2,128.06,170.2,129Z"/><path class="cls-7" d="M170.2,150.42a3.32,3.32,0,0,1-1.51,2.62c-.83.48-1.51.09-1.51-.87a3.34,3.34,0,0,1,1.51-2.62C169.53,149.07,170.2,149.46,170.2,150.42Z"/><path class="cls-3" d="M190,118a3.34,3.34,0,0,1-1.51,2.61c-.84.48-1.52.09-1.52-.87a3.36,3.36,0,0,1,1.52-2.62C189.27,116.68,190,117.07,190,118Z"/><path class="cls-3" d="M194.81,115.23a3.36,3.36,0,0,1-1.51,2.62c-.84.48-1.52.09-1.52-.87a3.33,3.33,0,0,1,1.52-2.62C194.13,113.88,194.81,114.27,194.81,115.23Z"/><path class="cls-2" d="M153.81,115.14,136.3,105c-1.07-.62-.93-1.7.31-2.42l16.89-9.75a4.65,4.65,0,0,1,4.19-.18l17.51,10.11c1.07.62.93,1.7-.31,2.42L158,115A4.65,4.65,0,0,1,153.81,115.14Z"/><path class="cls-3" d="M155.48,106.68l-2.42-1.4c-.15-.09-.13-.24,0-.34l2.34-1.34a.66.66,0,0,1,.58,0l2.42,1.4c.15.08.13.23,0,.33l-2.34,1.35A.66.66,0,0,1,155.48,106.68Z"/><path class="cls-4" d="M136.3,105l0,0a2.33,2.33,0,0,1,.26-.17l16.89-9.76a4.68,4.68,0,0,1,4.19-.17L175.15,105c1-.7,1-1.67,0-2.24L157.69,92.68a4.65,4.65,0,0,0-4.19.18l-16.89,9.75C135.37,103.33,135.23,104.41,136.3,105Z"/><path class="cls-3" d="M150.14,131.58c0,1-.71,1.43-1.59.92a3.5,3.5,0,0,1-1.59-2.75c0-1,.71-1.43,1.59-.92A3.51,3.51,0,0,1,150.14,131.58Z"/><path class="cls-12" d="M145.2,128.75c0,1-.71,1.43-1.59.92a3.52,3.52,0,0,1-1.59-2.76c0-1,.71-1.42,1.59-.91A3.5,3.5,0,0,1,145.2,128.75Z"/><path class="cls-3" d="M150.14,137.54c0,1-.71,1.43-1.59.92a3.5,3.5,0,0,1-1.59-2.75c0-1,.71-1.43,1.59-.92A3.5,3.5,0,0,1,150.14,137.54Z"/><path class="cls-3" d="M145.2,134.71c0,1-.71,1.43-1.59.92a3.52,3.52,0,0,1-1.59-2.76c0-1,.71-1.42,1.59-.92A3.53,3.53,0,0,1,145.2,134.71Z"/><path class="cls-3" d="M150.14,152.07c0,1-.71,1.43-1.59.92a3.52,3.52,0,0,1-1.59-2.76c0-1,.71-1.42,1.59-.92A3.52,3.52,0,0,1,150.14,152.07Z"/><path class="cls-9" d="M145.2,149.24c0,1-.71,1.42-1.59.92A3.53,3.53,0,0,1,142,147.4c0-1,.71-1.43,1.59-.92A3.52,3.52,0,0,1,145.2,149.24Z"/><path class="cls-12" d="M150.14,158c0,1-.71,1.43-1.59.92a3.52,3.52,0,0,1-1.59-2.76c0-1,.71-1.43,1.59-.92A3.52,3.52,0,0,1,150.14,158Z"/><path class="cls-3" d="M145.2,155.2c0,1-.71,1.42-1.59.92a3.53,3.53,0,0,1-1.59-2.76c0-1,.71-1.43,1.59-.92A3.52,3.52,0,0,1,145.2,155.2Z"/><path class="cls-3" d="M150.14,172.58c0,1-.71,1.43-1.59.92a3.52,3.52,0,0,1-1.59-2.76c0-1,.71-1.43,1.59-.92A3.52,3.52,0,0,1,150.14,172.58Z"/><path class="cls-12" d="M145.2,169.75c0,1-.71,1.42-1.59.92a3.53,3.53,0,0,1-1.59-2.76c0-1,.71-1.43,1.59-.92A3.52,3.52,0,0,1,145.2,169.75Z"/><path class="cls-9" d="M150.14,178.54c0,1-.71,1.42-1.59.92A3.52,3.52,0,0,1,147,176.7c0-1,.71-1.43,1.59-.92A3.52,3.52,0,0,1,150.14,178.54Z"/><path class="cls-12" d="M145.2,175.71c0,1-.71,1.42-1.59.91a3.5,3.5,0,0,1-1.59-2.75c0-1,.71-1.43,1.59-.92A3.52,3.52,0,0,1,145.2,175.71Z"/><path class="cls-12" d="M150.14,193.29c0,1-.71,1.42-1.59.92a3.52,3.52,0,0,1-1.59-2.76c0-1,.71-1.43,1.59-.92A3.52,3.52,0,0,1,150.14,193.29Z"/><path class="cls-3" d="M145.2,190.46c0,1-.71,1.42-1.59.92a3.53,3.53,0,0,1-1.59-2.76c0-1,.71-1.43,1.59-.92A3.52,3.52,0,0,1,145.2,190.46Z"/><path class="cls-3" d="M150.14,199.25c0,1-.71,1.42-1.59.92a3.53,3.53,0,0,1-1.59-2.76c0-1,.71-1.43,1.59-.92A3.52,3.52,0,0,1,150.14,199.25Z"/><path class="cls-12" d="M145.2,196.42c0,1-.71,1.42-1.59.91a3.5,3.5,0,0,1-1.59-2.75c0-1,.71-1.43,1.59-.92A3.52,3.52,0,0,1,145.2,196.42Z"/><path class="cls-9" d="M150.14,213.8c0,1-.71,1.42-1.59.92A3.53,3.53,0,0,1,147,212c0-1,.71-1.43,1.59-.92A3.52,3.52,0,0,1,150.14,213.8Z"/><path class="cls-9" d="M145.2,211c0,1-.71,1.42-1.59.91a3.5,3.5,0,0,1-1.59-2.75c0-1,.71-1.43,1.59-.92A3.52,3.52,0,0,1,145.2,211Z"/><path class="cls-9" d="M150.14,219.76c0,1-.71,1.42-1.59.92a3.53,3.53,0,0,1-1.59-2.76c0-1,.71-1.43,1.59-.92A3.52,3.52,0,0,1,150.14,219.76Z"/><path class="cls-3" d="M145.2,216.92c0,1-.71,1.43-1.59.92a3.5,3.5,0,0,1-1.59-2.75c0-1,.71-1.43,1.59-.92A3.51,3.51,0,0,1,145.2,216.92Z"/><path class="cls-3" d="M150.14,234.56c0,1-.71,1.43-1.59.92a3.52,3.52,0,0,1-1.59-2.76c0-1,.71-1.42,1.59-.91A3.5,3.5,0,0,1,150.14,234.56Z"/><path class="cls-12" d="M145.2,231.73c0,1-.71,1.43-1.59.92a3.52,3.52,0,0,1-1.59-2.76c0-1,.71-1.42,1.59-.92A3.53,3.53,0,0,1,145.2,231.73Z"/><path class="cls-3" d="M150.14,240.52c0,1-.71,1.43-1.59.92a3.52,3.52,0,0,1-1.59-2.76c0-1,.71-1.42,1.59-.92A3.53,3.53,0,0,1,150.14,240.52Z"/><path class="cls-3" d="M145.2,237.69c0,1-.71,1.43-1.59.92a3.52,3.52,0,0,1-1.59-2.76c0-1,.71-1.43,1.59-.92A3.52,3.52,0,0,1,145.2,237.69Z"/><path class="cls-12" d="M287.22,275.89a.73.73,0,0,1-.4-.11l-41.54-24.6a.77.77,0,1,1,.79-1.33l41.54,24.6a.77.77,0,0,1,.27,1.06A.75.75,0,0,1,287.22,275.89Z"/><path class="cls-1" d="M211.18,288.71l-29.87-17.24c-1.83-1.06-1.6-2.91.52-4.13l28.84-16.65a7.94,7.94,0,0,1,7.15-.29l29.86,17.24c1.84,1.06,1.61,2.91-.51,4.13l-28.84,16.65A7.94,7.94,0,0,1,211.18,288.71Z"/><path class="cls-4" d="M257.59,254.5h0V241.6l-28.93,0-10-5.77c-2.29-1.33-6.3-1.16-9,.37l-9.33,5.39-29,0v13.27a2.57,2.57,0,0,0,1.54,2.4l37.39,21.6c2.3,1.32,6.31,1.15,9-.38l36.11-20.85C256.94,256.71,257.68,255.57,257.59,254.5Z"/><path class="cls-2" d="M214.5,234.92a10.39,10.39,0,0,0-4.8,1.26l-9.33,5.39-29,0v13.27a2.57,2.57,0,0,0,1.54,2.4l37.39,21.6a8.19,8.19,0,0,0,4.16.88Z"/><path class="cls-12" d="M174.68,241.55h-3.27v13.27a2.57,2.57,0,0,0,1.54,2.4l1.73,1Z"/><path class="cls-12" d="M210.92,279.1a10.21,10.21,0,0,0,7.16-.08V264h-7.16Z"/><path class="cls-3" d="M210.34,265.59,173,244c-2.3-1.33-2-3.64.64-5.17L209.7,218c2.65-1.53,6.66-1.7,9-.37l37.4,21.59c2.3,1.33,2,3.64-.64,5.17L219.3,265.22C216.65,266.75,212.64,266.92,210.34,265.59Z"/><path class="cls-12" d="M211,261.71l-31.34-18.1c-1.93-1.11-1.69-3.05.54-4.33l30.26-17.47c2.22-1.29,5.58-1.43,7.5-.31l31.34,18.09c1.93,1.11,1.68,3-.54,4.33l-30.26,17.47C216.3,262.68,212.94,262.82,211,261.71Z"/><path class="cls-3" d="M243.84,257.91a3.37,3.37,0,0,1-1.51,2.62c-.84.48-1.52.09-1.52-.88a3.32,3.32,0,0,1,1.52-2.61C243.16,256.56,243.84,257,243.84,257.91Z"/><path class="cls-3" d="M248.7,255.1a3.34,3.34,0,0,1-1.51,2.62c-.84.48-1.52.09-1.52-.87a3.33,3.33,0,0,1,1.52-2.62C248,253.75,248.7,254.14,248.7,255.1Z"/><path class="cls-3" d="M253.56,252.3a3.34,3.34,0,0,1-1.51,2.61c-.84.49-1.52.1-1.52-.87a3.32,3.32,0,0,1,1.52-2.61C252.88,250.94,253.56,251.33,253.56,252.3Z"/><path class="cls-4" d="M257.59,233.88h0V221l-28.93,0-10-5.77c-2.29-1.33-6.3-1.16-9,.37L200.37,221l-29,0V234.2a2.58,2.58,0,0,0,1.54,2.4l37.39,21.59c2.3,1.33,6.31,1.16,9-.37L255.41,237C256.94,236.09,257.68,235,257.59,233.88Z"/><path class="cls-2" d="M214.5,214.3a10.27,10.27,0,0,0-4.8,1.26L200.37,221l-29,0V234.2a2.58,2.58,0,0,0,1.54,2.4l37.39,21.59a8.09,8.09,0,0,0,4.16.89Z"/><path class="cls-12" d="M174.68,220.93h-3.27V234.2a2.58,2.58,0,0,0,1.54,2.4l1.73,1Z"/><path class="cls-12" d="M210.92,258.48a10.21,10.21,0,0,0,7.16-.09V243.33h-7.16Z"/><path class="cls-3" d="M210.34,245,173,223.38c-2.3-1.33-2-3.64.64-5.17l36.11-20.85c2.65-1.53,6.66-1.7,9-.37l37.4,21.59c2.3,1.32,2,3.64-.64,5.17L219.3,244.6C216.65,246.13,212.64,246.3,210.34,245Z"/><path class="cls-12" d="M211,241.08,179.68,223c-1.93-1.11-1.69-3.05.54-4.33l30.26-17.48c2.22-1.28,5.58-1.42,7.5-.31L249.32,219c1.93,1.11,1.68,3.05-.54,4.33l-30.26,17.47A8.31,8.31,0,0,1,211,241.08Z"/><path class="cls-3" d="M243.84,237.29a3.34,3.34,0,0,1-1.51,2.61c-.84.49-1.52.1-1.52-.87a3.32,3.32,0,0,1,1.52-2.61C243.16,235.93,243.84,236.33,243.84,237.29Z"/><path class="cls-3" d="M248.7,234.48a3.34,3.34,0,0,1-1.51,2.62c-.84.48-1.52.09-1.52-.87a3.33,3.33,0,0,1,1.52-2.62C248,233.13,248.7,233.52,248.7,234.48Z"/><path class="cls-3" d="M253.56,231.68a3.34,3.34,0,0,1-1.51,2.61c-.84.48-1.52.09-1.52-.87a3.36,3.36,0,0,1,1.52-2.62C252.88,230.32,253.56,230.71,253.56,231.68Z"/><path class="cls-4" d="M257.59,213.26h0v-12.9l-28.93,0-10-5.77c-2.29-1.33-6.3-1.16-9,.37l-9.33,5.39-29,0v13.27A2.58,2.58,0,0,0,173,216l37.39,21.59c2.3,1.33,6.31,1.16,9-.37l36.11-20.85C256.94,215.47,257.68,214.33,257.59,213.26Z"/><path class="cls-2" d="M214.5,193.68a10.27,10.27,0,0,0-4.8,1.26l-9.33,5.39-29,0v13.27A2.58,2.58,0,0,0,173,216l37.39,21.59a8.09,8.09,0,0,0,4.16.89Z"/><path class="cls-12" d="M174.68,200.31h-3.27v13.27A2.58,2.58,0,0,0,173,216l1.73,1Z"/><path class="cls-12" d="M210.92,237.85a10.16,10.16,0,0,0,7.16-.08V222.7h-7.16Z"/><path class="cls-3" d="M210.34,224.35,173,202.76c-2.3-1.33-2-3.64.64-5.17l36.11-20.85c2.65-1.53,6.66-1.7,9-.37L256.05,198c2.3,1.32,2,3.64-.64,5.17L219.3,224C216.65,225.51,212.64,225.67,210.34,224.35Z"/><path class="cls-12" d="M211,220.46l-31.34-18.09c-1.93-1.11-1.69-3.05.54-4.34l30.26-17.47c2.22-1.28,5.58-1.42,7.5-.31l31.34,18.1c1.93,1.11,1.68,3.05-.54,4.33l-30.26,17.47C216.3,221.43,212.94,221.57,211,220.46Z"/><path class="cls-3" d="M243.84,216.67a3.34,3.34,0,0,1-1.51,2.61c-.84.48-1.52.09-1.52-.87a3.36,3.36,0,0,1,1.52-2.62C243.16,215.31,243.84,215.7,243.84,216.67Z"/><path class="cls-3" d="M248.7,213.86a3.36,3.36,0,0,1-1.51,2.62c-.84.48-1.52.09-1.52-.87a3.33,3.33,0,0,1,1.52-2.62C248,212.51,248.7,212.9,248.7,213.86Z"/><path class="cls-3" d="M253.56,211.05a3.34,3.34,0,0,1-1.51,2.62c-.84.48-1.52.09-1.52-.87a3.34,3.34,0,0,1,1.52-2.62C252.88,209.7,253.56,210.09,253.56,211.05Z"/><path class="cls-4" d="M257.59,192.64h0v-12.9l-28.93,0-10-5.77c-2.29-1.33-6.3-1.16-9,.37l-9.33,5.38h-29V193a2.58,2.58,0,0,0,1.54,2.4L210.34,217c2.3,1.33,6.31,1.16,9-.37l36.11-20.85C256.94,194.85,257.68,193.7,257.59,192.64Z"/><path class="cls-2" d="M214.5,173.06a10.27,10.27,0,0,0-4.8,1.26l-9.33,5.38h-29V193a2.58,2.58,0,0,0,1.54,2.4L210.34,217a8.09,8.09,0,0,0,4.16.89Z"/><path class="cls-12" d="M174.68,179.69h-3.27V193a2.58,2.58,0,0,0,1.54,2.4l1.73,1Z"/><path class="cls-12" d="M210.92,217.23a10.21,10.21,0,0,0,7.16-.08V202.08h-7.16Z"/><path class="cls-3" d="M210.34,203.73,173,182.13c-2.3-1.32-2-3.64.64-5.17l36.11-20.84c2.65-1.53,6.66-1.7,9-.38l37.4,21.6c2.3,1.32,2,3.64-.64,5.17L219.3,203.36C216.65,204.89,212.64,205.05,210.34,203.73Z"/><path class="cls-12" d="M211,199.84l-31.34-18.09c-1.93-1.11-1.69-3.05.54-4.34l30.26-17.47c2.22-1.28,5.58-1.42,7.5-.31l31.34,18.1c1.93,1.11,1.68,3.05-.54,4.33l-30.26,17.47C216.3,200.81,212.94,201,211,199.84Z"/><path class="cls-3" d="M243.84,196.05a3.34,3.34,0,0,1-1.51,2.61c-.84.48-1.52.09-1.52-.87a3.34,3.34,0,0,1,1.52-2.62C243.16,194.69,243.84,195.08,243.84,196.05Z"/><path class="cls-3" d="M248.7,193.24a3.37,3.37,0,0,1-1.51,2.62c-.84.48-1.52.09-1.52-.88a3.32,3.32,0,0,1,1.52-2.61C248,191.89,248.7,192.28,248.7,193.24Z"/><path class="cls-3" d="M253.56,190.43a3.34,3.34,0,0,1-1.51,2.62c-.84.48-1.52.09-1.52-.87a3.33,3.33,0,0,1,1.52-2.62C252.88,189.08,253.56,189.47,253.56,190.43Z"/><path class="cls-4" d="M257.59,172h0V159.11H228.66l-10-5.78c-2.29-1.32-6.3-1.16-9,.37l-9.33,5.39h-29v13.27a2.59,2.59,0,0,0,1.54,2.4l37.39,21.59c2.3,1.32,6.31,1.16,9-.37l36.11-20.85C256.94,174.23,257.68,173.08,257.59,172Z"/><path class="cls-2" d="M214.5,152.44a10.38,10.38,0,0,0-4.8,1.25l-9.33,5.39h-29v13.27a2.59,2.59,0,0,0,1.54,2.4l37.39,21.59a8.19,8.19,0,0,0,4.16.89Z"/><path class="cls-12" d="M174.68,159.07h-3.27v13.27a2.59,2.59,0,0,0,1.54,2.4l1.73,1Z"/><path class="cls-12" d="M210.92,196.61a10.21,10.21,0,0,0,7.16-.08V181.46h-7.16Z"/><path class="cls-3" d="M210.34,183.11,173,161.51c-2.3-1.32-2-3.64.64-5.17l36.11-20.85c2.65-1.53,6.66-1.69,9-.37l37.4,21.59c2.3,1.33,2,3.64-.64,5.17L219.3,182.73C216.65,184.26,212.64,184.43,210.34,183.11Z"/><path class="cls-12" d="M211,179.22l-31.34-18.1c-1.93-1.11-1.69-3.05.54-4.33l30.26-17.47c2.22-1.28,5.58-1.42,7.5-.31l31.34,18.09c1.93,1.11,1.68,3.05-.54,4.34l-30.26,17.47C216.3,180.19,212.94,180.33,211,179.22Z"/><rect class="cls-7" x="226.28" y="180.48" width="17.32" height="0.61" transform="translate(-58.93 141.78) rotate(-30.02)"/><path class="cls-3" d="M243.84,175.42a3.34,3.34,0,0,1-1.51,2.62c-.84.48-1.52.09-1.52-.87a3.33,3.33,0,0,1,1.52-2.62C243.16,174.07,243.84,174.46,243.84,175.42Z"/><path class="cls-3" d="M248.7,172.62a3.34,3.34,0,0,1-1.51,2.61c-.84.49-1.52.1-1.52-.87a3.32,3.32,0,0,1,1.52-2.61C248,171.26,248.7,171.65,248.7,172.62Z"/><path class="cls-3" d="M253.56,169.81a3.36,3.36,0,0,1-1.51,2.62c-.84.48-1.52.09-1.52-.87a3.33,3.33,0,0,1,1.52-2.62C252.88,168.46,253.56,168.85,253.56,169.81Z"/><path class="cls-4" d="M257.59,151.26h0V138.35l-28.93,0-10-5.77c-2.29-1.32-6.3-1.16-9,.37l-9.33,5.39-29,0v13.27A2.57,2.57,0,0,0,173,154l37.39,21.6c2.3,1.32,6.31,1.15,9-.38l36.11-20.84C256.94,153.46,257.68,152.32,257.59,151.26Z"/><path class="cls-2" d="M214.5,131.67a10.39,10.39,0,0,0-4.8,1.26l-9.33,5.39-29,0v13.27A2.57,2.57,0,0,0,173,154l37.39,21.6a8.19,8.19,0,0,0,4.16.88Z"/><path class="cls-12" d="M174.68,138.3h-3.27v13.27A2.57,2.57,0,0,0,173,154l1.73,1Z"/><path class="cls-12" d="M210.92,175.85a10.21,10.21,0,0,0,7.16-.08V160.7h-7.16Z"/><path class="cls-3" d="M210.34,162.34,173,140.75c-2.3-1.33-2-3.64.64-5.17l36.11-20.85c2.65-1.53,6.66-1.7,9-.37L256.05,136c2.3,1.33,2,3.64-.64,5.17L219.3,162C216.65,163.5,212.64,163.67,210.34,162.34Z"/><path class="cls-7" d="M255.41,138.58,219.3,159.43c-2.65,1.53-6.66,1.7-9,.37L173,138.21a3.31,3.31,0,0,1-1.15-1c-.79,1.27-.43,2.65,1.15,3.56l37.39,21.59c2.3,1.33,6.31,1.16,9-.37l36.11-20.85c2.06-1.19,2.69-2.85,1.79-4.15A5,5,0,0,1,255.41,138.58Z"/><path class="cls-3" d="M243.84,154.66a3.36,3.36,0,0,1-1.51,2.62c-.84.48-1.52.09-1.52-.88a3.32,3.32,0,0,1,1.52-2.61C243.16,153.31,243.84,153.7,243.84,154.66Z"/><path class="cls-3" d="M229,162.84a3.32,3.32,0,0,1-1.51,2.62c-.83.48-1.51.09-1.51-.87a3.34,3.34,0,0,1,1.51-2.62C228.28,161.49,229,161.88,229,162.84Z"/><path class="cls-7" d="M229,184.24a3.33,3.33,0,0,1-1.51,2.62c-.83.48-1.51.09-1.51-.88a3.34,3.34,0,0,1,1.51-2.61C228.28,182.89,229,183.28,229,184.24Z"/><path class="cls-3" d="M248.7,151.85a3.34,3.34,0,0,1-1.51,2.62c-.84.48-1.52.09-1.52-.87a3.34,3.34,0,0,1,1.52-2.62C248,150.5,248.7,150.89,248.7,151.85Z"/><path class="cls-3" d="M253.56,149.05a3.37,3.37,0,0,1-1.51,2.62c-.84.48-1.52.09-1.52-.88a3.32,3.32,0,0,1,1.52-2.61C252.88,147.69,253.56,148.09,253.56,149.05Z"/><path class="cls-2" d="M212.56,149l-17.51-10.11c-1.07-.62-.93-1.7.31-2.42l16.89-9.75a4.65,4.65,0,0,1,4.19-.18L234,136.61c1.07.62.93,1.7-.31,2.42l-16.89,9.75A4.65,4.65,0,0,1,212.56,149Z"/><path class="cls-3" d="M214.23,140.5l-2.42-1.4c-.15-.09-.13-.24,0-.34l2.34-1.35a.63.63,0,0,1,.58,0l2.42,1.4c.15.08.13.23,0,.33l-2.34,1.35A.66.66,0,0,1,214.23,140.5Z"/><path class="cls-4" d="M195.05,138.85l0,0a2.33,2.33,0,0,1,.26-.17L212.25,129a4.64,4.64,0,0,1,4.19-.17l17.46,10.07c1-.71,1-1.67,0-2.24L216.44,126.5a4.65,4.65,0,0,0-4.19.18l-16.89,9.75C194.12,137.15,194,138.23,195.05,138.85Z"/><path class="cls-3" d="M208.89,165.4c0,1-.71,1.43-1.59.92a3.52,3.52,0,0,1-1.59-2.76c0-1,.71-1.42,1.59-.91A3.5,3.5,0,0,1,208.89,165.4Z"/><path class="cls-12" d="M204,162.57c0,1-.71,1.43-1.59.92a3.52,3.52,0,0,1-1.59-2.76c0-1,.71-1.42,1.59-.92A3.53,3.53,0,0,1,204,162.57Z"/><path class="cls-9" d="M208.89,171.36c0,1-.71,1.43-1.59.92a3.52,3.52,0,0,1-1.59-2.76c0-1,.71-1.42,1.59-.92A3.53,3.53,0,0,1,208.89,171.36Z"/><path class="cls-3" d="M204,168.53c0,1-.71,1.43-1.59.92a3.52,3.52,0,0,1-1.59-2.76c0-1,.71-1.42,1.59-.92A3.52,3.52,0,0,1,204,168.53Z"/><path class="cls-3" d="M208.89,185.89c0,1-.71,1.42-1.59.92a3.53,3.53,0,0,1-1.59-2.76c0-1,.71-1.43,1.59-.92A3.52,3.52,0,0,1,208.89,185.89Z"/><path class="cls-3" d="M204,183.06c0,1-.71,1.42-1.59.91a3.5,3.5,0,0,1-1.59-2.75c0-1,.71-1.43,1.59-.92A3.52,3.52,0,0,1,204,183.06Z"/><path class="cls-12" d="M208.89,191.85c0,1-.71,1.42-1.59.92a3.53,3.53,0,0,1-1.59-2.76c0-1,.71-1.43,1.59-.92A3.52,3.52,0,0,1,208.89,191.85Z"/><path class="cls-3" d="M204,189c0,1-.71,1.43-1.59.92a3.5,3.5,0,0,1-1.59-2.75c0-1,.71-1.43,1.59-.92A3.5,3.5,0,0,1,204,189Z"/><path class="cls-3" d="M208.89,206.4c0,1-.71,1.42-1.59.92a3.53,3.53,0,0,1-1.59-2.76c0-1,.71-1.43,1.59-.92A3.52,3.52,0,0,1,208.89,206.4Z"/><path class="cls-12" d="M204,203.56c0,1-.71,1.43-1.59.92a3.5,3.5,0,0,1-1.59-2.75c0-1,.71-1.43,1.59-.92A3.51,3.51,0,0,1,204,203.56Z"/><path class="cls-3" d="M208.89,212.36c0,1-.71,1.42-1.59.91a3.5,3.5,0,0,1-1.59-2.75c0-1,.71-1.43,1.59-.92A3.52,3.52,0,0,1,208.89,212.36Z"/><path class="cls-9" d="M204,209.52c0,1-.71,1.43-1.59.92a3.5,3.5,0,0,1-1.59-2.75c0-1,.71-1.43,1.59-.92A3.5,3.5,0,0,1,204,209.52Z"/><path class="cls-9" d="M208.89,227.11c0,1-.71,1.42-1.59.92a3.53,3.53,0,0,1-1.59-2.76c0-1,.71-1.43,1.59-.92A3.52,3.52,0,0,1,208.89,227.11Z"/><path class="cls-3" d="M204,224.27c0,1-.71,1.43-1.59.92a3.5,3.5,0,0,1-1.59-2.75c0-1,.71-1.43,1.59-.92A3.5,3.5,0,0,1,204,224.27Z"/><path class="cls-9" d="M208.89,233.07c0,1-.71,1.42-1.59.91a3.5,3.5,0,0,1-1.59-2.75c0-1,.71-1.43,1.59-.92A3.52,3.52,0,0,1,208.89,233.07Z"/><path class="cls-12" d="M204,230.23c0,1-.71,1.43-1.59.92a3.51,3.51,0,0,1-1.59-2.75c0-1,.71-1.43,1.59-.92A3.5,3.5,0,0,1,204,230.23Z"/><path class="cls-9" d="M208.89,247.62c0,1-.71,1.42-1.59.91a3.5,3.5,0,0,1-1.59-2.75c0-1,.71-1.43,1.59-.92A3.52,3.52,0,0,1,208.89,247.62Z"/><path class="cls-3" d="M204,244.78c0,1-.71,1.43-1.59.92a3.51,3.51,0,0,1-1.59-2.75c0-1,.71-1.43,1.59-.92A3.5,3.5,0,0,1,204,244.78Z"/><path class="cls-12" d="M208.89,253.57c0,1-.71,1.43-1.59.92a3.5,3.5,0,0,1-1.59-2.75c0-1,.71-1.43,1.59-.92A3.51,3.51,0,0,1,208.89,253.57Z"/><path class="cls-9" d="M204,250.74c0,1-.71,1.43-1.59.92a3.52,3.52,0,0,1-1.59-2.76c0-1,.71-1.42,1.59-.91A3.5,3.5,0,0,1,204,250.74Z"/><path class="cls-3" d="M208.89,268.38c0,1-.71,1.43-1.59.92a3.52,3.52,0,0,1-1.59-2.76c0-1,.71-1.42,1.59-.92A3.53,3.53,0,0,1,208.89,268.38Z"/><path class="cls-12" d="M204,265.55c0,1-.71,1.42-1.59.92a3.52,3.52,0,0,1-1.59-2.76c0-1,.71-1.43,1.59-.92A3.52,3.52,0,0,1,204,265.55Z"/><path class="cls-3" d="M208.89,274.34c0,1-.71,1.43-1.59.92a3.52,3.52,0,0,1-1.59-2.76c0-1,.71-1.43,1.59-.92A3.52,3.52,0,0,1,208.89,274.34Z"/><path class="cls-9" d="M204,271.51c0,1-.71,1.42-1.59.92a3.53,3.53,0,0,1-1.59-2.76c0-1,.71-1.43,1.59-.92A3.52,3.52,0,0,1,204,271.51Z"/><rect class="cls-12" x="388.83" y="172.64" width="5.81" height="12.54" transform="translate(777.97 -11.59) rotate(129.2)"/><path class="cls-12" d="M396.22,185.22a4.58,4.58,0,0,0,2.6-3.19c.21-1.29-.62-2-1.84-1.5a4.54,4.54,0,0,0-2.6,3.19C394.17,185,395,185.68,396.22,185.22Z"/><rect class="cls-12" x="378.9" y="165.88" width="9.42" height="12.81" transform="translate(759.57 -16.11) rotate(129.2)"/><path class="cls-4" d="M390.31,174l3.29,2.68a7.48,7.48,0,0,1-3.67,4.5l-3.29-2.68A7.51,7.51,0,0,1,390.31,174Z"/><path class="cls-12" d="M388,180.13a7.37,7.37,0,0,0,4.21-5.16c.34-2.1-1-3.19-3-2.44A7.39,7.39,0,0,0,385,177.7C384.64,179.79,386,180.88,388,180.13Z"/><path class="cls-12" d="M378,172a7.39,7.39,0,0,0,4.21-5.17c.34-2.09-1-3.18-3-2.43a7.37,7.37,0,0,0-4.21,5.17C374.71,171.69,376,172.78,378,172Z"/><path class="cls-3" d="M378.3,170.38a4.21,4.21,0,0,0,2.38-2.92c.19-1.19-.57-1.8-1.69-1.38a4.18,4.18,0,0,0-2.38,2.92C376.42,170.19,377.17,170.8,378.3,170.38Z"/><path class="cls-3" d="M396.25,181.53c.47.39.94.21,1-.4a2.12,2.12,0,0,0-.69-1.8c-.47-.39-.94-.21-1,.4A2.12,2.12,0,0,0,396.25,181.53Z"/><path class="cls-12" d="M297.37,280.46A9.86,9.86,0,0,1,292.3,279L285.42,275a.77.77,0,0,1,.79-1.33l6.88,4.07A8.28,8.28,0,0,0,305.63,270l-.15-2.08c-2.42-34-6.91-97.15,19.73-104a206.84,206.84,0,0,0,20-6.23c13.67-4.9,14.6-4.63,33.45,9.6a.78.78,0,0,1-.93,1.25c-18.72-14.14-19-14.05-32-9.39a209.67,209.67,0,0,1-20.18,6.28C300.21,172,304.64,234.32,307,267.82l.14,2.08a9.67,9.67,0,0,1-4.66,9.08A9.79,9.79,0,0,1,297.37,280.46Z"/><ellipse class="cls-1" cx="349.62" cy="278.51" rx="25.2" ry="14.55"/><path class="cls-2" d="M361.64,272.27a3.91,3.91,0,0,1,2.2,3.89,7,7,0,0,1-.32,1.9,3.21,3.21,0,0,1-4.3,1.32c-2.36-.93-7.61-5.86-7.8-9.09C351.05,264.29,357.9,270.68,361.64,272.27Z"/><path class="cls-2" d="M347.76,282.19s.57,3.45.29,4.09A4.46,4.46,0,0,1,343.7,288c-2.43-.29-9.41-2.7-11-7.31-2.41-7.14,13.49.54,13.49.54Z"/><path class="cls-3" d="M340.93,226.94l-.54,53.95a3.78,3.78,0,0,0,2.94,3.74l.66.08a3.35,3.35,0,0,0,3.2-1.32,3.94,3.94,0,0,0,.72-2.18l.69-23L352,237.59,356.8,274a3.14,3.14,0,0,0,1.3,2.4,3.63,3.63,0,0,0,2.17.59,4,4,0,0,0,2.89-1.42,2.94,2.94,0,0,0,.69-2L362,251.72l-.7-28Z"/><path class="cls-6" d="M347.92,178.65l.85,4.91a2.26,2.26,0,0,1-1.84,2.15c-1.87.46-2.45-.75-2.45-.75l-.85-5.53Z"/><path class="cls-6" d="M337.92,178.8c3.13,3.11,7.91,3.37,10.68.58s2.47-7.59-.66-10.71-7.91-3.37-10.68-.58S334.79,175.68,337.92,178.8Z"/><path class="cls-12" d="M347.7,183.65c.13-.05,7.94-5.08,10.83.19,4.71,8.58,4.43,36.23,3,39.81-1.38,3.31-4.82,5.75-7.23,7.13a14.46,14.46,0,0,1-7,2c-2.44,0-7.12-2.15-6.95-5.34.78-14.69-.52-27.06-1.72-39.08C338.57,188.35,340.07,186.74,347.7,183.65Z"/><path class="cls-4" d="M352,237.59,356.8,274a3.14,3.14,0,0,0,1.3,2.4l.41.23c-1-.74-3.87-31.33-4.4-34.73S352,237.59,352,237.59Z"/><polygon class="cls-6" points="322.7 185.28 318.45 171.37 320.7 170.44 325.7 181.34 322.7 185.28"/><polygon class="cls-6" points="365.51 174.31 362.33 159.83 359.8 159.86 360.75 171.87 365.51 174.31"/><path class="cls-12" d="M338.57,188.35s-7.63,1.53-12.48-7.36a1.2,1.2,0,0,0-2-.21c-.78,1.19-1.81,3-1.28,5,2.36,8.69,15.19,10.61,17.5,15.64S338.57,188.35,338.57,188.35Z"/><path class="cls-12" d="M352.65,181.85s6.05.46,6.92-4.77a39.89,39.89,0,0,0,.6-5.23,1.06,1.06,0,0,1,1.19-1c1.45.18,3.69.61,4,1.58.45,1.45,1.31,8.55-4.66,19.45C356.78,199,352.65,181.85,352.65,181.85Z"/><path class="cls-6" d="M362.34,159.87l0-1.66a3.28,3.28,0,0,0-.5-1.64l-1.67-2.75-.44-.55A1.26,1.26,0,0,0,358,153l-.39.24a1.57,1.57,0,0,0-.73,1.44l.86,2.35-1.09-.21a.4.4,0,0,0-.46.31h0a.4.4,0,0,0,.24.43l1.79.72,1.62,2.3Z"/><path class="cls-6" d="M318.39,171.44l-.5-1.57a3.47,3.47,0,0,1-.1-1.72l.64-3.16.23-.66a1.26,1.26,0,0,1,1.47-.84l.45.1a1.57,1.57,0,0,1,1.18,1.1l0,2.51,1-.58a.4.4,0,0,1,.54.14h0a.4.4,0,0,1-.08.49l-1.44,1.28-.84,3.05Z"/><path class="cls-4" d="M342.15,198.88c.69,3.17-1.26,27.8,5.09,33.89-2.44,0-7.12-2.15-6.95-5.34a195.76,195.76,0,0,0-.59-27c-2.49-3.22-9.34-5.28-13.63-9.42C326.38,191.1,341.46,195.74,342.15,198.88Z"/><path class="cls-7" d="M350.51,182.27l-1.09-1.12a8.84,8.84,0,0,1-3.22,2.14,16.35,16.35,0,0,1-2.57.53l-.7,1.93S348.62,185.34,350.51,182.27Z"/><path class="cls-2" d="M342.5,176.55a.92.92,0,0,1-.84,0c-.46-.24-1.21-2.08-2.17-1.94-1.51.21-3.68,3.36-6.39-1-1.41-2.29-.58-3.52-1.27-4.82,0,0,.24.7,6.14-2.9s10.72.79,12.22,3.3,2.46,7.41-1.41,10.18c-.64.46-4.77-.36-4.86-.71s1-.9.4-1.71A1.3,1.3,0,0,0,342.5,176.55Z"/></svg>